G04 #@! TF.FileFunction,Copper,L2,Bot,Signal*
%FSLAX46Y46*%
G04 Gerber Fmt 4.6, Leading zero omitted, Abs format (unit mm)*
G04 Created by KiCad (PCBNEW 4.0.7) date 04/25/20 16:53:01*
%MOMM*%
%LPD*%
G01*
G04 APERTURE LIST*
%ADD10C,0.100000*%
%ADD11C,0.300000*%
%ADD12C,0.150000*%
%ADD13C,2.340000*%
%ADD14C,1.600000*%
%ADD15O,1.600000X1.600000*%
%ADD16C,6.400000*%
%ADD17C,0.800000*%
%ADD18R,1.600000X1.600000*%
%ADD19R,2.400000X2.400000*%
%ADD20C,2.400000*%
%ADD21O,4.000000X2.500000*%
%ADD22R,2.500000X2.500000*%
%ADD23C,2.500000*%
%ADD24R,1.800000X1.800000*%
%ADD25O,1.800000X1.800000*%
%ADD26R,2.500000X4.500000*%
%ADD27O,2.500000X4.500000*%
%ADD28O,2.400000X2.400000*%
%ADD29O,1.500000X0.900000*%
%ADD30R,1.500000X0.900000*%
%ADD31O,0.900000X1.500000*%
%ADD32R,0.900000X1.500000*%
%ADD33C,1.000000*%
%ADD34C,0.700000*%
%ADD35C,1.500000*%
G04 APERTURE END LIST*
D10*
D11*
X173775428Y-120820571D02*
X174275428Y-120106286D01*
X174632571Y-120820571D02*
X174632571Y-119320571D01*
X174061143Y-119320571D01*
X173918285Y-119392000D01*
X173846857Y-119463429D01*
X173775428Y-119606286D01*
X173775428Y-119820571D01*
X173846857Y-119963429D01*
X173918285Y-120034857D01*
X174061143Y-120106286D01*
X174632571Y-120106286D01*
X173132571Y-120677714D02*
X173061143Y-120749143D01*
X173132571Y-120820571D01*
X173204000Y-120749143D01*
X173132571Y-120677714D01*
X173132571Y-120820571D01*
X172489714Y-120749143D02*
X172275428Y-120820571D01*
X171918285Y-120820571D01*
X171775428Y-120749143D01*
X171703999Y-120677714D01*
X171632571Y-120534857D01*
X171632571Y-120392000D01*
X171703999Y-120249143D01*
X171775428Y-120177714D01*
X171918285Y-120106286D01*
X172203999Y-120034857D01*
X172346857Y-119963429D01*
X172418285Y-119892000D01*
X172489714Y-119749143D01*
X172489714Y-119606286D01*
X172418285Y-119463429D01*
X172346857Y-119392000D01*
X172203999Y-119320571D01*
X171846857Y-119320571D01*
X171632571Y-119392000D01*
X170989714Y-120677714D02*
X170918286Y-120749143D01*
X170989714Y-120820571D01*
X171061143Y-120749143D01*
X170989714Y-120677714D01*
X170989714Y-120820571D01*
X169418285Y-120820571D02*
X169918285Y-120106286D01*
X170275428Y-120820571D02*
X170275428Y-119320571D01*
X169704000Y-119320571D01*
X169561142Y-119392000D01*
X169489714Y-119463429D01*
X169418285Y-119606286D01*
X169418285Y-119820571D01*
X169489714Y-119963429D01*
X169561142Y-120034857D01*
X169704000Y-120106286D01*
X170275428Y-120106286D01*
X168775428Y-120677714D02*
X168704000Y-120749143D01*
X168775428Y-120820571D01*
X168846857Y-120749143D01*
X168775428Y-120677714D01*
X168775428Y-120820571D01*
X122229143Y-119574571D02*
X122229143Y-120646000D01*
X122300571Y-120860286D01*
X122443428Y-121003143D01*
X122657714Y-121074571D01*
X122800571Y-121074571D01*
X121514857Y-120931714D02*
X121443429Y-121003143D01*
X121514857Y-121074571D01*
X121586286Y-121003143D01*
X121514857Y-120931714D01*
X121514857Y-121074571D01*
X120300571Y-120288857D02*
X120800571Y-120288857D01*
X120800571Y-121074571D02*
X120800571Y-119574571D01*
X120086285Y-119574571D01*
X119514857Y-120931714D02*
X119443429Y-121003143D01*
X119514857Y-121074571D01*
X119586286Y-121003143D01*
X119514857Y-120931714D01*
X119514857Y-121074571D01*
X118014857Y-119646000D02*
X118157714Y-119574571D01*
X118372000Y-119574571D01*
X118586285Y-119646000D01*
X118729143Y-119788857D01*
X118800571Y-119931714D01*
X118872000Y-120217429D01*
X118872000Y-120431714D01*
X118800571Y-120717429D01*
X118729143Y-120860286D01*
X118586285Y-121003143D01*
X118372000Y-121074571D01*
X118229143Y-121074571D01*
X118014857Y-121003143D01*
X117943428Y-120931714D01*
X117943428Y-120431714D01*
X118229143Y-120431714D01*
X117300571Y-120931714D02*
X117229143Y-121003143D01*
X117300571Y-121074571D01*
X117372000Y-121003143D01*
X117300571Y-120931714D01*
X117300571Y-121074571D01*
X116586285Y-121074571D02*
X116586285Y-119574571D01*
X116229142Y-119574571D01*
X116014857Y-119646000D01*
X115871999Y-119788857D01*
X115800571Y-119931714D01*
X115729142Y-120217429D01*
X115729142Y-120431714D01*
X115800571Y-120717429D01*
X115871999Y-120860286D01*
X116014857Y-121003143D01*
X116229142Y-121074571D01*
X116586285Y-121074571D01*
X115086285Y-120931714D02*
X115014857Y-121003143D01*
X115086285Y-121074571D01*
X115157714Y-121003143D01*
X115086285Y-120931714D01*
X115086285Y-121074571D01*
D12*
X110000000Y-50000000D02*
X110000000Y-130000000D01*
X180000000Y-50000000D02*
X110000000Y-50000000D01*
X180000000Y-130000000D02*
X180000000Y-50000000D01*
X110000000Y-130000000D02*
X180000000Y-130000000D01*
D13*
X140500000Y-72500000D03*
X143000000Y-62500000D03*
X145500000Y-72500000D03*
D14*
X114808000Y-78994000D03*
D15*
X124968000Y-78994000D03*
D16*
X176000000Y-54000000D03*
D17*
X178400000Y-54000000D03*
X177697056Y-55697056D03*
X176000000Y-56400000D03*
X174302944Y-55697056D03*
X173600000Y-54000000D03*
X174302944Y-52302944D03*
X176000000Y-51600000D03*
X177697056Y-52302944D03*
D16*
X176000000Y-126000000D03*
D17*
X178400000Y-126000000D03*
X177697056Y-127697056D03*
X176000000Y-128400000D03*
X174302944Y-127697056D03*
X173600000Y-126000000D03*
X174302944Y-124302944D03*
X176000000Y-123600000D03*
X177697056Y-124302944D03*
D16*
X114000000Y-126000000D03*
D17*
X116400000Y-126000000D03*
X115697056Y-127697056D03*
X114000000Y-128400000D03*
X112302944Y-127697056D03*
X111600000Y-126000000D03*
X112302944Y-124302944D03*
X114000000Y-123600000D03*
X115697056Y-124302944D03*
D16*
X114000000Y-54000000D03*
D17*
X116400000Y-54000000D03*
X115697056Y-55697056D03*
X114000000Y-56400000D03*
X112302944Y-55697056D03*
X111600000Y-54000000D03*
X112302944Y-52302944D03*
X114000000Y-51600000D03*
X115697056Y-52302944D03*
D18*
X171500000Y-94400000D03*
D14*
X175300000Y-94400000D03*
X154500000Y-103300000D03*
X154500000Y-108300000D03*
X148000000Y-101600000D03*
X143000000Y-101600000D03*
X157500000Y-83000000D03*
X157500000Y-88000000D03*
X153924000Y-66294000D03*
X153924000Y-61294000D03*
X169000000Y-83500000D03*
X174000000Y-83500000D03*
D18*
X148100000Y-95500000D03*
D14*
X151900000Y-95500000D03*
D19*
X127300000Y-115400000D03*
D20*
X127300000Y-122900000D03*
D19*
X163300000Y-123400000D03*
D20*
X163300000Y-115900000D03*
D18*
X115500000Y-97625000D03*
D15*
X115500000Y-107785000D03*
D18*
X119600000Y-97600000D03*
D15*
X119600000Y-107760000D03*
D21*
X132500000Y-79500000D03*
X154500000Y-79500000D03*
D22*
X173600000Y-102100000D03*
D23*
X173600000Y-107100000D03*
D22*
X172500000Y-73500000D03*
D23*
X172500000Y-78500000D03*
X150300000Y-124200000D03*
D22*
X140300000Y-124200000D03*
D23*
X145300000Y-124200000D03*
D24*
X121412000Y-73406000D03*
D25*
X118872000Y-73406000D03*
X116332000Y-73406000D03*
D24*
X141500000Y-54000000D03*
D25*
X144040000Y-54000000D03*
X146580000Y-54000000D03*
D24*
X119500000Y-63500000D03*
D25*
X119500000Y-66040000D03*
X119500000Y-68580000D03*
D24*
X158496000Y-61976000D03*
D25*
X158496000Y-64516000D03*
X158496000Y-67056000D03*
D26*
X121500000Y-54500000D03*
D27*
X126950000Y-54500000D03*
X132400000Y-54500000D03*
D26*
X155500000Y-54500000D03*
D27*
X160950000Y-54500000D03*
X166400000Y-54500000D03*
D14*
X166900000Y-98800000D03*
D15*
X166900000Y-108960000D03*
D14*
X157700000Y-95800000D03*
D15*
X167860000Y-95800000D03*
D14*
X158200000Y-98700000D03*
D15*
X158200000Y-108860000D03*
D14*
X148100000Y-111200000D03*
D15*
X137940000Y-111200000D03*
D14*
X132600000Y-107400000D03*
D15*
X122440000Y-107400000D03*
D14*
X140200000Y-101600000D03*
D15*
X130040000Y-101600000D03*
D14*
X115600000Y-93200000D03*
D15*
X125760000Y-93200000D03*
D14*
X140300000Y-85900000D03*
D15*
X140300000Y-96060000D03*
D14*
X127600000Y-79000000D03*
D15*
X127600000Y-89160000D03*
D14*
X139000000Y-58500000D03*
D15*
X149160000Y-58500000D03*
D14*
X150368000Y-61976000D03*
D15*
X150368000Y-72136000D03*
D14*
X161000000Y-81000000D03*
D15*
X161000000Y-91160000D03*
D14*
X125000000Y-59500000D03*
D15*
X125000000Y-69660000D03*
D14*
X164000000Y-69500000D03*
D15*
X164000000Y-59340000D03*
D20*
X133000000Y-61500000D03*
D28*
X133000000Y-69120000D03*
D20*
X170000000Y-61500000D03*
D28*
X170000000Y-69120000D03*
D14*
X133200000Y-96200000D03*
D15*
X133200000Y-86040000D03*
D14*
X136600000Y-96200000D03*
D15*
X136600000Y-86040000D03*
D20*
X165000000Y-75500000D03*
D28*
X165000000Y-90740000D03*
D14*
X143600000Y-97500000D03*
D15*
X143600000Y-87340000D03*
D29*
X145000000Y-106430000D03*
X145000000Y-105160000D03*
D30*
X145000000Y-107700000D03*
D29*
X125222000Y-102616000D03*
X125222000Y-101346000D03*
D30*
X125222000Y-103886000D03*
D29*
X137800000Y-106330000D03*
X137800000Y-105060000D03*
D30*
X137800000Y-107600000D03*
D31*
X150622000Y-88392000D03*
X151892000Y-88392000D03*
D32*
X149352000Y-88392000D03*
D31*
X119270000Y-84500000D03*
X120540000Y-84500000D03*
D32*
X118000000Y-84500000D03*
D14*
X161000000Y-70000000D03*
X161000000Y-78000000D03*
X138500000Y-114100000D03*
X147400000Y-114000000D03*
D33*
X167860000Y-95800000D02*
X170100000Y-95800000D01*
X170100000Y-95800000D02*
X171500000Y-94400000D01*
X166900000Y-98800000D02*
X170900000Y-98800000D01*
X170900000Y-98800000D02*
X175300000Y-94400000D01*
D34*
X154500000Y-103300000D02*
X149700000Y-103300000D01*
X149700000Y-103300000D02*
X148000000Y-101600000D01*
D33*
X154500000Y-103300000D02*
X156400000Y-103300000D01*
X158200000Y-101500000D02*
X158200000Y-98700000D01*
X156400000Y-103300000D02*
X158200000Y-101500000D01*
D34*
X148000000Y-101600000D02*
X148000000Y-102160000D01*
X148000000Y-102160000D02*
X145000000Y-105160000D01*
D33*
X158200000Y-98700000D02*
X158200000Y-96300000D01*
X158200000Y-96300000D02*
X157700000Y-95800000D01*
X157500000Y-88000000D02*
X160100000Y-88000000D01*
X161000000Y-88900000D02*
X161000000Y-91160000D01*
X160100000Y-88000000D02*
X161000000Y-88900000D01*
D34*
X143600000Y-111000000D02*
X143600000Y-112900000D01*
X133200000Y-93200000D02*
X135600000Y-90800000D01*
X135600000Y-90800000D02*
X142100000Y-90800000D01*
X142100000Y-90800000D02*
X145700000Y-94400000D01*
X145700000Y-94400000D02*
X145700000Y-101600000D01*
X145700000Y-101600000D02*
X142700000Y-104600000D01*
X142700000Y-104600000D02*
X142700000Y-109300000D01*
X142700000Y-109300000D02*
X143600000Y-110200000D01*
X143600000Y-110200000D02*
X143600000Y-111000000D01*
X125760000Y-93200000D02*
X133200000Y-93200000D01*
X143600000Y-112900000D02*
X147650000Y-116950000D01*
D35*
X161000000Y-91160000D02*
X161000000Y-91500000D01*
X161000000Y-91500000D02*
X164750000Y-95250000D01*
D34*
X127600000Y-89160000D02*
X127600000Y-91360000D01*
X127600000Y-91360000D02*
X125760000Y-93200000D01*
D35*
X161000000Y-91160000D02*
X157240000Y-91160000D01*
X157240000Y-91160000D02*
X152900000Y-95500000D01*
X152900000Y-95500000D02*
X151900000Y-95500000D01*
X161000000Y-91160000D02*
X160660000Y-91160000D01*
D33*
X154500000Y-108300000D02*
X157640000Y-108300000D01*
X157640000Y-108300000D02*
X158200000Y-108860000D01*
X173600000Y-107100000D02*
X173600000Y-107300000D01*
X173600000Y-107300000D02*
X169400000Y-111500000D01*
X169400000Y-111500000D02*
X160700000Y-111500000D01*
X158200000Y-108860000D02*
X158200000Y-109000000D01*
X158200000Y-109000000D02*
X160700000Y-111500000D01*
D35*
X172500000Y-78500000D02*
X172500000Y-82000000D01*
X172500000Y-82000000D02*
X174000000Y-83500000D01*
D33*
X157500000Y-88000000D02*
X157840000Y-88000000D01*
D35*
X145300000Y-124200000D02*
X145300000Y-119300000D01*
X145300000Y-119300000D02*
X147650000Y-116950000D01*
X153100000Y-111500000D02*
X160700000Y-111500000D01*
X147650000Y-116950000D02*
X153100000Y-111500000D01*
X174000000Y-86000000D02*
X174000000Y-83500000D01*
X163300000Y-96700000D02*
X163500000Y-96500000D01*
X163500000Y-96500000D02*
X164750000Y-95250000D01*
X164750000Y-95250000D02*
X174000000Y-86000000D01*
X163300000Y-108900000D02*
X163300000Y-96700000D01*
X160700000Y-111500000D02*
X163300000Y-108900000D01*
D33*
X173600000Y-107100000D02*
X173600000Y-107600000D01*
D35*
X163300000Y-123400000D02*
X163100000Y-123400000D01*
D34*
X140200000Y-101600000D02*
X143000000Y-101600000D01*
D33*
X158496000Y-67056000D02*
X154686000Y-67056000D01*
X154686000Y-67056000D02*
X153924000Y-66294000D01*
X143000000Y-62500000D02*
X144034000Y-62500000D01*
X144034000Y-62500000D02*
X147828000Y-66294000D01*
X147828000Y-66294000D02*
X153924000Y-66294000D01*
D34*
X150570000Y-88700000D02*
X150570000Y-86730000D01*
X154300000Y-83000000D02*
X157500000Y-83000000D01*
X150570000Y-86730000D02*
X154300000Y-83000000D01*
D33*
X161000000Y-81000000D02*
X161000000Y-78000000D01*
X160080000Y-67080000D02*
X159000000Y-67080000D01*
X161000000Y-68000000D02*
X160080000Y-67080000D01*
X161000000Y-70000000D02*
X161000000Y-68000000D01*
X157500000Y-83000000D02*
X159000000Y-83000000D01*
X159000000Y-83000000D02*
X161000000Y-81000000D01*
X143000000Y-62500000D02*
X143000000Y-63500000D01*
X143000000Y-63500000D02*
X140500000Y-66000000D01*
X140500000Y-66000000D02*
X140500000Y-72500000D01*
X141500000Y-54000000D02*
X141500000Y-56000000D01*
X141500000Y-56000000D02*
X143000000Y-57500000D01*
X143000000Y-57500000D02*
X143000000Y-62500000D01*
X153924000Y-61294000D02*
X153924000Y-60198000D01*
X160950000Y-51984000D02*
X160950000Y-54500000D01*
X160020000Y-51054000D02*
X160950000Y-51984000D01*
X152146000Y-51054000D02*
X160020000Y-51054000D01*
X151384000Y-51816000D02*
X152146000Y-51054000D01*
X151384000Y-57658000D02*
X151384000Y-51816000D01*
X153924000Y-60198000D02*
X151384000Y-57658000D01*
D34*
X140300000Y-96060000D02*
X140240000Y-96060000D01*
X140240000Y-96060000D02*
X138162000Y-98138000D01*
X138162000Y-98138000D02*
X138162000Y-102062000D01*
X138162000Y-102062000D02*
X140700000Y-104600000D01*
X140700000Y-104600000D02*
X140700000Y-108000000D01*
X137940000Y-111200000D02*
X137940000Y-111240000D01*
X137940000Y-111240000D02*
X142800000Y-116100000D01*
X159800000Y-119400000D02*
X163300000Y-115900000D01*
X159800000Y-120800000D02*
X159800000Y-119400000D01*
X152000000Y-128600000D02*
X159800000Y-120800000D01*
X144600000Y-128600000D02*
X152000000Y-128600000D01*
X142800000Y-126800000D02*
X144600000Y-128600000D01*
X142800000Y-116100000D02*
X142800000Y-126800000D01*
X137800000Y-106330000D02*
X139030000Y-106330000D01*
X139800000Y-111200000D02*
X137940000Y-111200000D01*
X140700000Y-110300000D02*
X139800000Y-111200000D01*
X140700000Y-108000000D02*
X140700000Y-110300000D01*
X139030000Y-106330000D02*
X140700000Y-108000000D01*
X150300000Y-124200000D02*
X150300000Y-124900000D01*
D35*
X163300000Y-115900000D02*
X173730000Y-115900000D01*
X173730000Y-115900000D02*
X178000000Y-111630000D01*
X178000000Y-111630000D02*
X178000000Y-65500000D01*
X150300000Y-124200000D02*
X150300000Y-120300000D01*
X150300000Y-120300000D02*
X154700000Y-115900000D01*
X154700000Y-115900000D02*
X163300000Y-115900000D01*
D33*
X178000000Y-65500000D02*
X161500000Y-65500000D01*
X161500000Y-65500000D02*
X160540000Y-64540000D01*
X160540000Y-64540000D02*
X159000000Y-64540000D01*
D35*
X160950000Y-54050000D02*
X164000000Y-51000000D01*
X178000000Y-60000000D02*
X178000000Y-65500000D01*
X177000000Y-59000000D02*
X178000000Y-60000000D01*
X174000000Y-59000000D02*
X177000000Y-59000000D01*
X171000000Y-56000000D02*
X174000000Y-59000000D01*
X171000000Y-53000000D02*
X171000000Y-56000000D01*
X169000000Y-51000000D02*
X171000000Y-53000000D01*
X164000000Y-51000000D02*
X169000000Y-51000000D01*
D33*
X165000000Y-90740000D02*
X165000000Y-87500000D01*
X165000000Y-87500000D02*
X169000000Y-83500000D01*
D34*
X148100000Y-95500000D02*
X148100000Y-94200000D01*
X143600000Y-89700000D02*
X143600000Y-87340000D01*
X148100000Y-94200000D02*
X143600000Y-89700000D01*
X114808000Y-78994000D02*
X112500000Y-78994000D01*
X112500000Y-78994000D02*
X112522000Y-78994000D01*
X112522000Y-78994000D02*
X112500000Y-78994000D01*
D33*
X132600000Y-107400000D02*
X126500000Y-107400000D01*
X118740000Y-110400000D02*
X116100000Y-107760000D01*
X123500000Y-110400000D02*
X118740000Y-110400000D01*
X126500000Y-107400000D02*
X123500000Y-110400000D01*
X116100000Y-107760000D02*
X113140000Y-107760000D01*
X113140000Y-107760000D02*
X112500000Y-108400000D01*
D35*
X127300000Y-115400000D02*
X118386000Y-115400000D01*
X112500000Y-109514000D02*
X112500000Y-108400000D01*
X112500000Y-108400000D02*
X112500000Y-99160000D01*
X118386000Y-115400000D02*
X112500000Y-109514000D01*
X140300000Y-124200000D02*
X140300000Y-120000000D01*
X135700000Y-115400000D02*
X127300000Y-115400000D01*
X140300000Y-120000000D02*
X135700000Y-115400000D01*
D34*
X118000000Y-84500000D02*
X113000000Y-84500000D01*
X113000000Y-84500000D02*
X112500000Y-85000000D01*
D33*
X119500000Y-66040000D02*
X112500000Y-66040000D01*
X112500000Y-66040000D02*
X112500000Y-65500000D01*
X112500000Y-99160000D02*
X112500000Y-99000000D01*
D35*
X112500000Y-99000000D02*
X112500000Y-85000000D01*
X112500000Y-85000000D02*
X112500000Y-78994000D01*
X112500000Y-78994000D02*
X112500000Y-78500000D01*
X112500000Y-78500000D02*
X112500000Y-76400000D01*
X112500000Y-76400000D02*
X112500000Y-65500000D01*
X112500000Y-65500000D02*
X112500000Y-63500000D01*
X112500000Y-63500000D02*
X118500000Y-57500000D01*
X118500000Y-57500000D02*
X118500000Y-51500000D01*
X118500000Y-51500000D02*
X119000000Y-51000000D01*
X119000000Y-51000000D02*
X126000000Y-51000000D01*
X126000000Y-51000000D02*
X126950000Y-51950000D01*
X126950000Y-51950000D02*
X126950000Y-54500000D01*
X170000000Y-69120000D02*
X164380000Y-69120000D01*
X164380000Y-69120000D02*
X164000000Y-69500000D01*
X164000000Y-69500000D02*
X164000000Y-70600000D01*
X164000000Y-70600000D02*
X162000000Y-72600000D01*
X162000000Y-72600000D02*
X154900000Y-72600000D01*
X154900000Y-72600000D02*
X151100000Y-76400000D01*
X151100000Y-76400000D02*
X135600000Y-76400000D01*
X135600000Y-76400000D02*
X132500000Y-79500000D01*
D33*
X133200000Y-86040000D02*
X133200000Y-80200000D01*
X133200000Y-80200000D02*
X132500000Y-79500000D01*
X133100000Y-85940000D02*
X133200000Y-86040000D01*
X164380000Y-69120000D02*
X164000000Y-69500000D01*
X125000000Y-69660000D02*
X132460000Y-69660000D01*
X132460000Y-69660000D02*
X133000000Y-69120000D01*
D35*
X133000000Y-69120000D02*
X133000000Y-79000000D01*
X133000000Y-79000000D02*
X132500000Y-79500000D01*
X165000000Y-75500000D02*
X168500000Y-75500000D01*
X170500000Y-73500000D02*
X172500000Y-73500000D01*
X168500000Y-75500000D02*
X170500000Y-73500000D01*
X154500000Y-79500000D02*
X154500000Y-79000000D01*
X154500000Y-79000000D02*
X158000000Y-75500000D01*
X158000000Y-75500000D02*
X165000000Y-75500000D01*
D33*
X136600000Y-86040000D02*
X136600000Y-82100000D01*
X136600000Y-82100000D02*
X139100000Y-79600000D01*
X139100000Y-79600000D02*
X154400000Y-79600000D01*
X154400000Y-79600000D02*
X154500000Y-79500000D01*
D34*
X151840000Y-88700000D02*
X151840000Y-91360000D01*
X157770000Y-106430000D02*
X147730000Y-106430000D01*
X160200000Y-104000000D02*
X157770000Y-106430000D01*
X160200000Y-94400000D02*
X160200000Y-104000000D01*
X159200000Y-93400000D02*
X160200000Y-94400000D01*
X157900000Y-93400000D02*
X159200000Y-93400000D01*
X153500000Y-97800000D02*
X157900000Y-93400000D01*
X150900000Y-97800000D02*
X153500000Y-97800000D01*
X150000000Y-96900000D02*
X150900000Y-97800000D01*
X150000000Y-93200000D02*
X150000000Y-96900000D01*
X151840000Y-91360000D02*
X150000000Y-93200000D01*
X148100000Y-111200000D02*
X148100000Y-106800000D01*
X147730000Y-106430000D02*
X145000000Y-106430000D01*
X148100000Y-106800000D02*
X147730000Y-106430000D01*
X125222000Y-102616000D02*
X127508000Y-102616000D01*
X136302000Y-107600000D02*
X137800000Y-107600000D01*
X133604000Y-104902000D02*
X136302000Y-107600000D01*
X129794000Y-104902000D02*
X133604000Y-104902000D01*
X127508000Y-102616000D02*
X129794000Y-104902000D01*
X145000000Y-107700000D02*
X145000000Y-111600000D01*
X135200000Y-110200000D02*
X137800000Y-107600000D01*
X135200000Y-112100000D02*
X135200000Y-110200000D01*
X136300000Y-113200000D02*
X135200000Y-112100000D01*
X137600000Y-113200000D02*
X136300000Y-113200000D01*
X138500000Y-114100000D02*
X137600000Y-113200000D01*
X145000000Y-111600000D02*
X147400000Y-114000000D01*
X137800000Y-107600000D02*
X137800000Y-107800000D01*
X119600000Y-97600000D02*
X119600000Y-99026000D01*
X121920000Y-101346000D02*
X125222000Y-101346000D01*
X119600000Y-99026000D02*
X121920000Y-101346000D01*
X115600000Y-93200000D02*
X117600000Y-93200000D01*
X119600000Y-95200000D02*
X119600000Y-97600000D01*
X117600000Y-93200000D02*
X119600000Y-95200000D01*
X125222000Y-103886000D02*
X123952000Y-103886000D01*
X122440000Y-105398000D02*
X122440000Y-107400000D01*
X123952000Y-103886000D02*
X122440000Y-105398000D01*
X143600000Y-97500000D02*
X143600000Y-94900000D01*
X136600000Y-95000000D02*
X136600000Y-96200000D01*
X138400000Y-93200000D02*
X136600000Y-95000000D01*
X141900000Y-93200000D02*
X138400000Y-93200000D01*
X143600000Y-94900000D02*
X141900000Y-93200000D01*
X136600000Y-96200000D02*
X133200000Y-96200000D01*
X130040000Y-101600000D02*
X132300000Y-101600000D01*
X135760000Y-105060000D02*
X137800000Y-105060000D01*
X132300000Y-101600000D02*
X135760000Y-105060000D01*
X130040000Y-101600000D02*
X130040000Y-99360000D01*
X130040000Y-99360000D02*
X133200000Y-96200000D01*
X140300000Y-85900000D02*
X140300000Y-85760000D01*
X140300000Y-85760000D02*
X141732000Y-84328000D01*
X141732000Y-84328000D02*
X147066000Y-84328000D01*
X147066000Y-84328000D02*
X149300000Y-86562000D01*
X149300000Y-86562000D02*
X149300000Y-88700000D01*
X149300000Y-88100000D02*
X149300000Y-88700000D01*
X116332000Y-73406000D02*
X116332000Y-74930000D01*
X119270000Y-77868000D02*
X119270000Y-84500000D01*
X116332000Y-74930000D02*
X119270000Y-77868000D01*
X119270000Y-84500000D02*
X119270000Y-86770000D01*
X127600000Y-84200000D02*
X127600000Y-79000000D01*
X124400000Y-87400000D02*
X127600000Y-84200000D01*
X119900000Y-87400000D02*
X124400000Y-87400000D01*
X119270000Y-86770000D02*
X119900000Y-87400000D01*
X124968000Y-78994000D02*
X124968000Y-76962000D01*
X124968000Y-76962000D02*
X121412000Y-73406000D01*
X120540000Y-84500000D02*
X120540000Y-83422000D01*
X120540000Y-83422000D02*
X124968000Y-78994000D01*
X124714000Y-79248000D02*
X124968000Y-78994000D01*
D33*
X118872000Y-73406000D02*
X118872000Y-69208000D01*
X118872000Y-69208000D02*
X119500000Y-68580000D01*
D34*
X119460000Y-68620000D02*
X119500000Y-68580000D01*
D33*
X139000000Y-58500000D02*
X139000000Y-51500000D01*
X144040000Y-51540000D02*
X144040000Y-54000000D01*
X143500000Y-51000000D02*
X144040000Y-51540000D01*
X139500000Y-51000000D02*
X143500000Y-51000000D01*
X139000000Y-51500000D02*
X139500000Y-51000000D01*
X119500000Y-68580000D02*
X121920000Y-68580000D01*
X139000000Y-60000000D02*
X139000000Y-58500000D01*
X134500000Y-64500000D02*
X139000000Y-60000000D01*
X126000000Y-64500000D02*
X134500000Y-64500000D01*
X121920000Y-68580000D02*
X126000000Y-64500000D01*
X149160000Y-58500000D02*
X149160000Y-60160000D01*
X149160000Y-60160000D02*
X151000000Y-62000000D01*
X146580000Y-54000000D02*
X146580000Y-55920000D01*
X146580000Y-55920000D02*
X149160000Y-58500000D01*
X119500000Y-63500000D02*
X119500000Y-61000000D01*
X119500000Y-61000000D02*
X121500000Y-59000000D01*
X125000000Y-59500000D02*
X122000000Y-59500000D01*
X121500000Y-59000000D02*
X121500000Y-54500000D01*
X122000000Y-59500000D02*
X121500000Y-59000000D01*
X158496000Y-62000000D02*
X161340000Y-62000000D01*
X161340000Y-62000000D02*
X164000000Y-59340000D01*
X155500000Y-54500000D02*
X155500000Y-56000000D01*
X155500000Y-56000000D02*
X158496000Y-58996000D01*
X158496000Y-58996000D02*
X158496000Y-62000000D01*
X151000000Y-72160000D02*
X145840000Y-72160000D01*
X145840000Y-72160000D02*
X145500000Y-72500000D01*
D35*
X132400000Y-54500000D02*
X132400000Y-60900000D01*
X132400000Y-60900000D02*
X133000000Y-61500000D01*
X166400000Y-54500000D02*
X166400000Y-56400000D01*
X166400000Y-56400000D02*
X168500000Y-58500000D01*
X168500000Y-58500000D02*
X168500000Y-60000000D01*
X168500000Y-60000000D02*
X170000000Y-61500000D01*
D34*
X115525000Y-97575000D02*
X115525000Y-99025000D01*
X119600000Y-103100000D02*
X119600000Y-107760000D01*
X115525000Y-99025000D02*
X119600000Y-103100000D01*
D33*
X166900000Y-108960000D02*
X166900000Y-108800000D01*
X166900000Y-108800000D02*
X173600000Y-102100000D01*
M02*
