G04 #@! TF.FileFunction,Soldermask,Top*
%FSLAX46Y46*%
G04 Gerber Fmt 4.6, Leading zero omitted, Abs format (unit mm)*
G04 Created by KiCad (PCBNEW 4.0.7) date 04/25/20 16:53:01*
%MOMM*%
%LPD*%
G01*
G04 APERTURE LIST*
%ADD10C,0.100000*%
%ADD11C,0.150000*%
%ADD12C,2.740000*%
%ADD13C,2.000000*%
%ADD14O,2.000000X2.000000*%
%ADD15C,6.800000*%
%ADD16C,1.200000*%
%ADD17R,2.000000X2.000000*%
%ADD18R,2.800000X2.800000*%
%ADD19C,2.800000*%
%ADD20O,4.400000X2.900000*%
%ADD21R,2.900000X2.900000*%
%ADD22C,2.900000*%
%ADD23R,2.200000X2.200000*%
%ADD24O,2.200000X2.200000*%
%ADD25R,2.900000X4.900000*%
%ADD26O,2.900000X4.900000*%
%ADD27O,2.800000X2.800000*%
%ADD28O,1.900000X1.300000*%
%ADD29R,1.900000X1.300000*%
%ADD30O,1.300000X1.900000*%
%ADD31R,1.300000X1.900000*%
G04 APERTURE END LIST*
D10*
D11*
X110000000Y-50000000D02*
X110000000Y-130000000D01*
X180000000Y-50000000D02*
X110000000Y-50000000D01*
X180000000Y-130000000D02*
X180000000Y-50000000D01*
X110000000Y-130000000D02*
X180000000Y-130000000D01*
D12*
X140500000Y-72500000D03*
X143000000Y-62500000D03*
X145500000Y-72500000D03*
D13*
X114808000Y-78994000D03*
D14*
X124968000Y-78994000D03*
D15*
X176000000Y-54000000D03*
D16*
X178400000Y-54000000D03*
X177697056Y-55697056D03*
X176000000Y-56400000D03*
X174302944Y-55697056D03*
X173600000Y-54000000D03*
X174302944Y-52302944D03*
X176000000Y-51600000D03*
X177697056Y-52302944D03*
D15*
X176000000Y-126000000D03*
D16*
X178400000Y-126000000D03*
X177697056Y-127697056D03*
X176000000Y-128400000D03*
X174302944Y-127697056D03*
X173600000Y-126000000D03*
X174302944Y-124302944D03*
X176000000Y-123600000D03*
X177697056Y-124302944D03*
D15*
X114000000Y-126000000D03*
D16*
X116400000Y-126000000D03*
X115697056Y-127697056D03*
X114000000Y-128400000D03*
X112302944Y-127697056D03*
X111600000Y-126000000D03*
X112302944Y-124302944D03*
X114000000Y-123600000D03*
X115697056Y-124302944D03*
D15*
X114000000Y-54000000D03*
D16*
X116400000Y-54000000D03*
X115697056Y-55697056D03*
X114000000Y-56400000D03*
X112302944Y-55697056D03*
X111600000Y-54000000D03*
X112302944Y-52302944D03*
X114000000Y-51600000D03*
X115697056Y-52302944D03*
D17*
X171500000Y-94400000D03*
D13*
X175300000Y-94400000D03*
X154500000Y-103300000D03*
X154500000Y-108300000D03*
X148000000Y-101600000D03*
X143000000Y-101600000D03*
X157500000Y-83000000D03*
X157500000Y-88000000D03*
X153924000Y-66294000D03*
X153924000Y-61294000D03*
X169000000Y-83500000D03*
X174000000Y-83500000D03*
D17*
X148100000Y-95500000D03*
D13*
X151900000Y-95500000D03*
D18*
X127300000Y-115400000D03*
D19*
X127300000Y-122900000D03*
D18*
X163300000Y-123400000D03*
D19*
X163300000Y-115900000D03*
D17*
X115500000Y-97625000D03*
D14*
X115500000Y-107785000D03*
D17*
X119600000Y-97600000D03*
D14*
X119600000Y-107760000D03*
D20*
X132500000Y-79500000D03*
X154500000Y-79500000D03*
D21*
X173600000Y-102100000D03*
D22*
X173600000Y-107100000D03*
D21*
X172500000Y-73500000D03*
D22*
X172500000Y-78500000D03*
X150300000Y-124200000D03*
D21*
X140300000Y-124200000D03*
D22*
X145300000Y-124200000D03*
D23*
X121412000Y-73406000D03*
D24*
X118872000Y-73406000D03*
X116332000Y-73406000D03*
D23*
X141500000Y-54000000D03*
D24*
X144040000Y-54000000D03*
X146580000Y-54000000D03*
D23*
X119500000Y-63500000D03*
D24*
X119500000Y-66040000D03*
X119500000Y-68580000D03*
D23*
X158496000Y-61976000D03*
D24*
X158496000Y-64516000D03*
X158496000Y-67056000D03*
D25*
X121500000Y-54500000D03*
D26*
X126950000Y-54500000D03*
X132400000Y-54500000D03*
D25*
X155500000Y-54500000D03*
D26*
X160950000Y-54500000D03*
X166400000Y-54500000D03*
D13*
X166900000Y-98800000D03*
D14*
X166900000Y-108960000D03*
D13*
X157700000Y-95800000D03*
D14*
X167860000Y-95800000D03*
D13*
X158200000Y-98700000D03*
D14*
X158200000Y-108860000D03*
D13*
X148100000Y-111200000D03*
D14*
X137940000Y-111200000D03*
D13*
X132600000Y-107400000D03*
D14*
X122440000Y-107400000D03*
D13*
X140200000Y-101600000D03*
D14*
X130040000Y-101600000D03*
D13*
X115600000Y-93200000D03*
D14*
X125760000Y-93200000D03*
D13*
X140300000Y-85900000D03*
D14*
X140300000Y-96060000D03*
D13*
X127600000Y-79000000D03*
D14*
X127600000Y-89160000D03*
D13*
X139000000Y-58500000D03*
D14*
X149160000Y-58500000D03*
D13*
X150368000Y-61976000D03*
D14*
X150368000Y-72136000D03*
D13*
X161000000Y-81000000D03*
D14*
X161000000Y-91160000D03*
D13*
X125000000Y-59500000D03*
D14*
X125000000Y-69660000D03*
D13*
X164000000Y-69500000D03*
D14*
X164000000Y-59340000D03*
D19*
X133000000Y-61500000D03*
D27*
X133000000Y-69120000D03*
D19*
X170000000Y-61500000D03*
D27*
X170000000Y-69120000D03*
D13*
X133200000Y-96200000D03*
D14*
X133200000Y-86040000D03*
D13*
X136600000Y-96200000D03*
D14*
X136600000Y-86040000D03*
D19*
X165000000Y-75500000D03*
D27*
X165000000Y-90740000D03*
D13*
X143600000Y-97500000D03*
D14*
X143600000Y-87340000D03*
D28*
X145000000Y-106430000D03*
X145000000Y-105160000D03*
D29*
X145000000Y-107700000D03*
D28*
X125222000Y-102616000D03*
X125222000Y-101346000D03*
D29*
X125222000Y-103886000D03*
D28*
X137800000Y-106330000D03*
X137800000Y-105060000D03*
D29*
X137800000Y-107600000D03*
D30*
X150622000Y-88392000D03*
X151892000Y-88392000D03*
D31*
X149352000Y-88392000D03*
D30*
X119270000Y-84500000D03*
X120540000Y-84500000D03*
D31*
X118000000Y-84500000D03*
M02*
