G04 #@! TF.FileFunction,Copper,L1,Top,Signal*
%FSLAX46Y46*%
G04 Gerber Fmt 4.6, Leading zero omitted, Abs format (unit mm)*
G04 Created by KiCad (PCBNEW 4.0.7) date 04/25/20 16:53:01*
%MOMM*%
%LPD*%
G01*
G04 APERTURE LIST*
%ADD10C,0.100000*%
%ADD11C,0.150000*%
%ADD12C,2.340000*%
%ADD13C,1.600000*%
%ADD14O,1.600000X1.600000*%
%ADD15C,6.400000*%
%ADD16C,0.800000*%
%ADD17R,1.600000X1.600000*%
%ADD18R,2.400000X2.400000*%
%ADD19C,2.400000*%
%ADD20O,4.000000X2.500000*%
%ADD21R,2.500000X2.500000*%
%ADD22C,2.500000*%
%ADD23R,1.800000X1.800000*%
%ADD24O,1.800000X1.800000*%
%ADD25R,2.500000X4.500000*%
%ADD26O,2.500000X4.500000*%
%ADD27O,2.400000X2.400000*%
%ADD28O,1.500000X0.900000*%
%ADD29R,1.500000X0.900000*%
%ADD30O,0.900000X1.500000*%
%ADD31R,0.900000X1.500000*%
%ADD32C,1.500000*%
%ADD33C,1.000000*%
%ADD34C,0.700000*%
%ADD35C,0.254000*%
G04 APERTURE END LIST*
D10*
D11*
X110000000Y-50000000D02*
X110000000Y-130000000D01*
X180000000Y-50000000D02*
X110000000Y-50000000D01*
X180000000Y-130000000D02*
X180000000Y-50000000D01*
X110000000Y-130000000D02*
X180000000Y-130000000D01*
D12*
X140500000Y-72500000D03*
X143000000Y-62500000D03*
X145500000Y-72500000D03*
D13*
X114808000Y-78994000D03*
D14*
X124968000Y-78994000D03*
D15*
X176000000Y-54000000D03*
D16*
X178400000Y-54000000D03*
X177697056Y-55697056D03*
X176000000Y-56400000D03*
X174302944Y-55697056D03*
X173600000Y-54000000D03*
X174302944Y-52302944D03*
X176000000Y-51600000D03*
X177697056Y-52302944D03*
D15*
X176000000Y-126000000D03*
D16*
X178400000Y-126000000D03*
X177697056Y-127697056D03*
X176000000Y-128400000D03*
X174302944Y-127697056D03*
X173600000Y-126000000D03*
X174302944Y-124302944D03*
X176000000Y-123600000D03*
X177697056Y-124302944D03*
D15*
X114000000Y-126000000D03*
D16*
X116400000Y-126000000D03*
X115697056Y-127697056D03*
X114000000Y-128400000D03*
X112302944Y-127697056D03*
X111600000Y-126000000D03*
X112302944Y-124302944D03*
X114000000Y-123600000D03*
X115697056Y-124302944D03*
D15*
X114000000Y-54000000D03*
D16*
X116400000Y-54000000D03*
X115697056Y-55697056D03*
X114000000Y-56400000D03*
X112302944Y-55697056D03*
X111600000Y-54000000D03*
X112302944Y-52302944D03*
X114000000Y-51600000D03*
X115697056Y-52302944D03*
D17*
X171500000Y-94400000D03*
D13*
X175300000Y-94400000D03*
X154500000Y-103300000D03*
X154500000Y-108300000D03*
X148000000Y-101600000D03*
X143000000Y-101600000D03*
X157500000Y-83000000D03*
X157500000Y-88000000D03*
X153924000Y-66294000D03*
X153924000Y-61294000D03*
X169000000Y-83500000D03*
X174000000Y-83500000D03*
D17*
X148100000Y-95500000D03*
D13*
X151900000Y-95500000D03*
D18*
X127300000Y-115400000D03*
D19*
X127300000Y-122900000D03*
D18*
X163300000Y-123400000D03*
D19*
X163300000Y-115900000D03*
D17*
X115500000Y-97625000D03*
D14*
X115500000Y-107785000D03*
D17*
X119600000Y-97600000D03*
D14*
X119600000Y-107760000D03*
D20*
X132500000Y-79500000D03*
X154500000Y-79500000D03*
D21*
X173600000Y-102100000D03*
D22*
X173600000Y-107100000D03*
D21*
X172500000Y-73500000D03*
D22*
X172500000Y-78500000D03*
X150300000Y-124200000D03*
D21*
X140300000Y-124200000D03*
D22*
X145300000Y-124200000D03*
D23*
X121412000Y-73406000D03*
D24*
X118872000Y-73406000D03*
X116332000Y-73406000D03*
D23*
X141500000Y-54000000D03*
D24*
X144040000Y-54000000D03*
X146580000Y-54000000D03*
D23*
X119500000Y-63500000D03*
D24*
X119500000Y-66040000D03*
X119500000Y-68580000D03*
D23*
X158496000Y-61976000D03*
D24*
X158496000Y-64516000D03*
X158496000Y-67056000D03*
D25*
X121500000Y-54500000D03*
D26*
X126950000Y-54500000D03*
X132400000Y-54500000D03*
D25*
X155500000Y-54500000D03*
D26*
X160950000Y-54500000D03*
X166400000Y-54500000D03*
D13*
X166900000Y-98800000D03*
D14*
X166900000Y-108960000D03*
D13*
X157700000Y-95800000D03*
D14*
X167860000Y-95800000D03*
D13*
X158200000Y-98700000D03*
D14*
X158200000Y-108860000D03*
D13*
X148100000Y-111200000D03*
D14*
X137940000Y-111200000D03*
D13*
X132600000Y-107400000D03*
D14*
X122440000Y-107400000D03*
D13*
X140200000Y-101600000D03*
D14*
X130040000Y-101600000D03*
D13*
X115600000Y-93200000D03*
D14*
X125760000Y-93200000D03*
D13*
X140300000Y-85900000D03*
D14*
X140300000Y-96060000D03*
D13*
X127600000Y-79000000D03*
D14*
X127600000Y-89160000D03*
D13*
X139000000Y-58500000D03*
D14*
X149160000Y-58500000D03*
D13*
X150368000Y-61976000D03*
D14*
X150368000Y-72136000D03*
D13*
X161000000Y-81000000D03*
D14*
X161000000Y-91160000D03*
D13*
X125000000Y-59500000D03*
D14*
X125000000Y-69660000D03*
D13*
X164000000Y-69500000D03*
D14*
X164000000Y-59340000D03*
D19*
X133000000Y-61500000D03*
D27*
X133000000Y-69120000D03*
D19*
X170000000Y-61500000D03*
D27*
X170000000Y-69120000D03*
D13*
X133200000Y-96200000D03*
D14*
X133200000Y-86040000D03*
D13*
X136600000Y-96200000D03*
D14*
X136600000Y-86040000D03*
D19*
X165000000Y-75500000D03*
D27*
X165000000Y-90740000D03*
D13*
X143600000Y-97500000D03*
D14*
X143600000Y-87340000D03*
D28*
X145000000Y-106430000D03*
X145000000Y-105160000D03*
D29*
X145000000Y-107700000D03*
D28*
X125222000Y-102616000D03*
X125222000Y-101346000D03*
D29*
X125222000Y-103886000D03*
D28*
X137800000Y-106330000D03*
X137800000Y-105060000D03*
D29*
X137800000Y-107600000D03*
D30*
X150622000Y-88392000D03*
X151892000Y-88392000D03*
D31*
X149352000Y-88392000D03*
D30*
X119270000Y-84500000D03*
X120540000Y-84500000D03*
D31*
X118000000Y-84500000D03*
D13*
X161000000Y-70000000D03*
X161000000Y-78000000D03*
X138500000Y-114100000D03*
X147400000Y-114000000D03*
D32*
X145300000Y-128000000D02*
X145300000Y-124200000D01*
X127300000Y-122900000D02*
X132400000Y-128000000D01*
X163300000Y-126100000D02*
X163300000Y-123400000D01*
X161400000Y-128000000D02*
X163300000Y-126100000D01*
X132400000Y-128000000D02*
X145300000Y-128000000D01*
X145300000Y-128000000D02*
X161400000Y-128000000D01*
D33*
X161000000Y-78000000D02*
X161000000Y-70000000D01*
D34*
X147300000Y-114100000D02*
X138500000Y-114100000D01*
X147400000Y-114000000D02*
X147300000Y-114100000D01*
D35*
G36*
X173830485Y-50746950D02*
X172750741Y-51824811D01*
X172165667Y-53233825D01*
X172164336Y-54759482D01*
X172746950Y-56169515D01*
X173824811Y-57249259D01*
X175233825Y-57834333D01*
X176759482Y-57835664D01*
X178169515Y-57253050D01*
X179249259Y-56175189D01*
X179290000Y-56077074D01*
X179290000Y-123919911D01*
X179253050Y-123830485D01*
X178175189Y-122750741D01*
X176766175Y-122165667D01*
X175240518Y-122164336D01*
X173830485Y-122746950D01*
X172750741Y-123824811D01*
X172165667Y-125233825D01*
X172164336Y-126759482D01*
X172746950Y-128169515D01*
X173824811Y-129249259D01*
X173922926Y-129290000D01*
X116080089Y-129290000D01*
X116169515Y-129253050D01*
X117249259Y-128175189D01*
X117834333Y-126766175D01*
X117835664Y-125240518D01*
X117404564Y-124197175D01*
X126182430Y-124197175D01*
X126305565Y-124484788D01*
X126987734Y-124744707D01*
X127717443Y-124723786D01*
X128294435Y-124484788D01*
X128417570Y-124197175D01*
X127300000Y-123079605D01*
X126182430Y-124197175D01*
X117404564Y-124197175D01*
X117253050Y-123830485D01*
X116175189Y-122750741D01*
X115782625Y-122587734D01*
X125455293Y-122587734D01*
X125476214Y-123317443D01*
X125715212Y-123894435D01*
X126002825Y-124017570D01*
X127120395Y-122900000D01*
X127479605Y-122900000D01*
X128597175Y-124017570D01*
X128884788Y-123894435D01*
X129144707Y-123212266D01*
X129137188Y-122950000D01*
X138402560Y-122950000D01*
X138402560Y-125450000D01*
X138446838Y-125685317D01*
X138585910Y-125901441D01*
X138798110Y-126046431D01*
X139050000Y-126097440D01*
X141550000Y-126097440D01*
X141785317Y-126053162D01*
X142001441Y-125914090D01*
X142146431Y-125701890D01*
X142180567Y-125533320D01*
X144146285Y-125533320D01*
X144275533Y-125826123D01*
X144975806Y-126094388D01*
X145725435Y-126074250D01*
X146324467Y-125826123D01*
X146453715Y-125533320D01*
X145300000Y-124379605D01*
X144146285Y-125533320D01*
X142180567Y-125533320D01*
X142197440Y-125450000D01*
X142197440Y-123875806D01*
X143405612Y-123875806D01*
X143425750Y-124625435D01*
X143673877Y-125224467D01*
X143966680Y-125353715D01*
X145120395Y-124200000D01*
X145479605Y-124200000D01*
X146633320Y-125353715D01*
X146926123Y-125224467D01*
X147175574Y-124573305D01*
X148414674Y-124573305D01*
X148701043Y-125266372D01*
X149230839Y-125797093D01*
X149923405Y-126084672D01*
X150673305Y-126085326D01*
X151366372Y-125798957D01*
X151897093Y-125269161D01*
X152184672Y-124576595D01*
X152185326Y-123826695D01*
X152127089Y-123685750D01*
X161465000Y-123685750D01*
X161465000Y-124726309D01*
X161561673Y-124959698D01*
X161740301Y-125138327D01*
X161973690Y-125235000D01*
X163014250Y-125235000D01*
X163173000Y-125076250D01*
X163173000Y-123527000D01*
X163427000Y-123527000D01*
X163427000Y-125076250D01*
X163585750Y-125235000D01*
X164626310Y-125235000D01*
X164859699Y-125138327D01*
X165038327Y-124959698D01*
X165135000Y-124726309D01*
X165135000Y-123685750D01*
X164976250Y-123527000D01*
X163427000Y-123527000D01*
X163173000Y-123527000D01*
X161623750Y-123527000D01*
X161465000Y-123685750D01*
X152127089Y-123685750D01*
X151898957Y-123133628D01*
X151369161Y-122602907D01*
X150676595Y-122315328D01*
X149926695Y-122314674D01*
X149233628Y-122601043D01*
X148702907Y-123130839D01*
X148415328Y-123823405D01*
X148414674Y-124573305D01*
X147175574Y-124573305D01*
X147194388Y-124524194D01*
X147174250Y-123774565D01*
X146926123Y-123175533D01*
X146633320Y-123046285D01*
X145479605Y-124200000D01*
X145120395Y-124200000D01*
X143966680Y-123046285D01*
X143673877Y-123175533D01*
X143405612Y-123875806D01*
X142197440Y-123875806D01*
X142197440Y-122950000D01*
X142181763Y-122866680D01*
X144146285Y-122866680D01*
X145300000Y-124020395D01*
X146453715Y-122866680D01*
X146324467Y-122573877D01*
X145624194Y-122305612D01*
X144874565Y-122325750D01*
X144275533Y-122573877D01*
X144146285Y-122866680D01*
X142181763Y-122866680D01*
X142153162Y-122714683D01*
X142014090Y-122498559D01*
X141801890Y-122353569D01*
X141550000Y-122302560D01*
X139050000Y-122302560D01*
X138814683Y-122346838D01*
X138598559Y-122485910D01*
X138453569Y-122698110D01*
X138402560Y-122950000D01*
X129137188Y-122950000D01*
X129123786Y-122482557D01*
X128954429Y-122073691D01*
X161465000Y-122073691D01*
X161465000Y-123114250D01*
X161623750Y-123273000D01*
X163173000Y-123273000D01*
X163173000Y-121723750D01*
X163427000Y-121723750D01*
X163427000Y-123273000D01*
X164976250Y-123273000D01*
X165135000Y-123114250D01*
X165135000Y-122073691D01*
X165038327Y-121840302D01*
X164859699Y-121661673D01*
X164626310Y-121565000D01*
X163585750Y-121565000D01*
X163427000Y-121723750D01*
X163173000Y-121723750D01*
X163014250Y-121565000D01*
X161973690Y-121565000D01*
X161740301Y-121661673D01*
X161561673Y-121840302D01*
X161465000Y-122073691D01*
X128954429Y-122073691D01*
X128884788Y-121905565D01*
X128597175Y-121782430D01*
X127479605Y-122900000D01*
X127120395Y-122900000D01*
X126002825Y-121782430D01*
X125715212Y-121905565D01*
X125455293Y-122587734D01*
X115782625Y-122587734D01*
X114766175Y-122165667D01*
X113240518Y-122164336D01*
X111830485Y-122746950D01*
X110750741Y-123824811D01*
X110710000Y-123922926D01*
X110710000Y-121602825D01*
X126182430Y-121602825D01*
X127300000Y-122720395D01*
X128417570Y-121602825D01*
X128294435Y-121315212D01*
X127612266Y-121055293D01*
X126882557Y-121076214D01*
X126305565Y-121315212D01*
X126182430Y-121602825D01*
X110710000Y-121602825D01*
X110710000Y-114200000D01*
X125452560Y-114200000D01*
X125452560Y-116600000D01*
X125496838Y-116835317D01*
X125635910Y-117051441D01*
X125848110Y-117196431D01*
X126100000Y-117247440D01*
X128500000Y-117247440D01*
X128735317Y-117203162D01*
X128951441Y-117064090D01*
X129096431Y-116851890D01*
X129147440Y-116600000D01*
X129147440Y-116263403D01*
X161464682Y-116263403D01*
X161743455Y-116938086D01*
X162259199Y-117454730D01*
X162933395Y-117734681D01*
X163663403Y-117735318D01*
X164338086Y-117456545D01*
X164854730Y-116940801D01*
X165134681Y-116266605D01*
X165135318Y-115536597D01*
X164856545Y-114861914D01*
X164340801Y-114345270D01*
X163666605Y-114065319D01*
X162936597Y-114064682D01*
X162261914Y-114343455D01*
X161745270Y-114859199D01*
X161465319Y-115533395D01*
X161464682Y-116263403D01*
X129147440Y-116263403D01*
X129147440Y-114384187D01*
X137064752Y-114384187D01*
X137282757Y-114911800D01*
X137686077Y-115315824D01*
X138213309Y-115534750D01*
X138784187Y-115535248D01*
X139311800Y-115317243D01*
X139544448Y-115085000D01*
X146455481Y-115085000D01*
X146586077Y-115215824D01*
X147113309Y-115434750D01*
X147684187Y-115435248D01*
X148211800Y-115217243D01*
X148615824Y-114813923D01*
X148834750Y-114286691D01*
X148835248Y-113715813D01*
X148617243Y-113188200D01*
X148213923Y-112784176D01*
X147854151Y-112634786D01*
X148384187Y-112635248D01*
X148911800Y-112417243D01*
X149315824Y-112013923D01*
X149534750Y-111486691D01*
X149535248Y-110915813D01*
X149317243Y-110388200D01*
X148913923Y-109984176D01*
X148386691Y-109765250D01*
X147815813Y-109764752D01*
X147288200Y-109982757D01*
X146884176Y-110386077D01*
X146665250Y-110913309D01*
X146664752Y-111484187D01*
X146882757Y-112011800D01*
X147286077Y-112415824D01*
X147645849Y-112565214D01*
X147115813Y-112564752D01*
X146588200Y-112782757D01*
X146255377Y-113115000D01*
X139544345Y-113115000D01*
X139313923Y-112884176D01*
X138786691Y-112665250D01*
X138215813Y-112664752D01*
X137688200Y-112882757D01*
X137284176Y-113286077D01*
X137065250Y-113813309D01*
X137064752Y-114384187D01*
X129147440Y-114384187D01*
X129147440Y-114200000D01*
X129103162Y-113964683D01*
X128964090Y-113748559D01*
X128751890Y-113603569D01*
X128500000Y-113552560D01*
X126100000Y-113552560D01*
X125864683Y-113596838D01*
X125648559Y-113735910D01*
X125503569Y-113948110D01*
X125452560Y-114200000D01*
X110710000Y-114200000D01*
X110710000Y-111200000D01*
X136476887Y-111200000D01*
X136586120Y-111749151D01*
X136897189Y-112214698D01*
X137362736Y-112525767D01*
X137911887Y-112635000D01*
X137968113Y-112635000D01*
X138517264Y-112525767D01*
X138982811Y-112214698D01*
X139293880Y-111749151D01*
X139403113Y-111200000D01*
X139293880Y-110650849D01*
X138982811Y-110185302D01*
X138517264Y-109874233D01*
X137968113Y-109765000D01*
X137911887Y-109765000D01*
X137362736Y-109874233D01*
X136897189Y-110185302D01*
X136586120Y-110650849D01*
X136476887Y-111200000D01*
X110710000Y-111200000D01*
X110710000Y-109307745D01*
X153671861Y-109307745D01*
X153745995Y-109553864D01*
X154283223Y-109746965D01*
X154853454Y-109719778D01*
X155254005Y-109553864D01*
X155328139Y-109307745D01*
X155229436Y-109209041D01*
X156808086Y-109209041D01*
X157047611Y-109715134D01*
X157462577Y-110091041D01*
X157850961Y-110251904D01*
X158073000Y-110129915D01*
X158073000Y-108987000D01*
X158327000Y-108987000D01*
X158327000Y-110129915D01*
X158549039Y-110251904D01*
X158937423Y-110091041D01*
X159352389Y-109715134D01*
X159591914Y-109209041D01*
X159470629Y-108987000D01*
X158327000Y-108987000D01*
X158073000Y-108987000D01*
X156929371Y-108987000D01*
X156808086Y-109209041D01*
X155229436Y-109209041D01*
X154500000Y-108479605D01*
X153671861Y-109307745D01*
X110710000Y-109307745D01*
X110710000Y-107756887D01*
X114065000Y-107756887D01*
X114065000Y-107813113D01*
X114174233Y-108362264D01*
X114485302Y-108827811D01*
X114950849Y-109138880D01*
X115500000Y-109248113D01*
X116049151Y-109138880D01*
X116514698Y-108827811D01*
X116825767Y-108362264D01*
X116935000Y-107813113D01*
X116935000Y-107756887D01*
X116930028Y-107731887D01*
X118165000Y-107731887D01*
X118165000Y-107788113D01*
X118274233Y-108337264D01*
X118585302Y-108802811D01*
X119050849Y-109113880D01*
X119600000Y-109223113D01*
X120149151Y-109113880D01*
X120614698Y-108802811D01*
X120925767Y-108337264D01*
X121035000Y-107788113D01*
X121035000Y-107731887D01*
X120968984Y-107400000D01*
X120976887Y-107400000D01*
X121086120Y-107949151D01*
X121397189Y-108414698D01*
X121862736Y-108725767D01*
X122411887Y-108835000D01*
X122468113Y-108835000D01*
X123017264Y-108725767D01*
X123482811Y-108414698D01*
X123793880Y-107949151D01*
X123846584Y-107684187D01*
X131164752Y-107684187D01*
X131382757Y-108211800D01*
X131786077Y-108615824D01*
X132313309Y-108834750D01*
X132884187Y-108835248D01*
X133411800Y-108617243D01*
X133815824Y-108213923D01*
X134034750Y-107686691D01*
X134035248Y-107115813D01*
X133817243Y-106588200D01*
X133413923Y-106184176D01*
X132886691Y-105965250D01*
X132315813Y-105964752D01*
X131788200Y-106182757D01*
X131384176Y-106586077D01*
X131165250Y-107113309D01*
X131164752Y-107684187D01*
X123846584Y-107684187D01*
X123903113Y-107400000D01*
X123793880Y-106850849D01*
X123482811Y-106385302D01*
X123017264Y-106074233D01*
X122468113Y-105965000D01*
X122411887Y-105965000D01*
X121862736Y-106074233D01*
X121397189Y-106385302D01*
X121086120Y-106850849D01*
X120976887Y-107400000D01*
X120968984Y-107400000D01*
X120925767Y-107182736D01*
X120614698Y-106717189D01*
X120149151Y-106406120D01*
X119600000Y-106296887D01*
X119050849Y-106406120D01*
X118585302Y-106717189D01*
X118274233Y-107182736D01*
X118165000Y-107731887D01*
X116930028Y-107731887D01*
X116825767Y-107207736D01*
X116514698Y-106742189D01*
X116049151Y-106431120D01*
X115500000Y-106321887D01*
X114950849Y-106431120D01*
X114485302Y-106742189D01*
X114174233Y-107207736D01*
X114065000Y-107756887D01*
X110710000Y-107756887D01*
X110710000Y-105060000D01*
X136387866Y-105060000D01*
X136470457Y-105475212D01*
X136617315Y-105695000D01*
X136470457Y-105914788D01*
X136387866Y-106330000D01*
X136470457Y-106745212D01*
X136513759Y-106810019D01*
X136453569Y-106898110D01*
X136402560Y-107150000D01*
X136402560Y-108050000D01*
X136446838Y-108285317D01*
X136585910Y-108501441D01*
X136798110Y-108646431D01*
X137050000Y-108697440D01*
X138550000Y-108697440D01*
X138785317Y-108653162D01*
X139001441Y-108514090D01*
X139146431Y-108301890D01*
X139197440Y-108050000D01*
X139197440Y-107150000D01*
X139153162Y-106914683D01*
X139086022Y-106810345D01*
X139129543Y-106745212D01*
X139212134Y-106330000D01*
X139129543Y-105914788D01*
X138982685Y-105695000D01*
X139129543Y-105475212D01*
X139192242Y-105160000D01*
X143587866Y-105160000D01*
X143670457Y-105575212D01*
X143817315Y-105795000D01*
X143670457Y-106014788D01*
X143587866Y-106430000D01*
X143670457Y-106845212D01*
X143713759Y-106910019D01*
X143653569Y-106998110D01*
X143602560Y-107250000D01*
X143602560Y-108150000D01*
X143646838Y-108385317D01*
X143785910Y-108601441D01*
X143998110Y-108746431D01*
X144250000Y-108797440D01*
X145750000Y-108797440D01*
X145985317Y-108753162D01*
X146201441Y-108614090D01*
X146346431Y-108401890D01*
X146397440Y-108150000D01*
X146397440Y-108083223D01*
X153053035Y-108083223D01*
X153080222Y-108653454D01*
X153246136Y-109054005D01*
X153492255Y-109128139D01*
X154320395Y-108300000D01*
X154679605Y-108300000D01*
X155507745Y-109128139D01*
X155753864Y-109054005D01*
X155797758Y-108931887D01*
X165465000Y-108931887D01*
X165465000Y-108988113D01*
X165574233Y-109537264D01*
X165885302Y-110002811D01*
X166350849Y-110313880D01*
X166900000Y-110423113D01*
X167449151Y-110313880D01*
X167914698Y-110002811D01*
X168225767Y-109537264D01*
X168335000Y-108988113D01*
X168335000Y-108931887D01*
X168235829Y-108433320D01*
X172446285Y-108433320D01*
X172575533Y-108726123D01*
X173275806Y-108994388D01*
X174025435Y-108974250D01*
X174624467Y-108726123D01*
X174753715Y-108433320D01*
X173600000Y-107279605D01*
X172446285Y-108433320D01*
X168235829Y-108433320D01*
X168225767Y-108382736D01*
X167914698Y-107917189D01*
X167449151Y-107606120D01*
X166900000Y-107496887D01*
X166350849Y-107606120D01*
X165885302Y-107917189D01*
X165574233Y-108382736D01*
X165465000Y-108931887D01*
X155797758Y-108931887D01*
X155946965Y-108516777D01*
X155946688Y-108510959D01*
X156808086Y-108510959D01*
X156929371Y-108733000D01*
X158073000Y-108733000D01*
X158073000Y-107590085D01*
X158327000Y-107590085D01*
X158327000Y-108733000D01*
X159470629Y-108733000D01*
X159591914Y-108510959D01*
X159352389Y-108004866D01*
X158937423Y-107628959D01*
X158549039Y-107468096D01*
X158327000Y-107590085D01*
X158073000Y-107590085D01*
X157850961Y-107468096D01*
X157462577Y-107628959D01*
X157047611Y-108004866D01*
X156808086Y-108510959D01*
X155946688Y-108510959D01*
X155919778Y-107946546D01*
X155753864Y-107545995D01*
X155507745Y-107471861D01*
X154679605Y-108300000D01*
X154320395Y-108300000D01*
X153492255Y-107471861D01*
X153246136Y-107545995D01*
X153053035Y-108083223D01*
X146397440Y-108083223D01*
X146397440Y-107292255D01*
X153671861Y-107292255D01*
X154500000Y-108120395D01*
X155328139Y-107292255D01*
X155254005Y-107046136D01*
X154716777Y-106853035D01*
X154146546Y-106880222D01*
X153745995Y-107046136D01*
X153671861Y-107292255D01*
X146397440Y-107292255D01*
X146397440Y-107250000D01*
X146353162Y-107014683D01*
X146286022Y-106910345D01*
X146329543Y-106845212D01*
X146343348Y-106775806D01*
X171705612Y-106775806D01*
X171725750Y-107525435D01*
X171973877Y-108124467D01*
X172266680Y-108253715D01*
X173420395Y-107100000D01*
X173779605Y-107100000D01*
X174933320Y-108253715D01*
X175226123Y-108124467D01*
X175494388Y-107424194D01*
X175474250Y-106674565D01*
X175226123Y-106075533D01*
X174933320Y-105946285D01*
X173779605Y-107100000D01*
X173420395Y-107100000D01*
X172266680Y-105946285D01*
X171973877Y-106075533D01*
X171705612Y-106775806D01*
X146343348Y-106775806D01*
X146412134Y-106430000D01*
X146329543Y-106014788D01*
X146182685Y-105795000D01*
X146201607Y-105766680D01*
X172446285Y-105766680D01*
X173600000Y-106920395D01*
X174753715Y-105766680D01*
X174624467Y-105473877D01*
X173924194Y-105205612D01*
X173174565Y-105225750D01*
X172575533Y-105473877D01*
X172446285Y-105766680D01*
X146201607Y-105766680D01*
X146329543Y-105575212D01*
X146412134Y-105160000D01*
X146329543Y-104744788D01*
X146094345Y-104392789D01*
X145742346Y-104157591D01*
X145327134Y-104075000D01*
X144672866Y-104075000D01*
X144257654Y-104157591D01*
X143905655Y-104392789D01*
X143670457Y-104744788D01*
X143587866Y-105160000D01*
X139192242Y-105160000D01*
X139212134Y-105060000D01*
X139129543Y-104644788D01*
X138894345Y-104292789D01*
X138542346Y-104057591D01*
X138127134Y-103975000D01*
X137472866Y-103975000D01*
X137057654Y-104057591D01*
X136705655Y-104292789D01*
X136470457Y-104644788D01*
X136387866Y-105060000D01*
X110710000Y-105060000D01*
X110710000Y-101346000D01*
X123809866Y-101346000D01*
X123892457Y-101761212D01*
X124039315Y-101981000D01*
X123892457Y-102200788D01*
X123809866Y-102616000D01*
X123892457Y-103031212D01*
X123935759Y-103096019D01*
X123875569Y-103184110D01*
X123824560Y-103436000D01*
X123824560Y-104336000D01*
X123868838Y-104571317D01*
X124007910Y-104787441D01*
X124220110Y-104932431D01*
X124472000Y-104983440D01*
X125972000Y-104983440D01*
X126207317Y-104939162D01*
X126423441Y-104800090D01*
X126568431Y-104587890D01*
X126619440Y-104336000D01*
X126619440Y-103584187D01*
X153064752Y-103584187D01*
X153282757Y-104111800D01*
X153686077Y-104515824D01*
X154213309Y-104734750D01*
X154784187Y-104735248D01*
X155311800Y-104517243D01*
X155715824Y-104113923D01*
X155934750Y-103586691D01*
X155935248Y-103015813D01*
X155717243Y-102488200D01*
X155313923Y-102084176D01*
X154786691Y-101865250D01*
X154215813Y-101864752D01*
X153688200Y-102082757D01*
X153284176Y-102486077D01*
X153065250Y-103013309D01*
X153064752Y-103584187D01*
X126619440Y-103584187D01*
X126619440Y-103436000D01*
X126575162Y-103200683D01*
X126508022Y-103096345D01*
X126551543Y-103031212D01*
X126634134Y-102616000D01*
X126551543Y-102200788D01*
X126404685Y-101981000D01*
X126551543Y-101761212D01*
X126583610Y-101600000D01*
X128576887Y-101600000D01*
X128686120Y-102149151D01*
X128997189Y-102614698D01*
X129462736Y-102925767D01*
X130011887Y-103035000D01*
X130068113Y-103035000D01*
X130617264Y-102925767D01*
X131082811Y-102614698D01*
X131393880Y-102149151D01*
X131446584Y-101884187D01*
X138764752Y-101884187D01*
X138982757Y-102411800D01*
X139386077Y-102815824D01*
X139913309Y-103034750D01*
X140484187Y-103035248D01*
X141011800Y-102817243D01*
X141415824Y-102413923D01*
X141600183Y-101969937D01*
X141782757Y-102411800D01*
X142186077Y-102815824D01*
X142713309Y-103034750D01*
X143284187Y-103035248D01*
X143811800Y-102817243D01*
X144215824Y-102413923D01*
X144434750Y-101886691D01*
X144434752Y-101884187D01*
X146564752Y-101884187D01*
X146782757Y-102411800D01*
X147186077Y-102815824D01*
X147713309Y-103034750D01*
X148284187Y-103035248D01*
X148811800Y-102817243D01*
X149215824Y-102413923D01*
X149434750Y-101886691D01*
X149435248Y-101315813D01*
X149242779Y-100850000D01*
X171702560Y-100850000D01*
X171702560Y-103350000D01*
X171746838Y-103585317D01*
X171885910Y-103801441D01*
X172098110Y-103946431D01*
X172350000Y-103997440D01*
X174850000Y-103997440D01*
X175085317Y-103953162D01*
X175301441Y-103814090D01*
X175446431Y-103601890D01*
X175497440Y-103350000D01*
X175497440Y-100850000D01*
X175453162Y-100614683D01*
X175314090Y-100398559D01*
X175101890Y-100253569D01*
X174850000Y-100202560D01*
X172350000Y-100202560D01*
X172114683Y-100246838D01*
X171898559Y-100385910D01*
X171753569Y-100598110D01*
X171702560Y-100850000D01*
X149242779Y-100850000D01*
X149217243Y-100788200D01*
X148813923Y-100384176D01*
X148286691Y-100165250D01*
X147715813Y-100164752D01*
X147188200Y-100382757D01*
X146784176Y-100786077D01*
X146565250Y-101313309D01*
X146564752Y-101884187D01*
X144434752Y-101884187D01*
X144435248Y-101315813D01*
X144217243Y-100788200D01*
X143813923Y-100384176D01*
X143286691Y-100165250D01*
X142715813Y-100164752D01*
X142188200Y-100382757D01*
X141784176Y-100786077D01*
X141599817Y-101230063D01*
X141417243Y-100788200D01*
X141013923Y-100384176D01*
X140486691Y-100165250D01*
X139915813Y-100164752D01*
X139388200Y-100382757D01*
X138984176Y-100786077D01*
X138765250Y-101313309D01*
X138764752Y-101884187D01*
X131446584Y-101884187D01*
X131503113Y-101600000D01*
X131393880Y-101050849D01*
X131082811Y-100585302D01*
X130617264Y-100274233D01*
X130068113Y-100165000D01*
X130011887Y-100165000D01*
X129462736Y-100274233D01*
X128997189Y-100585302D01*
X128686120Y-101050849D01*
X128576887Y-101600000D01*
X126583610Y-101600000D01*
X126634134Y-101346000D01*
X126551543Y-100930788D01*
X126316345Y-100578789D01*
X125964346Y-100343591D01*
X125549134Y-100261000D01*
X124894866Y-100261000D01*
X124479654Y-100343591D01*
X124127655Y-100578789D01*
X123892457Y-100930788D01*
X123809866Y-101346000D01*
X110710000Y-101346000D01*
X110710000Y-96825000D01*
X114052560Y-96825000D01*
X114052560Y-98425000D01*
X114096838Y-98660317D01*
X114235910Y-98876441D01*
X114448110Y-99021431D01*
X114700000Y-99072440D01*
X116300000Y-99072440D01*
X116535317Y-99028162D01*
X116751441Y-98889090D01*
X116896431Y-98676890D01*
X116947440Y-98425000D01*
X116947440Y-96825000D01*
X116942736Y-96800000D01*
X118152560Y-96800000D01*
X118152560Y-98400000D01*
X118196838Y-98635317D01*
X118335910Y-98851441D01*
X118548110Y-98996431D01*
X118800000Y-99047440D01*
X120400000Y-99047440D01*
X120635317Y-99003162D01*
X120664804Y-98984187D01*
X156764752Y-98984187D01*
X156982757Y-99511800D01*
X157386077Y-99915824D01*
X157913309Y-100134750D01*
X158484187Y-100135248D01*
X159011800Y-99917243D01*
X159415824Y-99513923D01*
X159594266Y-99084187D01*
X165464752Y-99084187D01*
X165682757Y-99611800D01*
X166086077Y-100015824D01*
X166613309Y-100234750D01*
X167184187Y-100235248D01*
X167711800Y-100017243D01*
X168115824Y-99613923D01*
X168334750Y-99086691D01*
X168335248Y-98515813D01*
X168117243Y-97988200D01*
X167713923Y-97584176D01*
X167186691Y-97365250D01*
X166615813Y-97364752D01*
X166088200Y-97582757D01*
X165684176Y-97986077D01*
X165465250Y-98513309D01*
X165464752Y-99084187D01*
X159594266Y-99084187D01*
X159634750Y-98986691D01*
X159635248Y-98415813D01*
X159417243Y-97888200D01*
X159013923Y-97484176D01*
X158486691Y-97265250D01*
X157915813Y-97264752D01*
X157388200Y-97482757D01*
X156984176Y-97886077D01*
X156765250Y-98413309D01*
X156764752Y-98984187D01*
X120664804Y-98984187D01*
X120851441Y-98864090D01*
X120996431Y-98651890D01*
X121047440Y-98400000D01*
X121047440Y-97784187D01*
X142164752Y-97784187D01*
X142382757Y-98311800D01*
X142786077Y-98715824D01*
X143313309Y-98934750D01*
X143884187Y-98935248D01*
X144411800Y-98717243D01*
X144815824Y-98313923D01*
X145034750Y-97786691D01*
X145035248Y-97215813D01*
X144817243Y-96688200D01*
X144413923Y-96284176D01*
X143886691Y-96065250D01*
X143315813Y-96064752D01*
X142788200Y-96282757D01*
X142384176Y-96686077D01*
X142165250Y-97213309D01*
X142164752Y-97784187D01*
X121047440Y-97784187D01*
X121047440Y-96800000D01*
X121003162Y-96564683D01*
X120951365Y-96484187D01*
X131764752Y-96484187D01*
X131982757Y-97011800D01*
X132386077Y-97415824D01*
X132913309Y-97634750D01*
X133484187Y-97635248D01*
X134011800Y-97417243D01*
X134415824Y-97013923D01*
X134634750Y-96486691D01*
X134634752Y-96484187D01*
X135164752Y-96484187D01*
X135382757Y-97011800D01*
X135786077Y-97415824D01*
X136313309Y-97634750D01*
X136884187Y-97635248D01*
X137411800Y-97417243D01*
X137815824Y-97013923D01*
X138034750Y-96486691D01*
X138035146Y-96031887D01*
X138865000Y-96031887D01*
X138865000Y-96088113D01*
X138974233Y-96637264D01*
X139285302Y-97102811D01*
X139750849Y-97413880D01*
X140300000Y-97523113D01*
X140849151Y-97413880D01*
X141314698Y-97102811D01*
X141625767Y-96637264D01*
X141735000Y-96088113D01*
X141735000Y-96031887D01*
X141625767Y-95482736D01*
X141314698Y-95017189D01*
X140849151Y-94706120D01*
X140818384Y-94700000D01*
X146652560Y-94700000D01*
X146652560Y-96300000D01*
X146696838Y-96535317D01*
X146835910Y-96751441D01*
X147048110Y-96896431D01*
X147300000Y-96947440D01*
X148900000Y-96947440D01*
X149135317Y-96903162D01*
X149351441Y-96764090D01*
X149496431Y-96551890D01*
X149505370Y-96507745D01*
X151071861Y-96507745D01*
X151145995Y-96753864D01*
X151683223Y-96946965D01*
X152253454Y-96919778D01*
X152654005Y-96753864D01*
X152728139Y-96507745D01*
X151900000Y-95679605D01*
X151071861Y-96507745D01*
X149505370Y-96507745D01*
X149547440Y-96300000D01*
X149547440Y-95283223D01*
X150453035Y-95283223D01*
X150480222Y-95853454D01*
X150646136Y-96254005D01*
X150892255Y-96328139D01*
X151720395Y-95500000D01*
X152079605Y-95500000D01*
X152907745Y-96328139D01*
X153153864Y-96254005D01*
X153214903Y-96084187D01*
X156264752Y-96084187D01*
X156482757Y-96611800D01*
X156886077Y-97015824D01*
X157413309Y-97234750D01*
X157984187Y-97235248D01*
X158511800Y-97017243D01*
X158915824Y-96613923D01*
X159134750Y-96086691D01*
X159135000Y-95800000D01*
X166396887Y-95800000D01*
X166506120Y-96349151D01*
X166817189Y-96814698D01*
X167282736Y-97125767D01*
X167831887Y-97235000D01*
X167888113Y-97235000D01*
X168437264Y-97125767D01*
X168902811Y-96814698D01*
X169213880Y-96349151D01*
X169323113Y-95800000D01*
X169213880Y-95250849D01*
X168902811Y-94785302D01*
X168437264Y-94474233D01*
X167888113Y-94365000D01*
X167831887Y-94365000D01*
X167282736Y-94474233D01*
X166817189Y-94785302D01*
X166506120Y-95250849D01*
X166396887Y-95800000D01*
X159135000Y-95800000D01*
X159135248Y-95515813D01*
X158917243Y-94988200D01*
X158513923Y-94584176D01*
X157986691Y-94365250D01*
X157415813Y-94364752D01*
X156888200Y-94582757D01*
X156484176Y-94986077D01*
X156265250Y-95513309D01*
X156264752Y-96084187D01*
X153214903Y-96084187D01*
X153346965Y-95716777D01*
X153319778Y-95146546D01*
X153153864Y-94745995D01*
X152907745Y-94671861D01*
X152079605Y-95500000D01*
X151720395Y-95500000D01*
X150892255Y-94671861D01*
X150646136Y-94745995D01*
X150453035Y-95283223D01*
X149547440Y-95283223D01*
X149547440Y-94700000D01*
X149508351Y-94492255D01*
X151071861Y-94492255D01*
X151900000Y-95320395D01*
X152728139Y-94492255D01*
X152654005Y-94246136D01*
X152116777Y-94053035D01*
X151546546Y-94080222D01*
X151145995Y-94246136D01*
X151071861Y-94492255D01*
X149508351Y-94492255D01*
X149503162Y-94464683D01*
X149364090Y-94248559D01*
X149151890Y-94103569D01*
X148900000Y-94052560D01*
X147300000Y-94052560D01*
X147064683Y-94096838D01*
X146848559Y-94235910D01*
X146703569Y-94448110D01*
X146652560Y-94700000D01*
X140818384Y-94700000D01*
X140300000Y-94596887D01*
X139750849Y-94706120D01*
X139285302Y-95017189D01*
X138974233Y-95482736D01*
X138865000Y-96031887D01*
X138035146Y-96031887D01*
X138035248Y-95915813D01*
X137817243Y-95388200D01*
X137413923Y-94984176D01*
X136886691Y-94765250D01*
X136315813Y-94764752D01*
X135788200Y-94982757D01*
X135384176Y-95386077D01*
X135165250Y-95913309D01*
X135164752Y-96484187D01*
X134634752Y-96484187D01*
X134635248Y-95915813D01*
X134417243Y-95388200D01*
X134013923Y-94984176D01*
X133486691Y-94765250D01*
X132915813Y-94764752D01*
X132388200Y-94982757D01*
X131984176Y-95386077D01*
X131765250Y-95913309D01*
X131764752Y-96484187D01*
X120951365Y-96484187D01*
X120864090Y-96348559D01*
X120651890Y-96203569D01*
X120400000Y-96152560D01*
X118800000Y-96152560D01*
X118564683Y-96196838D01*
X118348559Y-96335910D01*
X118203569Y-96548110D01*
X118152560Y-96800000D01*
X116942736Y-96800000D01*
X116903162Y-96589683D01*
X116764090Y-96373559D01*
X116551890Y-96228569D01*
X116300000Y-96177560D01*
X114700000Y-96177560D01*
X114464683Y-96221838D01*
X114248559Y-96360910D01*
X114103569Y-96573110D01*
X114052560Y-96825000D01*
X110710000Y-96825000D01*
X110710000Y-93484187D01*
X114164752Y-93484187D01*
X114382757Y-94011800D01*
X114786077Y-94415824D01*
X115313309Y-94634750D01*
X115884187Y-94635248D01*
X116411800Y-94417243D01*
X116815824Y-94013923D01*
X117008860Y-93549039D01*
X124368096Y-93549039D01*
X124528959Y-93937423D01*
X124904866Y-94352389D01*
X125410959Y-94591914D01*
X125633000Y-94470629D01*
X125633000Y-93327000D01*
X125887000Y-93327000D01*
X125887000Y-94470629D01*
X126109041Y-94591914D01*
X126615134Y-94352389D01*
X126991041Y-93937423D01*
X127130796Y-93600000D01*
X170052560Y-93600000D01*
X170052560Y-95200000D01*
X170096838Y-95435317D01*
X170235910Y-95651441D01*
X170448110Y-95796431D01*
X170700000Y-95847440D01*
X172300000Y-95847440D01*
X172535317Y-95803162D01*
X172751441Y-95664090D01*
X172896431Y-95451890D01*
X172947440Y-95200000D01*
X172947440Y-94684187D01*
X173864752Y-94684187D01*
X174082757Y-95211800D01*
X174486077Y-95615824D01*
X175013309Y-95834750D01*
X175584187Y-95835248D01*
X176111800Y-95617243D01*
X176515824Y-95213923D01*
X176734750Y-94686691D01*
X176735248Y-94115813D01*
X176517243Y-93588200D01*
X176113923Y-93184176D01*
X175586691Y-92965250D01*
X175015813Y-92964752D01*
X174488200Y-93182757D01*
X174084176Y-93586077D01*
X173865250Y-94113309D01*
X173864752Y-94684187D01*
X172947440Y-94684187D01*
X172947440Y-93600000D01*
X172903162Y-93364683D01*
X172764090Y-93148559D01*
X172551890Y-93003569D01*
X172300000Y-92952560D01*
X170700000Y-92952560D01*
X170464683Y-92996838D01*
X170248559Y-93135910D01*
X170103569Y-93348110D01*
X170052560Y-93600000D01*
X127130796Y-93600000D01*
X127151904Y-93549039D01*
X127029915Y-93327000D01*
X125887000Y-93327000D01*
X125633000Y-93327000D01*
X124490085Y-93327000D01*
X124368096Y-93549039D01*
X117008860Y-93549039D01*
X117034750Y-93486691D01*
X117035248Y-92915813D01*
X117008452Y-92850961D01*
X124368096Y-92850961D01*
X124490085Y-93073000D01*
X125633000Y-93073000D01*
X125633000Y-91929371D01*
X125887000Y-91929371D01*
X125887000Y-93073000D01*
X127029915Y-93073000D01*
X127151904Y-92850961D01*
X126991041Y-92462577D01*
X126615134Y-92047611D01*
X126109041Y-91808086D01*
X125887000Y-91929371D01*
X125633000Y-91929371D01*
X125410959Y-91808086D01*
X124904866Y-92047611D01*
X124528959Y-92462577D01*
X124368096Y-92850961D01*
X117008452Y-92850961D01*
X116817243Y-92388200D01*
X116413923Y-91984176D01*
X115886691Y-91765250D01*
X115315813Y-91764752D01*
X114788200Y-91982757D01*
X114384176Y-92386077D01*
X114165250Y-92913309D01*
X114164752Y-93484187D01*
X110710000Y-93484187D01*
X110710000Y-91509041D01*
X159608086Y-91509041D01*
X159847611Y-92015134D01*
X160262577Y-92391041D01*
X160650961Y-92551904D01*
X160873000Y-92429915D01*
X160873000Y-91287000D01*
X161127000Y-91287000D01*
X161127000Y-92429915D01*
X161349039Y-92551904D01*
X161737423Y-92391041D01*
X162152389Y-92015134D01*
X162391914Y-91509041D01*
X162270629Y-91287000D01*
X161127000Y-91287000D01*
X160873000Y-91287000D01*
X159729371Y-91287000D01*
X159608086Y-91509041D01*
X110710000Y-91509041D01*
X110710000Y-90810959D01*
X159608086Y-90810959D01*
X159729371Y-91033000D01*
X160873000Y-91033000D01*
X160873000Y-89890085D01*
X161127000Y-89890085D01*
X161127000Y-91033000D01*
X162270629Y-91033000D01*
X162391914Y-90810959D01*
X162341316Y-90704050D01*
X163165000Y-90704050D01*
X163165000Y-90775950D01*
X163304681Y-91478174D01*
X163702459Y-92073491D01*
X164297776Y-92471269D01*
X165000000Y-92610950D01*
X165702224Y-92471269D01*
X166297541Y-92073491D01*
X166695319Y-91478174D01*
X166835000Y-90775950D01*
X166835000Y-90704050D01*
X166695319Y-90001826D01*
X166297541Y-89406509D01*
X165702224Y-89008731D01*
X165000000Y-88869050D01*
X164297776Y-89008731D01*
X163702459Y-89406509D01*
X163304681Y-90001826D01*
X163165000Y-90704050D01*
X162341316Y-90704050D01*
X162152389Y-90304866D01*
X161737423Y-89928959D01*
X161349039Y-89768096D01*
X161127000Y-89890085D01*
X160873000Y-89890085D01*
X160650961Y-89768096D01*
X160262577Y-89928959D01*
X159847611Y-90304866D01*
X159608086Y-90810959D01*
X110710000Y-90810959D01*
X110710000Y-89509041D01*
X126208086Y-89509041D01*
X126447611Y-90015134D01*
X126862577Y-90391041D01*
X127250961Y-90551904D01*
X127473000Y-90429915D01*
X127473000Y-89287000D01*
X127727000Y-89287000D01*
X127727000Y-90429915D01*
X127949039Y-90551904D01*
X128337423Y-90391041D01*
X128752389Y-90015134D01*
X128991914Y-89509041D01*
X128870629Y-89287000D01*
X127727000Y-89287000D01*
X127473000Y-89287000D01*
X126329371Y-89287000D01*
X126208086Y-89509041D01*
X110710000Y-89509041D01*
X110710000Y-88810959D01*
X126208086Y-88810959D01*
X126329371Y-89033000D01*
X127473000Y-89033000D01*
X127473000Y-87890085D01*
X127727000Y-87890085D01*
X127727000Y-89033000D01*
X128870629Y-89033000D01*
X128991914Y-88810959D01*
X128752389Y-88304866D01*
X128337423Y-87928959D01*
X127949039Y-87768096D01*
X127727000Y-87890085D01*
X127473000Y-87890085D01*
X127250961Y-87768096D01*
X126862577Y-87928959D01*
X126447611Y-88304866D01*
X126208086Y-88810959D01*
X110710000Y-88810959D01*
X110710000Y-86011887D01*
X131765000Y-86011887D01*
X131765000Y-86068113D01*
X131874233Y-86617264D01*
X132185302Y-87082811D01*
X132650849Y-87393880D01*
X133200000Y-87503113D01*
X133749151Y-87393880D01*
X134214698Y-87082811D01*
X134525767Y-86617264D01*
X134635000Y-86068113D01*
X134635000Y-86011887D01*
X135165000Y-86011887D01*
X135165000Y-86068113D01*
X135274233Y-86617264D01*
X135585302Y-87082811D01*
X136050849Y-87393880D01*
X136600000Y-87503113D01*
X137149151Y-87393880D01*
X137614698Y-87082811D01*
X137925767Y-86617264D01*
X138011911Y-86184187D01*
X138864752Y-86184187D01*
X139082757Y-86711800D01*
X139486077Y-87115824D01*
X140013309Y-87334750D01*
X140584187Y-87335248D01*
X140640725Y-87311887D01*
X142165000Y-87311887D01*
X142165000Y-87368113D01*
X142274233Y-87917264D01*
X142585302Y-88382811D01*
X143050849Y-88693880D01*
X143600000Y-88803113D01*
X144149151Y-88693880D01*
X144614698Y-88382811D01*
X144925767Y-87917264D01*
X144980520Y-87642000D01*
X148254560Y-87642000D01*
X148254560Y-89142000D01*
X148298838Y-89377317D01*
X148437910Y-89593441D01*
X148650110Y-89738431D01*
X148902000Y-89789440D01*
X149802000Y-89789440D01*
X150037317Y-89745162D01*
X150141655Y-89678022D01*
X150206788Y-89721543D01*
X150622000Y-89804134D01*
X151037212Y-89721543D01*
X151257000Y-89574685D01*
X151476788Y-89721543D01*
X151892000Y-89804134D01*
X152307212Y-89721543D01*
X152659211Y-89486345D01*
X152894409Y-89134346D01*
X152919591Y-89007745D01*
X156671861Y-89007745D01*
X156745995Y-89253864D01*
X157283223Y-89446965D01*
X157853454Y-89419778D01*
X158254005Y-89253864D01*
X158328139Y-89007745D01*
X157500000Y-88179605D01*
X156671861Y-89007745D01*
X152919591Y-89007745D01*
X152977000Y-88719134D01*
X152977000Y-88064866D01*
X152920978Y-87783223D01*
X156053035Y-87783223D01*
X156080222Y-88353454D01*
X156246136Y-88754005D01*
X156492255Y-88828139D01*
X157320395Y-88000000D01*
X157679605Y-88000000D01*
X158507745Y-88828139D01*
X158753864Y-88754005D01*
X158946965Y-88216777D01*
X158919778Y-87646546D01*
X158753864Y-87245995D01*
X158507745Y-87171861D01*
X157679605Y-88000000D01*
X157320395Y-88000000D01*
X156492255Y-87171861D01*
X156246136Y-87245995D01*
X156053035Y-87783223D01*
X152920978Y-87783223D01*
X152894409Y-87649654D01*
X152659211Y-87297655D01*
X152307212Y-87062457D01*
X151954284Y-86992255D01*
X156671861Y-86992255D01*
X157500000Y-87820395D01*
X158328139Y-86992255D01*
X158254005Y-86746136D01*
X157716777Y-86553035D01*
X157146546Y-86580222D01*
X156745995Y-86746136D01*
X156671861Y-86992255D01*
X151954284Y-86992255D01*
X151892000Y-86979866D01*
X151476788Y-87062457D01*
X151257000Y-87209315D01*
X151037212Y-87062457D01*
X150622000Y-86979866D01*
X150206788Y-87062457D01*
X150141981Y-87105759D01*
X150053890Y-87045569D01*
X149802000Y-86994560D01*
X148902000Y-86994560D01*
X148666683Y-87038838D01*
X148450559Y-87177910D01*
X148305569Y-87390110D01*
X148254560Y-87642000D01*
X144980520Y-87642000D01*
X145035000Y-87368113D01*
X145035000Y-87311887D01*
X144925767Y-86762736D01*
X144614698Y-86297189D01*
X144149151Y-85986120D01*
X143600000Y-85876887D01*
X143050849Y-85986120D01*
X142585302Y-86297189D01*
X142274233Y-86762736D01*
X142165000Y-87311887D01*
X140640725Y-87311887D01*
X141111800Y-87117243D01*
X141515824Y-86713923D01*
X141734750Y-86186691D01*
X141735248Y-85615813D01*
X141517243Y-85088200D01*
X141113923Y-84684176D01*
X140586691Y-84465250D01*
X140015813Y-84464752D01*
X139488200Y-84682757D01*
X139084176Y-85086077D01*
X138865250Y-85613309D01*
X138864752Y-86184187D01*
X138011911Y-86184187D01*
X138035000Y-86068113D01*
X138035000Y-86011887D01*
X137925767Y-85462736D01*
X137614698Y-84997189D01*
X137149151Y-84686120D01*
X136600000Y-84576887D01*
X136050849Y-84686120D01*
X135585302Y-84997189D01*
X135274233Y-85462736D01*
X135165000Y-86011887D01*
X134635000Y-86011887D01*
X134525767Y-85462736D01*
X134214698Y-84997189D01*
X133749151Y-84686120D01*
X133200000Y-84576887D01*
X132650849Y-84686120D01*
X132185302Y-84997189D01*
X131874233Y-85462736D01*
X131765000Y-86011887D01*
X110710000Y-86011887D01*
X110710000Y-83750000D01*
X116902560Y-83750000D01*
X116902560Y-85250000D01*
X116946838Y-85485317D01*
X117085910Y-85701441D01*
X117298110Y-85846431D01*
X117550000Y-85897440D01*
X118450000Y-85897440D01*
X118685317Y-85853162D01*
X118789655Y-85786022D01*
X118854788Y-85829543D01*
X119270000Y-85912134D01*
X119685212Y-85829543D01*
X119905000Y-85682685D01*
X120124788Y-85829543D01*
X120540000Y-85912134D01*
X120955212Y-85829543D01*
X121307211Y-85594345D01*
X121542409Y-85242346D01*
X121625000Y-84827134D01*
X121625000Y-84172866D01*
X121542409Y-83757654D01*
X121307211Y-83405655D01*
X121125422Y-83284187D01*
X156064752Y-83284187D01*
X156282757Y-83811800D01*
X156686077Y-84215824D01*
X157213309Y-84434750D01*
X157784187Y-84435248D01*
X158311800Y-84217243D01*
X158715824Y-83813923D01*
X158728171Y-83784187D01*
X167564752Y-83784187D01*
X167782757Y-84311800D01*
X168186077Y-84715824D01*
X168713309Y-84934750D01*
X169284187Y-84935248D01*
X169811800Y-84717243D01*
X170021663Y-84507745D01*
X173171861Y-84507745D01*
X173245995Y-84753864D01*
X173783223Y-84946965D01*
X174353454Y-84919778D01*
X174754005Y-84753864D01*
X174828139Y-84507745D01*
X174000000Y-83679605D01*
X173171861Y-84507745D01*
X170021663Y-84507745D01*
X170215824Y-84313923D01*
X170434750Y-83786691D01*
X170435189Y-83283223D01*
X172553035Y-83283223D01*
X172580222Y-83853454D01*
X172746136Y-84254005D01*
X172992255Y-84328139D01*
X173820395Y-83500000D01*
X174179605Y-83500000D01*
X175007745Y-84328139D01*
X175253864Y-84254005D01*
X175446965Y-83716777D01*
X175419778Y-83146546D01*
X175253864Y-82745995D01*
X175007745Y-82671861D01*
X174179605Y-83500000D01*
X173820395Y-83500000D01*
X172992255Y-82671861D01*
X172746136Y-82745995D01*
X172553035Y-83283223D01*
X170435189Y-83283223D01*
X170435248Y-83215813D01*
X170217243Y-82688200D01*
X170021640Y-82492255D01*
X173171861Y-82492255D01*
X174000000Y-83320395D01*
X174828139Y-82492255D01*
X174754005Y-82246136D01*
X174216777Y-82053035D01*
X173646546Y-82080222D01*
X173245995Y-82246136D01*
X173171861Y-82492255D01*
X170021640Y-82492255D01*
X169813923Y-82284176D01*
X169286691Y-82065250D01*
X168715813Y-82064752D01*
X168188200Y-82282757D01*
X167784176Y-82686077D01*
X167565250Y-83213309D01*
X167564752Y-83784187D01*
X158728171Y-83784187D01*
X158934750Y-83286691D01*
X158935248Y-82715813D01*
X158717243Y-82188200D01*
X158313923Y-81784176D01*
X157786691Y-81565250D01*
X157215813Y-81564752D01*
X156688200Y-81782757D01*
X156284176Y-82186077D01*
X156065250Y-82713309D01*
X156064752Y-83284187D01*
X121125422Y-83284187D01*
X120955212Y-83170457D01*
X120540000Y-83087866D01*
X120124788Y-83170457D01*
X119905000Y-83317315D01*
X119685212Y-83170457D01*
X119270000Y-83087866D01*
X118854788Y-83170457D01*
X118789981Y-83213759D01*
X118701890Y-83153569D01*
X118450000Y-83102560D01*
X117550000Y-83102560D01*
X117314683Y-83146838D01*
X117098559Y-83285910D01*
X116953569Y-83498110D01*
X116902560Y-83750000D01*
X110710000Y-83750000D01*
X110710000Y-79278187D01*
X113372752Y-79278187D01*
X113590757Y-79805800D01*
X113994077Y-80209824D01*
X114521309Y-80428750D01*
X115092187Y-80429248D01*
X115619800Y-80211243D01*
X116023824Y-79807923D01*
X116242750Y-79280691D01*
X116243000Y-78994000D01*
X123504887Y-78994000D01*
X123614120Y-79543151D01*
X123925189Y-80008698D01*
X124390736Y-80319767D01*
X124939887Y-80429000D01*
X124996113Y-80429000D01*
X125545264Y-80319767D01*
X126010811Y-80008698D01*
X126290907Y-79589505D01*
X126382757Y-79811800D01*
X126786077Y-80215824D01*
X127313309Y-80434750D01*
X127884187Y-80435248D01*
X128411800Y-80217243D01*
X128815824Y-79813923D01*
X128946176Y-79500000D01*
X129813377Y-79500000D01*
X129956864Y-80221358D01*
X130365481Y-80832896D01*
X130977019Y-81241513D01*
X131698377Y-81385000D01*
X133301623Y-81385000D01*
X134022981Y-81241513D01*
X134634519Y-80832896D01*
X135043136Y-80221358D01*
X135186623Y-79500000D01*
X151813377Y-79500000D01*
X151956864Y-80221358D01*
X152365481Y-80832896D01*
X152977019Y-81241513D01*
X153698377Y-81385000D01*
X155301623Y-81385000D01*
X155808444Y-81284187D01*
X159564752Y-81284187D01*
X159782757Y-81811800D01*
X160186077Y-82215824D01*
X160713309Y-82434750D01*
X161284187Y-82435248D01*
X161811800Y-82217243D01*
X162215824Y-81813923D01*
X162434750Y-81286691D01*
X162435248Y-80715813D01*
X162217243Y-80188200D01*
X161862982Y-79833320D01*
X171346285Y-79833320D01*
X171475533Y-80126123D01*
X172175806Y-80394388D01*
X172925435Y-80374250D01*
X173524467Y-80126123D01*
X173653715Y-79833320D01*
X172500000Y-78679605D01*
X171346285Y-79833320D01*
X161862982Y-79833320D01*
X161813923Y-79784176D01*
X161286691Y-79565250D01*
X160715813Y-79564752D01*
X160188200Y-79782757D01*
X159784176Y-80186077D01*
X159565250Y-80713309D01*
X159564752Y-81284187D01*
X155808444Y-81284187D01*
X156022981Y-81241513D01*
X156634519Y-80832896D01*
X157043136Y-80221358D01*
X157186623Y-79500000D01*
X157043136Y-78778642D01*
X156634519Y-78167104D01*
X156022981Y-77758487D01*
X155301623Y-77615000D01*
X153698377Y-77615000D01*
X152977019Y-77758487D01*
X152365481Y-78167104D01*
X151956864Y-78778642D01*
X151813377Y-79500000D01*
X135186623Y-79500000D01*
X135043136Y-78778642D01*
X134634519Y-78167104D01*
X134022981Y-77758487D01*
X133301623Y-77615000D01*
X131698377Y-77615000D01*
X130977019Y-77758487D01*
X130365481Y-78167104D01*
X129956864Y-78778642D01*
X129813377Y-79500000D01*
X128946176Y-79500000D01*
X129034750Y-79286691D01*
X129035248Y-78715813D01*
X128817243Y-78188200D01*
X128413923Y-77784176D01*
X127886691Y-77565250D01*
X127315813Y-77564752D01*
X126788200Y-77782757D01*
X126384176Y-78186077D01*
X126294031Y-78403170D01*
X126010811Y-77979302D01*
X125545264Y-77668233D01*
X124996113Y-77559000D01*
X124939887Y-77559000D01*
X124390736Y-77668233D01*
X123925189Y-77979302D01*
X123614120Y-78444849D01*
X123504887Y-78994000D01*
X116243000Y-78994000D01*
X116243248Y-78709813D01*
X116025243Y-78182200D01*
X115621923Y-77778176D01*
X115094691Y-77559250D01*
X114523813Y-77558752D01*
X113996200Y-77776757D01*
X113592176Y-78180077D01*
X113373250Y-78707309D01*
X113372752Y-79278187D01*
X110710000Y-79278187D01*
X110710000Y-73406000D01*
X114766928Y-73406000D01*
X114883773Y-73993419D01*
X115216519Y-74491409D01*
X115714509Y-74824155D01*
X116301928Y-74941000D01*
X116362072Y-74941000D01*
X116949491Y-74824155D01*
X117447481Y-74491409D01*
X117602000Y-74260155D01*
X117756519Y-74491409D01*
X118254509Y-74824155D01*
X118841928Y-74941000D01*
X118902072Y-74941000D01*
X119489491Y-74824155D01*
X119910026Y-74543163D01*
X120047910Y-74757441D01*
X120260110Y-74902431D01*
X120512000Y-74953440D01*
X122312000Y-74953440D01*
X122547317Y-74909162D01*
X122763441Y-74770090D01*
X122908431Y-74557890D01*
X122959440Y-74306000D01*
X122959440Y-72857462D01*
X138694687Y-72857462D01*
X138968903Y-73521115D01*
X139476215Y-74029312D01*
X140139388Y-74304686D01*
X140857462Y-74305313D01*
X141521115Y-74031097D01*
X142029312Y-73523785D01*
X142304686Y-72860612D01*
X142304688Y-72857462D01*
X143694687Y-72857462D01*
X143968903Y-73521115D01*
X144476215Y-74029312D01*
X145139388Y-74304686D01*
X145857462Y-74305313D01*
X146521115Y-74031097D01*
X147029312Y-73523785D01*
X147304686Y-72860612D01*
X147305313Y-72142538D01*
X147290996Y-72107887D01*
X148933000Y-72107887D01*
X148933000Y-72164113D01*
X149042233Y-72713264D01*
X149353302Y-73178811D01*
X149818849Y-73489880D01*
X150368000Y-73599113D01*
X150917151Y-73489880D01*
X151382698Y-73178811D01*
X151693767Y-72713264D01*
X151803000Y-72164113D01*
X151803000Y-72107887D01*
X151693767Y-71558736D01*
X151382698Y-71093189D01*
X150917151Y-70782120D01*
X150368000Y-70672887D01*
X149818849Y-70782120D01*
X149353302Y-71093189D01*
X149042233Y-71558736D01*
X148933000Y-72107887D01*
X147290996Y-72107887D01*
X147031097Y-71478885D01*
X146523785Y-70970688D01*
X145860612Y-70695314D01*
X145142538Y-70694687D01*
X144478885Y-70968903D01*
X143970688Y-71476215D01*
X143695314Y-72139388D01*
X143694687Y-72857462D01*
X142304688Y-72857462D01*
X142305313Y-72142538D01*
X142031097Y-71478885D01*
X141523785Y-70970688D01*
X140860612Y-70695314D01*
X140142538Y-70694687D01*
X139478885Y-70968903D01*
X138970688Y-71476215D01*
X138695314Y-72139388D01*
X138694687Y-72857462D01*
X122959440Y-72857462D01*
X122959440Y-72506000D01*
X122915162Y-72270683D01*
X122776090Y-72054559D01*
X122563890Y-71909569D01*
X122312000Y-71858560D01*
X120512000Y-71858560D01*
X120276683Y-71902838D01*
X120060559Y-72041910D01*
X119915569Y-72254110D01*
X119912281Y-72270344D01*
X119489491Y-71987845D01*
X118902072Y-71871000D01*
X118841928Y-71871000D01*
X118254509Y-71987845D01*
X117756519Y-72320591D01*
X117602000Y-72551845D01*
X117447481Y-72320591D01*
X116949491Y-71987845D01*
X116362072Y-71871000D01*
X116301928Y-71871000D01*
X115714509Y-71987845D01*
X115216519Y-72320591D01*
X114883773Y-72818581D01*
X114766928Y-73406000D01*
X110710000Y-73406000D01*
X110710000Y-62600000D01*
X117952560Y-62600000D01*
X117952560Y-64400000D01*
X117996838Y-64635317D01*
X118135910Y-64851441D01*
X118348110Y-64996431D01*
X118364344Y-64999719D01*
X118081845Y-65422509D01*
X117965000Y-66009928D01*
X117965000Y-66070072D01*
X118081845Y-66657491D01*
X118414591Y-67155481D01*
X118645845Y-67310000D01*
X118414591Y-67464519D01*
X118081845Y-67962509D01*
X117965000Y-68549928D01*
X117965000Y-68610072D01*
X118081845Y-69197491D01*
X118414591Y-69695481D01*
X118912581Y-70028227D01*
X119500000Y-70145072D01*
X120087419Y-70028227D01*
X120585409Y-69695481D01*
X120627901Y-69631887D01*
X123565000Y-69631887D01*
X123565000Y-69688113D01*
X123674233Y-70237264D01*
X123985302Y-70702811D01*
X124450849Y-71013880D01*
X125000000Y-71123113D01*
X125549151Y-71013880D01*
X126014698Y-70702811D01*
X126325767Y-70237264D01*
X126435000Y-69688113D01*
X126435000Y-69631887D01*
X126326029Y-69084050D01*
X131165000Y-69084050D01*
X131165000Y-69155950D01*
X131304681Y-69858174D01*
X131702459Y-70453491D01*
X132297776Y-70851269D01*
X133000000Y-70990950D01*
X133702224Y-70851269D01*
X134297541Y-70453491D01*
X134410666Y-70284187D01*
X159564752Y-70284187D01*
X159782757Y-70811800D01*
X159865000Y-70894187D01*
X159865000Y-77105394D01*
X159784176Y-77186077D01*
X159565250Y-77713309D01*
X159564752Y-78284187D01*
X159782757Y-78811800D01*
X160186077Y-79215824D01*
X160713309Y-79434750D01*
X161284187Y-79435248D01*
X161811800Y-79217243D01*
X162215824Y-78813923D01*
X162434750Y-78286691D01*
X162434846Y-78175806D01*
X170605612Y-78175806D01*
X170625750Y-78925435D01*
X170873877Y-79524467D01*
X171166680Y-79653715D01*
X172320395Y-78500000D01*
X172679605Y-78500000D01*
X173833320Y-79653715D01*
X174126123Y-79524467D01*
X174394388Y-78824194D01*
X174374250Y-78074565D01*
X174126123Y-77475533D01*
X173833320Y-77346285D01*
X172679605Y-78500000D01*
X172320395Y-78500000D01*
X171166680Y-77346285D01*
X170873877Y-77475533D01*
X170605612Y-78175806D01*
X162434846Y-78175806D01*
X162435248Y-77715813D01*
X162217243Y-77188200D01*
X162135000Y-77105813D01*
X162135000Y-75863403D01*
X163164682Y-75863403D01*
X163443455Y-76538086D01*
X163959199Y-77054730D01*
X164633395Y-77334681D01*
X165363403Y-77335318D01*
X165771538Y-77166680D01*
X171346285Y-77166680D01*
X172500000Y-78320395D01*
X173653715Y-77166680D01*
X173524467Y-76873877D01*
X172824194Y-76605612D01*
X172074565Y-76625750D01*
X171475533Y-76873877D01*
X171346285Y-77166680D01*
X165771538Y-77166680D01*
X166038086Y-77056545D01*
X166554730Y-76540801D01*
X166834681Y-75866605D01*
X166835318Y-75136597D01*
X166556545Y-74461914D01*
X166040801Y-73945270D01*
X165366605Y-73665319D01*
X164636597Y-73664682D01*
X163961914Y-73943455D01*
X163445270Y-74459199D01*
X163165319Y-75133395D01*
X163164682Y-75863403D01*
X162135000Y-75863403D01*
X162135000Y-72250000D01*
X170602560Y-72250000D01*
X170602560Y-74750000D01*
X170646838Y-74985317D01*
X170785910Y-75201441D01*
X170998110Y-75346431D01*
X171250000Y-75397440D01*
X173750000Y-75397440D01*
X173985317Y-75353162D01*
X174201441Y-75214090D01*
X174346431Y-75001890D01*
X174397440Y-74750000D01*
X174397440Y-72250000D01*
X174353162Y-72014683D01*
X174214090Y-71798559D01*
X174001890Y-71653569D01*
X173750000Y-71602560D01*
X171250000Y-71602560D01*
X171014683Y-71646838D01*
X170798559Y-71785910D01*
X170653569Y-71998110D01*
X170602560Y-72250000D01*
X162135000Y-72250000D01*
X162135000Y-70894606D01*
X162215824Y-70813923D01*
X162434750Y-70286691D01*
X162435188Y-69784187D01*
X162564752Y-69784187D01*
X162782757Y-70311800D01*
X163186077Y-70715824D01*
X163713309Y-70934750D01*
X164284187Y-70935248D01*
X164811800Y-70717243D01*
X165215824Y-70313923D01*
X165434750Y-69786691D01*
X165435248Y-69215813D01*
X165380805Y-69084050D01*
X168165000Y-69084050D01*
X168165000Y-69155950D01*
X168304681Y-69858174D01*
X168702459Y-70453491D01*
X169297776Y-70851269D01*
X170000000Y-70990950D01*
X170702224Y-70851269D01*
X171297541Y-70453491D01*
X171695319Y-69858174D01*
X171835000Y-69155950D01*
X171835000Y-69084050D01*
X171695319Y-68381826D01*
X171297541Y-67786509D01*
X170702224Y-67388731D01*
X170000000Y-67249050D01*
X169297776Y-67388731D01*
X168702459Y-67786509D01*
X168304681Y-68381826D01*
X168165000Y-69084050D01*
X165380805Y-69084050D01*
X165217243Y-68688200D01*
X164813923Y-68284176D01*
X164286691Y-68065250D01*
X163715813Y-68064752D01*
X163188200Y-68282757D01*
X162784176Y-68686077D01*
X162565250Y-69213309D01*
X162564752Y-69784187D01*
X162435188Y-69784187D01*
X162435248Y-69715813D01*
X162217243Y-69188200D01*
X161813923Y-68784176D01*
X161286691Y-68565250D01*
X160715813Y-68564752D01*
X160188200Y-68782757D01*
X159784176Y-69186077D01*
X159565250Y-69713309D01*
X159564752Y-70284187D01*
X134410666Y-70284187D01*
X134695319Y-69858174D01*
X134835000Y-69155950D01*
X134835000Y-69084050D01*
X134695319Y-68381826D01*
X134297541Y-67786509D01*
X133702224Y-67388731D01*
X133000000Y-67249050D01*
X132297776Y-67388731D01*
X131702459Y-67786509D01*
X131304681Y-68381826D01*
X131165000Y-69084050D01*
X126326029Y-69084050D01*
X126325767Y-69082736D01*
X126014698Y-68617189D01*
X125549151Y-68306120D01*
X125000000Y-68196887D01*
X124450849Y-68306120D01*
X123985302Y-68617189D01*
X123674233Y-69082736D01*
X123565000Y-69631887D01*
X120627901Y-69631887D01*
X120918155Y-69197491D01*
X121035000Y-68610072D01*
X121035000Y-68549928D01*
X120918155Y-67962509D01*
X120585409Y-67464519D01*
X120354155Y-67310000D01*
X120585409Y-67155481D01*
X120918155Y-66657491D01*
X120933929Y-66578187D01*
X152488752Y-66578187D01*
X152706757Y-67105800D01*
X153110077Y-67509824D01*
X153637309Y-67728750D01*
X154208187Y-67729248D01*
X154735800Y-67511243D01*
X155139824Y-67107923D01*
X155358750Y-66580691D01*
X155359248Y-66009813D01*
X155141243Y-65482200D01*
X154737923Y-65078176D01*
X154210691Y-64859250D01*
X153639813Y-64858752D01*
X153112200Y-65076757D01*
X152708176Y-65480077D01*
X152489250Y-66007309D01*
X152488752Y-66578187D01*
X120933929Y-66578187D01*
X121035000Y-66070072D01*
X121035000Y-66009928D01*
X120918155Y-65422509D01*
X120637163Y-65001974D01*
X120851441Y-64864090D01*
X120996431Y-64651890D01*
X121047440Y-64400000D01*
X121047440Y-62600000D01*
X121003162Y-62364683D01*
X120864090Y-62148559D01*
X120651890Y-62003569D01*
X120400000Y-61952560D01*
X118600000Y-61952560D01*
X118364683Y-61996838D01*
X118148559Y-62135910D01*
X118003569Y-62348110D01*
X117952560Y-62600000D01*
X110710000Y-62600000D01*
X110710000Y-61863403D01*
X131164682Y-61863403D01*
X131443455Y-62538086D01*
X131959199Y-63054730D01*
X132633395Y-63334681D01*
X133363403Y-63335318D01*
X134038086Y-63056545D01*
X134237516Y-62857462D01*
X141194687Y-62857462D01*
X141468903Y-63521115D01*
X141976215Y-64029312D01*
X142639388Y-64304686D01*
X143357462Y-64305313D01*
X144021115Y-64031097D01*
X144529312Y-63523785D01*
X144804686Y-62860612D01*
X144805210Y-62260187D01*
X148932752Y-62260187D01*
X149150757Y-62787800D01*
X149554077Y-63191824D01*
X150081309Y-63410750D01*
X150652187Y-63411248D01*
X151179800Y-63193243D01*
X151583824Y-62789923D01*
X151802750Y-62262691D01*
X151803248Y-61691813D01*
X151756299Y-61578187D01*
X152488752Y-61578187D01*
X152706757Y-62105800D01*
X153110077Y-62509824D01*
X153637309Y-62728750D01*
X154208187Y-62729248D01*
X154735800Y-62511243D01*
X155139824Y-62107923D01*
X155358750Y-61580691D01*
X155359190Y-61076000D01*
X156948560Y-61076000D01*
X156948560Y-62876000D01*
X156992838Y-63111317D01*
X157131910Y-63327441D01*
X157344110Y-63472431D01*
X157360344Y-63475719D01*
X157077845Y-63898509D01*
X156961000Y-64485928D01*
X156961000Y-64546072D01*
X157077845Y-65133491D01*
X157410591Y-65631481D01*
X157641845Y-65786000D01*
X157410591Y-65940519D01*
X157077845Y-66438509D01*
X156961000Y-67025928D01*
X156961000Y-67086072D01*
X157077845Y-67673491D01*
X157410591Y-68171481D01*
X157908581Y-68504227D01*
X158496000Y-68621072D01*
X159083419Y-68504227D01*
X159581409Y-68171481D01*
X159914155Y-67673491D01*
X160031000Y-67086072D01*
X160031000Y-67025928D01*
X159914155Y-66438509D01*
X159581409Y-65940519D01*
X159350155Y-65786000D01*
X159581409Y-65631481D01*
X159914155Y-65133491D01*
X160031000Y-64546072D01*
X160031000Y-64485928D01*
X159914155Y-63898509D01*
X159633163Y-63477974D01*
X159847441Y-63340090D01*
X159992431Y-63127890D01*
X160043440Y-62876000D01*
X160043440Y-61863403D01*
X168164682Y-61863403D01*
X168443455Y-62538086D01*
X168959199Y-63054730D01*
X169633395Y-63334681D01*
X170363403Y-63335318D01*
X171038086Y-63056545D01*
X171554730Y-62540801D01*
X171834681Y-61866605D01*
X171835318Y-61136597D01*
X171556545Y-60461914D01*
X171040801Y-59945270D01*
X170366605Y-59665319D01*
X169636597Y-59664682D01*
X168961914Y-59943455D01*
X168445270Y-60459199D01*
X168165319Y-61133395D01*
X168164682Y-61863403D01*
X160043440Y-61863403D01*
X160043440Y-61076000D01*
X159999162Y-60840683D01*
X159860090Y-60624559D01*
X159647890Y-60479569D01*
X159396000Y-60428560D01*
X157596000Y-60428560D01*
X157360683Y-60472838D01*
X157144559Y-60611910D01*
X156999569Y-60824110D01*
X156948560Y-61076000D01*
X155359190Y-61076000D01*
X155359248Y-61009813D01*
X155141243Y-60482200D01*
X154737923Y-60078176D01*
X154210691Y-59859250D01*
X153639813Y-59858752D01*
X153112200Y-60076757D01*
X152708176Y-60480077D01*
X152489250Y-61007309D01*
X152488752Y-61578187D01*
X151756299Y-61578187D01*
X151585243Y-61164200D01*
X151181923Y-60760176D01*
X150654691Y-60541250D01*
X150083813Y-60540752D01*
X149556200Y-60758757D01*
X149152176Y-61162077D01*
X148933250Y-61689309D01*
X148932752Y-62260187D01*
X144805210Y-62260187D01*
X144805313Y-62142538D01*
X144531097Y-61478885D01*
X144023785Y-60970688D01*
X143360612Y-60695314D01*
X142642538Y-60694687D01*
X141978885Y-60968903D01*
X141470688Y-61476215D01*
X141195314Y-62139388D01*
X141194687Y-62857462D01*
X134237516Y-62857462D01*
X134554730Y-62540801D01*
X134834681Y-61866605D01*
X134835318Y-61136597D01*
X134556545Y-60461914D01*
X134040801Y-59945270D01*
X133366605Y-59665319D01*
X132636597Y-59664682D01*
X131961914Y-59943455D01*
X131445270Y-60459199D01*
X131165319Y-61133395D01*
X131164682Y-61863403D01*
X110710000Y-61863403D01*
X110710000Y-59784187D01*
X123564752Y-59784187D01*
X123782757Y-60311800D01*
X124186077Y-60715824D01*
X124713309Y-60934750D01*
X125284187Y-60935248D01*
X125811800Y-60717243D01*
X126215824Y-60313923D01*
X126434750Y-59786691D01*
X126435248Y-59215813D01*
X126256904Y-58784187D01*
X137564752Y-58784187D01*
X137782757Y-59311800D01*
X138186077Y-59715824D01*
X138713309Y-59934750D01*
X139284187Y-59935248D01*
X139811800Y-59717243D01*
X140215824Y-59313923D01*
X140434750Y-58786691D01*
X140435000Y-58500000D01*
X147696887Y-58500000D01*
X147806120Y-59049151D01*
X148117189Y-59514698D01*
X148582736Y-59825767D01*
X149131887Y-59935000D01*
X149188113Y-59935000D01*
X149737264Y-59825767D01*
X150202811Y-59514698D01*
X150338325Y-59311887D01*
X162565000Y-59311887D01*
X162565000Y-59368113D01*
X162674233Y-59917264D01*
X162985302Y-60382811D01*
X163450849Y-60693880D01*
X164000000Y-60803113D01*
X164549151Y-60693880D01*
X165014698Y-60382811D01*
X165325767Y-59917264D01*
X165435000Y-59368113D01*
X165435000Y-59311887D01*
X165325767Y-58762736D01*
X165014698Y-58297189D01*
X164549151Y-57986120D01*
X164000000Y-57876887D01*
X163450849Y-57986120D01*
X162985302Y-58297189D01*
X162674233Y-58762736D01*
X162565000Y-59311887D01*
X150338325Y-59311887D01*
X150513880Y-59049151D01*
X150623113Y-58500000D01*
X150513880Y-57950849D01*
X150202811Y-57485302D01*
X149737264Y-57174233D01*
X149188113Y-57065000D01*
X149131887Y-57065000D01*
X148582736Y-57174233D01*
X148117189Y-57485302D01*
X147806120Y-57950849D01*
X147696887Y-58500000D01*
X140435000Y-58500000D01*
X140435248Y-58215813D01*
X140217243Y-57688200D01*
X139813923Y-57284176D01*
X139286691Y-57065250D01*
X138715813Y-57064752D01*
X138188200Y-57282757D01*
X137784176Y-57686077D01*
X137565250Y-58213309D01*
X137564752Y-58784187D01*
X126256904Y-58784187D01*
X126217243Y-58688200D01*
X125813923Y-58284176D01*
X125286691Y-58065250D01*
X124715813Y-58064752D01*
X124188200Y-58282757D01*
X123784176Y-58686077D01*
X123565250Y-59213309D01*
X123564752Y-59784187D01*
X110710000Y-59784187D01*
X110710000Y-56080089D01*
X110746950Y-56169515D01*
X111824811Y-57249259D01*
X113233825Y-57834333D01*
X114759482Y-57835664D01*
X116169515Y-57253050D01*
X117249259Y-56175189D01*
X117834333Y-54766175D01*
X117835664Y-53240518D01*
X117426391Y-52250000D01*
X119602560Y-52250000D01*
X119602560Y-56750000D01*
X119646838Y-56985317D01*
X119785910Y-57201441D01*
X119998110Y-57346431D01*
X120250000Y-57397440D01*
X122750000Y-57397440D01*
X122985317Y-57353162D01*
X123201441Y-57214090D01*
X123346431Y-57001890D01*
X123397440Y-56750000D01*
X123397440Y-53443480D01*
X125065000Y-53443480D01*
X125065000Y-55556520D01*
X125208487Y-56277878D01*
X125617104Y-56889416D01*
X126228642Y-57298033D01*
X126950000Y-57441520D01*
X127671358Y-57298033D01*
X128282896Y-56889416D01*
X128691513Y-56277878D01*
X128835000Y-55556520D01*
X128835000Y-53443480D01*
X130515000Y-53443480D01*
X130515000Y-55556520D01*
X130658487Y-56277878D01*
X131067104Y-56889416D01*
X131678642Y-57298033D01*
X132400000Y-57441520D01*
X133121358Y-57298033D01*
X133732896Y-56889416D01*
X134141513Y-56277878D01*
X134285000Y-55556520D01*
X134285000Y-53443480D01*
X134216678Y-53100000D01*
X139952560Y-53100000D01*
X139952560Y-54900000D01*
X139996838Y-55135317D01*
X140135910Y-55351441D01*
X140348110Y-55496431D01*
X140600000Y-55547440D01*
X142400000Y-55547440D01*
X142635317Y-55503162D01*
X142851441Y-55364090D01*
X142996431Y-55151890D01*
X142999719Y-55135656D01*
X143422509Y-55418155D01*
X144009928Y-55535000D01*
X144070072Y-55535000D01*
X144657491Y-55418155D01*
X145155481Y-55085409D01*
X145310000Y-54854155D01*
X145464519Y-55085409D01*
X145962509Y-55418155D01*
X146549928Y-55535000D01*
X146610072Y-55535000D01*
X147197491Y-55418155D01*
X147695481Y-55085409D01*
X148028227Y-54587419D01*
X148145072Y-54000000D01*
X148028227Y-53412581D01*
X147695481Y-52914591D01*
X147197491Y-52581845D01*
X146610072Y-52465000D01*
X146549928Y-52465000D01*
X145962509Y-52581845D01*
X145464519Y-52914591D01*
X145310000Y-53145845D01*
X145155481Y-52914591D01*
X144657491Y-52581845D01*
X144070072Y-52465000D01*
X144009928Y-52465000D01*
X143422509Y-52581845D01*
X143001974Y-52862837D01*
X142864090Y-52648559D01*
X142651890Y-52503569D01*
X142400000Y-52452560D01*
X140600000Y-52452560D01*
X140364683Y-52496838D01*
X140148559Y-52635910D01*
X140003569Y-52848110D01*
X139952560Y-53100000D01*
X134216678Y-53100000D01*
X134141513Y-52722122D01*
X133826051Y-52250000D01*
X153602560Y-52250000D01*
X153602560Y-56750000D01*
X153646838Y-56985317D01*
X153785910Y-57201441D01*
X153998110Y-57346431D01*
X154250000Y-57397440D01*
X156750000Y-57397440D01*
X156985317Y-57353162D01*
X157201441Y-57214090D01*
X157346431Y-57001890D01*
X157397440Y-56750000D01*
X157397440Y-53443480D01*
X159065000Y-53443480D01*
X159065000Y-55556520D01*
X159208487Y-56277878D01*
X159617104Y-56889416D01*
X160228642Y-57298033D01*
X160950000Y-57441520D01*
X161671358Y-57298033D01*
X162282896Y-56889416D01*
X162691513Y-56277878D01*
X162835000Y-55556520D01*
X162835000Y-53443480D01*
X164515000Y-53443480D01*
X164515000Y-55556520D01*
X164658487Y-56277878D01*
X165067104Y-56889416D01*
X165678642Y-57298033D01*
X166400000Y-57441520D01*
X167121358Y-57298033D01*
X167732896Y-56889416D01*
X168141513Y-56277878D01*
X168285000Y-55556520D01*
X168285000Y-53443480D01*
X168141513Y-52722122D01*
X167732896Y-52110584D01*
X167121358Y-51701967D01*
X166400000Y-51558480D01*
X165678642Y-51701967D01*
X165067104Y-52110584D01*
X164658487Y-52722122D01*
X164515000Y-53443480D01*
X162835000Y-53443480D01*
X162691513Y-52722122D01*
X162282896Y-52110584D01*
X161671358Y-51701967D01*
X160950000Y-51558480D01*
X160228642Y-51701967D01*
X159617104Y-52110584D01*
X159208487Y-52722122D01*
X159065000Y-53443480D01*
X157397440Y-53443480D01*
X157397440Y-52250000D01*
X157353162Y-52014683D01*
X157214090Y-51798559D01*
X157001890Y-51653569D01*
X156750000Y-51602560D01*
X154250000Y-51602560D01*
X154014683Y-51646838D01*
X153798559Y-51785910D01*
X153653569Y-51998110D01*
X153602560Y-52250000D01*
X133826051Y-52250000D01*
X133732896Y-52110584D01*
X133121358Y-51701967D01*
X132400000Y-51558480D01*
X131678642Y-51701967D01*
X131067104Y-52110584D01*
X130658487Y-52722122D01*
X130515000Y-53443480D01*
X128835000Y-53443480D01*
X128691513Y-52722122D01*
X128282896Y-52110584D01*
X127671358Y-51701967D01*
X126950000Y-51558480D01*
X126228642Y-51701967D01*
X125617104Y-52110584D01*
X125208487Y-52722122D01*
X125065000Y-53443480D01*
X123397440Y-53443480D01*
X123397440Y-52250000D01*
X123353162Y-52014683D01*
X123214090Y-51798559D01*
X123001890Y-51653569D01*
X122750000Y-51602560D01*
X120250000Y-51602560D01*
X120014683Y-51646838D01*
X119798559Y-51785910D01*
X119653569Y-51998110D01*
X119602560Y-52250000D01*
X117426391Y-52250000D01*
X117253050Y-51830485D01*
X116175189Y-50750741D01*
X116077074Y-50710000D01*
X173919911Y-50710000D01*
X173830485Y-50746950D01*
X173830485Y-50746950D01*
G37*
X173830485Y-50746950D02*
X172750741Y-51824811D01*
X172165667Y-53233825D01*
X172164336Y-54759482D01*
X172746950Y-56169515D01*
X173824811Y-57249259D01*
X175233825Y-57834333D01*
X176759482Y-57835664D01*
X178169515Y-57253050D01*
X179249259Y-56175189D01*
X179290000Y-56077074D01*
X179290000Y-123919911D01*
X179253050Y-123830485D01*
X178175189Y-122750741D01*
X176766175Y-122165667D01*
X175240518Y-122164336D01*
X173830485Y-122746950D01*
X172750741Y-123824811D01*
X172165667Y-125233825D01*
X172164336Y-126759482D01*
X172746950Y-128169515D01*
X173824811Y-129249259D01*
X173922926Y-129290000D01*
X116080089Y-129290000D01*
X116169515Y-129253050D01*
X117249259Y-128175189D01*
X117834333Y-126766175D01*
X117835664Y-125240518D01*
X117404564Y-124197175D01*
X126182430Y-124197175D01*
X126305565Y-124484788D01*
X126987734Y-124744707D01*
X127717443Y-124723786D01*
X128294435Y-124484788D01*
X128417570Y-124197175D01*
X127300000Y-123079605D01*
X126182430Y-124197175D01*
X117404564Y-124197175D01*
X117253050Y-123830485D01*
X116175189Y-122750741D01*
X115782625Y-122587734D01*
X125455293Y-122587734D01*
X125476214Y-123317443D01*
X125715212Y-123894435D01*
X126002825Y-124017570D01*
X127120395Y-122900000D01*
X127479605Y-122900000D01*
X128597175Y-124017570D01*
X128884788Y-123894435D01*
X129144707Y-123212266D01*
X129137188Y-122950000D01*
X138402560Y-122950000D01*
X138402560Y-125450000D01*
X138446838Y-125685317D01*
X138585910Y-125901441D01*
X138798110Y-126046431D01*
X139050000Y-126097440D01*
X141550000Y-126097440D01*
X141785317Y-126053162D01*
X142001441Y-125914090D01*
X142146431Y-125701890D01*
X142180567Y-125533320D01*
X144146285Y-125533320D01*
X144275533Y-125826123D01*
X144975806Y-126094388D01*
X145725435Y-126074250D01*
X146324467Y-125826123D01*
X146453715Y-125533320D01*
X145300000Y-124379605D01*
X144146285Y-125533320D01*
X142180567Y-125533320D01*
X142197440Y-125450000D01*
X142197440Y-123875806D01*
X143405612Y-123875806D01*
X143425750Y-124625435D01*
X143673877Y-125224467D01*
X143966680Y-125353715D01*
X145120395Y-124200000D01*
X145479605Y-124200000D01*
X146633320Y-125353715D01*
X146926123Y-125224467D01*
X147175574Y-124573305D01*
X148414674Y-124573305D01*
X148701043Y-125266372D01*
X149230839Y-125797093D01*
X149923405Y-126084672D01*
X150673305Y-126085326D01*
X151366372Y-125798957D01*
X151897093Y-125269161D01*
X152184672Y-124576595D01*
X152185326Y-123826695D01*
X152127089Y-123685750D01*
X161465000Y-123685750D01*
X161465000Y-124726309D01*
X161561673Y-124959698D01*
X161740301Y-125138327D01*
X161973690Y-125235000D01*
X163014250Y-125235000D01*
X163173000Y-125076250D01*
X163173000Y-123527000D01*
X163427000Y-123527000D01*
X163427000Y-125076250D01*
X163585750Y-125235000D01*
X164626310Y-125235000D01*
X164859699Y-125138327D01*
X165038327Y-124959698D01*
X165135000Y-124726309D01*
X165135000Y-123685750D01*
X164976250Y-123527000D01*
X163427000Y-123527000D01*
X163173000Y-123527000D01*
X161623750Y-123527000D01*
X161465000Y-123685750D01*
X152127089Y-123685750D01*
X151898957Y-123133628D01*
X151369161Y-122602907D01*
X150676595Y-122315328D01*
X149926695Y-122314674D01*
X149233628Y-122601043D01*
X148702907Y-123130839D01*
X148415328Y-123823405D01*
X148414674Y-124573305D01*
X147175574Y-124573305D01*
X147194388Y-124524194D01*
X147174250Y-123774565D01*
X146926123Y-123175533D01*
X146633320Y-123046285D01*
X145479605Y-124200000D01*
X145120395Y-124200000D01*
X143966680Y-123046285D01*
X143673877Y-123175533D01*
X143405612Y-123875806D01*
X142197440Y-123875806D01*
X142197440Y-122950000D01*
X142181763Y-122866680D01*
X144146285Y-122866680D01*
X145300000Y-124020395D01*
X146453715Y-122866680D01*
X146324467Y-122573877D01*
X145624194Y-122305612D01*
X144874565Y-122325750D01*
X144275533Y-122573877D01*
X144146285Y-122866680D01*
X142181763Y-122866680D01*
X142153162Y-122714683D01*
X142014090Y-122498559D01*
X141801890Y-122353569D01*
X141550000Y-122302560D01*
X139050000Y-122302560D01*
X138814683Y-122346838D01*
X138598559Y-122485910D01*
X138453569Y-122698110D01*
X138402560Y-122950000D01*
X129137188Y-122950000D01*
X129123786Y-122482557D01*
X128954429Y-122073691D01*
X161465000Y-122073691D01*
X161465000Y-123114250D01*
X161623750Y-123273000D01*
X163173000Y-123273000D01*
X163173000Y-121723750D01*
X163427000Y-121723750D01*
X163427000Y-123273000D01*
X164976250Y-123273000D01*
X165135000Y-123114250D01*
X165135000Y-122073691D01*
X165038327Y-121840302D01*
X164859699Y-121661673D01*
X164626310Y-121565000D01*
X163585750Y-121565000D01*
X163427000Y-121723750D01*
X163173000Y-121723750D01*
X163014250Y-121565000D01*
X161973690Y-121565000D01*
X161740301Y-121661673D01*
X161561673Y-121840302D01*
X161465000Y-122073691D01*
X128954429Y-122073691D01*
X128884788Y-121905565D01*
X128597175Y-121782430D01*
X127479605Y-122900000D01*
X127120395Y-122900000D01*
X126002825Y-121782430D01*
X125715212Y-121905565D01*
X125455293Y-122587734D01*
X115782625Y-122587734D01*
X114766175Y-122165667D01*
X113240518Y-122164336D01*
X111830485Y-122746950D01*
X110750741Y-123824811D01*
X110710000Y-123922926D01*
X110710000Y-121602825D01*
X126182430Y-121602825D01*
X127300000Y-122720395D01*
X128417570Y-121602825D01*
X128294435Y-121315212D01*
X127612266Y-121055293D01*
X126882557Y-121076214D01*
X126305565Y-121315212D01*
X126182430Y-121602825D01*
X110710000Y-121602825D01*
X110710000Y-114200000D01*
X125452560Y-114200000D01*
X125452560Y-116600000D01*
X125496838Y-116835317D01*
X125635910Y-117051441D01*
X125848110Y-117196431D01*
X126100000Y-117247440D01*
X128500000Y-117247440D01*
X128735317Y-117203162D01*
X128951441Y-117064090D01*
X129096431Y-116851890D01*
X129147440Y-116600000D01*
X129147440Y-116263403D01*
X161464682Y-116263403D01*
X161743455Y-116938086D01*
X162259199Y-117454730D01*
X162933395Y-117734681D01*
X163663403Y-117735318D01*
X164338086Y-117456545D01*
X164854730Y-116940801D01*
X165134681Y-116266605D01*
X165135318Y-115536597D01*
X164856545Y-114861914D01*
X164340801Y-114345270D01*
X163666605Y-114065319D01*
X162936597Y-114064682D01*
X162261914Y-114343455D01*
X161745270Y-114859199D01*
X161465319Y-115533395D01*
X161464682Y-116263403D01*
X129147440Y-116263403D01*
X129147440Y-114384187D01*
X137064752Y-114384187D01*
X137282757Y-114911800D01*
X137686077Y-115315824D01*
X138213309Y-115534750D01*
X138784187Y-115535248D01*
X139311800Y-115317243D01*
X139544448Y-115085000D01*
X146455481Y-115085000D01*
X146586077Y-115215824D01*
X147113309Y-115434750D01*
X147684187Y-115435248D01*
X148211800Y-115217243D01*
X148615824Y-114813923D01*
X148834750Y-114286691D01*
X148835248Y-113715813D01*
X148617243Y-113188200D01*
X148213923Y-112784176D01*
X147854151Y-112634786D01*
X148384187Y-112635248D01*
X148911800Y-112417243D01*
X149315824Y-112013923D01*
X149534750Y-111486691D01*
X149535248Y-110915813D01*
X149317243Y-110388200D01*
X148913923Y-109984176D01*
X148386691Y-109765250D01*
X147815813Y-109764752D01*
X147288200Y-109982757D01*
X146884176Y-110386077D01*
X146665250Y-110913309D01*
X146664752Y-111484187D01*
X146882757Y-112011800D01*
X147286077Y-112415824D01*
X147645849Y-112565214D01*
X147115813Y-112564752D01*
X146588200Y-112782757D01*
X146255377Y-113115000D01*
X139544345Y-113115000D01*
X139313923Y-112884176D01*
X138786691Y-112665250D01*
X138215813Y-112664752D01*
X137688200Y-112882757D01*
X137284176Y-113286077D01*
X137065250Y-113813309D01*
X137064752Y-114384187D01*
X129147440Y-114384187D01*
X129147440Y-114200000D01*
X129103162Y-113964683D01*
X128964090Y-113748559D01*
X128751890Y-113603569D01*
X128500000Y-113552560D01*
X126100000Y-113552560D01*
X125864683Y-113596838D01*
X125648559Y-113735910D01*
X125503569Y-113948110D01*
X125452560Y-114200000D01*
X110710000Y-114200000D01*
X110710000Y-111200000D01*
X136476887Y-111200000D01*
X136586120Y-111749151D01*
X136897189Y-112214698D01*
X137362736Y-112525767D01*
X137911887Y-112635000D01*
X137968113Y-112635000D01*
X138517264Y-112525767D01*
X138982811Y-112214698D01*
X139293880Y-111749151D01*
X139403113Y-111200000D01*
X139293880Y-110650849D01*
X138982811Y-110185302D01*
X138517264Y-109874233D01*
X137968113Y-109765000D01*
X137911887Y-109765000D01*
X137362736Y-109874233D01*
X136897189Y-110185302D01*
X136586120Y-110650849D01*
X136476887Y-111200000D01*
X110710000Y-111200000D01*
X110710000Y-109307745D01*
X153671861Y-109307745D01*
X153745995Y-109553864D01*
X154283223Y-109746965D01*
X154853454Y-109719778D01*
X155254005Y-109553864D01*
X155328139Y-109307745D01*
X155229436Y-109209041D01*
X156808086Y-109209041D01*
X157047611Y-109715134D01*
X157462577Y-110091041D01*
X157850961Y-110251904D01*
X158073000Y-110129915D01*
X158073000Y-108987000D01*
X158327000Y-108987000D01*
X158327000Y-110129915D01*
X158549039Y-110251904D01*
X158937423Y-110091041D01*
X159352389Y-109715134D01*
X159591914Y-109209041D01*
X159470629Y-108987000D01*
X158327000Y-108987000D01*
X158073000Y-108987000D01*
X156929371Y-108987000D01*
X156808086Y-109209041D01*
X155229436Y-109209041D01*
X154500000Y-108479605D01*
X153671861Y-109307745D01*
X110710000Y-109307745D01*
X110710000Y-107756887D01*
X114065000Y-107756887D01*
X114065000Y-107813113D01*
X114174233Y-108362264D01*
X114485302Y-108827811D01*
X114950849Y-109138880D01*
X115500000Y-109248113D01*
X116049151Y-109138880D01*
X116514698Y-108827811D01*
X116825767Y-108362264D01*
X116935000Y-107813113D01*
X116935000Y-107756887D01*
X116930028Y-107731887D01*
X118165000Y-107731887D01*
X118165000Y-107788113D01*
X118274233Y-108337264D01*
X118585302Y-108802811D01*
X119050849Y-109113880D01*
X119600000Y-109223113D01*
X120149151Y-109113880D01*
X120614698Y-108802811D01*
X120925767Y-108337264D01*
X121035000Y-107788113D01*
X121035000Y-107731887D01*
X120968984Y-107400000D01*
X120976887Y-107400000D01*
X121086120Y-107949151D01*
X121397189Y-108414698D01*
X121862736Y-108725767D01*
X122411887Y-108835000D01*
X122468113Y-108835000D01*
X123017264Y-108725767D01*
X123482811Y-108414698D01*
X123793880Y-107949151D01*
X123846584Y-107684187D01*
X131164752Y-107684187D01*
X131382757Y-108211800D01*
X131786077Y-108615824D01*
X132313309Y-108834750D01*
X132884187Y-108835248D01*
X133411800Y-108617243D01*
X133815824Y-108213923D01*
X134034750Y-107686691D01*
X134035248Y-107115813D01*
X133817243Y-106588200D01*
X133413923Y-106184176D01*
X132886691Y-105965250D01*
X132315813Y-105964752D01*
X131788200Y-106182757D01*
X131384176Y-106586077D01*
X131165250Y-107113309D01*
X131164752Y-107684187D01*
X123846584Y-107684187D01*
X123903113Y-107400000D01*
X123793880Y-106850849D01*
X123482811Y-106385302D01*
X123017264Y-106074233D01*
X122468113Y-105965000D01*
X122411887Y-105965000D01*
X121862736Y-106074233D01*
X121397189Y-106385302D01*
X121086120Y-106850849D01*
X120976887Y-107400000D01*
X120968984Y-107400000D01*
X120925767Y-107182736D01*
X120614698Y-106717189D01*
X120149151Y-106406120D01*
X119600000Y-106296887D01*
X119050849Y-106406120D01*
X118585302Y-106717189D01*
X118274233Y-107182736D01*
X118165000Y-107731887D01*
X116930028Y-107731887D01*
X116825767Y-107207736D01*
X116514698Y-106742189D01*
X116049151Y-106431120D01*
X115500000Y-106321887D01*
X114950849Y-106431120D01*
X114485302Y-106742189D01*
X114174233Y-107207736D01*
X114065000Y-107756887D01*
X110710000Y-107756887D01*
X110710000Y-105060000D01*
X136387866Y-105060000D01*
X136470457Y-105475212D01*
X136617315Y-105695000D01*
X136470457Y-105914788D01*
X136387866Y-106330000D01*
X136470457Y-106745212D01*
X136513759Y-106810019D01*
X136453569Y-106898110D01*
X136402560Y-107150000D01*
X136402560Y-108050000D01*
X136446838Y-108285317D01*
X136585910Y-108501441D01*
X136798110Y-108646431D01*
X137050000Y-108697440D01*
X138550000Y-108697440D01*
X138785317Y-108653162D01*
X139001441Y-108514090D01*
X139146431Y-108301890D01*
X139197440Y-108050000D01*
X139197440Y-107150000D01*
X139153162Y-106914683D01*
X139086022Y-106810345D01*
X139129543Y-106745212D01*
X139212134Y-106330000D01*
X139129543Y-105914788D01*
X138982685Y-105695000D01*
X139129543Y-105475212D01*
X139192242Y-105160000D01*
X143587866Y-105160000D01*
X143670457Y-105575212D01*
X143817315Y-105795000D01*
X143670457Y-106014788D01*
X143587866Y-106430000D01*
X143670457Y-106845212D01*
X143713759Y-106910019D01*
X143653569Y-106998110D01*
X143602560Y-107250000D01*
X143602560Y-108150000D01*
X143646838Y-108385317D01*
X143785910Y-108601441D01*
X143998110Y-108746431D01*
X144250000Y-108797440D01*
X145750000Y-108797440D01*
X145985317Y-108753162D01*
X146201441Y-108614090D01*
X146346431Y-108401890D01*
X146397440Y-108150000D01*
X146397440Y-108083223D01*
X153053035Y-108083223D01*
X153080222Y-108653454D01*
X153246136Y-109054005D01*
X153492255Y-109128139D01*
X154320395Y-108300000D01*
X154679605Y-108300000D01*
X155507745Y-109128139D01*
X155753864Y-109054005D01*
X155797758Y-108931887D01*
X165465000Y-108931887D01*
X165465000Y-108988113D01*
X165574233Y-109537264D01*
X165885302Y-110002811D01*
X166350849Y-110313880D01*
X166900000Y-110423113D01*
X167449151Y-110313880D01*
X167914698Y-110002811D01*
X168225767Y-109537264D01*
X168335000Y-108988113D01*
X168335000Y-108931887D01*
X168235829Y-108433320D01*
X172446285Y-108433320D01*
X172575533Y-108726123D01*
X173275806Y-108994388D01*
X174025435Y-108974250D01*
X174624467Y-108726123D01*
X174753715Y-108433320D01*
X173600000Y-107279605D01*
X172446285Y-108433320D01*
X168235829Y-108433320D01*
X168225767Y-108382736D01*
X167914698Y-107917189D01*
X167449151Y-107606120D01*
X166900000Y-107496887D01*
X166350849Y-107606120D01*
X165885302Y-107917189D01*
X165574233Y-108382736D01*
X165465000Y-108931887D01*
X155797758Y-108931887D01*
X155946965Y-108516777D01*
X155946688Y-108510959D01*
X156808086Y-108510959D01*
X156929371Y-108733000D01*
X158073000Y-108733000D01*
X158073000Y-107590085D01*
X158327000Y-107590085D01*
X158327000Y-108733000D01*
X159470629Y-108733000D01*
X159591914Y-108510959D01*
X159352389Y-108004866D01*
X158937423Y-107628959D01*
X158549039Y-107468096D01*
X158327000Y-107590085D01*
X158073000Y-107590085D01*
X157850961Y-107468096D01*
X157462577Y-107628959D01*
X157047611Y-108004866D01*
X156808086Y-108510959D01*
X155946688Y-108510959D01*
X155919778Y-107946546D01*
X155753864Y-107545995D01*
X155507745Y-107471861D01*
X154679605Y-108300000D01*
X154320395Y-108300000D01*
X153492255Y-107471861D01*
X153246136Y-107545995D01*
X153053035Y-108083223D01*
X146397440Y-108083223D01*
X146397440Y-107292255D01*
X153671861Y-107292255D01*
X154500000Y-108120395D01*
X155328139Y-107292255D01*
X155254005Y-107046136D01*
X154716777Y-106853035D01*
X154146546Y-106880222D01*
X153745995Y-107046136D01*
X153671861Y-107292255D01*
X146397440Y-107292255D01*
X146397440Y-107250000D01*
X146353162Y-107014683D01*
X146286022Y-106910345D01*
X146329543Y-106845212D01*
X146343348Y-106775806D01*
X171705612Y-106775806D01*
X171725750Y-107525435D01*
X171973877Y-108124467D01*
X172266680Y-108253715D01*
X173420395Y-107100000D01*
X173779605Y-107100000D01*
X174933320Y-108253715D01*
X175226123Y-108124467D01*
X175494388Y-107424194D01*
X175474250Y-106674565D01*
X175226123Y-106075533D01*
X174933320Y-105946285D01*
X173779605Y-107100000D01*
X173420395Y-107100000D01*
X172266680Y-105946285D01*
X171973877Y-106075533D01*
X171705612Y-106775806D01*
X146343348Y-106775806D01*
X146412134Y-106430000D01*
X146329543Y-106014788D01*
X146182685Y-105795000D01*
X146201607Y-105766680D01*
X172446285Y-105766680D01*
X173600000Y-106920395D01*
X174753715Y-105766680D01*
X174624467Y-105473877D01*
X173924194Y-105205612D01*
X173174565Y-105225750D01*
X172575533Y-105473877D01*
X172446285Y-105766680D01*
X146201607Y-105766680D01*
X146329543Y-105575212D01*
X146412134Y-105160000D01*
X146329543Y-104744788D01*
X146094345Y-104392789D01*
X145742346Y-104157591D01*
X145327134Y-104075000D01*
X144672866Y-104075000D01*
X144257654Y-104157591D01*
X143905655Y-104392789D01*
X143670457Y-104744788D01*
X143587866Y-105160000D01*
X139192242Y-105160000D01*
X139212134Y-105060000D01*
X139129543Y-104644788D01*
X138894345Y-104292789D01*
X138542346Y-104057591D01*
X138127134Y-103975000D01*
X137472866Y-103975000D01*
X137057654Y-104057591D01*
X136705655Y-104292789D01*
X136470457Y-104644788D01*
X136387866Y-105060000D01*
X110710000Y-105060000D01*
X110710000Y-101346000D01*
X123809866Y-101346000D01*
X123892457Y-101761212D01*
X124039315Y-101981000D01*
X123892457Y-102200788D01*
X123809866Y-102616000D01*
X123892457Y-103031212D01*
X123935759Y-103096019D01*
X123875569Y-103184110D01*
X123824560Y-103436000D01*
X123824560Y-104336000D01*
X123868838Y-104571317D01*
X124007910Y-104787441D01*
X124220110Y-104932431D01*
X124472000Y-104983440D01*
X125972000Y-104983440D01*
X126207317Y-104939162D01*
X126423441Y-104800090D01*
X126568431Y-104587890D01*
X126619440Y-104336000D01*
X126619440Y-103584187D01*
X153064752Y-103584187D01*
X153282757Y-104111800D01*
X153686077Y-104515824D01*
X154213309Y-104734750D01*
X154784187Y-104735248D01*
X155311800Y-104517243D01*
X155715824Y-104113923D01*
X155934750Y-103586691D01*
X155935248Y-103015813D01*
X155717243Y-102488200D01*
X155313923Y-102084176D01*
X154786691Y-101865250D01*
X154215813Y-101864752D01*
X153688200Y-102082757D01*
X153284176Y-102486077D01*
X153065250Y-103013309D01*
X153064752Y-103584187D01*
X126619440Y-103584187D01*
X126619440Y-103436000D01*
X126575162Y-103200683D01*
X126508022Y-103096345D01*
X126551543Y-103031212D01*
X126634134Y-102616000D01*
X126551543Y-102200788D01*
X126404685Y-101981000D01*
X126551543Y-101761212D01*
X126583610Y-101600000D01*
X128576887Y-101600000D01*
X128686120Y-102149151D01*
X128997189Y-102614698D01*
X129462736Y-102925767D01*
X130011887Y-103035000D01*
X130068113Y-103035000D01*
X130617264Y-102925767D01*
X131082811Y-102614698D01*
X131393880Y-102149151D01*
X131446584Y-101884187D01*
X138764752Y-101884187D01*
X138982757Y-102411800D01*
X139386077Y-102815824D01*
X139913309Y-103034750D01*
X140484187Y-103035248D01*
X141011800Y-102817243D01*
X141415824Y-102413923D01*
X141600183Y-101969937D01*
X141782757Y-102411800D01*
X142186077Y-102815824D01*
X142713309Y-103034750D01*
X143284187Y-103035248D01*
X143811800Y-102817243D01*
X144215824Y-102413923D01*
X144434750Y-101886691D01*
X144434752Y-101884187D01*
X146564752Y-101884187D01*
X146782757Y-102411800D01*
X147186077Y-102815824D01*
X147713309Y-103034750D01*
X148284187Y-103035248D01*
X148811800Y-102817243D01*
X149215824Y-102413923D01*
X149434750Y-101886691D01*
X149435248Y-101315813D01*
X149242779Y-100850000D01*
X171702560Y-100850000D01*
X171702560Y-103350000D01*
X171746838Y-103585317D01*
X171885910Y-103801441D01*
X172098110Y-103946431D01*
X172350000Y-103997440D01*
X174850000Y-103997440D01*
X175085317Y-103953162D01*
X175301441Y-103814090D01*
X175446431Y-103601890D01*
X175497440Y-103350000D01*
X175497440Y-100850000D01*
X175453162Y-100614683D01*
X175314090Y-100398559D01*
X175101890Y-100253569D01*
X174850000Y-100202560D01*
X172350000Y-100202560D01*
X172114683Y-100246838D01*
X171898559Y-100385910D01*
X171753569Y-100598110D01*
X171702560Y-100850000D01*
X149242779Y-100850000D01*
X149217243Y-100788200D01*
X148813923Y-100384176D01*
X148286691Y-100165250D01*
X147715813Y-100164752D01*
X147188200Y-100382757D01*
X146784176Y-100786077D01*
X146565250Y-101313309D01*
X146564752Y-101884187D01*
X144434752Y-101884187D01*
X144435248Y-101315813D01*
X144217243Y-100788200D01*
X143813923Y-100384176D01*
X143286691Y-100165250D01*
X142715813Y-100164752D01*
X142188200Y-100382757D01*
X141784176Y-100786077D01*
X141599817Y-101230063D01*
X141417243Y-100788200D01*
X141013923Y-100384176D01*
X140486691Y-100165250D01*
X139915813Y-100164752D01*
X139388200Y-100382757D01*
X138984176Y-100786077D01*
X138765250Y-101313309D01*
X138764752Y-101884187D01*
X131446584Y-101884187D01*
X131503113Y-101600000D01*
X131393880Y-101050849D01*
X131082811Y-100585302D01*
X130617264Y-100274233D01*
X130068113Y-100165000D01*
X130011887Y-100165000D01*
X129462736Y-100274233D01*
X128997189Y-100585302D01*
X128686120Y-101050849D01*
X128576887Y-101600000D01*
X126583610Y-101600000D01*
X126634134Y-101346000D01*
X126551543Y-100930788D01*
X126316345Y-100578789D01*
X125964346Y-100343591D01*
X125549134Y-100261000D01*
X124894866Y-100261000D01*
X124479654Y-100343591D01*
X124127655Y-100578789D01*
X123892457Y-100930788D01*
X123809866Y-101346000D01*
X110710000Y-101346000D01*
X110710000Y-96825000D01*
X114052560Y-96825000D01*
X114052560Y-98425000D01*
X114096838Y-98660317D01*
X114235910Y-98876441D01*
X114448110Y-99021431D01*
X114700000Y-99072440D01*
X116300000Y-99072440D01*
X116535317Y-99028162D01*
X116751441Y-98889090D01*
X116896431Y-98676890D01*
X116947440Y-98425000D01*
X116947440Y-96825000D01*
X116942736Y-96800000D01*
X118152560Y-96800000D01*
X118152560Y-98400000D01*
X118196838Y-98635317D01*
X118335910Y-98851441D01*
X118548110Y-98996431D01*
X118800000Y-99047440D01*
X120400000Y-99047440D01*
X120635317Y-99003162D01*
X120664804Y-98984187D01*
X156764752Y-98984187D01*
X156982757Y-99511800D01*
X157386077Y-99915824D01*
X157913309Y-100134750D01*
X158484187Y-100135248D01*
X159011800Y-99917243D01*
X159415824Y-99513923D01*
X159594266Y-99084187D01*
X165464752Y-99084187D01*
X165682757Y-99611800D01*
X166086077Y-100015824D01*
X166613309Y-100234750D01*
X167184187Y-100235248D01*
X167711800Y-100017243D01*
X168115824Y-99613923D01*
X168334750Y-99086691D01*
X168335248Y-98515813D01*
X168117243Y-97988200D01*
X167713923Y-97584176D01*
X167186691Y-97365250D01*
X166615813Y-97364752D01*
X166088200Y-97582757D01*
X165684176Y-97986077D01*
X165465250Y-98513309D01*
X165464752Y-99084187D01*
X159594266Y-99084187D01*
X159634750Y-98986691D01*
X159635248Y-98415813D01*
X159417243Y-97888200D01*
X159013923Y-97484176D01*
X158486691Y-97265250D01*
X157915813Y-97264752D01*
X157388200Y-97482757D01*
X156984176Y-97886077D01*
X156765250Y-98413309D01*
X156764752Y-98984187D01*
X120664804Y-98984187D01*
X120851441Y-98864090D01*
X120996431Y-98651890D01*
X121047440Y-98400000D01*
X121047440Y-97784187D01*
X142164752Y-97784187D01*
X142382757Y-98311800D01*
X142786077Y-98715824D01*
X143313309Y-98934750D01*
X143884187Y-98935248D01*
X144411800Y-98717243D01*
X144815824Y-98313923D01*
X145034750Y-97786691D01*
X145035248Y-97215813D01*
X144817243Y-96688200D01*
X144413923Y-96284176D01*
X143886691Y-96065250D01*
X143315813Y-96064752D01*
X142788200Y-96282757D01*
X142384176Y-96686077D01*
X142165250Y-97213309D01*
X142164752Y-97784187D01*
X121047440Y-97784187D01*
X121047440Y-96800000D01*
X121003162Y-96564683D01*
X120951365Y-96484187D01*
X131764752Y-96484187D01*
X131982757Y-97011800D01*
X132386077Y-97415824D01*
X132913309Y-97634750D01*
X133484187Y-97635248D01*
X134011800Y-97417243D01*
X134415824Y-97013923D01*
X134634750Y-96486691D01*
X134634752Y-96484187D01*
X135164752Y-96484187D01*
X135382757Y-97011800D01*
X135786077Y-97415824D01*
X136313309Y-97634750D01*
X136884187Y-97635248D01*
X137411800Y-97417243D01*
X137815824Y-97013923D01*
X138034750Y-96486691D01*
X138035146Y-96031887D01*
X138865000Y-96031887D01*
X138865000Y-96088113D01*
X138974233Y-96637264D01*
X139285302Y-97102811D01*
X139750849Y-97413880D01*
X140300000Y-97523113D01*
X140849151Y-97413880D01*
X141314698Y-97102811D01*
X141625767Y-96637264D01*
X141735000Y-96088113D01*
X141735000Y-96031887D01*
X141625767Y-95482736D01*
X141314698Y-95017189D01*
X140849151Y-94706120D01*
X140818384Y-94700000D01*
X146652560Y-94700000D01*
X146652560Y-96300000D01*
X146696838Y-96535317D01*
X146835910Y-96751441D01*
X147048110Y-96896431D01*
X147300000Y-96947440D01*
X148900000Y-96947440D01*
X149135317Y-96903162D01*
X149351441Y-96764090D01*
X149496431Y-96551890D01*
X149505370Y-96507745D01*
X151071861Y-96507745D01*
X151145995Y-96753864D01*
X151683223Y-96946965D01*
X152253454Y-96919778D01*
X152654005Y-96753864D01*
X152728139Y-96507745D01*
X151900000Y-95679605D01*
X151071861Y-96507745D01*
X149505370Y-96507745D01*
X149547440Y-96300000D01*
X149547440Y-95283223D01*
X150453035Y-95283223D01*
X150480222Y-95853454D01*
X150646136Y-96254005D01*
X150892255Y-96328139D01*
X151720395Y-95500000D01*
X152079605Y-95500000D01*
X152907745Y-96328139D01*
X153153864Y-96254005D01*
X153214903Y-96084187D01*
X156264752Y-96084187D01*
X156482757Y-96611800D01*
X156886077Y-97015824D01*
X157413309Y-97234750D01*
X157984187Y-97235248D01*
X158511800Y-97017243D01*
X158915824Y-96613923D01*
X159134750Y-96086691D01*
X159135000Y-95800000D01*
X166396887Y-95800000D01*
X166506120Y-96349151D01*
X166817189Y-96814698D01*
X167282736Y-97125767D01*
X167831887Y-97235000D01*
X167888113Y-97235000D01*
X168437264Y-97125767D01*
X168902811Y-96814698D01*
X169213880Y-96349151D01*
X169323113Y-95800000D01*
X169213880Y-95250849D01*
X168902811Y-94785302D01*
X168437264Y-94474233D01*
X167888113Y-94365000D01*
X167831887Y-94365000D01*
X167282736Y-94474233D01*
X166817189Y-94785302D01*
X166506120Y-95250849D01*
X166396887Y-95800000D01*
X159135000Y-95800000D01*
X159135248Y-95515813D01*
X158917243Y-94988200D01*
X158513923Y-94584176D01*
X157986691Y-94365250D01*
X157415813Y-94364752D01*
X156888200Y-94582757D01*
X156484176Y-94986077D01*
X156265250Y-95513309D01*
X156264752Y-96084187D01*
X153214903Y-96084187D01*
X153346965Y-95716777D01*
X153319778Y-95146546D01*
X153153864Y-94745995D01*
X152907745Y-94671861D01*
X152079605Y-95500000D01*
X151720395Y-95500000D01*
X150892255Y-94671861D01*
X150646136Y-94745995D01*
X150453035Y-95283223D01*
X149547440Y-95283223D01*
X149547440Y-94700000D01*
X149508351Y-94492255D01*
X151071861Y-94492255D01*
X151900000Y-95320395D01*
X152728139Y-94492255D01*
X152654005Y-94246136D01*
X152116777Y-94053035D01*
X151546546Y-94080222D01*
X151145995Y-94246136D01*
X151071861Y-94492255D01*
X149508351Y-94492255D01*
X149503162Y-94464683D01*
X149364090Y-94248559D01*
X149151890Y-94103569D01*
X148900000Y-94052560D01*
X147300000Y-94052560D01*
X147064683Y-94096838D01*
X146848559Y-94235910D01*
X146703569Y-94448110D01*
X146652560Y-94700000D01*
X140818384Y-94700000D01*
X140300000Y-94596887D01*
X139750849Y-94706120D01*
X139285302Y-95017189D01*
X138974233Y-95482736D01*
X138865000Y-96031887D01*
X138035146Y-96031887D01*
X138035248Y-95915813D01*
X137817243Y-95388200D01*
X137413923Y-94984176D01*
X136886691Y-94765250D01*
X136315813Y-94764752D01*
X135788200Y-94982757D01*
X135384176Y-95386077D01*
X135165250Y-95913309D01*
X135164752Y-96484187D01*
X134634752Y-96484187D01*
X134635248Y-95915813D01*
X134417243Y-95388200D01*
X134013923Y-94984176D01*
X133486691Y-94765250D01*
X132915813Y-94764752D01*
X132388200Y-94982757D01*
X131984176Y-95386077D01*
X131765250Y-95913309D01*
X131764752Y-96484187D01*
X120951365Y-96484187D01*
X120864090Y-96348559D01*
X120651890Y-96203569D01*
X120400000Y-96152560D01*
X118800000Y-96152560D01*
X118564683Y-96196838D01*
X118348559Y-96335910D01*
X118203569Y-96548110D01*
X118152560Y-96800000D01*
X116942736Y-96800000D01*
X116903162Y-96589683D01*
X116764090Y-96373559D01*
X116551890Y-96228569D01*
X116300000Y-96177560D01*
X114700000Y-96177560D01*
X114464683Y-96221838D01*
X114248559Y-96360910D01*
X114103569Y-96573110D01*
X114052560Y-96825000D01*
X110710000Y-96825000D01*
X110710000Y-93484187D01*
X114164752Y-93484187D01*
X114382757Y-94011800D01*
X114786077Y-94415824D01*
X115313309Y-94634750D01*
X115884187Y-94635248D01*
X116411800Y-94417243D01*
X116815824Y-94013923D01*
X117008860Y-93549039D01*
X124368096Y-93549039D01*
X124528959Y-93937423D01*
X124904866Y-94352389D01*
X125410959Y-94591914D01*
X125633000Y-94470629D01*
X125633000Y-93327000D01*
X125887000Y-93327000D01*
X125887000Y-94470629D01*
X126109041Y-94591914D01*
X126615134Y-94352389D01*
X126991041Y-93937423D01*
X127130796Y-93600000D01*
X170052560Y-93600000D01*
X170052560Y-95200000D01*
X170096838Y-95435317D01*
X170235910Y-95651441D01*
X170448110Y-95796431D01*
X170700000Y-95847440D01*
X172300000Y-95847440D01*
X172535317Y-95803162D01*
X172751441Y-95664090D01*
X172896431Y-95451890D01*
X172947440Y-95200000D01*
X172947440Y-94684187D01*
X173864752Y-94684187D01*
X174082757Y-95211800D01*
X174486077Y-95615824D01*
X175013309Y-95834750D01*
X175584187Y-95835248D01*
X176111800Y-95617243D01*
X176515824Y-95213923D01*
X176734750Y-94686691D01*
X176735248Y-94115813D01*
X176517243Y-93588200D01*
X176113923Y-93184176D01*
X175586691Y-92965250D01*
X175015813Y-92964752D01*
X174488200Y-93182757D01*
X174084176Y-93586077D01*
X173865250Y-94113309D01*
X173864752Y-94684187D01*
X172947440Y-94684187D01*
X172947440Y-93600000D01*
X172903162Y-93364683D01*
X172764090Y-93148559D01*
X172551890Y-93003569D01*
X172300000Y-92952560D01*
X170700000Y-92952560D01*
X170464683Y-92996838D01*
X170248559Y-93135910D01*
X170103569Y-93348110D01*
X170052560Y-93600000D01*
X127130796Y-93600000D01*
X127151904Y-93549039D01*
X127029915Y-93327000D01*
X125887000Y-93327000D01*
X125633000Y-93327000D01*
X124490085Y-93327000D01*
X124368096Y-93549039D01*
X117008860Y-93549039D01*
X117034750Y-93486691D01*
X117035248Y-92915813D01*
X117008452Y-92850961D01*
X124368096Y-92850961D01*
X124490085Y-93073000D01*
X125633000Y-93073000D01*
X125633000Y-91929371D01*
X125887000Y-91929371D01*
X125887000Y-93073000D01*
X127029915Y-93073000D01*
X127151904Y-92850961D01*
X126991041Y-92462577D01*
X126615134Y-92047611D01*
X126109041Y-91808086D01*
X125887000Y-91929371D01*
X125633000Y-91929371D01*
X125410959Y-91808086D01*
X124904866Y-92047611D01*
X124528959Y-92462577D01*
X124368096Y-92850961D01*
X117008452Y-92850961D01*
X116817243Y-92388200D01*
X116413923Y-91984176D01*
X115886691Y-91765250D01*
X115315813Y-91764752D01*
X114788200Y-91982757D01*
X114384176Y-92386077D01*
X114165250Y-92913309D01*
X114164752Y-93484187D01*
X110710000Y-93484187D01*
X110710000Y-91509041D01*
X159608086Y-91509041D01*
X159847611Y-92015134D01*
X160262577Y-92391041D01*
X160650961Y-92551904D01*
X160873000Y-92429915D01*
X160873000Y-91287000D01*
X161127000Y-91287000D01*
X161127000Y-92429915D01*
X161349039Y-92551904D01*
X161737423Y-92391041D01*
X162152389Y-92015134D01*
X162391914Y-91509041D01*
X162270629Y-91287000D01*
X161127000Y-91287000D01*
X160873000Y-91287000D01*
X159729371Y-91287000D01*
X159608086Y-91509041D01*
X110710000Y-91509041D01*
X110710000Y-90810959D01*
X159608086Y-90810959D01*
X159729371Y-91033000D01*
X160873000Y-91033000D01*
X160873000Y-89890085D01*
X161127000Y-89890085D01*
X161127000Y-91033000D01*
X162270629Y-91033000D01*
X162391914Y-90810959D01*
X162341316Y-90704050D01*
X163165000Y-90704050D01*
X163165000Y-90775950D01*
X163304681Y-91478174D01*
X163702459Y-92073491D01*
X164297776Y-92471269D01*
X165000000Y-92610950D01*
X165702224Y-92471269D01*
X166297541Y-92073491D01*
X166695319Y-91478174D01*
X166835000Y-90775950D01*
X166835000Y-90704050D01*
X166695319Y-90001826D01*
X166297541Y-89406509D01*
X165702224Y-89008731D01*
X165000000Y-88869050D01*
X164297776Y-89008731D01*
X163702459Y-89406509D01*
X163304681Y-90001826D01*
X163165000Y-90704050D01*
X162341316Y-90704050D01*
X162152389Y-90304866D01*
X161737423Y-89928959D01*
X161349039Y-89768096D01*
X161127000Y-89890085D01*
X160873000Y-89890085D01*
X160650961Y-89768096D01*
X160262577Y-89928959D01*
X159847611Y-90304866D01*
X159608086Y-90810959D01*
X110710000Y-90810959D01*
X110710000Y-89509041D01*
X126208086Y-89509041D01*
X126447611Y-90015134D01*
X126862577Y-90391041D01*
X127250961Y-90551904D01*
X127473000Y-90429915D01*
X127473000Y-89287000D01*
X127727000Y-89287000D01*
X127727000Y-90429915D01*
X127949039Y-90551904D01*
X128337423Y-90391041D01*
X128752389Y-90015134D01*
X128991914Y-89509041D01*
X128870629Y-89287000D01*
X127727000Y-89287000D01*
X127473000Y-89287000D01*
X126329371Y-89287000D01*
X126208086Y-89509041D01*
X110710000Y-89509041D01*
X110710000Y-88810959D01*
X126208086Y-88810959D01*
X126329371Y-89033000D01*
X127473000Y-89033000D01*
X127473000Y-87890085D01*
X127727000Y-87890085D01*
X127727000Y-89033000D01*
X128870629Y-89033000D01*
X128991914Y-88810959D01*
X128752389Y-88304866D01*
X128337423Y-87928959D01*
X127949039Y-87768096D01*
X127727000Y-87890085D01*
X127473000Y-87890085D01*
X127250961Y-87768096D01*
X126862577Y-87928959D01*
X126447611Y-88304866D01*
X126208086Y-88810959D01*
X110710000Y-88810959D01*
X110710000Y-86011887D01*
X131765000Y-86011887D01*
X131765000Y-86068113D01*
X131874233Y-86617264D01*
X132185302Y-87082811D01*
X132650849Y-87393880D01*
X133200000Y-87503113D01*
X133749151Y-87393880D01*
X134214698Y-87082811D01*
X134525767Y-86617264D01*
X134635000Y-86068113D01*
X134635000Y-86011887D01*
X135165000Y-86011887D01*
X135165000Y-86068113D01*
X135274233Y-86617264D01*
X135585302Y-87082811D01*
X136050849Y-87393880D01*
X136600000Y-87503113D01*
X137149151Y-87393880D01*
X137614698Y-87082811D01*
X137925767Y-86617264D01*
X138011911Y-86184187D01*
X138864752Y-86184187D01*
X139082757Y-86711800D01*
X139486077Y-87115824D01*
X140013309Y-87334750D01*
X140584187Y-87335248D01*
X140640725Y-87311887D01*
X142165000Y-87311887D01*
X142165000Y-87368113D01*
X142274233Y-87917264D01*
X142585302Y-88382811D01*
X143050849Y-88693880D01*
X143600000Y-88803113D01*
X144149151Y-88693880D01*
X144614698Y-88382811D01*
X144925767Y-87917264D01*
X144980520Y-87642000D01*
X148254560Y-87642000D01*
X148254560Y-89142000D01*
X148298838Y-89377317D01*
X148437910Y-89593441D01*
X148650110Y-89738431D01*
X148902000Y-89789440D01*
X149802000Y-89789440D01*
X150037317Y-89745162D01*
X150141655Y-89678022D01*
X150206788Y-89721543D01*
X150622000Y-89804134D01*
X151037212Y-89721543D01*
X151257000Y-89574685D01*
X151476788Y-89721543D01*
X151892000Y-89804134D01*
X152307212Y-89721543D01*
X152659211Y-89486345D01*
X152894409Y-89134346D01*
X152919591Y-89007745D01*
X156671861Y-89007745D01*
X156745995Y-89253864D01*
X157283223Y-89446965D01*
X157853454Y-89419778D01*
X158254005Y-89253864D01*
X158328139Y-89007745D01*
X157500000Y-88179605D01*
X156671861Y-89007745D01*
X152919591Y-89007745D01*
X152977000Y-88719134D01*
X152977000Y-88064866D01*
X152920978Y-87783223D01*
X156053035Y-87783223D01*
X156080222Y-88353454D01*
X156246136Y-88754005D01*
X156492255Y-88828139D01*
X157320395Y-88000000D01*
X157679605Y-88000000D01*
X158507745Y-88828139D01*
X158753864Y-88754005D01*
X158946965Y-88216777D01*
X158919778Y-87646546D01*
X158753864Y-87245995D01*
X158507745Y-87171861D01*
X157679605Y-88000000D01*
X157320395Y-88000000D01*
X156492255Y-87171861D01*
X156246136Y-87245995D01*
X156053035Y-87783223D01*
X152920978Y-87783223D01*
X152894409Y-87649654D01*
X152659211Y-87297655D01*
X152307212Y-87062457D01*
X151954284Y-86992255D01*
X156671861Y-86992255D01*
X157500000Y-87820395D01*
X158328139Y-86992255D01*
X158254005Y-86746136D01*
X157716777Y-86553035D01*
X157146546Y-86580222D01*
X156745995Y-86746136D01*
X156671861Y-86992255D01*
X151954284Y-86992255D01*
X151892000Y-86979866D01*
X151476788Y-87062457D01*
X151257000Y-87209315D01*
X151037212Y-87062457D01*
X150622000Y-86979866D01*
X150206788Y-87062457D01*
X150141981Y-87105759D01*
X150053890Y-87045569D01*
X149802000Y-86994560D01*
X148902000Y-86994560D01*
X148666683Y-87038838D01*
X148450559Y-87177910D01*
X148305569Y-87390110D01*
X148254560Y-87642000D01*
X144980520Y-87642000D01*
X145035000Y-87368113D01*
X145035000Y-87311887D01*
X144925767Y-86762736D01*
X144614698Y-86297189D01*
X144149151Y-85986120D01*
X143600000Y-85876887D01*
X143050849Y-85986120D01*
X142585302Y-86297189D01*
X142274233Y-86762736D01*
X142165000Y-87311887D01*
X140640725Y-87311887D01*
X141111800Y-87117243D01*
X141515824Y-86713923D01*
X141734750Y-86186691D01*
X141735248Y-85615813D01*
X141517243Y-85088200D01*
X141113923Y-84684176D01*
X140586691Y-84465250D01*
X140015813Y-84464752D01*
X139488200Y-84682757D01*
X139084176Y-85086077D01*
X138865250Y-85613309D01*
X138864752Y-86184187D01*
X138011911Y-86184187D01*
X138035000Y-86068113D01*
X138035000Y-86011887D01*
X137925767Y-85462736D01*
X137614698Y-84997189D01*
X137149151Y-84686120D01*
X136600000Y-84576887D01*
X136050849Y-84686120D01*
X135585302Y-84997189D01*
X135274233Y-85462736D01*
X135165000Y-86011887D01*
X134635000Y-86011887D01*
X134525767Y-85462736D01*
X134214698Y-84997189D01*
X133749151Y-84686120D01*
X133200000Y-84576887D01*
X132650849Y-84686120D01*
X132185302Y-84997189D01*
X131874233Y-85462736D01*
X131765000Y-86011887D01*
X110710000Y-86011887D01*
X110710000Y-83750000D01*
X116902560Y-83750000D01*
X116902560Y-85250000D01*
X116946838Y-85485317D01*
X117085910Y-85701441D01*
X117298110Y-85846431D01*
X117550000Y-85897440D01*
X118450000Y-85897440D01*
X118685317Y-85853162D01*
X118789655Y-85786022D01*
X118854788Y-85829543D01*
X119270000Y-85912134D01*
X119685212Y-85829543D01*
X119905000Y-85682685D01*
X120124788Y-85829543D01*
X120540000Y-85912134D01*
X120955212Y-85829543D01*
X121307211Y-85594345D01*
X121542409Y-85242346D01*
X121625000Y-84827134D01*
X121625000Y-84172866D01*
X121542409Y-83757654D01*
X121307211Y-83405655D01*
X121125422Y-83284187D01*
X156064752Y-83284187D01*
X156282757Y-83811800D01*
X156686077Y-84215824D01*
X157213309Y-84434750D01*
X157784187Y-84435248D01*
X158311800Y-84217243D01*
X158715824Y-83813923D01*
X158728171Y-83784187D01*
X167564752Y-83784187D01*
X167782757Y-84311800D01*
X168186077Y-84715824D01*
X168713309Y-84934750D01*
X169284187Y-84935248D01*
X169811800Y-84717243D01*
X170021663Y-84507745D01*
X173171861Y-84507745D01*
X173245995Y-84753864D01*
X173783223Y-84946965D01*
X174353454Y-84919778D01*
X174754005Y-84753864D01*
X174828139Y-84507745D01*
X174000000Y-83679605D01*
X173171861Y-84507745D01*
X170021663Y-84507745D01*
X170215824Y-84313923D01*
X170434750Y-83786691D01*
X170435189Y-83283223D01*
X172553035Y-83283223D01*
X172580222Y-83853454D01*
X172746136Y-84254005D01*
X172992255Y-84328139D01*
X173820395Y-83500000D01*
X174179605Y-83500000D01*
X175007745Y-84328139D01*
X175253864Y-84254005D01*
X175446965Y-83716777D01*
X175419778Y-83146546D01*
X175253864Y-82745995D01*
X175007745Y-82671861D01*
X174179605Y-83500000D01*
X173820395Y-83500000D01*
X172992255Y-82671861D01*
X172746136Y-82745995D01*
X172553035Y-83283223D01*
X170435189Y-83283223D01*
X170435248Y-83215813D01*
X170217243Y-82688200D01*
X170021640Y-82492255D01*
X173171861Y-82492255D01*
X174000000Y-83320395D01*
X174828139Y-82492255D01*
X174754005Y-82246136D01*
X174216777Y-82053035D01*
X173646546Y-82080222D01*
X173245995Y-82246136D01*
X173171861Y-82492255D01*
X170021640Y-82492255D01*
X169813923Y-82284176D01*
X169286691Y-82065250D01*
X168715813Y-82064752D01*
X168188200Y-82282757D01*
X167784176Y-82686077D01*
X167565250Y-83213309D01*
X167564752Y-83784187D01*
X158728171Y-83784187D01*
X158934750Y-83286691D01*
X158935248Y-82715813D01*
X158717243Y-82188200D01*
X158313923Y-81784176D01*
X157786691Y-81565250D01*
X157215813Y-81564752D01*
X156688200Y-81782757D01*
X156284176Y-82186077D01*
X156065250Y-82713309D01*
X156064752Y-83284187D01*
X121125422Y-83284187D01*
X120955212Y-83170457D01*
X120540000Y-83087866D01*
X120124788Y-83170457D01*
X119905000Y-83317315D01*
X119685212Y-83170457D01*
X119270000Y-83087866D01*
X118854788Y-83170457D01*
X118789981Y-83213759D01*
X118701890Y-83153569D01*
X118450000Y-83102560D01*
X117550000Y-83102560D01*
X117314683Y-83146838D01*
X117098559Y-83285910D01*
X116953569Y-83498110D01*
X116902560Y-83750000D01*
X110710000Y-83750000D01*
X110710000Y-79278187D01*
X113372752Y-79278187D01*
X113590757Y-79805800D01*
X113994077Y-80209824D01*
X114521309Y-80428750D01*
X115092187Y-80429248D01*
X115619800Y-80211243D01*
X116023824Y-79807923D01*
X116242750Y-79280691D01*
X116243000Y-78994000D01*
X123504887Y-78994000D01*
X123614120Y-79543151D01*
X123925189Y-80008698D01*
X124390736Y-80319767D01*
X124939887Y-80429000D01*
X124996113Y-80429000D01*
X125545264Y-80319767D01*
X126010811Y-80008698D01*
X126290907Y-79589505D01*
X126382757Y-79811800D01*
X126786077Y-80215824D01*
X127313309Y-80434750D01*
X127884187Y-80435248D01*
X128411800Y-80217243D01*
X128815824Y-79813923D01*
X128946176Y-79500000D01*
X129813377Y-79500000D01*
X129956864Y-80221358D01*
X130365481Y-80832896D01*
X130977019Y-81241513D01*
X131698377Y-81385000D01*
X133301623Y-81385000D01*
X134022981Y-81241513D01*
X134634519Y-80832896D01*
X135043136Y-80221358D01*
X135186623Y-79500000D01*
X151813377Y-79500000D01*
X151956864Y-80221358D01*
X152365481Y-80832896D01*
X152977019Y-81241513D01*
X153698377Y-81385000D01*
X155301623Y-81385000D01*
X155808444Y-81284187D01*
X159564752Y-81284187D01*
X159782757Y-81811800D01*
X160186077Y-82215824D01*
X160713309Y-82434750D01*
X161284187Y-82435248D01*
X161811800Y-82217243D01*
X162215824Y-81813923D01*
X162434750Y-81286691D01*
X162435248Y-80715813D01*
X162217243Y-80188200D01*
X161862982Y-79833320D01*
X171346285Y-79833320D01*
X171475533Y-80126123D01*
X172175806Y-80394388D01*
X172925435Y-80374250D01*
X173524467Y-80126123D01*
X173653715Y-79833320D01*
X172500000Y-78679605D01*
X171346285Y-79833320D01*
X161862982Y-79833320D01*
X161813923Y-79784176D01*
X161286691Y-79565250D01*
X160715813Y-79564752D01*
X160188200Y-79782757D01*
X159784176Y-80186077D01*
X159565250Y-80713309D01*
X159564752Y-81284187D01*
X155808444Y-81284187D01*
X156022981Y-81241513D01*
X156634519Y-80832896D01*
X157043136Y-80221358D01*
X157186623Y-79500000D01*
X157043136Y-78778642D01*
X156634519Y-78167104D01*
X156022981Y-77758487D01*
X155301623Y-77615000D01*
X153698377Y-77615000D01*
X152977019Y-77758487D01*
X152365481Y-78167104D01*
X151956864Y-78778642D01*
X151813377Y-79500000D01*
X135186623Y-79500000D01*
X135043136Y-78778642D01*
X134634519Y-78167104D01*
X134022981Y-77758487D01*
X133301623Y-77615000D01*
X131698377Y-77615000D01*
X130977019Y-77758487D01*
X130365481Y-78167104D01*
X129956864Y-78778642D01*
X129813377Y-79500000D01*
X128946176Y-79500000D01*
X129034750Y-79286691D01*
X129035248Y-78715813D01*
X128817243Y-78188200D01*
X128413923Y-77784176D01*
X127886691Y-77565250D01*
X127315813Y-77564752D01*
X126788200Y-77782757D01*
X126384176Y-78186077D01*
X126294031Y-78403170D01*
X126010811Y-77979302D01*
X125545264Y-77668233D01*
X124996113Y-77559000D01*
X124939887Y-77559000D01*
X124390736Y-77668233D01*
X123925189Y-77979302D01*
X123614120Y-78444849D01*
X123504887Y-78994000D01*
X116243000Y-78994000D01*
X116243248Y-78709813D01*
X116025243Y-78182200D01*
X115621923Y-77778176D01*
X115094691Y-77559250D01*
X114523813Y-77558752D01*
X113996200Y-77776757D01*
X113592176Y-78180077D01*
X113373250Y-78707309D01*
X113372752Y-79278187D01*
X110710000Y-79278187D01*
X110710000Y-73406000D01*
X114766928Y-73406000D01*
X114883773Y-73993419D01*
X115216519Y-74491409D01*
X115714509Y-74824155D01*
X116301928Y-74941000D01*
X116362072Y-74941000D01*
X116949491Y-74824155D01*
X117447481Y-74491409D01*
X117602000Y-74260155D01*
X117756519Y-74491409D01*
X118254509Y-74824155D01*
X118841928Y-74941000D01*
X118902072Y-74941000D01*
X119489491Y-74824155D01*
X119910026Y-74543163D01*
X120047910Y-74757441D01*
X120260110Y-74902431D01*
X120512000Y-74953440D01*
X122312000Y-74953440D01*
X122547317Y-74909162D01*
X122763441Y-74770090D01*
X122908431Y-74557890D01*
X122959440Y-74306000D01*
X122959440Y-72857462D01*
X138694687Y-72857462D01*
X138968903Y-73521115D01*
X139476215Y-74029312D01*
X140139388Y-74304686D01*
X140857462Y-74305313D01*
X141521115Y-74031097D01*
X142029312Y-73523785D01*
X142304686Y-72860612D01*
X142304688Y-72857462D01*
X143694687Y-72857462D01*
X143968903Y-73521115D01*
X144476215Y-74029312D01*
X145139388Y-74304686D01*
X145857462Y-74305313D01*
X146521115Y-74031097D01*
X147029312Y-73523785D01*
X147304686Y-72860612D01*
X147305313Y-72142538D01*
X147290996Y-72107887D01*
X148933000Y-72107887D01*
X148933000Y-72164113D01*
X149042233Y-72713264D01*
X149353302Y-73178811D01*
X149818849Y-73489880D01*
X150368000Y-73599113D01*
X150917151Y-73489880D01*
X151382698Y-73178811D01*
X151693767Y-72713264D01*
X151803000Y-72164113D01*
X151803000Y-72107887D01*
X151693767Y-71558736D01*
X151382698Y-71093189D01*
X150917151Y-70782120D01*
X150368000Y-70672887D01*
X149818849Y-70782120D01*
X149353302Y-71093189D01*
X149042233Y-71558736D01*
X148933000Y-72107887D01*
X147290996Y-72107887D01*
X147031097Y-71478885D01*
X146523785Y-70970688D01*
X145860612Y-70695314D01*
X145142538Y-70694687D01*
X144478885Y-70968903D01*
X143970688Y-71476215D01*
X143695314Y-72139388D01*
X143694687Y-72857462D01*
X142304688Y-72857462D01*
X142305313Y-72142538D01*
X142031097Y-71478885D01*
X141523785Y-70970688D01*
X140860612Y-70695314D01*
X140142538Y-70694687D01*
X139478885Y-70968903D01*
X138970688Y-71476215D01*
X138695314Y-72139388D01*
X138694687Y-72857462D01*
X122959440Y-72857462D01*
X122959440Y-72506000D01*
X122915162Y-72270683D01*
X122776090Y-72054559D01*
X122563890Y-71909569D01*
X122312000Y-71858560D01*
X120512000Y-71858560D01*
X120276683Y-71902838D01*
X120060559Y-72041910D01*
X119915569Y-72254110D01*
X119912281Y-72270344D01*
X119489491Y-71987845D01*
X118902072Y-71871000D01*
X118841928Y-71871000D01*
X118254509Y-71987845D01*
X117756519Y-72320591D01*
X117602000Y-72551845D01*
X117447481Y-72320591D01*
X116949491Y-71987845D01*
X116362072Y-71871000D01*
X116301928Y-71871000D01*
X115714509Y-71987845D01*
X115216519Y-72320591D01*
X114883773Y-72818581D01*
X114766928Y-73406000D01*
X110710000Y-73406000D01*
X110710000Y-62600000D01*
X117952560Y-62600000D01*
X117952560Y-64400000D01*
X117996838Y-64635317D01*
X118135910Y-64851441D01*
X118348110Y-64996431D01*
X118364344Y-64999719D01*
X118081845Y-65422509D01*
X117965000Y-66009928D01*
X117965000Y-66070072D01*
X118081845Y-66657491D01*
X118414591Y-67155481D01*
X118645845Y-67310000D01*
X118414591Y-67464519D01*
X118081845Y-67962509D01*
X117965000Y-68549928D01*
X117965000Y-68610072D01*
X118081845Y-69197491D01*
X118414591Y-69695481D01*
X118912581Y-70028227D01*
X119500000Y-70145072D01*
X120087419Y-70028227D01*
X120585409Y-69695481D01*
X120627901Y-69631887D01*
X123565000Y-69631887D01*
X123565000Y-69688113D01*
X123674233Y-70237264D01*
X123985302Y-70702811D01*
X124450849Y-71013880D01*
X125000000Y-71123113D01*
X125549151Y-71013880D01*
X126014698Y-70702811D01*
X126325767Y-70237264D01*
X126435000Y-69688113D01*
X126435000Y-69631887D01*
X126326029Y-69084050D01*
X131165000Y-69084050D01*
X131165000Y-69155950D01*
X131304681Y-69858174D01*
X131702459Y-70453491D01*
X132297776Y-70851269D01*
X133000000Y-70990950D01*
X133702224Y-70851269D01*
X134297541Y-70453491D01*
X134410666Y-70284187D01*
X159564752Y-70284187D01*
X159782757Y-70811800D01*
X159865000Y-70894187D01*
X159865000Y-77105394D01*
X159784176Y-77186077D01*
X159565250Y-77713309D01*
X159564752Y-78284187D01*
X159782757Y-78811800D01*
X160186077Y-79215824D01*
X160713309Y-79434750D01*
X161284187Y-79435248D01*
X161811800Y-79217243D01*
X162215824Y-78813923D01*
X162434750Y-78286691D01*
X162434846Y-78175806D01*
X170605612Y-78175806D01*
X170625750Y-78925435D01*
X170873877Y-79524467D01*
X171166680Y-79653715D01*
X172320395Y-78500000D01*
X172679605Y-78500000D01*
X173833320Y-79653715D01*
X174126123Y-79524467D01*
X174394388Y-78824194D01*
X174374250Y-78074565D01*
X174126123Y-77475533D01*
X173833320Y-77346285D01*
X172679605Y-78500000D01*
X172320395Y-78500000D01*
X171166680Y-77346285D01*
X170873877Y-77475533D01*
X170605612Y-78175806D01*
X162434846Y-78175806D01*
X162435248Y-77715813D01*
X162217243Y-77188200D01*
X162135000Y-77105813D01*
X162135000Y-75863403D01*
X163164682Y-75863403D01*
X163443455Y-76538086D01*
X163959199Y-77054730D01*
X164633395Y-77334681D01*
X165363403Y-77335318D01*
X165771538Y-77166680D01*
X171346285Y-77166680D01*
X172500000Y-78320395D01*
X173653715Y-77166680D01*
X173524467Y-76873877D01*
X172824194Y-76605612D01*
X172074565Y-76625750D01*
X171475533Y-76873877D01*
X171346285Y-77166680D01*
X165771538Y-77166680D01*
X166038086Y-77056545D01*
X166554730Y-76540801D01*
X166834681Y-75866605D01*
X166835318Y-75136597D01*
X166556545Y-74461914D01*
X166040801Y-73945270D01*
X165366605Y-73665319D01*
X164636597Y-73664682D01*
X163961914Y-73943455D01*
X163445270Y-74459199D01*
X163165319Y-75133395D01*
X163164682Y-75863403D01*
X162135000Y-75863403D01*
X162135000Y-72250000D01*
X170602560Y-72250000D01*
X170602560Y-74750000D01*
X170646838Y-74985317D01*
X170785910Y-75201441D01*
X170998110Y-75346431D01*
X171250000Y-75397440D01*
X173750000Y-75397440D01*
X173985317Y-75353162D01*
X174201441Y-75214090D01*
X174346431Y-75001890D01*
X174397440Y-74750000D01*
X174397440Y-72250000D01*
X174353162Y-72014683D01*
X174214090Y-71798559D01*
X174001890Y-71653569D01*
X173750000Y-71602560D01*
X171250000Y-71602560D01*
X171014683Y-71646838D01*
X170798559Y-71785910D01*
X170653569Y-71998110D01*
X170602560Y-72250000D01*
X162135000Y-72250000D01*
X162135000Y-70894606D01*
X162215824Y-70813923D01*
X162434750Y-70286691D01*
X162435188Y-69784187D01*
X162564752Y-69784187D01*
X162782757Y-70311800D01*
X163186077Y-70715824D01*
X163713309Y-70934750D01*
X164284187Y-70935248D01*
X164811800Y-70717243D01*
X165215824Y-70313923D01*
X165434750Y-69786691D01*
X165435248Y-69215813D01*
X165380805Y-69084050D01*
X168165000Y-69084050D01*
X168165000Y-69155950D01*
X168304681Y-69858174D01*
X168702459Y-70453491D01*
X169297776Y-70851269D01*
X170000000Y-70990950D01*
X170702224Y-70851269D01*
X171297541Y-70453491D01*
X171695319Y-69858174D01*
X171835000Y-69155950D01*
X171835000Y-69084050D01*
X171695319Y-68381826D01*
X171297541Y-67786509D01*
X170702224Y-67388731D01*
X170000000Y-67249050D01*
X169297776Y-67388731D01*
X168702459Y-67786509D01*
X168304681Y-68381826D01*
X168165000Y-69084050D01*
X165380805Y-69084050D01*
X165217243Y-68688200D01*
X164813923Y-68284176D01*
X164286691Y-68065250D01*
X163715813Y-68064752D01*
X163188200Y-68282757D01*
X162784176Y-68686077D01*
X162565250Y-69213309D01*
X162564752Y-69784187D01*
X162435188Y-69784187D01*
X162435248Y-69715813D01*
X162217243Y-69188200D01*
X161813923Y-68784176D01*
X161286691Y-68565250D01*
X160715813Y-68564752D01*
X160188200Y-68782757D01*
X159784176Y-69186077D01*
X159565250Y-69713309D01*
X159564752Y-70284187D01*
X134410666Y-70284187D01*
X134695319Y-69858174D01*
X134835000Y-69155950D01*
X134835000Y-69084050D01*
X134695319Y-68381826D01*
X134297541Y-67786509D01*
X133702224Y-67388731D01*
X133000000Y-67249050D01*
X132297776Y-67388731D01*
X131702459Y-67786509D01*
X131304681Y-68381826D01*
X131165000Y-69084050D01*
X126326029Y-69084050D01*
X126325767Y-69082736D01*
X126014698Y-68617189D01*
X125549151Y-68306120D01*
X125000000Y-68196887D01*
X124450849Y-68306120D01*
X123985302Y-68617189D01*
X123674233Y-69082736D01*
X123565000Y-69631887D01*
X120627901Y-69631887D01*
X120918155Y-69197491D01*
X121035000Y-68610072D01*
X121035000Y-68549928D01*
X120918155Y-67962509D01*
X120585409Y-67464519D01*
X120354155Y-67310000D01*
X120585409Y-67155481D01*
X120918155Y-66657491D01*
X120933929Y-66578187D01*
X152488752Y-66578187D01*
X152706757Y-67105800D01*
X153110077Y-67509824D01*
X153637309Y-67728750D01*
X154208187Y-67729248D01*
X154735800Y-67511243D01*
X155139824Y-67107923D01*
X155358750Y-66580691D01*
X155359248Y-66009813D01*
X155141243Y-65482200D01*
X154737923Y-65078176D01*
X154210691Y-64859250D01*
X153639813Y-64858752D01*
X153112200Y-65076757D01*
X152708176Y-65480077D01*
X152489250Y-66007309D01*
X152488752Y-66578187D01*
X120933929Y-66578187D01*
X121035000Y-66070072D01*
X121035000Y-66009928D01*
X120918155Y-65422509D01*
X120637163Y-65001974D01*
X120851441Y-64864090D01*
X120996431Y-64651890D01*
X121047440Y-64400000D01*
X121047440Y-62600000D01*
X121003162Y-62364683D01*
X120864090Y-62148559D01*
X120651890Y-62003569D01*
X120400000Y-61952560D01*
X118600000Y-61952560D01*
X118364683Y-61996838D01*
X118148559Y-62135910D01*
X118003569Y-62348110D01*
X117952560Y-62600000D01*
X110710000Y-62600000D01*
X110710000Y-61863403D01*
X131164682Y-61863403D01*
X131443455Y-62538086D01*
X131959199Y-63054730D01*
X132633395Y-63334681D01*
X133363403Y-63335318D01*
X134038086Y-63056545D01*
X134237516Y-62857462D01*
X141194687Y-62857462D01*
X141468903Y-63521115D01*
X141976215Y-64029312D01*
X142639388Y-64304686D01*
X143357462Y-64305313D01*
X144021115Y-64031097D01*
X144529312Y-63523785D01*
X144804686Y-62860612D01*
X144805210Y-62260187D01*
X148932752Y-62260187D01*
X149150757Y-62787800D01*
X149554077Y-63191824D01*
X150081309Y-63410750D01*
X150652187Y-63411248D01*
X151179800Y-63193243D01*
X151583824Y-62789923D01*
X151802750Y-62262691D01*
X151803248Y-61691813D01*
X151756299Y-61578187D01*
X152488752Y-61578187D01*
X152706757Y-62105800D01*
X153110077Y-62509824D01*
X153637309Y-62728750D01*
X154208187Y-62729248D01*
X154735800Y-62511243D01*
X155139824Y-62107923D01*
X155358750Y-61580691D01*
X155359190Y-61076000D01*
X156948560Y-61076000D01*
X156948560Y-62876000D01*
X156992838Y-63111317D01*
X157131910Y-63327441D01*
X157344110Y-63472431D01*
X157360344Y-63475719D01*
X157077845Y-63898509D01*
X156961000Y-64485928D01*
X156961000Y-64546072D01*
X157077845Y-65133491D01*
X157410591Y-65631481D01*
X157641845Y-65786000D01*
X157410591Y-65940519D01*
X157077845Y-66438509D01*
X156961000Y-67025928D01*
X156961000Y-67086072D01*
X157077845Y-67673491D01*
X157410591Y-68171481D01*
X157908581Y-68504227D01*
X158496000Y-68621072D01*
X159083419Y-68504227D01*
X159581409Y-68171481D01*
X159914155Y-67673491D01*
X160031000Y-67086072D01*
X160031000Y-67025928D01*
X159914155Y-66438509D01*
X159581409Y-65940519D01*
X159350155Y-65786000D01*
X159581409Y-65631481D01*
X159914155Y-65133491D01*
X160031000Y-64546072D01*
X160031000Y-64485928D01*
X159914155Y-63898509D01*
X159633163Y-63477974D01*
X159847441Y-63340090D01*
X159992431Y-63127890D01*
X160043440Y-62876000D01*
X160043440Y-61863403D01*
X168164682Y-61863403D01*
X168443455Y-62538086D01*
X168959199Y-63054730D01*
X169633395Y-63334681D01*
X170363403Y-63335318D01*
X171038086Y-63056545D01*
X171554730Y-62540801D01*
X171834681Y-61866605D01*
X171835318Y-61136597D01*
X171556545Y-60461914D01*
X171040801Y-59945270D01*
X170366605Y-59665319D01*
X169636597Y-59664682D01*
X168961914Y-59943455D01*
X168445270Y-60459199D01*
X168165319Y-61133395D01*
X168164682Y-61863403D01*
X160043440Y-61863403D01*
X160043440Y-61076000D01*
X159999162Y-60840683D01*
X159860090Y-60624559D01*
X159647890Y-60479569D01*
X159396000Y-60428560D01*
X157596000Y-60428560D01*
X157360683Y-60472838D01*
X157144559Y-60611910D01*
X156999569Y-60824110D01*
X156948560Y-61076000D01*
X155359190Y-61076000D01*
X155359248Y-61009813D01*
X155141243Y-60482200D01*
X154737923Y-60078176D01*
X154210691Y-59859250D01*
X153639813Y-59858752D01*
X153112200Y-60076757D01*
X152708176Y-60480077D01*
X152489250Y-61007309D01*
X152488752Y-61578187D01*
X151756299Y-61578187D01*
X151585243Y-61164200D01*
X151181923Y-60760176D01*
X150654691Y-60541250D01*
X150083813Y-60540752D01*
X149556200Y-60758757D01*
X149152176Y-61162077D01*
X148933250Y-61689309D01*
X148932752Y-62260187D01*
X144805210Y-62260187D01*
X144805313Y-62142538D01*
X144531097Y-61478885D01*
X144023785Y-60970688D01*
X143360612Y-60695314D01*
X142642538Y-60694687D01*
X141978885Y-60968903D01*
X141470688Y-61476215D01*
X141195314Y-62139388D01*
X141194687Y-62857462D01*
X134237516Y-62857462D01*
X134554730Y-62540801D01*
X134834681Y-61866605D01*
X134835318Y-61136597D01*
X134556545Y-60461914D01*
X134040801Y-59945270D01*
X133366605Y-59665319D01*
X132636597Y-59664682D01*
X131961914Y-59943455D01*
X131445270Y-60459199D01*
X131165319Y-61133395D01*
X131164682Y-61863403D01*
X110710000Y-61863403D01*
X110710000Y-59784187D01*
X123564752Y-59784187D01*
X123782757Y-60311800D01*
X124186077Y-60715824D01*
X124713309Y-60934750D01*
X125284187Y-60935248D01*
X125811800Y-60717243D01*
X126215824Y-60313923D01*
X126434750Y-59786691D01*
X126435248Y-59215813D01*
X126256904Y-58784187D01*
X137564752Y-58784187D01*
X137782757Y-59311800D01*
X138186077Y-59715824D01*
X138713309Y-59934750D01*
X139284187Y-59935248D01*
X139811800Y-59717243D01*
X140215824Y-59313923D01*
X140434750Y-58786691D01*
X140435000Y-58500000D01*
X147696887Y-58500000D01*
X147806120Y-59049151D01*
X148117189Y-59514698D01*
X148582736Y-59825767D01*
X149131887Y-59935000D01*
X149188113Y-59935000D01*
X149737264Y-59825767D01*
X150202811Y-59514698D01*
X150338325Y-59311887D01*
X162565000Y-59311887D01*
X162565000Y-59368113D01*
X162674233Y-59917264D01*
X162985302Y-60382811D01*
X163450849Y-60693880D01*
X164000000Y-60803113D01*
X164549151Y-60693880D01*
X165014698Y-60382811D01*
X165325767Y-59917264D01*
X165435000Y-59368113D01*
X165435000Y-59311887D01*
X165325767Y-58762736D01*
X165014698Y-58297189D01*
X164549151Y-57986120D01*
X164000000Y-57876887D01*
X163450849Y-57986120D01*
X162985302Y-58297189D01*
X162674233Y-58762736D01*
X162565000Y-59311887D01*
X150338325Y-59311887D01*
X150513880Y-59049151D01*
X150623113Y-58500000D01*
X150513880Y-57950849D01*
X150202811Y-57485302D01*
X149737264Y-57174233D01*
X149188113Y-57065000D01*
X149131887Y-57065000D01*
X148582736Y-57174233D01*
X148117189Y-57485302D01*
X147806120Y-57950849D01*
X147696887Y-58500000D01*
X140435000Y-58500000D01*
X140435248Y-58215813D01*
X140217243Y-57688200D01*
X139813923Y-57284176D01*
X139286691Y-57065250D01*
X138715813Y-57064752D01*
X138188200Y-57282757D01*
X137784176Y-57686077D01*
X137565250Y-58213309D01*
X137564752Y-58784187D01*
X126256904Y-58784187D01*
X126217243Y-58688200D01*
X125813923Y-58284176D01*
X125286691Y-58065250D01*
X124715813Y-58064752D01*
X124188200Y-58282757D01*
X123784176Y-58686077D01*
X123565250Y-59213309D01*
X123564752Y-59784187D01*
X110710000Y-59784187D01*
X110710000Y-56080089D01*
X110746950Y-56169515D01*
X111824811Y-57249259D01*
X113233825Y-57834333D01*
X114759482Y-57835664D01*
X116169515Y-57253050D01*
X117249259Y-56175189D01*
X117834333Y-54766175D01*
X117835664Y-53240518D01*
X117426391Y-52250000D01*
X119602560Y-52250000D01*
X119602560Y-56750000D01*
X119646838Y-56985317D01*
X119785910Y-57201441D01*
X119998110Y-57346431D01*
X120250000Y-57397440D01*
X122750000Y-57397440D01*
X122985317Y-57353162D01*
X123201441Y-57214090D01*
X123346431Y-57001890D01*
X123397440Y-56750000D01*
X123397440Y-53443480D01*
X125065000Y-53443480D01*
X125065000Y-55556520D01*
X125208487Y-56277878D01*
X125617104Y-56889416D01*
X126228642Y-57298033D01*
X126950000Y-57441520D01*
X127671358Y-57298033D01*
X128282896Y-56889416D01*
X128691513Y-56277878D01*
X128835000Y-55556520D01*
X128835000Y-53443480D01*
X130515000Y-53443480D01*
X130515000Y-55556520D01*
X130658487Y-56277878D01*
X131067104Y-56889416D01*
X131678642Y-57298033D01*
X132400000Y-57441520D01*
X133121358Y-57298033D01*
X133732896Y-56889416D01*
X134141513Y-56277878D01*
X134285000Y-55556520D01*
X134285000Y-53443480D01*
X134216678Y-53100000D01*
X139952560Y-53100000D01*
X139952560Y-54900000D01*
X139996838Y-55135317D01*
X140135910Y-55351441D01*
X140348110Y-55496431D01*
X140600000Y-55547440D01*
X142400000Y-55547440D01*
X142635317Y-55503162D01*
X142851441Y-55364090D01*
X142996431Y-55151890D01*
X142999719Y-55135656D01*
X143422509Y-55418155D01*
X144009928Y-55535000D01*
X144070072Y-55535000D01*
X144657491Y-55418155D01*
X145155481Y-55085409D01*
X145310000Y-54854155D01*
X145464519Y-55085409D01*
X145962509Y-55418155D01*
X146549928Y-55535000D01*
X146610072Y-55535000D01*
X147197491Y-55418155D01*
X147695481Y-55085409D01*
X148028227Y-54587419D01*
X148145072Y-54000000D01*
X148028227Y-53412581D01*
X147695481Y-52914591D01*
X147197491Y-52581845D01*
X146610072Y-52465000D01*
X146549928Y-52465000D01*
X145962509Y-52581845D01*
X145464519Y-52914591D01*
X145310000Y-53145845D01*
X145155481Y-52914591D01*
X144657491Y-52581845D01*
X144070072Y-52465000D01*
X144009928Y-52465000D01*
X143422509Y-52581845D01*
X143001974Y-52862837D01*
X142864090Y-52648559D01*
X142651890Y-52503569D01*
X142400000Y-52452560D01*
X140600000Y-52452560D01*
X140364683Y-52496838D01*
X140148559Y-52635910D01*
X140003569Y-52848110D01*
X139952560Y-53100000D01*
X134216678Y-53100000D01*
X134141513Y-52722122D01*
X133826051Y-52250000D01*
X153602560Y-52250000D01*
X153602560Y-56750000D01*
X153646838Y-56985317D01*
X153785910Y-57201441D01*
X153998110Y-57346431D01*
X154250000Y-57397440D01*
X156750000Y-57397440D01*
X156985317Y-57353162D01*
X157201441Y-57214090D01*
X157346431Y-57001890D01*
X157397440Y-56750000D01*
X157397440Y-53443480D01*
X159065000Y-53443480D01*
X159065000Y-55556520D01*
X159208487Y-56277878D01*
X159617104Y-56889416D01*
X160228642Y-57298033D01*
X160950000Y-57441520D01*
X161671358Y-57298033D01*
X162282896Y-56889416D01*
X162691513Y-56277878D01*
X162835000Y-55556520D01*
X162835000Y-53443480D01*
X164515000Y-53443480D01*
X164515000Y-55556520D01*
X164658487Y-56277878D01*
X165067104Y-56889416D01*
X165678642Y-57298033D01*
X166400000Y-57441520D01*
X167121358Y-57298033D01*
X167732896Y-56889416D01*
X168141513Y-56277878D01*
X168285000Y-55556520D01*
X168285000Y-53443480D01*
X168141513Y-52722122D01*
X167732896Y-52110584D01*
X167121358Y-51701967D01*
X166400000Y-51558480D01*
X165678642Y-51701967D01*
X165067104Y-52110584D01*
X164658487Y-52722122D01*
X164515000Y-53443480D01*
X162835000Y-53443480D01*
X162691513Y-52722122D01*
X162282896Y-52110584D01*
X161671358Y-51701967D01*
X160950000Y-51558480D01*
X160228642Y-51701967D01*
X159617104Y-52110584D01*
X159208487Y-52722122D01*
X159065000Y-53443480D01*
X157397440Y-53443480D01*
X157397440Y-52250000D01*
X157353162Y-52014683D01*
X157214090Y-51798559D01*
X157001890Y-51653569D01*
X156750000Y-51602560D01*
X154250000Y-51602560D01*
X154014683Y-51646838D01*
X153798559Y-51785910D01*
X153653569Y-51998110D01*
X153602560Y-52250000D01*
X133826051Y-52250000D01*
X133732896Y-52110584D01*
X133121358Y-51701967D01*
X132400000Y-51558480D01*
X131678642Y-51701967D01*
X131067104Y-52110584D01*
X130658487Y-52722122D01*
X130515000Y-53443480D01*
X128835000Y-53443480D01*
X128691513Y-52722122D01*
X128282896Y-52110584D01*
X127671358Y-51701967D01*
X126950000Y-51558480D01*
X126228642Y-51701967D01*
X125617104Y-52110584D01*
X125208487Y-52722122D01*
X125065000Y-53443480D01*
X123397440Y-53443480D01*
X123397440Y-52250000D01*
X123353162Y-52014683D01*
X123214090Y-51798559D01*
X123001890Y-51653569D01*
X122750000Y-51602560D01*
X120250000Y-51602560D01*
X120014683Y-51646838D01*
X119798559Y-51785910D01*
X119653569Y-51998110D01*
X119602560Y-52250000D01*
X117426391Y-52250000D01*
X117253050Y-51830485D01*
X116175189Y-50750741D01*
X116077074Y-50710000D01*
X173919911Y-50710000D01*
X173830485Y-50746950D01*
M02*
