M48
;DRILL file {KiCad 4.0.7} date 04/25/20 16:53:24
;FORMAT={-:-/ absolute / metric / decimal}
FMAT,2
METRIC,TZ
T1C0.500
T2C0.600
T3C0.800
T4C1.000
T5C1.200
T6C1.300
T7C1.500
T8C3.200
%
G90
G05
M71
T1
X111.6Y-54.
X111.6Y-126.
X112.303Y-52.303
X112.303Y-55.697
X112.303Y-124.303
X112.303Y-127.697
X114.Y-51.6
X114.Y-56.4
X114.Y-123.6
X114.Y-128.4
X115.697Y-52.303
X115.697Y-55.697
X115.697Y-124.303
X115.697Y-127.697
X116.4Y-54.
X116.4Y-126.
X173.6Y-54.
X173.6Y-126.
X174.303Y-52.303
X174.303Y-55.697
X174.303Y-124.303
X174.303Y-127.697
X176.Y-51.6
X176.Y-56.4
X176.Y-123.6
X176.Y-128.4
X177.697Y-52.303
X177.697Y-55.697
X177.697Y-124.303
X177.697Y-127.697
X178.4Y-54.
X178.4Y-126.
T2
X118.Y-84.5
X119.27Y-84.5
X120.54Y-84.5
X125.222Y-101.346
X125.222Y-102.616
X125.222Y-103.886
X137.8Y-105.06
X137.8Y-106.33
X137.8Y-107.6
X145.Y-105.16
X145.Y-106.43
X145.Y-107.7
X149.352Y-88.392
X150.622Y-88.392
X151.892Y-88.392
T3
X114.808Y-78.994
X115.5Y-97.625
X115.5Y-107.785
X115.6Y-93.2
X119.6Y-97.6
X119.6Y-107.76
X122.44Y-107.4
X124.968Y-78.994
X125.Y-59.5
X125.Y-69.66
X125.76Y-93.2
X127.6Y-79.
X127.6Y-89.16
X130.04Y-101.6
X132.6Y-107.4
X133.2Y-86.04
X133.2Y-96.2
X136.6Y-86.04
X136.6Y-96.2
X137.94Y-111.2
X138.5Y-114.1
X139.Y-58.5
X140.2Y-101.6
X140.3Y-85.9
X140.3Y-96.06
X143.Y-101.6
X143.6Y-87.34
X143.6Y-97.5
X147.4Y-114.
X148.Y-101.6
X148.1Y-95.5
X148.1Y-111.2
X149.16Y-58.5
X150.368Y-61.976
X150.368Y-72.136
X151.9Y-95.5
X153.924Y-61.294
X153.924Y-66.294
X154.5Y-103.3
X154.5Y-108.3
X157.5Y-83.
X157.5Y-88.
X157.7Y-95.8
X158.2Y-98.7
X158.2Y-108.86
X161.Y-70.
X161.Y-78.
X161.Y-81.
X161.Y-91.16
X164.Y-59.34
X164.Y-69.5
X166.9Y-98.8
X166.9Y-108.96
X167.86Y-95.8
X169.Y-83.5
X171.5Y-94.4
X174.Y-83.5
X175.3Y-94.4
T4
X116.332Y-73.406
X118.872Y-73.406
X119.5Y-63.5
X119.5Y-66.04
X119.5Y-68.58
X121.412Y-73.406
X141.5Y-54.
X144.04Y-54.
X146.58Y-54.
X158.496Y-61.976
X158.496Y-64.516
X158.496Y-67.056
T5
X127.3Y-115.4
X127.3Y-122.9
X133.Y-61.5
X133.Y-69.12
X163.3Y-115.9
X163.3Y-123.4
X165.Y-75.5
X165.Y-90.74
X170.Y-61.5
X170.Y-69.12
T6
X140.3Y-124.2
X140.5Y-72.5
X143.Y-62.5
X145.3Y-124.2
X145.5Y-72.5
X150.3Y-124.2
X172.5Y-73.5
X172.5Y-78.5
X173.6Y-102.1
X173.6Y-107.1
T7
X121.5Y-54.5
X126.95Y-54.5
X132.4Y-54.5
X132.5Y-79.5
X154.5Y-79.5
X155.5Y-54.5
X160.95Y-54.5
X166.4Y-54.5
T8
X114.Y-54.
X114.Y-126.
X176.Y-54.
X176.Y-126.
T0
M30
