G04 #@! TF.FileFunction,Legend,Top*
%FSLAX46Y46*%
G04 Gerber Fmt 4.6, Leading zero omitted, Abs format (unit mm)*
G04 Created by KiCad (PCBNEW 4.0.7) date 04/25/20 16:53:01*
%MOMM*%
%LPD*%
G01*
G04 APERTURE LIST*
%ADD10C,0.100000*%
%ADD11C,0.300000*%
%ADD12C,0.175000*%
%ADD13C,0.250000*%
%ADD14C,0.150000*%
%ADD15C,0.120000*%
G04 APERTURE END LIST*
D10*
D11*
X175379143Y-116238571D02*
X174522000Y-116238571D01*
X174950572Y-116238571D02*
X174950572Y-114738571D01*
X174807715Y-114952857D01*
X174664857Y-115095714D01*
X174522000Y-115167143D01*
X176093428Y-116238571D02*
X176379143Y-116238571D01*
X176522000Y-116167143D01*
X176593428Y-116095714D01*
X176736286Y-115881429D01*
X176807714Y-115595714D01*
X176807714Y-115024286D01*
X176736286Y-114881429D01*
X176664857Y-114810000D01*
X176522000Y-114738571D01*
X176236286Y-114738571D01*
X176093428Y-114810000D01*
X176022000Y-114881429D01*
X175950571Y-115024286D01*
X175950571Y-115381429D01*
X176022000Y-115524286D01*
X176093428Y-115595714D01*
X176236286Y-115667143D01*
X176522000Y-115667143D01*
X176664857Y-115595714D01*
X176736286Y-115524286D01*
X176807714Y-115381429D01*
X177450571Y-116095714D02*
X177521999Y-116167143D01*
X177450571Y-116238571D01*
X177379142Y-116167143D01*
X177450571Y-116095714D01*
X177450571Y-116238571D01*
X175950572Y-117788571D02*
X175950572Y-118788571D01*
X175593429Y-117217143D02*
X175236286Y-118288571D01*
X176164858Y-118288571D01*
X176736286Y-118645714D02*
X176807714Y-118717143D01*
X176736286Y-118788571D01*
X176664857Y-118717143D01*
X176736286Y-118645714D01*
X176736286Y-118788571D01*
X173450572Y-119981429D02*
X173522001Y-119910000D01*
X173664858Y-119838571D01*
X174022001Y-119838571D01*
X174164858Y-119910000D01*
X174236287Y-119981429D01*
X174307715Y-120124286D01*
X174307715Y-120267143D01*
X174236287Y-120481429D01*
X173379144Y-121338571D01*
X174307715Y-121338571D01*
X175236286Y-119838571D02*
X175379143Y-119838571D01*
X175522000Y-119910000D01*
X175593429Y-119981429D01*
X175664858Y-120124286D01*
X175736286Y-120410000D01*
X175736286Y-120767143D01*
X175664858Y-121052857D01*
X175593429Y-121195714D01*
X175522000Y-121267143D01*
X175379143Y-121338571D01*
X175236286Y-121338571D01*
X175093429Y-121267143D01*
X175022000Y-121195714D01*
X174950572Y-121052857D01*
X174879143Y-120767143D01*
X174879143Y-120410000D01*
X174950572Y-120124286D01*
X175022000Y-119981429D01*
X175093429Y-119910000D01*
X175236286Y-119838571D01*
X176307714Y-119981429D02*
X176379143Y-119910000D01*
X176522000Y-119838571D01*
X176879143Y-119838571D01*
X177022000Y-119910000D01*
X177093429Y-119981429D01*
X177164857Y-120124286D01*
X177164857Y-120267143D01*
X177093429Y-120481429D01*
X176236286Y-121338571D01*
X177164857Y-121338571D01*
X178093428Y-119838571D02*
X178236285Y-119838571D01*
X178379142Y-119910000D01*
X178450571Y-119981429D01*
X178522000Y-120124286D01*
X178593428Y-120410000D01*
X178593428Y-120767143D01*
X178522000Y-121052857D01*
X178450571Y-121195714D01*
X178379142Y-121267143D01*
X178236285Y-121338571D01*
X178093428Y-121338571D01*
X177950571Y-121267143D01*
X177879142Y-121195714D01*
X177807714Y-121052857D01*
X177736285Y-120767143D01*
X177736285Y-120410000D01*
X177807714Y-120124286D01*
X177879142Y-119981429D01*
X177950571Y-119910000D01*
X178093428Y-119838571D01*
X111867429Y-115984571D02*
X111367429Y-115270286D01*
X111010286Y-115984571D02*
X111010286Y-114484571D01*
X111581714Y-114484571D01*
X111724572Y-114556000D01*
X111796000Y-114627429D01*
X111867429Y-114770286D01*
X111867429Y-114984571D01*
X111796000Y-115127429D01*
X111724572Y-115198857D01*
X111581714Y-115270286D01*
X111010286Y-115270286D01*
X112796000Y-114484571D02*
X113081714Y-114484571D01*
X113224572Y-114556000D01*
X113367429Y-114698857D01*
X113438857Y-114984571D01*
X113438857Y-115484571D01*
X113367429Y-115770286D01*
X113224572Y-115913143D01*
X113081714Y-115984571D01*
X112796000Y-115984571D01*
X112653143Y-115913143D01*
X112510286Y-115770286D01*
X112438857Y-115484571D01*
X112438857Y-114984571D01*
X112510286Y-114698857D01*
X112653143Y-114556000D01*
X112796000Y-114484571D01*
X113867429Y-114484571D02*
X114724572Y-114484571D01*
X114296001Y-115984571D02*
X114296001Y-114484571D01*
X115224572Y-115198857D02*
X115724572Y-115198857D01*
X115938858Y-115984571D02*
X115224572Y-115984571D01*
X115224572Y-114484571D01*
X115938858Y-114484571D01*
X117296001Y-115984571D02*
X116581715Y-115984571D01*
X116581715Y-114484571D01*
X112438858Y-118534571D02*
X111938858Y-117820286D01*
X111581715Y-118534571D02*
X111581715Y-117034571D01*
X112153143Y-117034571D01*
X112296001Y-117106000D01*
X112367429Y-117177429D01*
X112438858Y-117320286D01*
X112438858Y-117534571D01*
X112367429Y-117677429D01*
X112296001Y-117748857D01*
X112153143Y-117820286D01*
X111581715Y-117820286D01*
X113010286Y-118106000D02*
X113724572Y-118106000D01*
X112867429Y-118534571D02*
X113367429Y-117034571D01*
X113867429Y-118534571D01*
X114653143Y-117034571D02*
X114796000Y-117034571D01*
X114938857Y-117106000D01*
X115010286Y-117177429D01*
X115081715Y-117320286D01*
X115153143Y-117606000D01*
X115153143Y-117963143D01*
X115081715Y-118248857D01*
X115010286Y-118391714D01*
X114938857Y-118463143D01*
X114796000Y-118534571D01*
X114653143Y-118534571D01*
X114510286Y-118463143D01*
X114438857Y-118391714D01*
X114367429Y-118248857D01*
X114296000Y-117963143D01*
X114296000Y-117606000D01*
X114367429Y-117320286D01*
X114438857Y-117177429D01*
X114510286Y-117106000D01*
X114653143Y-117034571D01*
X115724571Y-117177429D02*
X115796000Y-117106000D01*
X115938857Y-117034571D01*
X116296000Y-117034571D01*
X116438857Y-117106000D01*
X116510286Y-117177429D01*
X116581714Y-117320286D01*
X116581714Y-117463143D01*
X116510286Y-117677429D01*
X115653143Y-118534571D01*
X116581714Y-118534571D01*
X111653143Y-120941714D02*
X111581714Y-121013143D01*
X111367428Y-121084571D01*
X111224571Y-121084571D01*
X111010286Y-121013143D01*
X110867428Y-120870286D01*
X110796000Y-120727429D01*
X110724571Y-120441714D01*
X110724571Y-120227429D01*
X110796000Y-119941714D01*
X110867428Y-119798857D01*
X111010286Y-119656000D01*
X111224571Y-119584571D01*
X111367428Y-119584571D01*
X111581714Y-119656000D01*
X111653143Y-119727429D01*
X113010286Y-121084571D02*
X112296000Y-121084571D01*
X112296000Y-119584571D01*
X113796000Y-119584571D02*
X114081714Y-119584571D01*
X114224572Y-119656000D01*
X114367429Y-119798857D01*
X114438857Y-120084571D01*
X114438857Y-120584571D01*
X114367429Y-120870286D01*
X114224572Y-121013143D01*
X114081714Y-121084571D01*
X113796000Y-121084571D01*
X113653143Y-121013143D01*
X113510286Y-120870286D01*
X113438857Y-120584571D01*
X113438857Y-120084571D01*
X113510286Y-119798857D01*
X113653143Y-119656000D01*
X113796000Y-119584571D01*
X115081715Y-121084571D02*
X115081715Y-119584571D01*
X115938858Y-121084571D01*
X115938858Y-119584571D01*
X116653144Y-120298857D02*
X117153144Y-120298857D01*
X117367430Y-121084571D02*
X116653144Y-121084571D01*
X116653144Y-119584571D01*
X117367430Y-119584571D01*
D12*
X151942000Y-90882000D02*
X152042000Y-90915333D01*
X152075333Y-90948667D01*
X152108667Y-91015333D01*
X152108667Y-91115333D01*
X152075333Y-91182000D01*
X152042000Y-91215333D01*
X151975333Y-91248667D01*
X151708667Y-91248667D01*
X151708667Y-90548667D01*
X151942000Y-90548667D01*
X152008667Y-90582000D01*
X152042000Y-90615333D01*
X152075333Y-90682000D01*
X152075333Y-90748667D01*
X152042000Y-90815333D01*
X152008667Y-90848667D01*
X151942000Y-90882000D01*
X151708667Y-90882000D01*
X150838667Y-91182000D02*
X150805333Y-91215333D01*
X150705333Y-91248667D01*
X150638667Y-91248667D01*
X150538667Y-91215333D01*
X150472000Y-91148667D01*
X150438667Y-91082000D01*
X150405333Y-90948667D01*
X150405333Y-90848667D01*
X150438667Y-90715333D01*
X150472000Y-90648667D01*
X150538667Y-90582000D01*
X150638667Y-90548667D01*
X150705333Y-90548667D01*
X150805333Y-90582000D01*
X150838667Y-90615333D01*
X149202001Y-90882000D02*
X149435334Y-90882000D01*
X149535334Y-91248667D02*
X149202001Y-91248667D01*
X149202001Y-90548667D01*
X149535334Y-90548667D01*
X147524000Y-105106000D02*
X147557333Y-105006000D01*
X147590667Y-104972667D01*
X147657333Y-104939333D01*
X147757333Y-104939333D01*
X147824000Y-104972667D01*
X147857333Y-105006000D01*
X147890667Y-105072667D01*
X147890667Y-105339333D01*
X147190667Y-105339333D01*
X147190667Y-105106000D01*
X147224000Y-105039333D01*
X147257333Y-105006000D01*
X147324000Y-104972667D01*
X147390667Y-104972667D01*
X147457333Y-105006000D01*
X147490667Y-105039333D01*
X147524000Y-105106000D01*
X147524000Y-105339333D01*
X140412000Y-105106000D02*
X140445333Y-105006000D01*
X140478667Y-104972667D01*
X140545333Y-104939333D01*
X140645333Y-104939333D01*
X140712000Y-104972667D01*
X140745333Y-105006000D01*
X140778667Y-105072667D01*
X140778667Y-105339333D01*
X140078667Y-105339333D01*
X140078667Y-105106000D01*
X140112000Y-105039333D01*
X140145333Y-105006000D01*
X140212000Y-104972667D01*
X140278667Y-104972667D01*
X140345333Y-105006000D01*
X140378667Y-105039333D01*
X140412000Y-105106000D01*
X140412000Y-105339333D01*
X147824000Y-106209333D02*
X147857333Y-106242667D01*
X147890667Y-106342667D01*
X147890667Y-106409333D01*
X147857333Y-106509333D01*
X147790667Y-106576000D01*
X147724000Y-106609333D01*
X147590667Y-106642667D01*
X147490667Y-106642667D01*
X147357333Y-106609333D01*
X147290667Y-106576000D01*
X147224000Y-106509333D01*
X147190667Y-106409333D01*
X147190667Y-106342667D01*
X147224000Y-106242667D01*
X147257333Y-106209333D01*
X140712000Y-106209333D02*
X140745333Y-106242667D01*
X140778667Y-106342667D01*
X140778667Y-106409333D01*
X140745333Y-106509333D01*
X140678667Y-106576000D01*
X140612000Y-106609333D01*
X140478667Y-106642667D01*
X140378667Y-106642667D01*
X140245333Y-106609333D01*
X140178667Y-106576000D01*
X140112000Y-106509333D01*
X140078667Y-106409333D01*
X140078667Y-106342667D01*
X140112000Y-106242667D01*
X140145333Y-106209333D01*
X140412000Y-107845999D02*
X140412000Y-107612666D01*
X140778667Y-107512666D02*
X140778667Y-107845999D01*
X140078667Y-107845999D01*
X140078667Y-107512666D01*
X147524000Y-107845999D02*
X147524000Y-107612666D01*
X147890667Y-107512666D02*
X147890667Y-107845999D01*
X147190667Y-107845999D01*
X147190667Y-107512666D01*
X127712000Y-101296000D02*
X127745333Y-101196000D01*
X127778667Y-101162667D01*
X127845333Y-101129333D01*
X127945333Y-101129333D01*
X128012000Y-101162667D01*
X128045333Y-101196000D01*
X128078667Y-101262667D01*
X128078667Y-101529333D01*
X127378667Y-101529333D01*
X127378667Y-101296000D01*
X127412000Y-101229333D01*
X127445333Y-101196000D01*
X127512000Y-101162667D01*
X127578667Y-101162667D01*
X127645333Y-101196000D01*
X127678667Y-101229333D01*
X127712000Y-101296000D01*
X127712000Y-101529333D01*
X128012000Y-102399333D02*
X128045333Y-102432667D01*
X128078667Y-102532667D01*
X128078667Y-102599333D01*
X128045333Y-102699333D01*
X127978667Y-102766000D01*
X127912000Y-102799333D01*
X127778667Y-102832667D01*
X127678667Y-102832667D01*
X127545333Y-102799333D01*
X127478667Y-102766000D01*
X127412000Y-102699333D01*
X127378667Y-102599333D01*
X127378667Y-102532667D01*
X127412000Y-102432667D01*
X127445333Y-102399333D01*
X127712000Y-104289999D02*
X127712000Y-104056666D01*
X128078667Y-103956666D02*
X128078667Y-104289999D01*
X127378667Y-104289999D01*
X127378667Y-103956666D01*
X140412000Y-107845999D02*
X140412000Y-107612666D01*
X140778667Y-107512666D02*
X140778667Y-107845999D01*
X140078667Y-107845999D01*
X140078667Y-107512666D01*
X120700000Y-87072000D02*
X120800000Y-87105333D01*
X120833333Y-87138667D01*
X120866667Y-87205333D01*
X120866667Y-87305333D01*
X120833333Y-87372000D01*
X120800000Y-87405333D01*
X120733333Y-87438667D01*
X120466667Y-87438667D01*
X120466667Y-86738667D01*
X120700000Y-86738667D01*
X120766667Y-86772000D01*
X120800000Y-86805333D01*
X120833333Y-86872000D01*
X120833333Y-86938667D01*
X120800000Y-87005333D01*
X120766667Y-87038667D01*
X120700000Y-87072000D01*
X120466667Y-87072000D01*
X119596667Y-87372000D02*
X119563333Y-87405333D01*
X119463333Y-87438667D01*
X119396667Y-87438667D01*
X119296667Y-87405333D01*
X119230000Y-87338667D01*
X119196667Y-87272000D01*
X119163333Y-87138667D01*
X119163333Y-87038667D01*
X119196667Y-86905333D01*
X119230000Y-86838667D01*
X119296667Y-86772000D01*
X119396667Y-86738667D01*
X119463333Y-86738667D01*
X119563333Y-86772000D01*
X119596667Y-86805333D01*
X117960001Y-87072000D02*
X118193334Y-87072000D01*
X118293334Y-87438667D02*
X117960001Y-87438667D01*
X117960001Y-86738667D01*
X118293334Y-86738667D01*
D13*
X161472571Y-62190286D02*
X161472571Y-61856952D01*
X161996381Y-61714095D02*
X161996381Y-62190286D01*
X160996381Y-62190286D01*
X160996381Y-61714095D01*
X161901143Y-64460476D02*
X161948762Y-64508095D01*
X161996381Y-64650952D01*
X161996381Y-64746190D01*
X161948762Y-64889048D01*
X161853524Y-64984286D01*
X161758286Y-65031905D01*
X161567810Y-65079524D01*
X161424952Y-65079524D01*
X161234476Y-65031905D01*
X161139238Y-64984286D01*
X161044000Y-64889048D01*
X160996381Y-64746190D01*
X160996381Y-64650952D01*
X161044000Y-64508095D01*
X161091619Y-64460476D01*
X161472571Y-67238571D02*
X161520190Y-67095714D01*
X161567810Y-67048095D01*
X161663048Y-67000476D01*
X161805905Y-67000476D01*
X161901143Y-67048095D01*
X161948762Y-67095714D01*
X161996381Y-67190952D01*
X161996381Y-67571905D01*
X160996381Y-67571905D01*
X160996381Y-67238571D01*
X161044000Y-67143333D01*
X161091619Y-67095714D01*
X161186857Y-67048095D01*
X161282095Y-67048095D01*
X161377333Y-67095714D01*
X161424952Y-67143333D01*
X161472571Y-67238571D01*
X161472571Y-67571905D01*
X166155714Y-50982571D02*
X166489048Y-50982571D01*
X166631905Y-51506381D02*
X166155714Y-51506381D01*
X166155714Y-50506381D01*
X166631905Y-50506381D01*
X161345524Y-51411143D02*
X161297905Y-51458762D01*
X161155048Y-51506381D01*
X161059810Y-51506381D01*
X160916952Y-51458762D01*
X160821714Y-51363524D01*
X160774095Y-51268286D01*
X160726476Y-51077810D01*
X160726476Y-50934952D01*
X160774095Y-50744476D01*
X160821714Y-50649238D01*
X160916952Y-50554000D01*
X161059810Y-50506381D01*
X161155048Y-50506381D01*
X161297905Y-50554000D01*
X161345524Y-50601619D01*
X155519429Y-50982571D02*
X155662286Y-51030190D01*
X155709905Y-51077810D01*
X155757524Y-51173048D01*
X155757524Y-51315905D01*
X155709905Y-51411143D01*
X155662286Y-51458762D01*
X155567048Y-51506381D01*
X155186095Y-51506381D01*
X155186095Y-50506381D01*
X155519429Y-50506381D01*
X155614667Y-50554000D01*
X155662286Y-50601619D01*
X155709905Y-50696857D01*
X155709905Y-50792095D01*
X155662286Y-50887333D01*
X155614667Y-50934952D01*
X155519429Y-50982571D01*
X155186095Y-50982571D01*
X146883429Y-50982571D02*
X147026286Y-51030190D01*
X147073905Y-51077810D01*
X147121524Y-51173048D01*
X147121524Y-51315905D01*
X147073905Y-51411143D01*
X147026286Y-51458762D01*
X146931048Y-51506381D01*
X146550095Y-51506381D01*
X146550095Y-50506381D01*
X146883429Y-50506381D01*
X146978667Y-50554000D01*
X147026286Y-50601619D01*
X147073905Y-50696857D01*
X147073905Y-50792095D01*
X147026286Y-50887333D01*
X146978667Y-50934952D01*
X146883429Y-50982571D01*
X146550095Y-50982571D01*
X144327524Y-51411143D02*
X144279905Y-51458762D01*
X144137048Y-51506381D01*
X144041810Y-51506381D01*
X143898952Y-51458762D01*
X143803714Y-51363524D01*
X143756095Y-51268286D01*
X143708476Y-51077810D01*
X143708476Y-50934952D01*
X143756095Y-50744476D01*
X143803714Y-50649238D01*
X143898952Y-50554000D01*
X144041810Y-50506381D01*
X144137048Y-50506381D01*
X144279905Y-50554000D01*
X144327524Y-50601619D01*
X141263714Y-50982571D02*
X141597048Y-50982571D01*
X141739905Y-51506381D02*
X141263714Y-51506381D01*
X141263714Y-50506381D01*
X141739905Y-50506381D01*
X121451714Y-71048571D02*
X121785048Y-71048571D01*
X121927905Y-71572381D02*
X121451714Y-71572381D01*
X121451714Y-70572381D01*
X121927905Y-70572381D01*
X119435524Y-71477143D02*
X119387905Y-71524762D01*
X119245048Y-71572381D01*
X119149810Y-71572381D01*
X119006952Y-71524762D01*
X118911714Y-71429524D01*
X118864095Y-71334286D01*
X118816476Y-71143810D01*
X118816476Y-71000952D01*
X118864095Y-70810476D01*
X118911714Y-70715238D01*
X119006952Y-70620000D01*
X119149810Y-70572381D01*
X119245048Y-70572381D01*
X119387905Y-70620000D01*
X119435524Y-70667619D01*
X116657429Y-71048571D02*
X116800286Y-71096190D01*
X116847905Y-71143810D01*
X116895524Y-71239048D01*
X116895524Y-71381905D01*
X116847905Y-71477143D01*
X116800286Y-71524762D01*
X116705048Y-71572381D01*
X116324095Y-71572381D01*
X116324095Y-70572381D01*
X116657429Y-70572381D01*
X116752667Y-70620000D01*
X116800286Y-70667619D01*
X116847905Y-70762857D01*
X116847905Y-70858095D01*
X116800286Y-70953333D01*
X116752667Y-71000952D01*
X116657429Y-71048571D01*
X116324095Y-71048571D01*
X122610571Y-63714286D02*
X122610571Y-63380952D01*
X123134381Y-63238095D02*
X123134381Y-63714286D01*
X122134381Y-63714286D01*
X122134381Y-63238095D01*
X123039143Y-65730476D02*
X123086762Y-65778095D01*
X123134381Y-65920952D01*
X123134381Y-66016190D01*
X123086762Y-66159048D01*
X122991524Y-66254286D01*
X122896286Y-66301905D01*
X122705810Y-66349524D01*
X122562952Y-66349524D01*
X122372476Y-66301905D01*
X122277238Y-66254286D01*
X122182000Y-66159048D01*
X122134381Y-66016190D01*
X122134381Y-65920952D01*
X122182000Y-65778095D01*
X122229619Y-65730476D01*
X122553571Y-68453571D02*
X122601190Y-68310714D01*
X122648810Y-68263095D01*
X122744048Y-68215476D01*
X122886905Y-68215476D01*
X122982143Y-68263095D01*
X123029762Y-68310714D01*
X123077381Y-68405952D01*
X123077381Y-68786905D01*
X122077381Y-68786905D01*
X122077381Y-68453571D01*
X122125000Y-68358333D01*
X122172619Y-68310714D01*
X122267857Y-68263095D01*
X122363095Y-68263095D01*
X122458333Y-68310714D01*
X122505952Y-68358333D01*
X122553571Y-68453571D01*
X122553571Y-68786905D01*
X121571429Y-51053571D02*
X121714286Y-51101190D01*
X121761905Y-51148810D01*
X121809524Y-51244048D01*
X121809524Y-51386905D01*
X121761905Y-51482143D01*
X121714286Y-51529762D01*
X121619048Y-51577381D01*
X121238095Y-51577381D01*
X121238095Y-50577381D01*
X121571429Y-50577381D01*
X121666667Y-50625000D01*
X121714286Y-50672619D01*
X121761905Y-50767857D01*
X121761905Y-50863095D01*
X121714286Y-50958333D01*
X121666667Y-51005952D01*
X121571429Y-51053571D01*
X121238095Y-51053571D01*
X127109524Y-51557143D02*
X127061905Y-51604762D01*
X126919048Y-51652381D01*
X126823810Y-51652381D01*
X126680952Y-51604762D01*
X126585714Y-51509524D01*
X126538095Y-51414286D01*
X126490476Y-51223810D01*
X126490476Y-51080952D01*
X126538095Y-50890476D01*
X126585714Y-50795238D01*
X126680952Y-50700000D01*
X126823810Y-50652381D01*
X126919048Y-50652381D01*
X127061905Y-50700000D01*
X127109524Y-50747619D01*
X132185714Y-51053571D02*
X132519048Y-51053571D01*
X132661905Y-51577381D02*
X132185714Y-51577381D01*
X132185714Y-50577381D01*
X132661905Y-50577381D01*
D14*
X110000000Y-50000000D02*
X110000000Y-130000000D01*
X180000000Y-50000000D02*
X110000000Y-50000000D01*
X180000000Y-130000000D02*
X180000000Y-50000000D01*
X110000000Y-130000000D02*
X180000000Y-130000000D01*
D15*
X144050000Y-67500000D02*
G75*
G03X144050000Y-67500000I-1050000J0D01*
G01*
X138039000Y-72560000D02*
X138039000Y-62440000D01*
X147960000Y-72560000D02*
X147960000Y-62440000D01*
X138039000Y-72560000D02*
X139135000Y-72560000D01*
X141865000Y-72560000D02*
X144135000Y-72560000D01*
X146865000Y-72560000D02*
X147960000Y-72560000D01*
X138039000Y-62440000D02*
X141635000Y-62440000D01*
X144365000Y-62440000D02*
X147960000Y-62440000D01*
X116678000Y-77684000D02*
X116678000Y-80304000D01*
X116678000Y-80304000D02*
X123098000Y-80304000D01*
X123098000Y-80304000D02*
X123098000Y-77684000D01*
X123098000Y-77684000D02*
X116678000Y-77684000D01*
X115788000Y-78994000D02*
X116678000Y-78994000D01*
X123988000Y-78994000D02*
X123098000Y-78994000D01*
X177490000Y-94400000D02*
G75*
G03X177490000Y-94400000I-4090000J0D01*
G01*
X173400000Y-90350000D02*
X173400000Y-98450000D01*
X173440000Y-90350000D02*
X173440000Y-98450000D01*
X173480000Y-90350000D02*
X173480000Y-98450000D01*
X173520000Y-90351000D02*
X173520000Y-98449000D01*
X173560000Y-90353000D02*
X173560000Y-98447000D01*
X173600000Y-90354000D02*
X173600000Y-98446000D01*
X173640000Y-90357000D02*
X173640000Y-98443000D01*
X173680000Y-90359000D02*
X173680000Y-98441000D01*
X173720000Y-90362000D02*
X173720000Y-98438000D01*
X173760000Y-90365000D02*
X173760000Y-98435000D01*
X173800000Y-90369000D02*
X173800000Y-98431000D01*
X173840000Y-90373000D02*
X173840000Y-98427000D01*
X173880000Y-90378000D02*
X173880000Y-98422000D01*
X173920000Y-90383000D02*
X173920000Y-98417000D01*
X173960000Y-90388000D02*
X173960000Y-98412000D01*
X174000000Y-90394000D02*
X174000000Y-98406000D01*
X174040000Y-90400000D02*
X174040000Y-98400000D01*
X174080000Y-90406000D02*
X174080000Y-98394000D01*
X174121000Y-90413000D02*
X174121000Y-98387000D01*
X174161000Y-90421000D02*
X174161000Y-98379000D01*
X174201000Y-90429000D02*
X174201000Y-98371000D01*
X174241000Y-90437000D02*
X174241000Y-98363000D01*
X174281000Y-90445000D02*
X174281000Y-98355000D01*
X174321000Y-90454000D02*
X174321000Y-93420000D01*
X174321000Y-95380000D02*
X174321000Y-98346000D01*
X174361000Y-90464000D02*
X174361000Y-93420000D01*
X174361000Y-95380000D02*
X174361000Y-98336000D01*
X174401000Y-90474000D02*
X174401000Y-93420000D01*
X174401000Y-95380000D02*
X174401000Y-98326000D01*
X174441000Y-90484000D02*
X174441000Y-93420000D01*
X174441000Y-95380000D02*
X174441000Y-98316000D01*
X174481000Y-90495000D02*
X174481000Y-93420000D01*
X174481000Y-95380000D02*
X174481000Y-98305000D01*
X174521000Y-90506000D02*
X174521000Y-93420000D01*
X174521000Y-95380000D02*
X174521000Y-98294000D01*
X174561000Y-90517000D02*
X174561000Y-93420000D01*
X174561000Y-95380000D02*
X174561000Y-98283000D01*
X174601000Y-90530000D02*
X174601000Y-93420000D01*
X174601000Y-95380000D02*
X174601000Y-98270000D01*
X174641000Y-90542000D02*
X174641000Y-93420000D01*
X174641000Y-95380000D02*
X174641000Y-98258000D01*
X174681000Y-90555000D02*
X174681000Y-93420000D01*
X174681000Y-95380000D02*
X174681000Y-98245000D01*
X174721000Y-90568000D02*
X174721000Y-93420000D01*
X174721000Y-95380000D02*
X174721000Y-98232000D01*
X174761000Y-90582000D02*
X174761000Y-93420000D01*
X174761000Y-95380000D02*
X174761000Y-98218000D01*
X174801000Y-90597000D02*
X174801000Y-93420000D01*
X174801000Y-95380000D02*
X174801000Y-98203000D01*
X174841000Y-90611000D02*
X174841000Y-93420000D01*
X174841000Y-95380000D02*
X174841000Y-98189000D01*
X174881000Y-90627000D02*
X174881000Y-93420000D01*
X174881000Y-95380000D02*
X174881000Y-98173000D01*
X174921000Y-90642000D02*
X174921000Y-93420000D01*
X174921000Y-95380000D02*
X174921000Y-98158000D01*
X174961000Y-90659000D02*
X174961000Y-93420000D01*
X174961000Y-95380000D02*
X174961000Y-98141000D01*
X175001000Y-90675000D02*
X175001000Y-93420000D01*
X175001000Y-95380000D02*
X175001000Y-98125000D01*
X175041000Y-90693000D02*
X175041000Y-93420000D01*
X175041000Y-95380000D02*
X175041000Y-98107000D01*
X175081000Y-90710000D02*
X175081000Y-93420000D01*
X175081000Y-95380000D02*
X175081000Y-98090000D01*
X175121000Y-90729000D02*
X175121000Y-93420000D01*
X175121000Y-95380000D02*
X175121000Y-98071000D01*
X175161000Y-90748000D02*
X175161000Y-93420000D01*
X175161000Y-95380000D02*
X175161000Y-98052000D01*
X175201000Y-90767000D02*
X175201000Y-93420000D01*
X175201000Y-95380000D02*
X175201000Y-98033000D01*
X175241000Y-90787000D02*
X175241000Y-93420000D01*
X175241000Y-95380000D02*
X175241000Y-98013000D01*
X175281000Y-90807000D02*
X175281000Y-93420000D01*
X175281000Y-95380000D02*
X175281000Y-97993000D01*
X175321000Y-90828000D02*
X175321000Y-93420000D01*
X175321000Y-95380000D02*
X175321000Y-97972000D01*
X175361000Y-90850000D02*
X175361000Y-93420000D01*
X175361000Y-95380000D02*
X175361000Y-97950000D01*
X175401000Y-90872000D02*
X175401000Y-93420000D01*
X175401000Y-95380000D02*
X175401000Y-97928000D01*
X175441000Y-90895000D02*
X175441000Y-93420000D01*
X175441000Y-95380000D02*
X175441000Y-97905000D01*
X175481000Y-90918000D02*
X175481000Y-93420000D01*
X175481000Y-95380000D02*
X175481000Y-97882000D01*
X175521000Y-90942000D02*
X175521000Y-93420000D01*
X175521000Y-95380000D02*
X175521000Y-97858000D01*
X175561000Y-90966000D02*
X175561000Y-93420000D01*
X175561000Y-95380000D02*
X175561000Y-97834000D01*
X175601000Y-90992000D02*
X175601000Y-93420000D01*
X175601000Y-95380000D02*
X175601000Y-97808000D01*
X175641000Y-91017000D02*
X175641000Y-93420000D01*
X175641000Y-95380000D02*
X175641000Y-97783000D01*
X175681000Y-91044000D02*
X175681000Y-93420000D01*
X175681000Y-95380000D02*
X175681000Y-97756000D01*
X175721000Y-91071000D02*
X175721000Y-93420000D01*
X175721000Y-95380000D02*
X175721000Y-97729000D01*
X175761000Y-91099000D02*
X175761000Y-93420000D01*
X175761000Y-95380000D02*
X175761000Y-97701000D01*
X175801000Y-91128000D02*
X175801000Y-93420000D01*
X175801000Y-95380000D02*
X175801000Y-97672000D01*
X175841000Y-91157000D02*
X175841000Y-93420000D01*
X175841000Y-95380000D02*
X175841000Y-97643000D01*
X175881000Y-91187000D02*
X175881000Y-93420000D01*
X175881000Y-95380000D02*
X175881000Y-97613000D01*
X175921000Y-91218000D02*
X175921000Y-93420000D01*
X175921000Y-95380000D02*
X175921000Y-97582000D01*
X175961000Y-91250000D02*
X175961000Y-93420000D01*
X175961000Y-95380000D02*
X175961000Y-97550000D01*
X176001000Y-91282000D02*
X176001000Y-93420000D01*
X176001000Y-95380000D02*
X176001000Y-97518000D01*
X176041000Y-91316000D02*
X176041000Y-93420000D01*
X176041000Y-95380000D02*
X176041000Y-97484000D01*
X176081000Y-91350000D02*
X176081000Y-93420000D01*
X176081000Y-95380000D02*
X176081000Y-97450000D01*
X176121000Y-91385000D02*
X176121000Y-93420000D01*
X176121000Y-95380000D02*
X176121000Y-97415000D01*
X176161000Y-91421000D02*
X176161000Y-93420000D01*
X176161000Y-95380000D02*
X176161000Y-97379000D01*
X176201000Y-91458000D02*
X176201000Y-93420000D01*
X176201000Y-95380000D02*
X176201000Y-97342000D01*
X176241000Y-91496000D02*
X176241000Y-93420000D01*
X176241000Y-95380000D02*
X176241000Y-97304000D01*
X176281000Y-91535000D02*
X176281000Y-97265000D01*
X176321000Y-91576000D02*
X176321000Y-97224000D01*
X176361000Y-91617000D02*
X176361000Y-97183000D01*
X176401000Y-91660000D02*
X176401000Y-97140000D01*
X176441000Y-91703000D02*
X176441000Y-97097000D01*
X176481000Y-91748000D02*
X176481000Y-97052000D01*
X176521000Y-91795000D02*
X176521000Y-97005000D01*
X176561000Y-91843000D02*
X176561000Y-96957000D01*
X176601000Y-91892000D02*
X176601000Y-96908000D01*
X176641000Y-91943000D02*
X176641000Y-96857000D01*
X176681000Y-91996000D02*
X176681000Y-96804000D01*
X176721000Y-92051000D02*
X176721000Y-96749000D01*
X176761000Y-92107000D02*
X176761000Y-96693000D01*
X176801000Y-92166000D02*
X176801000Y-96634000D01*
X176841000Y-92227000D02*
X176841000Y-96573000D01*
X176881000Y-92291000D02*
X176881000Y-96509000D01*
X176921000Y-92357000D02*
X176921000Y-96443000D01*
X176961000Y-92426000D02*
X176961000Y-96374000D01*
X177001000Y-92498000D02*
X177001000Y-96302000D01*
X177041000Y-92574000D02*
X177041000Y-96226000D01*
X177081000Y-92655000D02*
X177081000Y-96145000D01*
X177121000Y-92740000D02*
X177121000Y-96060000D01*
X177161000Y-92830000D02*
X177161000Y-95970000D01*
X177201000Y-92927000D02*
X177201000Y-95873000D01*
X177241000Y-93031000D02*
X177241000Y-95769000D01*
X177281000Y-93146000D02*
X177281000Y-95654000D01*
X177321000Y-93273000D02*
X177321000Y-95527000D01*
X177361000Y-93417000D02*
X177361000Y-95383000D01*
X177401000Y-93586000D02*
X177401000Y-95214000D01*
X177441000Y-93802000D02*
X177441000Y-94998000D01*
X177481000Y-94154000D02*
X177481000Y-94646000D01*
X169300000Y-94400000D02*
X170500000Y-94400000D01*
X169900000Y-93750000D02*
X169900000Y-95050000D01*
X155810000Y-102240000D02*
X155810000Y-109360000D01*
X153190000Y-102240000D02*
X153190000Y-109360000D01*
X155810000Y-102240000D02*
X153190000Y-102240000D01*
X155810000Y-109360000D02*
X153190000Y-109360000D01*
X149060000Y-102910000D02*
X141940000Y-102910000D01*
X149060000Y-100290000D02*
X141940000Y-100290000D01*
X149060000Y-102910000D02*
X149060000Y-100290000D01*
X141940000Y-102910000D02*
X141940000Y-100290000D01*
X158810000Y-81940000D02*
X158810000Y-89060000D01*
X156190000Y-81940000D02*
X156190000Y-89060000D01*
X158810000Y-81940000D02*
X156190000Y-81940000D01*
X158810000Y-89060000D02*
X156190000Y-89060000D01*
X152614000Y-67354000D02*
X152614000Y-60234000D01*
X155234000Y-67354000D02*
X155234000Y-60234000D01*
X152614000Y-67354000D02*
X155234000Y-67354000D01*
X152614000Y-60234000D02*
X155234000Y-60234000D01*
X167940000Y-82190000D02*
X175060000Y-82190000D01*
X167940000Y-84810000D02*
X175060000Y-84810000D01*
X167940000Y-82190000D02*
X167940000Y-84810000D01*
X175060000Y-82190000D02*
X175060000Y-84810000D01*
X154090000Y-95500000D02*
G75*
G03X154090000Y-95500000I-4090000J0D01*
G01*
X150000000Y-91450000D02*
X150000000Y-99550000D01*
X150040000Y-91450000D02*
X150040000Y-99550000D01*
X150080000Y-91450000D02*
X150080000Y-99550000D01*
X150120000Y-91451000D02*
X150120000Y-99549000D01*
X150160000Y-91453000D02*
X150160000Y-99547000D01*
X150200000Y-91454000D02*
X150200000Y-99546000D01*
X150240000Y-91457000D02*
X150240000Y-99543000D01*
X150280000Y-91459000D02*
X150280000Y-99541000D01*
X150320000Y-91462000D02*
X150320000Y-99538000D01*
X150360000Y-91465000D02*
X150360000Y-99535000D01*
X150400000Y-91469000D02*
X150400000Y-99531000D01*
X150440000Y-91473000D02*
X150440000Y-99527000D01*
X150480000Y-91478000D02*
X150480000Y-99522000D01*
X150520000Y-91483000D02*
X150520000Y-99517000D01*
X150560000Y-91488000D02*
X150560000Y-99512000D01*
X150600000Y-91494000D02*
X150600000Y-99506000D01*
X150640000Y-91500000D02*
X150640000Y-99500000D01*
X150680000Y-91506000D02*
X150680000Y-99494000D01*
X150721000Y-91513000D02*
X150721000Y-99487000D01*
X150761000Y-91521000D02*
X150761000Y-99479000D01*
X150801000Y-91529000D02*
X150801000Y-99471000D01*
X150841000Y-91537000D02*
X150841000Y-99463000D01*
X150881000Y-91545000D02*
X150881000Y-99455000D01*
X150921000Y-91554000D02*
X150921000Y-94520000D01*
X150921000Y-96480000D02*
X150921000Y-99446000D01*
X150961000Y-91564000D02*
X150961000Y-94520000D01*
X150961000Y-96480000D02*
X150961000Y-99436000D01*
X151001000Y-91574000D02*
X151001000Y-94520000D01*
X151001000Y-96480000D02*
X151001000Y-99426000D01*
X151041000Y-91584000D02*
X151041000Y-94520000D01*
X151041000Y-96480000D02*
X151041000Y-99416000D01*
X151081000Y-91595000D02*
X151081000Y-94520000D01*
X151081000Y-96480000D02*
X151081000Y-99405000D01*
X151121000Y-91606000D02*
X151121000Y-94520000D01*
X151121000Y-96480000D02*
X151121000Y-99394000D01*
X151161000Y-91617000D02*
X151161000Y-94520000D01*
X151161000Y-96480000D02*
X151161000Y-99383000D01*
X151201000Y-91630000D02*
X151201000Y-94520000D01*
X151201000Y-96480000D02*
X151201000Y-99370000D01*
X151241000Y-91642000D02*
X151241000Y-94520000D01*
X151241000Y-96480000D02*
X151241000Y-99358000D01*
X151281000Y-91655000D02*
X151281000Y-94520000D01*
X151281000Y-96480000D02*
X151281000Y-99345000D01*
X151321000Y-91668000D02*
X151321000Y-94520000D01*
X151321000Y-96480000D02*
X151321000Y-99332000D01*
X151361000Y-91682000D02*
X151361000Y-94520000D01*
X151361000Y-96480000D02*
X151361000Y-99318000D01*
X151401000Y-91697000D02*
X151401000Y-94520000D01*
X151401000Y-96480000D02*
X151401000Y-99303000D01*
X151441000Y-91711000D02*
X151441000Y-94520000D01*
X151441000Y-96480000D02*
X151441000Y-99289000D01*
X151481000Y-91727000D02*
X151481000Y-94520000D01*
X151481000Y-96480000D02*
X151481000Y-99273000D01*
X151521000Y-91742000D02*
X151521000Y-94520000D01*
X151521000Y-96480000D02*
X151521000Y-99258000D01*
X151561000Y-91759000D02*
X151561000Y-94520000D01*
X151561000Y-96480000D02*
X151561000Y-99241000D01*
X151601000Y-91775000D02*
X151601000Y-94520000D01*
X151601000Y-96480000D02*
X151601000Y-99225000D01*
X151641000Y-91793000D02*
X151641000Y-94520000D01*
X151641000Y-96480000D02*
X151641000Y-99207000D01*
X151681000Y-91810000D02*
X151681000Y-94520000D01*
X151681000Y-96480000D02*
X151681000Y-99190000D01*
X151721000Y-91829000D02*
X151721000Y-94520000D01*
X151721000Y-96480000D02*
X151721000Y-99171000D01*
X151761000Y-91848000D02*
X151761000Y-94520000D01*
X151761000Y-96480000D02*
X151761000Y-99152000D01*
X151801000Y-91867000D02*
X151801000Y-94520000D01*
X151801000Y-96480000D02*
X151801000Y-99133000D01*
X151841000Y-91887000D02*
X151841000Y-94520000D01*
X151841000Y-96480000D02*
X151841000Y-99113000D01*
X151881000Y-91907000D02*
X151881000Y-94520000D01*
X151881000Y-96480000D02*
X151881000Y-99093000D01*
X151921000Y-91928000D02*
X151921000Y-94520000D01*
X151921000Y-96480000D02*
X151921000Y-99072000D01*
X151961000Y-91950000D02*
X151961000Y-94520000D01*
X151961000Y-96480000D02*
X151961000Y-99050000D01*
X152001000Y-91972000D02*
X152001000Y-94520000D01*
X152001000Y-96480000D02*
X152001000Y-99028000D01*
X152041000Y-91995000D02*
X152041000Y-94520000D01*
X152041000Y-96480000D02*
X152041000Y-99005000D01*
X152081000Y-92018000D02*
X152081000Y-94520000D01*
X152081000Y-96480000D02*
X152081000Y-98982000D01*
X152121000Y-92042000D02*
X152121000Y-94520000D01*
X152121000Y-96480000D02*
X152121000Y-98958000D01*
X152161000Y-92066000D02*
X152161000Y-94520000D01*
X152161000Y-96480000D02*
X152161000Y-98934000D01*
X152201000Y-92092000D02*
X152201000Y-94520000D01*
X152201000Y-96480000D02*
X152201000Y-98908000D01*
X152241000Y-92117000D02*
X152241000Y-94520000D01*
X152241000Y-96480000D02*
X152241000Y-98883000D01*
X152281000Y-92144000D02*
X152281000Y-94520000D01*
X152281000Y-96480000D02*
X152281000Y-98856000D01*
X152321000Y-92171000D02*
X152321000Y-94520000D01*
X152321000Y-96480000D02*
X152321000Y-98829000D01*
X152361000Y-92199000D02*
X152361000Y-94520000D01*
X152361000Y-96480000D02*
X152361000Y-98801000D01*
X152401000Y-92228000D02*
X152401000Y-94520000D01*
X152401000Y-96480000D02*
X152401000Y-98772000D01*
X152441000Y-92257000D02*
X152441000Y-94520000D01*
X152441000Y-96480000D02*
X152441000Y-98743000D01*
X152481000Y-92287000D02*
X152481000Y-94520000D01*
X152481000Y-96480000D02*
X152481000Y-98713000D01*
X152521000Y-92318000D02*
X152521000Y-94520000D01*
X152521000Y-96480000D02*
X152521000Y-98682000D01*
X152561000Y-92350000D02*
X152561000Y-94520000D01*
X152561000Y-96480000D02*
X152561000Y-98650000D01*
X152601000Y-92382000D02*
X152601000Y-94520000D01*
X152601000Y-96480000D02*
X152601000Y-98618000D01*
X152641000Y-92416000D02*
X152641000Y-94520000D01*
X152641000Y-96480000D02*
X152641000Y-98584000D01*
X152681000Y-92450000D02*
X152681000Y-94520000D01*
X152681000Y-96480000D02*
X152681000Y-98550000D01*
X152721000Y-92485000D02*
X152721000Y-94520000D01*
X152721000Y-96480000D02*
X152721000Y-98515000D01*
X152761000Y-92521000D02*
X152761000Y-94520000D01*
X152761000Y-96480000D02*
X152761000Y-98479000D01*
X152801000Y-92558000D02*
X152801000Y-94520000D01*
X152801000Y-96480000D02*
X152801000Y-98442000D01*
X152841000Y-92596000D02*
X152841000Y-94520000D01*
X152841000Y-96480000D02*
X152841000Y-98404000D01*
X152881000Y-92635000D02*
X152881000Y-98365000D01*
X152921000Y-92676000D02*
X152921000Y-98324000D01*
X152961000Y-92717000D02*
X152961000Y-98283000D01*
X153001000Y-92760000D02*
X153001000Y-98240000D01*
X153041000Y-92803000D02*
X153041000Y-98197000D01*
X153081000Y-92848000D02*
X153081000Y-98152000D01*
X153121000Y-92895000D02*
X153121000Y-98105000D01*
X153161000Y-92943000D02*
X153161000Y-98057000D01*
X153201000Y-92992000D02*
X153201000Y-98008000D01*
X153241000Y-93043000D02*
X153241000Y-97957000D01*
X153281000Y-93096000D02*
X153281000Y-97904000D01*
X153321000Y-93151000D02*
X153321000Y-97849000D01*
X153361000Y-93207000D02*
X153361000Y-97793000D01*
X153401000Y-93266000D02*
X153401000Y-97734000D01*
X153441000Y-93327000D02*
X153441000Y-97673000D01*
X153481000Y-93391000D02*
X153481000Y-97609000D01*
X153521000Y-93457000D02*
X153521000Y-97543000D01*
X153561000Y-93526000D02*
X153561000Y-97474000D01*
X153601000Y-93598000D02*
X153601000Y-97402000D01*
X153641000Y-93674000D02*
X153641000Y-97326000D01*
X153681000Y-93755000D02*
X153681000Y-97245000D01*
X153721000Y-93840000D02*
X153721000Y-97160000D01*
X153761000Y-93930000D02*
X153761000Y-97070000D01*
X153801000Y-94027000D02*
X153801000Y-96973000D01*
X153841000Y-94131000D02*
X153841000Y-96869000D01*
X153881000Y-94246000D02*
X153881000Y-96754000D01*
X153921000Y-94373000D02*
X153921000Y-96627000D01*
X153961000Y-94517000D02*
X153961000Y-96483000D01*
X154001000Y-94686000D02*
X154001000Y-96314000D01*
X154041000Y-94902000D02*
X154041000Y-96098000D01*
X154081000Y-95254000D02*
X154081000Y-95746000D01*
X145900000Y-95500000D02*
X147100000Y-95500000D01*
X146500000Y-94850000D02*
X146500000Y-96150000D01*
X136390000Y-119150000D02*
G75*
G03X136390000Y-119150000I-9090000J0D01*
G01*
X136350000Y-119150000D02*
X118250000Y-119150000D01*
X136350000Y-119190000D02*
X118250000Y-119190000D01*
X136350000Y-119230000D02*
X118250000Y-119230000D01*
X136350000Y-119270000D02*
X118250000Y-119270000D01*
X136349000Y-119310000D02*
X118251000Y-119310000D01*
X136348000Y-119350000D02*
X118252000Y-119350000D01*
X136347000Y-119390000D02*
X118253000Y-119390000D01*
X136346000Y-119430000D02*
X118254000Y-119430000D01*
X136345000Y-119470000D02*
X118255000Y-119470000D01*
X136343000Y-119510000D02*
X118257000Y-119510000D01*
X136342000Y-119550000D02*
X118258000Y-119550000D01*
X136340000Y-119590000D02*
X118260000Y-119590000D01*
X136338000Y-119630000D02*
X118262000Y-119630000D01*
X136336000Y-119670000D02*
X118264000Y-119670000D01*
X136333000Y-119710000D02*
X118267000Y-119710000D01*
X136331000Y-119750000D02*
X118269000Y-119750000D01*
X136328000Y-119790000D02*
X118272000Y-119790000D01*
X136325000Y-119830000D02*
X118275000Y-119830000D01*
X136322000Y-119871000D02*
X118278000Y-119871000D01*
X136319000Y-119911000D02*
X118281000Y-119911000D01*
X136315000Y-119951000D02*
X118285000Y-119951000D01*
X136312000Y-119991000D02*
X118288000Y-119991000D01*
X136308000Y-120031000D02*
X118292000Y-120031000D01*
X136304000Y-120071000D02*
X118296000Y-120071000D01*
X136300000Y-120111000D02*
X118300000Y-120111000D01*
X136295000Y-120151000D02*
X118305000Y-120151000D01*
X136291000Y-120191000D02*
X118309000Y-120191000D01*
X136286000Y-120231000D02*
X118314000Y-120231000D01*
X136281000Y-120271000D02*
X118319000Y-120271000D01*
X136276000Y-120311000D02*
X118324000Y-120311000D01*
X136271000Y-120351000D02*
X118329000Y-120351000D01*
X136266000Y-120391000D02*
X118334000Y-120391000D01*
X136260000Y-120431000D02*
X118340000Y-120431000D01*
X136254000Y-120471000D02*
X118346000Y-120471000D01*
X136248000Y-120511000D02*
X118352000Y-120511000D01*
X136242000Y-120551000D02*
X118358000Y-120551000D01*
X136236000Y-120591000D02*
X118364000Y-120591000D01*
X136229000Y-120631000D02*
X118371000Y-120631000D01*
X136223000Y-120671000D02*
X118377000Y-120671000D01*
X136216000Y-120711000D02*
X118384000Y-120711000D01*
X136209000Y-120751000D02*
X118391000Y-120751000D01*
X136201000Y-120791000D02*
X118399000Y-120791000D01*
X136194000Y-120831000D02*
X118406000Y-120831000D01*
X136186000Y-120871000D02*
X118414000Y-120871000D01*
X136178000Y-120911000D02*
X118422000Y-120911000D01*
X136170000Y-120951000D02*
X118430000Y-120951000D01*
X136162000Y-120991000D02*
X118438000Y-120991000D01*
X136154000Y-121031000D02*
X118446000Y-121031000D01*
X136145000Y-121071000D02*
X118455000Y-121071000D01*
X136137000Y-121111000D02*
X118463000Y-121111000D01*
X136128000Y-121151000D02*
X118472000Y-121151000D01*
X136119000Y-121191000D02*
X118481000Y-121191000D01*
X136109000Y-121231000D02*
X118491000Y-121231000D01*
X136100000Y-121271000D02*
X118500000Y-121271000D01*
X136090000Y-121311000D02*
X118510000Y-121311000D01*
X136080000Y-121351000D02*
X118520000Y-121351000D01*
X136070000Y-121391000D02*
X118530000Y-121391000D01*
X136060000Y-121431000D02*
X118540000Y-121431000D01*
X136049000Y-121471000D02*
X118551000Y-121471000D01*
X136039000Y-121511000D02*
X118561000Y-121511000D01*
X136028000Y-121551000D02*
X128680000Y-121551000D01*
X125920000Y-121551000D02*
X118572000Y-121551000D01*
X136017000Y-121591000D02*
X128680000Y-121591000D01*
X125920000Y-121591000D02*
X118583000Y-121591000D01*
X136006000Y-121631000D02*
X128680000Y-121631000D01*
X125920000Y-121631000D02*
X118594000Y-121631000D01*
X135994000Y-121671000D02*
X128680000Y-121671000D01*
X125920000Y-121671000D02*
X118606000Y-121671000D01*
X135983000Y-121711000D02*
X128680000Y-121711000D01*
X125920000Y-121711000D02*
X118617000Y-121711000D01*
X135971000Y-121751000D02*
X128680000Y-121751000D01*
X125920000Y-121751000D02*
X118629000Y-121751000D01*
X135959000Y-121791000D02*
X128680000Y-121791000D01*
X125920000Y-121791000D02*
X118641000Y-121791000D01*
X135946000Y-121831000D02*
X128680000Y-121831000D01*
X125920000Y-121831000D02*
X118654000Y-121831000D01*
X135934000Y-121871000D02*
X128680000Y-121871000D01*
X125920000Y-121871000D02*
X118666000Y-121871000D01*
X135921000Y-121911000D02*
X128680000Y-121911000D01*
X125920000Y-121911000D02*
X118679000Y-121911000D01*
X135909000Y-121951000D02*
X128680000Y-121951000D01*
X125920000Y-121951000D02*
X118691000Y-121951000D01*
X135895000Y-121991000D02*
X128680000Y-121991000D01*
X125920000Y-121991000D02*
X118705000Y-121991000D01*
X135882000Y-122031000D02*
X128680000Y-122031000D01*
X125920000Y-122031000D02*
X118718000Y-122031000D01*
X135869000Y-122071000D02*
X128680000Y-122071000D01*
X125920000Y-122071000D02*
X118731000Y-122071000D01*
X135855000Y-122111000D02*
X128680000Y-122111000D01*
X125920000Y-122111000D02*
X118745000Y-122111000D01*
X135841000Y-122151000D02*
X128680000Y-122151000D01*
X125920000Y-122151000D02*
X118759000Y-122151000D01*
X135827000Y-122191000D02*
X128680000Y-122191000D01*
X125920000Y-122191000D02*
X118773000Y-122191000D01*
X135813000Y-122231000D02*
X128680000Y-122231000D01*
X125920000Y-122231000D02*
X118787000Y-122231000D01*
X135798000Y-122271000D02*
X128680000Y-122271000D01*
X125920000Y-122271000D02*
X118802000Y-122271000D01*
X135784000Y-122311000D02*
X128680000Y-122311000D01*
X125920000Y-122311000D02*
X118816000Y-122311000D01*
X135769000Y-122351000D02*
X128680000Y-122351000D01*
X125920000Y-122351000D02*
X118831000Y-122351000D01*
X135753000Y-122391000D02*
X128680000Y-122391000D01*
X125920000Y-122391000D02*
X118847000Y-122391000D01*
X135738000Y-122431000D02*
X128680000Y-122431000D01*
X125920000Y-122431000D02*
X118862000Y-122431000D01*
X135723000Y-122471000D02*
X128680000Y-122471000D01*
X125920000Y-122471000D02*
X118877000Y-122471000D01*
X135707000Y-122511000D02*
X128680000Y-122511000D01*
X125920000Y-122511000D02*
X118893000Y-122511000D01*
X135691000Y-122551000D02*
X128680000Y-122551000D01*
X125920000Y-122551000D02*
X118909000Y-122551000D01*
X135674000Y-122591000D02*
X128680000Y-122591000D01*
X125920000Y-122591000D02*
X118926000Y-122591000D01*
X135658000Y-122631000D02*
X128680000Y-122631000D01*
X125920000Y-122631000D02*
X118942000Y-122631000D01*
X135641000Y-122671000D02*
X128680000Y-122671000D01*
X125920000Y-122671000D02*
X118959000Y-122671000D01*
X135624000Y-122711000D02*
X128680000Y-122711000D01*
X125920000Y-122711000D02*
X118976000Y-122711000D01*
X135607000Y-122751000D02*
X128680000Y-122751000D01*
X125920000Y-122751000D02*
X118993000Y-122751000D01*
X135590000Y-122791000D02*
X128680000Y-122791000D01*
X125920000Y-122791000D02*
X119010000Y-122791000D01*
X135572000Y-122831000D02*
X128680000Y-122831000D01*
X125920000Y-122831000D02*
X119028000Y-122831000D01*
X135554000Y-122871000D02*
X128680000Y-122871000D01*
X125920000Y-122871000D02*
X119046000Y-122871000D01*
X135536000Y-122911000D02*
X128680000Y-122911000D01*
X125920000Y-122911000D02*
X119064000Y-122911000D01*
X135518000Y-122951000D02*
X128680000Y-122951000D01*
X125920000Y-122951000D02*
X119082000Y-122951000D01*
X135500000Y-122991000D02*
X128680000Y-122991000D01*
X125920000Y-122991000D02*
X119100000Y-122991000D01*
X135481000Y-123031000D02*
X128680000Y-123031000D01*
X125920000Y-123031000D02*
X119119000Y-123031000D01*
X135462000Y-123071000D02*
X128680000Y-123071000D01*
X125920000Y-123071000D02*
X119138000Y-123071000D01*
X135443000Y-123111000D02*
X128680000Y-123111000D01*
X125920000Y-123111000D02*
X119157000Y-123111000D01*
X135423000Y-123151000D02*
X128680000Y-123151000D01*
X125920000Y-123151000D02*
X119177000Y-123151000D01*
X135403000Y-123191000D02*
X128680000Y-123191000D01*
X125920000Y-123191000D02*
X119197000Y-123191000D01*
X135383000Y-123231000D02*
X128680000Y-123231000D01*
X125920000Y-123231000D02*
X119217000Y-123231000D01*
X135363000Y-123271000D02*
X128680000Y-123271000D01*
X125920000Y-123271000D02*
X119237000Y-123271000D01*
X135343000Y-123311000D02*
X128680000Y-123311000D01*
X125920000Y-123311000D02*
X119257000Y-123311000D01*
X135322000Y-123351000D02*
X128680000Y-123351000D01*
X125920000Y-123351000D02*
X119278000Y-123351000D01*
X135301000Y-123391000D02*
X128680000Y-123391000D01*
X125920000Y-123391000D02*
X119299000Y-123391000D01*
X135280000Y-123431000D02*
X128680000Y-123431000D01*
X125920000Y-123431000D02*
X119320000Y-123431000D01*
X135258000Y-123471000D02*
X128680000Y-123471000D01*
X125920000Y-123471000D02*
X119342000Y-123471000D01*
X135237000Y-123511000D02*
X128680000Y-123511000D01*
X125920000Y-123511000D02*
X119363000Y-123511000D01*
X135215000Y-123551000D02*
X128680000Y-123551000D01*
X125920000Y-123551000D02*
X119385000Y-123551000D01*
X135192000Y-123591000D02*
X128680000Y-123591000D01*
X125920000Y-123591000D02*
X119408000Y-123591000D01*
X135170000Y-123631000D02*
X128680000Y-123631000D01*
X125920000Y-123631000D02*
X119430000Y-123631000D01*
X135147000Y-123671000D02*
X128680000Y-123671000D01*
X125920000Y-123671000D02*
X119453000Y-123671000D01*
X135124000Y-123711000D02*
X128680000Y-123711000D01*
X125920000Y-123711000D02*
X119476000Y-123711000D01*
X135101000Y-123751000D02*
X128680000Y-123751000D01*
X125920000Y-123751000D02*
X119499000Y-123751000D01*
X135077000Y-123791000D02*
X128680000Y-123791000D01*
X125920000Y-123791000D02*
X119523000Y-123791000D01*
X135053000Y-123831000D02*
X128680000Y-123831000D01*
X125920000Y-123831000D02*
X119547000Y-123831000D01*
X135029000Y-123871000D02*
X128680000Y-123871000D01*
X125920000Y-123871000D02*
X119571000Y-123871000D01*
X135005000Y-123911000D02*
X128680000Y-123911000D01*
X125920000Y-123911000D02*
X119595000Y-123911000D01*
X134980000Y-123951000D02*
X128680000Y-123951000D01*
X125920000Y-123951000D02*
X119620000Y-123951000D01*
X134955000Y-123991000D02*
X128680000Y-123991000D01*
X125920000Y-123991000D02*
X119645000Y-123991000D01*
X134930000Y-124031000D02*
X128680000Y-124031000D01*
X125920000Y-124031000D02*
X119670000Y-124031000D01*
X134904000Y-124071000D02*
X128680000Y-124071000D01*
X125920000Y-124071000D02*
X119696000Y-124071000D01*
X134878000Y-124111000D02*
X128680000Y-124111000D01*
X125920000Y-124111000D02*
X119722000Y-124111000D01*
X134852000Y-124151000D02*
X128680000Y-124151000D01*
X125920000Y-124151000D02*
X119748000Y-124151000D01*
X134825000Y-124191000D02*
X128680000Y-124191000D01*
X125920000Y-124191000D02*
X119775000Y-124191000D01*
X134799000Y-124231000D02*
X128680000Y-124231000D01*
X125920000Y-124231000D02*
X119801000Y-124231000D01*
X134771000Y-124271000D02*
X128680000Y-124271000D01*
X125920000Y-124271000D02*
X119829000Y-124271000D01*
X134744000Y-124311000D02*
X119856000Y-124311000D01*
X134716000Y-124351000D02*
X119884000Y-124351000D01*
X134688000Y-124391000D02*
X119912000Y-124391000D01*
X134660000Y-124431000D02*
X119940000Y-124431000D01*
X134631000Y-124471000D02*
X119969000Y-124471000D01*
X134602000Y-124511000D02*
X119998000Y-124511000D01*
X134573000Y-124551000D02*
X120027000Y-124551000D01*
X134543000Y-124591000D02*
X120057000Y-124591000D01*
X134513000Y-124631000D02*
X120087000Y-124631000D01*
X134483000Y-124671000D02*
X120117000Y-124671000D01*
X134452000Y-124711000D02*
X120148000Y-124711000D01*
X134421000Y-124751000D02*
X120179000Y-124751000D01*
X134389000Y-124791000D02*
X120211000Y-124791000D01*
X134357000Y-124831000D02*
X120243000Y-124831000D01*
X134325000Y-124871000D02*
X120275000Y-124871000D01*
X134293000Y-124911000D02*
X120307000Y-124911000D01*
X134260000Y-124951000D02*
X120340000Y-124951000D01*
X134226000Y-124991000D02*
X120374000Y-124991000D01*
X134193000Y-125031000D02*
X120407000Y-125031000D01*
X134158000Y-125071000D02*
X120442000Y-125071000D01*
X134124000Y-125111000D02*
X120476000Y-125111000D01*
X134089000Y-125151000D02*
X120511000Y-125151000D01*
X134054000Y-125191000D02*
X120546000Y-125191000D01*
X134018000Y-125231000D02*
X120582000Y-125231000D01*
X133982000Y-125271000D02*
X120618000Y-125271000D01*
X133945000Y-125311000D02*
X120655000Y-125311000D01*
X133908000Y-125351000D02*
X120692000Y-125351000D01*
X133870000Y-125391000D02*
X120730000Y-125391000D01*
X133832000Y-125431000D02*
X120768000Y-125431000D01*
X133794000Y-125471000D02*
X120806000Y-125471000D01*
X133755000Y-125511000D02*
X120845000Y-125511000D01*
X133716000Y-125551000D02*
X120884000Y-125551000D01*
X133676000Y-125591000D02*
X120924000Y-125591000D01*
X133635000Y-125631000D02*
X120965000Y-125631000D01*
X133594000Y-125671000D02*
X121006000Y-125671000D01*
X133553000Y-125711000D02*
X121047000Y-125711000D01*
X133511000Y-125751000D02*
X121089000Y-125751000D01*
X133468000Y-125791000D02*
X121132000Y-125791000D01*
X133425000Y-125831000D02*
X121175000Y-125831000D01*
X133382000Y-125871000D02*
X121218000Y-125871000D01*
X133338000Y-125911000D02*
X121262000Y-125911000D01*
X133293000Y-125951000D02*
X121307000Y-125951000D01*
X133247000Y-125991000D02*
X121353000Y-125991000D01*
X133201000Y-126031000D02*
X121399000Y-126031000D01*
X133155000Y-126071000D02*
X121445000Y-126071000D01*
X133107000Y-126111000D02*
X121493000Y-126111000D01*
X133059000Y-126151000D02*
X121541000Y-126151000D01*
X133011000Y-126191000D02*
X121589000Y-126191000D01*
X132962000Y-126231000D02*
X121638000Y-126231000D01*
X132911000Y-126271000D02*
X121689000Y-126271000D01*
X132861000Y-126311000D02*
X121739000Y-126311000D01*
X132809000Y-126351000D02*
X121791000Y-126351000D01*
X132757000Y-126391000D02*
X121843000Y-126391000D01*
X132704000Y-126431000D02*
X121896000Y-126431000D01*
X132650000Y-126471000D02*
X121950000Y-126471000D01*
X132595000Y-126511000D02*
X122005000Y-126511000D01*
X132540000Y-126551000D02*
X122060000Y-126551000D01*
X132483000Y-126591000D02*
X122117000Y-126591000D01*
X132426000Y-126631000D02*
X122174000Y-126631000D01*
X132367000Y-126671000D02*
X122233000Y-126671000D01*
X132308000Y-126711000D02*
X122292000Y-126711000D01*
X132247000Y-126751000D02*
X122353000Y-126751000D01*
X132186000Y-126791000D02*
X122414000Y-126791000D01*
X132123000Y-126831000D02*
X122477000Y-126831000D01*
X132059000Y-126871000D02*
X122541000Y-126871000D01*
X131994000Y-126911000D02*
X122606000Y-126911000D01*
X131928000Y-126951000D02*
X122672000Y-126951000D01*
X131861000Y-126991000D02*
X122739000Y-126991000D01*
X131792000Y-127031000D02*
X122808000Y-127031000D01*
X131722000Y-127071000D02*
X122878000Y-127071000D01*
X131650000Y-127111000D02*
X122950000Y-127111000D01*
X131577000Y-127151000D02*
X123023000Y-127151000D01*
X131502000Y-127191000D02*
X123098000Y-127191000D01*
X131425000Y-127231000D02*
X123175000Y-127231000D01*
X131346000Y-127271000D02*
X123254000Y-127271000D01*
X131266000Y-127311000D02*
X123334000Y-127311000D01*
X131183000Y-127350000D02*
X123417000Y-127350000D01*
X131099000Y-127390000D02*
X123501000Y-127390000D01*
X131011000Y-127430000D02*
X123589000Y-127430000D01*
X130922000Y-127470000D02*
X123678000Y-127470000D01*
X130830000Y-127510000D02*
X123770000Y-127510000D01*
X130734000Y-127550000D02*
X123866000Y-127550000D01*
X130636000Y-127590000D02*
X123964000Y-127590000D01*
X130534000Y-127630000D02*
X124066000Y-127630000D01*
X130429000Y-127670000D02*
X124171000Y-127670000D01*
X130319000Y-127710000D02*
X124281000Y-127710000D01*
X130205000Y-127750000D02*
X124395000Y-127750000D01*
X130085000Y-127790000D02*
X124515000Y-127790000D01*
X129960000Y-127830000D02*
X124640000Y-127830000D01*
X129828000Y-127870000D02*
X124772000Y-127870000D01*
X129688000Y-127910000D02*
X124912000Y-127910000D01*
X129538000Y-127950000D02*
X125062000Y-127950000D01*
X129378000Y-127990000D02*
X125222000Y-127990000D01*
X129203000Y-128030000D02*
X125397000Y-128030000D01*
X129010000Y-128070000D02*
X125590000Y-128070000D01*
X128792000Y-128110000D02*
X125808000Y-128110000D01*
X128536000Y-128150000D02*
X126064000Y-128150000D01*
X128213000Y-128190000D02*
X126387000Y-128190000D01*
X127687000Y-128230000D02*
X126913000Y-128230000D01*
X127300000Y-112200000D02*
X127300000Y-114000000D01*
X128200000Y-113100000D02*
X126400000Y-113100000D01*
X172390000Y-119650000D02*
G75*
G03X172390000Y-119650000I-9090000J0D01*
G01*
X154250000Y-119650000D02*
X172350000Y-119650000D01*
X154250000Y-119610000D02*
X172350000Y-119610000D01*
X154250000Y-119570000D02*
X172350000Y-119570000D01*
X154250000Y-119530000D02*
X172350000Y-119530000D01*
X154251000Y-119490000D02*
X172349000Y-119490000D01*
X154252000Y-119450000D02*
X172348000Y-119450000D01*
X154253000Y-119410000D02*
X172347000Y-119410000D01*
X154254000Y-119370000D02*
X172346000Y-119370000D01*
X154255000Y-119330000D02*
X172345000Y-119330000D01*
X154257000Y-119290000D02*
X172343000Y-119290000D01*
X154258000Y-119250000D02*
X172342000Y-119250000D01*
X154260000Y-119210000D02*
X172340000Y-119210000D01*
X154262000Y-119170000D02*
X172338000Y-119170000D01*
X154264000Y-119130000D02*
X172336000Y-119130000D01*
X154267000Y-119090000D02*
X172333000Y-119090000D01*
X154269000Y-119050000D02*
X172331000Y-119050000D01*
X154272000Y-119010000D02*
X172328000Y-119010000D01*
X154275000Y-118970000D02*
X172325000Y-118970000D01*
X154278000Y-118929000D02*
X172322000Y-118929000D01*
X154281000Y-118889000D02*
X172319000Y-118889000D01*
X154285000Y-118849000D02*
X172315000Y-118849000D01*
X154288000Y-118809000D02*
X172312000Y-118809000D01*
X154292000Y-118769000D02*
X172308000Y-118769000D01*
X154296000Y-118729000D02*
X172304000Y-118729000D01*
X154300000Y-118689000D02*
X172300000Y-118689000D01*
X154305000Y-118649000D02*
X172295000Y-118649000D01*
X154309000Y-118609000D02*
X172291000Y-118609000D01*
X154314000Y-118569000D02*
X172286000Y-118569000D01*
X154319000Y-118529000D02*
X172281000Y-118529000D01*
X154324000Y-118489000D02*
X172276000Y-118489000D01*
X154329000Y-118449000D02*
X172271000Y-118449000D01*
X154334000Y-118409000D02*
X172266000Y-118409000D01*
X154340000Y-118369000D02*
X172260000Y-118369000D01*
X154346000Y-118329000D02*
X172254000Y-118329000D01*
X154352000Y-118289000D02*
X172248000Y-118289000D01*
X154358000Y-118249000D02*
X172242000Y-118249000D01*
X154364000Y-118209000D02*
X172236000Y-118209000D01*
X154371000Y-118169000D02*
X172229000Y-118169000D01*
X154377000Y-118129000D02*
X172223000Y-118129000D01*
X154384000Y-118089000D02*
X172216000Y-118089000D01*
X154391000Y-118049000D02*
X172209000Y-118049000D01*
X154399000Y-118009000D02*
X172201000Y-118009000D01*
X154406000Y-117969000D02*
X172194000Y-117969000D01*
X154414000Y-117929000D02*
X172186000Y-117929000D01*
X154422000Y-117889000D02*
X172178000Y-117889000D01*
X154430000Y-117849000D02*
X172170000Y-117849000D01*
X154438000Y-117809000D02*
X172162000Y-117809000D01*
X154446000Y-117769000D02*
X172154000Y-117769000D01*
X154455000Y-117729000D02*
X172145000Y-117729000D01*
X154463000Y-117689000D02*
X172137000Y-117689000D01*
X154472000Y-117649000D02*
X172128000Y-117649000D01*
X154481000Y-117609000D02*
X172119000Y-117609000D01*
X154491000Y-117569000D02*
X172109000Y-117569000D01*
X154500000Y-117529000D02*
X172100000Y-117529000D01*
X154510000Y-117489000D02*
X172090000Y-117489000D01*
X154520000Y-117449000D02*
X172080000Y-117449000D01*
X154530000Y-117409000D02*
X172070000Y-117409000D01*
X154540000Y-117369000D02*
X172060000Y-117369000D01*
X154551000Y-117329000D02*
X172049000Y-117329000D01*
X154561000Y-117289000D02*
X172039000Y-117289000D01*
X154572000Y-117249000D02*
X161920000Y-117249000D01*
X164680000Y-117249000D02*
X172028000Y-117249000D01*
X154583000Y-117209000D02*
X161920000Y-117209000D01*
X164680000Y-117209000D02*
X172017000Y-117209000D01*
X154594000Y-117169000D02*
X161920000Y-117169000D01*
X164680000Y-117169000D02*
X172006000Y-117169000D01*
X154606000Y-117129000D02*
X161920000Y-117129000D01*
X164680000Y-117129000D02*
X171994000Y-117129000D01*
X154617000Y-117089000D02*
X161920000Y-117089000D01*
X164680000Y-117089000D02*
X171983000Y-117089000D01*
X154629000Y-117049000D02*
X161920000Y-117049000D01*
X164680000Y-117049000D02*
X171971000Y-117049000D01*
X154641000Y-117009000D02*
X161920000Y-117009000D01*
X164680000Y-117009000D02*
X171959000Y-117009000D01*
X154654000Y-116969000D02*
X161920000Y-116969000D01*
X164680000Y-116969000D02*
X171946000Y-116969000D01*
X154666000Y-116929000D02*
X161920000Y-116929000D01*
X164680000Y-116929000D02*
X171934000Y-116929000D01*
X154679000Y-116889000D02*
X161920000Y-116889000D01*
X164680000Y-116889000D02*
X171921000Y-116889000D01*
X154691000Y-116849000D02*
X161920000Y-116849000D01*
X164680000Y-116849000D02*
X171909000Y-116849000D01*
X154705000Y-116809000D02*
X161920000Y-116809000D01*
X164680000Y-116809000D02*
X171895000Y-116809000D01*
X154718000Y-116769000D02*
X161920000Y-116769000D01*
X164680000Y-116769000D02*
X171882000Y-116769000D01*
X154731000Y-116729000D02*
X161920000Y-116729000D01*
X164680000Y-116729000D02*
X171869000Y-116729000D01*
X154745000Y-116689000D02*
X161920000Y-116689000D01*
X164680000Y-116689000D02*
X171855000Y-116689000D01*
X154759000Y-116649000D02*
X161920000Y-116649000D01*
X164680000Y-116649000D02*
X171841000Y-116649000D01*
X154773000Y-116609000D02*
X161920000Y-116609000D01*
X164680000Y-116609000D02*
X171827000Y-116609000D01*
X154787000Y-116569000D02*
X161920000Y-116569000D01*
X164680000Y-116569000D02*
X171813000Y-116569000D01*
X154802000Y-116529000D02*
X161920000Y-116529000D01*
X164680000Y-116529000D02*
X171798000Y-116529000D01*
X154816000Y-116489000D02*
X161920000Y-116489000D01*
X164680000Y-116489000D02*
X171784000Y-116489000D01*
X154831000Y-116449000D02*
X161920000Y-116449000D01*
X164680000Y-116449000D02*
X171769000Y-116449000D01*
X154847000Y-116409000D02*
X161920000Y-116409000D01*
X164680000Y-116409000D02*
X171753000Y-116409000D01*
X154862000Y-116369000D02*
X161920000Y-116369000D01*
X164680000Y-116369000D02*
X171738000Y-116369000D01*
X154877000Y-116329000D02*
X161920000Y-116329000D01*
X164680000Y-116329000D02*
X171723000Y-116329000D01*
X154893000Y-116289000D02*
X161920000Y-116289000D01*
X164680000Y-116289000D02*
X171707000Y-116289000D01*
X154909000Y-116249000D02*
X161920000Y-116249000D01*
X164680000Y-116249000D02*
X171691000Y-116249000D01*
X154926000Y-116209000D02*
X161920000Y-116209000D01*
X164680000Y-116209000D02*
X171674000Y-116209000D01*
X154942000Y-116169000D02*
X161920000Y-116169000D01*
X164680000Y-116169000D02*
X171658000Y-116169000D01*
X154959000Y-116129000D02*
X161920000Y-116129000D01*
X164680000Y-116129000D02*
X171641000Y-116129000D01*
X154976000Y-116089000D02*
X161920000Y-116089000D01*
X164680000Y-116089000D02*
X171624000Y-116089000D01*
X154993000Y-116049000D02*
X161920000Y-116049000D01*
X164680000Y-116049000D02*
X171607000Y-116049000D01*
X155010000Y-116009000D02*
X161920000Y-116009000D01*
X164680000Y-116009000D02*
X171590000Y-116009000D01*
X155028000Y-115969000D02*
X161920000Y-115969000D01*
X164680000Y-115969000D02*
X171572000Y-115969000D01*
X155046000Y-115929000D02*
X161920000Y-115929000D01*
X164680000Y-115929000D02*
X171554000Y-115929000D01*
X155064000Y-115889000D02*
X161920000Y-115889000D01*
X164680000Y-115889000D02*
X171536000Y-115889000D01*
X155082000Y-115849000D02*
X161920000Y-115849000D01*
X164680000Y-115849000D02*
X171518000Y-115849000D01*
X155100000Y-115809000D02*
X161920000Y-115809000D01*
X164680000Y-115809000D02*
X171500000Y-115809000D01*
X155119000Y-115769000D02*
X161920000Y-115769000D01*
X164680000Y-115769000D02*
X171481000Y-115769000D01*
X155138000Y-115729000D02*
X161920000Y-115729000D01*
X164680000Y-115729000D02*
X171462000Y-115729000D01*
X155157000Y-115689000D02*
X161920000Y-115689000D01*
X164680000Y-115689000D02*
X171443000Y-115689000D01*
X155177000Y-115649000D02*
X161920000Y-115649000D01*
X164680000Y-115649000D02*
X171423000Y-115649000D01*
X155197000Y-115609000D02*
X161920000Y-115609000D01*
X164680000Y-115609000D02*
X171403000Y-115609000D01*
X155217000Y-115569000D02*
X161920000Y-115569000D01*
X164680000Y-115569000D02*
X171383000Y-115569000D01*
X155237000Y-115529000D02*
X161920000Y-115529000D01*
X164680000Y-115529000D02*
X171363000Y-115529000D01*
X155257000Y-115489000D02*
X161920000Y-115489000D01*
X164680000Y-115489000D02*
X171343000Y-115489000D01*
X155278000Y-115449000D02*
X161920000Y-115449000D01*
X164680000Y-115449000D02*
X171322000Y-115449000D01*
X155299000Y-115409000D02*
X161920000Y-115409000D01*
X164680000Y-115409000D02*
X171301000Y-115409000D01*
X155320000Y-115369000D02*
X161920000Y-115369000D01*
X164680000Y-115369000D02*
X171280000Y-115369000D01*
X155342000Y-115329000D02*
X161920000Y-115329000D01*
X164680000Y-115329000D02*
X171258000Y-115329000D01*
X155363000Y-115289000D02*
X161920000Y-115289000D01*
X164680000Y-115289000D02*
X171237000Y-115289000D01*
X155385000Y-115249000D02*
X161920000Y-115249000D01*
X164680000Y-115249000D02*
X171215000Y-115249000D01*
X155408000Y-115209000D02*
X161920000Y-115209000D01*
X164680000Y-115209000D02*
X171192000Y-115209000D01*
X155430000Y-115169000D02*
X161920000Y-115169000D01*
X164680000Y-115169000D02*
X171170000Y-115169000D01*
X155453000Y-115129000D02*
X161920000Y-115129000D01*
X164680000Y-115129000D02*
X171147000Y-115129000D01*
X155476000Y-115089000D02*
X161920000Y-115089000D01*
X164680000Y-115089000D02*
X171124000Y-115089000D01*
X155499000Y-115049000D02*
X161920000Y-115049000D01*
X164680000Y-115049000D02*
X171101000Y-115049000D01*
X155523000Y-115009000D02*
X161920000Y-115009000D01*
X164680000Y-115009000D02*
X171077000Y-115009000D01*
X155547000Y-114969000D02*
X161920000Y-114969000D01*
X164680000Y-114969000D02*
X171053000Y-114969000D01*
X155571000Y-114929000D02*
X161920000Y-114929000D01*
X164680000Y-114929000D02*
X171029000Y-114929000D01*
X155595000Y-114889000D02*
X161920000Y-114889000D01*
X164680000Y-114889000D02*
X171005000Y-114889000D01*
X155620000Y-114849000D02*
X161920000Y-114849000D01*
X164680000Y-114849000D02*
X170980000Y-114849000D01*
X155645000Y-114809000D02*
X161920000Y-114809000D01*
X164680000Y-114809000D02*
X170955000Y-114809000D01*
X155670000Y-114769000D02*
X161920000Y-114769000D01*
X164680000Y-114769000D02*
X170930000Y-114769000D01*
X155696000Y-114729000D02*
X161920000Y-114729000D01*
X164680000Y-114729000D02*
X170904000Y-114729000D01*
X155722000Y-114689000D02*
X161920000Y-114689000D01*
X164680000Y-114689000D02*
X170878000Y-114689000D01*
X155748000Y-114649000D02*
X161920000Y-114649000D01*
X164680000Y-114649000D02*
X170852000Y-114649000D01*
X155775000Y-114609000D02*
X161920000Y-114609000D01*
X164680000Y-114609000D02*
X170825000Y-114609000D01*
X155801000Y-114569000D02*
X161920000Y-114569000D01*
X164680000Y-114569000D02*
X170799000Y-114569000D01*
X155829000Y-114529000D02*
X161920000Y-114529000D01*
X164680000Y-114529000D02*
X170771000Y-114529000D01*
X155856000Y-114489000D02*
X170744000Y-114489000D01*
X155884000Y-114449000D02*
X170716000Y-114449000D01*
X155912000Y-114409000D02*
X170688000Y-114409000D01*
X155940000Y-114369000D02*
X170660000Y-114369000D01*
X155969000Y-114329000D02*
X170631000Y-114329000D01*
X155998000Y-114289000D02*
X170602000Y-114289000D01*
X156027000Y-114249000D02*
X170573000Y-114249000D01*
X156057000Y-114209000D02*
X170543000Y-114209000D01*
X156087000Y-114169000D02*
X170513000Y-114169000D01*
X156117000Y-114129000D02*
X170483000Y-114129000D01*
X156148000Y-114089000D02*
X170452000Y-114089000D01*
X156179000Y-114049000D02*
X170421000Y-114049000D01*
X156211000Y-114009000D02*
X170389000Y-114009000D01*
X156243000Y-113969000D02*
X170357000Y-113969000D01*
X156275000Y-113929000D02*
X170325000Y-113929000D01*
X156307000Y-113889000D02*
X170293000Y-113889000D01*
X156340000Y-113849000D02*
X170260000Y-113849000D01*
X156374000Y-113809000D02*
X170226000Y-113809000D01*
X156407000Y-113769000D02*
X170193000Y-113769000D01*
X156442000Y-113729000D02*
X170158000Y-113729000D01*
X156476000Y-113689000D02*
X170124000Y-113689000D01*
X156511000Y-113649000D02*
X170089000Y-113649000D01*
X156546000Y-113609000D02*
X170054000Y-113609000D01*
X156582000Y-113569000D02*
X170018000Y-113569000D01*
X156618000Y-113529000D02*
X169982000Y-113529000D01*
X156655000Y-113489000D02*
X169945000Y-113489000D01*
X156692000Y-113449000D02*
X169908000Y-113449000D01*
X156730000Y-113409000D02*
X169870000Y-113409000D01*
X156768000Y-113369000D02*
X169832000Y-113369000D01*
X156806000Y-113329000D02*
X169794000Y-113329000D01*
X156845000Y-113289000D02*
X169755000Y-113289000D01*
X156884000Y-113249000D02*
X169716000Y-113249000D01*
X156924000Y-113209000D02*
X169676000Y-113209000D01*
X156965000Y-113169000D02*
X169635000Y-113169000D01*
X157006000Y-113129000D02*
X169594000Y-113129000D01*
X157047000Y-113089000D02*
X169553000Y-113089000D01*
X157089000Y-113049000D02*
X169511000Y-113049000D01*
X157132000Y-113009000D02*
X169468000Y-113009000D01*
X157175000Y-112969000D02*
X169425000Y-112969000D01*
X157218000Y-112929000D02*
X169382000Y-112929000D01*
X157262000Y-112889000D02*
X169338000Y-112889000D01*
X157307000Y-112849000D02*
X169293000Y-112849000D01*
X157353000Y-112809000D02*
X169247000Y-112809000D01*
X157399000Y-112769000D02*
X169201000Y-112769000D01*
X157445000Y-112729000D02*
X169155000Y-112729000D01*
X157493000Y-112689000D02*
X169107000Y-112689000D01*
X157541000Y-112649000D02*
X169059000Y-112649000D01*
X157589000Y-112609000D02*
X169011000Y-112609000D01*
X157638000Y-112569000D02*
X168962000Y-112569000D01*
X157689000Y-112529000D02*
X168911000Y-112529000D01*
X157739000Y-112489000D02*
X168861000Y-112489000D01*
X157791000Y-112449000D02*
X168809000Y-112449000D01*
X157843000Y-112409000D02*
X168757000Y-112409000D01*
X157896000Y-112369000D02*
X168704000Y-112369000D01*
X157950000Y-112329000D02*
X168650000Y-112329000D01*
X158005000Y-112289000D02*
X168595000Y-112289000D01*
X158060000Y-112249000D02*
X168540000Y-112249000D01*
X158117000Y-112209000D02*
X168483000Y-112209000D01*
X158174000Y-112169000D02*
X168426000Y-112169000D01*
X158233000Y-112129000D02*
X168367000Y-112129000D01*
X158292000Y-112089000D02*
X168308000Y-112089000D01*
X158353000Y-112049000D02*
X168247000Y-112049000D01*
X158414000Y-112009000D02*
X168186000Y-112009000D01*
X158477000Y-111969000D02*
X168123000Y-111969000D01*
X158541000Y-111929000D02*
X168059000Y-111929000D01*
X158606000Y-111889000D02*
X167994000Y-111889000D01*
X158672000Y-111849000D02*
X167928000Y-111849000D01*
X158739000Y-111809000D02*
X167861000Y-111809000D01*
X158808000Y-111769000D02*
X167792000Y-111769000D01*
X158878000Y-111729000D02*
X167722000Y-111729000D01*
X158950000Y-111689000D02*
X167650000Y-111689000D01*
X159023000Y-111649000D02*
X167577000Y-111649000D01*
X159098000Y-111609000D02*
X167502000Y-111609000D01*
X159175000Y-111569000D02*
X167425000Y-111569000D01*
X159254000Y-111529000D02*
X167346000Y-111529000D01*
X159334000Y-111489000D02*
X167266000Y-111489000D01*
X159417000Y-111450000D02*
X167183000Y-111450000D01*
X159501000Y-111410000D02*
X167099000Y-111410000D01*
X159589000Y-111370000D02*
X167011000Y-111370000D01*
X159678000Y-111330000D02*
X166922000Y-111330000D01*
X159770000Y-111290000D02*
X166830000Y-111290000D01*
X159866000Y-111250000D02*
X166734000Y-111250000D01*
X159964000Y-111210000D02*
X166636000Y-111210000D01*
X160066000Y-111170000D02*
X166534000Y-111170000D01*
X160171000Y-111130000D02*
X166429000Y-111130000D01*
X160281000Y-111090000D02*
X166319000Y-111090000D01*
X160395000Y-111050000D02*
X166205000Y-111050000D01*
X160515000Y-111010000D02*
X166085000Y-111010000D01*
X160640000Y-110970000D02*
X165960000Y-110970000D01*
X160772000Y-110930000D02*
X165828000Y-110930000D01*
X160912000Y-110890000D02*
X165688000Y-110890000D01*
X161062000Y-110850000D02*
X165538000Y-110850000D01*
X161222000Y-110810000D02*
X165378000Y-110810000D01*
X161397000Y-110770000D02*
X165203000Y-110770000D01*
X161590000Y-110730000D02*
X165010000Y-110730000D01*
X161808000Y-110690000D02*
X164792000Y-110690000D01*
X162064000Y-110650000D02*
X164536000Y-110650000D01*
X162387000Y-110610000D02*
X164213000Y-110610000D01*
X162913000Y-110570000D02*
X163687000Y-110570000D01*
X163300000Y-126600000D02*
X163300000Y-124800000D01*
X162400000Y-125700000D02*
X164200000Y-125700000D01*
X116560000Y-100645000D02*
X114440000Y-100645000D01*
X114440000Y-100645000D02*
X114440000Y-104765000D01*
X114440000Y-104765000D02*
X116560000Y-104765000D01*
X116560000Y-104765000D02*
X116560000Y-100645000D01*
X115500000Y-98605000D02*
X115500000Y-100645000D01*
X115500000Y-106805000D02*
X115500000Y-104765000D01*
X116560000Y-101305000D02*
X114440000Y-101305000D01*
X120660000Y-100620000D02*
X118540000Y-100620000D01*
X118540000Y-100620000D02*
X118540000Y-104740000D01*
X118540000Y-104740000D02*
X120660000Y-104740000D01*
X120660000Y-104740000D02*
X120660000Y-100620000D01*
X119600000Y-98580000D02*
X119600000Y-100620000D01*
X119600000Y-106780000D02*
X119600000Y-104740000D01*
X120660000Y-101280000D02*
X118540000Y-101280000D01*
X149500000Y-82000000D02*
X149500000Y-84500000D01*
X149500000Y-74500000D02*
X149500000Y-77000000D01*
X137500000Y-74500000D02*
X137500000Y-77000000D01*
X137500000Y-84500000D02*
X137500000Y-82000000D01*
X148000000Y-79500000D02*
X139000000Y-79500000D01*
X148000000Y-82000000D02*
X148000000Y-77000000D01*
X139000000Y-82000000D02*
X139000000Y-77000000D01*
X133500000Y-81400000D02*
X133500000Y-82000000D01*
X153500000Y-77600000D02*
X153500000Y-77000000D01*
X153500000Y-77000000D02*
X133500000Y-77000000D01*
X133500000Y-77000000D02*
X133500000Y-77600000D01*
X133500000Y-82000000D02*
X153500000Y-82000000D01*
X153500000Y-82000000D02*
X153500000Y-81400000D01*
X131500000Y-81400000D02*
X131500000Y-84500000D01*
X155500000Y-77600000D02*
X155500000Y-74500000D01*
X155500000Y-74500000D02*
X131500000Y-74500000D01*
X131500000Y-74500000D02*
X131500000Y-77600000D01*
X131500000Y-84500000D02*
X155500000Y-84500000D01*
X155500000Y-84500000D02*
X155500000Y-81400000D01*
D14*
X169500000Y-104600000D02*
X169000000Y-104600000D01*
X171000000Y-99600000D02*
X171000000Y-109600000D01*
X175900000Y-99600000D02*
X175900000Y-109600000D01*
X169500000Y-99600000D02*
X169500000Y-109600000D01*
X169000000Y-99600000D02*
X169000000Y-109600000D01*
X169000000Y-109600000D02*
X178800000Y-109600000D01*
X178800000Y-109600000D02*
X178800000Y-99600000D01*
X178800000Y-99600000D02*
X169000000Y-99600000D01*
X175500000Y-107100000D02*
G75*
G03X175500000Y-107100000I-2000000J0D01*
G01*
X175500000Y-102100000D02*
G75*
G03X175500000Y-102100000I-2000000J0D01*
G01*
X168400000Y-76000000D02*
X167900000Y-76000000D01*
X169900000Y-71000000D02*
X169900000Y-81000000D01*
X174800000Y-71000000D02*
X174800000Y-81000000D01*
X168400000Y-71000000D02*
X168400000Y-81000000D01*
X167900000Y-71000000D02*
X167900000Y-81000000D01*
X167900000Y-81000000D02*
X177700000Y-81000000D01*
X177700000Y-81000000D02*
X177700000Y-71000000D01*
X177700000Y-71000000D02*
X167900000Y-71000000D01*
X174400000Y-78500000D02*
G75*
G03X174400000Y-78500000I-2000000J0D01*
G01*
X174400000Y-73500000D02*
G75*
G03X174400000Y-73500000I-2000000J0D01*
G01*
X147800000Y-128300000D02*
X147800000Y-128800000D01*
X142800000Y-128300000D02*
X142800000Y-128800000D01*
X137800000Y-126800000D02*
X152800000Y-126800000D01*
X137800000Y-121900000D02*
X152800000Y-121900000D01*
X137800000Y-128300000D02*
X152800000Y-128300000D01*
X137800000Y-128800000D02*
X152800000Y-128800000D01*
X152800000Y-128800000D02*
X152800000Y-119000000D01*
X152800000Y-119000000D02*
X137800000Y-119000000D01*
X137800000Y-119000000D02*
X137800000Y-128800000D01*
X152300000Y-124300000D02*
G75*
G03X152300000Y-124300000I-2000000J0D01*
G01*
X147300000Y-124300000D02*
G75*
G03X147300000Y-124300000I-2000000J0D01*
G01*
X142300000Y-124300000D02*
G75*
G03X142300000Y-124300000I-2000000J0D01*
G01*
D15*
X122992000Y-75526000D02*
X114752000Y-75526000D01*
X122992000Y-72036000D02*
X114752000Y-72036000D01*
X122992000Y-75526000D02*
X122992000Y-72036000D01*
X114752000Y-75526000D02*
X114752000Y-72036000D01*
X120472000Y-75526000D02*
X120472000Y-74456000D01*
X120472000Y-72356000D02*
X120472000Y-72036000D01*
X117271000Y-75526000D02*
X117271000Y-73946000D01*
X117271000Y-72866000D02*
X117271000Y-72036000D01*
X139920000Y-51880000D02*
X148160000Y-51880000D01*
X139920000Y-55370000D02*
X148160000Y-55370000D01*
X139920000Y-51880000D02*
X139920000Y-55370000D01*
X148160000Y-51880000D02*
X148160000Y-55370000D01*
X142440000Y-51880000D02*
X142440000Y-52950000D01*
X142440000Y-55050000D02*
X142440000Y-55370000D01*
X145641000Y-51880000D02*
X145641000Y-53460000D01*
X145641000Y-54540000D02*
X145641000Y-55370000D01*
X121620000Y-61920000D02*
X121620000Y-70160000D01*
X118130000Y-61920000D02*
X118130000Y-70160000D01*
X121620000Y-61920000D02*
X118130000Y-61920000D01*
X121620000Y-70160000D02*
X118130000Y-70160000D01*
X121620000Y-64440000D02*
X120550000Y-64440000D01*
X118450000Y-64440000D02*
X118130000Y-64440000D01*
X121620000Y-67641000D02*
X120040000Y-67641000D01*
X118960000Y-67641000D02*
X118130000Y-67641000D01*
X160616000Y-60396000D02*
X160616000Y-68636000D01*
X157126000Y-60396000D02*
X157126000Y-68636000D01*
X160616000Y-60396000D02*
X157126000Y-60396000D01*
X160616000Y-68636000D02*
X157126000Y-68636000D01*
X160616000Y-62916000D02*
X159546000Y-62916000D01*
X157446000Y-62916000D02*
X157126000Y-62916000D01*
X160616000Y-66117000D02*
X159036000Y-66117000D01*
X157956000Y-66117000D02*
X157126000Y-66117000D01*
X118880000Y-52049000D02*
X135020000Y-52049000D01*
X118880000Y-57320000D02*
X135020000Y-57320000D01*
X118880000Y-52049000D02*
X118880000Y-57320000D01*
X135020000Y-52049000D02*
X135020000Y-57320000D01*
X125146000Y-52049000D02*
X125146000Y-57320000D01*
X128755000Y-52049000D02*
X128755000Y-57320000D01*
X152880000Y-52049000D02*
X169020000Y-52049000D01*
X152880000Y-57320000D02*
X169020000Y-57320000D01*
X152880000Y-52049000D02*
X152880000Y-57320000D01*
X169020000Y-52049000D02*
X169020000Y-57320000D01*
X159146000Y-52049000D02*
X159146000Y-57320000D01*
X162755000Y-52049000D02*
X162755000Y-57320000D01*
X168210000Y-100670000D02*
X165590000Y-100670000D01*
X165590000Y-100670000D02*
X165590000Y-107090000D01*
X165590000Y-107090000D02*
X168210000Y-107090000D01*
X168210000Y-107090000D02*
X168210000Y-100670000D01*
X166900000Y-99780000D02*
X166900000Y-100670000D01*
X166900000Y-107980000D02*
X166900000Y-107090000D01*
X159570000Y-94490000D02*
X159570000Y-97110000D01*
X159570000Y-97110000D02*
X165990000Y-97110000D01*
X165990000Y-97110000D02*
X165990000Y-94490000D01*
X165990000Y-94490000D02*
X159570000Y-94490000D01*
X158680000Y-95800000D02*
X159570000Y-95800000D01*
X166880000Y-95800000D02*
X165990000Y-95800000D01*
X159510000Y-100570000D02*
X156890000Y-100570000D01*
X156890000Y-100570000D02*
X156890000Y-106990000D01*
X156890000Y-106990000D02*
X159510000Y-106990000D01*
X159510000Y-106990000D02*
X159510000Y-100570000D01*
X158200000Y-99680000D02*
X158200000Y-100570000D01*
X158200000Y-107880000D02*
X158200000Y-106990000D01*
X146230000Y-112510000D02*
X146230000Y-109890000D01*
X146230000Y-109890000D02*
X139810000Y-109890000D01*
X139810000Y-109890000D02*
X139810000Y-112510000D01*
X139810000Y-112510000D02*
X146230000Y-112510000D01*
X147120000Y-111200000D02*
X146230000Y-111200000D01*
X138920000Y-111200000D02*
X139810000Y-111200000D01*
X130730000Y-108710000D02*
X130730000Y-106090000D01*
X130730000Y-106090000D02*
X124310000Y-106090000D01*
X124310000Y-106090000D02*
X124310000Y-108710000D01*
X124310000Y-108710000D02*
X130730000Y-108710000D01*
X131620000Y-107400000D02*
X130730000Y-107400000D01*
X123420000Y-107400000D02*
X124310000Y-107400000D01*
X138330000Y-102910000D02*
X138330000Y-100290000D01*
X138330000Y-100290000D02*
X131910000Y-100290000D01*
X131910000Y-100290000D02*
X131910000Y-102910000D01*
X131910000Y-102910000D02*
X138330000Y-102910000D01*
X139220000Y-101600000D02*
X138330000Y-101600000D01*
X131020000Y-101600000D02*
X131910000Y-101600000D01*
X117470000Y-91890000D02*
X117470000Y-94510000D01*
X117470000Y-94510000D02*
X123890000Y-94510000D01*
X123890000Y-94510000D02*
X123890000Y-91890000D01*
X123890000Y-91890000D02*
X117470000Y-91890000D01*
X116580000Y-93200000D02*
X117470000Y-93200000D01*
X124780000Y-93200000D02*
X123890000Y-93200000D01*
X141610000Y-87770000D02*
X138990000Y-87770000D01*
X138990000Y-87770000D02*
X138990000Y-94190000D01*
X138990000Y-94190000D02*
X141610000Y-94190000D01*
X141610000Y-94190000D02*
X141610000Y-87770000D01*
X140300000Y-86880000D02*
X140300000Y-87770000D01*
X140300000Y-95080000D02*
X140300000Y-94190000D01*
X128910000Y-80870000D02*
X126290000Y-80870000D01*
X126290000Y-80870000D02*
X126290000Y-87290000D01*
X126290000Y-87290000D02*
X128910000Y-87290000D01*
X128910000Y-87290000D02*
X128910000Y-80870000D01*
X127600000Y-79980000D02*
X127600000Y-80870000D01*
X127600000Y-88180000D02*
X127600000Y-87290000D01*
X140870000Y-57190000D02*
X140870000Y-59810000D01*
X140870000Y-59810000D02*
X147290000Y-59810000D01*
X147290000Y-59810000D02*
X147290000Y-57190000D01*
X147290000Y-57190000D02*
X140870000Y-57190000D01*
X139980000Y-58500000D02*
X140870000Y-58500000D01*
X148180000Y-58500000D02*
X147290000Y-58500000D01*
X151678000Y-63846000D02*
X149058000Y-63846000D01*
X149058000Y-63846000D02*
X149058000Y-70266000D01*
X149058000Y-70266000D02*
X151678000Y-70266000D01*
X151678000Y-70266000D02*
X151678000Y-63846000D01*
X150368000Y-62956000D02*
X150368000Y-63846000D01*
X150368000Y-71156000D02*
X150368000Y-70266000D01*
X162310000Y-82870000D02*
X159690000Y-82870000D01*
X159690000Y-82870000D02*
X159690000Y-89290000D01*
X159690000Y-89290000D02*
X162310000Y-89290000D01*
X162310000Y-89290000D02*
X162310000Y-82870000D01*
X161000000Y-81980000D02*
X161000000Y-82870000D01*
X161000000Y-90180000D02*
X161000000Y-89290000D01*
X126310000Y-61370000D02*
X123690000Y-61370000D01*
X123690000Y-61370000D02*
X123690000Y-67790000D01*
X123690000Y-67790000D02*
X126310000Y-67790000D01*
X126310000Y-67790000D02*
X126310000Y-61370000D01*
X125000000Y-60480000D02*
X125000000Y-61370000D01*
X125000000Y-68680000D02*
X125000000Y-67790000D01*
X162690000Y-67630000D02*
X165310000Y-67630000D01*
X165310000Y-67630000D02*
X165310000Y-61210000D01*
X165310000Y-61210000D02*
X162690000Y-61210000D01*
X162690000Y-61210000D02*
X162690000Y-67630000D01*
X164000000Y-68520000D02*
X164000000Y-67630000D01*
X164000000Y-60320000D02*
X164000000Y-61210000D01*
X136260000Y-58240000D02*
X129740000Y-58240000D01*
X129740000Y-58240000D02*
X129740000Y-64760000D01*
X129740000Y-64760000D02*
X136260000Y-64760000D01*
X136260000Y-64760000D02*
X136260000Y-58240000D01*
X133000000Y-64760000D02*
X133000000Y-67620000D01*
X173260000Y-58240000D02*
X166740000Y-58240000D01*
X166740000Y-58240000D02*
X166740000Y-64760000D01*
X166740000Y-64760000D02*
X173260000Y-64760000D01*
X173260000Y-64760000D02*
X173260000Y-58240000D01*
X170000000Y-64760000D02*
X170000000Y-67620000D01*
X131890000Y-94330000D02*
X134510000Y-94330000D01*
X134510000Y-94330000D02*
X134510000Y-87910000D01*
X134510000Y-87910000D02*
X131890000Y-87910000D01*
X131890000Y-87910000D02*
X131890000Y-94330000D01*
X133200000Y-95220000D02*
X133200000Y-94330000D01*
X133200000Y-87020000D02*
X133200000Y-87910000D01*
X135290000Y-94330000D02*
X137910000Y-94330000D01*
X137910000Y-94330000D02*
X137910000Y-87910000D01*
X137910000Y-87910000D02*
X135290000Y-87910000D01*
X135290000Y-87910000D02*
X135290000Y-94330000D01*
X136600000Y-95220000D02*
X136600000Y-94330000D01*
X136600000Y-87020000D02*
X136600000Y-87910000D01*
X166860000Y-78110000D02*
X163140000Y-78110000D01*
X163140000Y-78110000D02*
X163140000Y-88130000D01*
X163140000Y-88130000D02*
X166860000Y-88130000D01*
X166860000Y-88130000D02*
X166860000Y-78110000D01*
X165000000Y-76880000D02*
X165000000Y-78110000D01*
X165000000Y-89360000D02*
X165000000Y-88130000D01*
X142290000Y-95630000D02*
X144910000Y-95630000D01*
X144910000Y-95630000D02*
X144910000Y-89210000D01*
X144910000Y-89210000D02*
X142290000Y-89210000D01*
X142290000Y-89210000D02*
X142290000Y-95630000D01*
X143600000Y-96520000D02*
X143600000Y-95630000D01*
X143600000Y-88320000D02*
X143600000Y-89210000D01*
X146850000Y-108230000D02*
X146850000Y-104630000D01*
X146838478Y-108268478D02*
G75*
G02X142400000Y-106430000I-1838478J1838478D01*
G01*
X146838478Y-104591522D02*
G75*
G03X142400000Y-106430000I-1838478J-1838478D01*
G01*
X127072000Y-104416000D02*
X127072000Y-100816000D01*
X127060478Y-104454478D02*
G75*
G02X122622000Y-102616000I-1838478J1838478D01*
G01*
X127060478Y-100777522D02*
G75*
G03X122622000Y-102616000I-1838478J-1838478D01*
G01*
X139650000Y-108130000D02*
X139650000Y-104530000D01*
X139638478Y-108168478D02*
G75*
G02X135200000Y-106330000I-1838478J1838478D01*
G01*
X139638478Y-104491522D02*
G75*
G03X135200000Y-106330000I-1838478J-1838478D01*
G01*
X148822000Y-90242000D02*
X152422000Y-90242000D01*
X148783522Y-90230478D02*
G75*
G02X150622000Y-85792000I1838478J1838478D01*
G01*
X152460478Y-90230478D02*
G75*
G03X150622000Y-85792000I-1838478J1838478D01*
G01*
X117470000Y-86350000D02*
X121070000Y-86350000D01*
X117431522Y-86338478D02*
G75*
G02X119270000Y-81900000I1838478J1838478D01*
G01*
X121108478Y-86338478D02*
G75*
G03X119270000Y-81900000I-1838478J1838478D01*
G01*
D14*
X141833333Y-69972619D02*
X141880952Y-69925000D01*
X141976190Y-69877381D01*
X142214286Y-69877381D01*
X142309524Y-69925000D01*
X142357143Y-69972619D01*
X142404762Y-70067857D01*
X142404762Y-70163095D01*
X142357143Y-70305952D01*
X141785714Y-70877381D01*
X142404762Y-70877381D01*
X142833333Y-70877381D02*
X142833333Y-69877381D01*
X142928571Y-70496429D02*
X143214286Y-70877381D01*
X143214286Y-70210714D02*
X142833333Y-70591667D01*
X143595238Y-69972619D02*
X143642857Y-69925000D01*
X143738095Y-69877381D01*
X143976191Y-69877381D01*
X144071429Y-69925000D01*
X144119048Y-69972619D01*
X144166667Y-70067857D01*
X144166667Y-70163095D01*
X144119048Y-70305952D01*
X143547619Y-70877381D01*
X144166667Y-70877381D01*
X118841334Y-79446381D02*
X118269905Y-79446381D01*
X118555619Y-79446381D02*
X118555619Y-78446381D01*
X118460381Y-78589238D01*
X118365143Y-78684476D01*
X118269905Y-78732095D01*
X119460381Y-78446381D02*
X119555620Y-78446381D01*
X119650858Y-78494000D01*
X119698477Y-78541619D01*
X119746096Y-78636857D01*
X119793715Y-78827333D01*
X119793715Y-79065429D01*
X119746096Y-79255905D01*
X119698477Y-79351143D01*
X119650858Y-79398762D01*
X119555620Y-79446381D01*
X119460381Y-79446381D01*
X119365143Y-79398762D01*
X119317524Y-79351143D01*
X119269905Y-79255905D01*
X119222286Y-79065429D01*
X119222286Y-78827333D01*
X119269905Y-78636857D01*
X119317524Y-78541619D01*
X119365143Y-78494000D01*
X119460381Y-78446381D01*
X120412762Y-78446381D02*
X120508001Y-78446381D01*
X120603239Y-78494000D01*
X120650858Y-78541619D01*
X120698477Y-78636857D01*
X120746096Y-78827333D01*
X120746096Y-79065429D01*
X120698477Y-79255905D01*
X120650858Y-79351143D01*
X120603239Y-79398762D01*
X120508001Y-79446381D01*
X120412762Y-79446381D01*
X120317524Y-79398762D01*
X120269905Y-79351143D01*
X120222286Y-79255905D01*
X120174667Y-79065429D01*
X120174667Y-78827333D01*
X120222286Y-78636857D01*
X120269905Y-78541619D01*
X120317524Y-78494000D01*
X120412762Y-78446381D01*
X171145238Y-89877381D02*
X170573809Y-89877381D01*
X170859523Y-89877381D02*
X170859523Y-88877381D01*
X170764285Y-89020238D01*
X170669047Y-89115476D01*
X170573809Y-89163095D01*
X171764285Y-88877381D02*
X171859524Y-88877381D01*
X171954762Y-88925000D01*
X172002381Y-88972619D01*
X172050000Y-89067857D01*
X172097619Y-89258333D01*
X172097619Y-89496429D01*
X172050000Y-89686905D01*
X172002381Y-89782143D01*
X171954762Y-89829762D01*
X171859524Y-89877381D01*
X171764285Y-89877381D01*
X171669047Y-89829762D01*
X171621428Y-89782143D01*
X171573809Y-89686905D01*
X171526190Y-89496429D01*
X171526190Y-89258333D01*
X171573809Y-89067857D01*
X171621428Y-88972619D01*
X171669047Y-88925000D01*
X171764285Y-88877381D01*
X172954762Y-89210714D02*
X172954762Y-89877381D01*
X172526190Y-89210714D02*
X172526190Y-89734524D01*
X172573809Y-89829762D01*
X172669047Y-89877381D01*
X172811905Y-89877381D01*
X172907143Y-89829762D01*
X172954762Y-89782143D01*
X173192857Y-89972619D02*
X173954762Y-89972619D01*
X174669048Y-88877381D02*
X174192857Y-88877381D01*
X174145238Y-89353571D01*
X174192857Y-89305952D01*
X174288095Y-89258333D01*
X174526191Y-89258333D01*
X174621429Y-89305952D01*
X174669048Y-89353571D01*
X174716667Y-89448810D01*
X174716667Y-89686905D01*
X174669048Y-89782143D01*
X174621429Y-89829762D01*
X174526191Y-89877381D01*
X174288095Y-89877381D01*
X174192857Y-89829762D01*
X174145238Y-89782143D01*
X175335714Y-88877381D02*
X175430953Y-88877381D01*
X175526191Y-88925000D01*
X175573810Y-88972619D01*
X175621429Y-89067857D01*
X175669048Y-89258333D01*
X175669048Y-89496429D01*
X175621429Y-89686905D01*
X175573810Y-89782143D01*
X175526191Y-89829762D01*
X175430953Y-89877381D01*
X175335714Y-89877381D01*
X175240476Y-89829762D01*
X175192857Y-89782143D01*
X175145238Y-89686905D01*
X175097619Y-89496429D01*
X175097619Y-89258333D01*
X175145238Y-89067857D01*
X175192857Y-88972619D01*
X175240476Y-88925000D01*
X175335714Y-88877381D01*
X175954762Y-88877381D02*
X176288095Y-89877381D01*
X176621429Y-88877381D01*
X153530953Y-111077381D02*
X152959524Y-111077381D01*
X153245238Y-111077381D02*
X153245238Y-110077381D01*
X153150000Y-110220238D01*
X153054762Y-110315476D01*
X152959524Y-110363095D01*
X154150000Y-110077381D02*
X154245239Y-110077381D01*
X154340477Y-110125000D01*
X154388096Y-110172619D01*
X154435715Y-110267857D01*
X154483334Y-110458333D01*
X154483334Y-110696429D01*
X154435715Y-110886905D01*
X154388096Y-110982143D01*
X154340477Y-111029762D01*
X154245239Y-111077381D01*
X154150000Y-111077381D01*
X154054762Y-111029762D01*
X154007143Y-110982143D01*
X153959524Y-110886905D01*
X153911905Y-110696429D01*
X153911905Y-110458333D01*
X153959524Y-110267857D01*
X154007143Y-110172619D01*
X154054762Y-110125000D01*
X154150000Y-110077381D01*
X155102381Y-110077381D02*
X155197620Y-110077381D01*
X155292858Y-110125000D01*
X155340477Y-110172619D01*
X155388096Y-110267857D01*
X155435715Y-110458333D01*
X155435715Y-110696429D01*
X155388096Y-110886905D01*
X155340477Y-110982143D01*
X155292858Y-111029762D01*
X155197620Y-111077381D01*
X155102381Y-111077381D01*
X155007143Y-111029762D01*
X154959524Y-110982143D01*
X154911905Y-110886905D01*
X154864286Y-110696429D01*
X154864286Y-110458333D01*
X154911905Y-110267857D01*
X154959524Y-110172619D01*
X155007143Y-110125000D01*
X155102381Y-110077381D01*
X155864286Y-110410714D02*
X155864286Y-111410714D01*
X155864286Y-110458333D02*
X155959524Y-110410714D01*
X156150001Y-110410714D01*
X156245239Y-110458333D01*
X156292858Y-110505952D01*
X156340477Y-110601190D01*
X156340477Y-110886905D01*
X156292858Y-110982143D01*
X156245239Y-111029762D01*
X156150001Y-111077381D01*
X155959524Y-111077381D01*
X155864286Y-111029762D01*
X144034524Y-98922619D02*
X144082143Y-98875000D01*
X144177381Y-98827381D01*
X144415477Y-98827381D01*
X144510715Y-98875000D01*
X144558334Y-98922619D01*
X144605953Y-99017857D01*
X144605953Y-99113095D01*
X144558334Y-99255952D01*
X143986905Y-99827381D01*
X144605953Y-99827381D01*
X144986905Y-98922619D02*
X145034524Y-98875000D01*
X145129762Y-98827381D01*
X145367858Y-98827381D01*
X145463096Y-98875000D01*
X145510715Y-98922619D01*
X145558334Y-99017857D01*
X145558334Y-99113095D01*
X145510715Y-99255952D01*
X144939286Y-99827381D01*
X145558334Y-99827381D01*
X146177381Y-98827381D02*
X146272620Y-98827381D01*
X146367858Y-98875000D01*
X146415477Y-98922619D01*
X146463096Y-99017857D01*
X146510715Y-99208333D01*
X146510715Y-99446429D01*
X146463096Y-99636905D01*
X146415477Y-99732143D01*
X146367858Y-99779762D01*
X146272620Y-99827381D01*
X146177381Y-99827381D01*
X146082143Y-99779762D01*
X146034524Y-99732143D01*
X145986905Y-99636905D01*
X145939286Y-99446429D01*
X145939286Y-99208333D01*
X145986905Y-99017857D01*
X146034524Y-98922619D01*
X146082143Y-98875000D01*
X146177381Y-98827381D01*
X146939286Y-99160714D02*
X146939286Y-100160714D01*
X146939286Y-99208333D02*
X147034524Y-99160714D01*
X147225001Y-99160714D01*
X147320239Y-99208333D01*
X147367858Y-99255952D01*
X147415477Y-99351190D01*
X147415477Y-99636905D01*
X147367858Y-99732143D01*
X147320239Y-99779762D01*
X147225001Y-99827381D01*
X147034524Y-99827381D01*
X146939286Y-99779762D01*
X155611905Y-89777381D02*
X156230953Y-89777381D01*
X155897619Y-90158333D01*
X156040477Y-90158333D01*
X156135715Y-90205952D01*
X156183334Y-90253571D01*
X156230953Y-90348810D01*
X156230953Y-90586905D01*
X156183334Y-90682143D01*
X156135715Y-90729762D01*
X156040477Y-90777381D01*
X155754762Y-90777381D01*
X155659524Y-90729762D01*
X155611905Y-90682143D01*
X156564286Y-89777381D02*
X157183334Y-89777381D01*
X156850000Y-90158333D01*
X156992858Y-90158333D01*
X157088096Y-90205952D01*
X157135715Y-90253571D01*
X157183334Y-90348810D01*
X157183334Y-90586905D01*
X157135715Y-90682143D01*
X157088096Y-90729762D01*
X156992858Y-90777381D01*
X156707143Y-90777381D01*
X156611905Y-90729762D01*
X156564286Y-90682143D01*
X157802381Y-89777381D02*
X157897620Y-89777381D01*
X157992858Y-89825000D01*
X158040477Y-89872619D01*
X158088096Y-89967857D01*
X158135715Y-90158333D01*
X158135715Y-90396429D01*
X158088096Y-90586905D01*
X158040477Y-90682143D01*
X157992858Y-90729762D01*
X157897620Y-90777381D01*
X157802381Y-90777381D01*
X157707143Y-90729762D01*
X157659524Y-90682143D01*
X157611905Y-90586905D01*
X157564286Y-90396429D01*
X157564286Y-90158333D01*
X157611905Y-89967857D01*
X157659524Y-89872619D01*
X157707143Y-89825000D01*
X157802381Y-89777381D01*
X158564286Y-90110714D02*
X158564286Y-91110714D01*
X158564286Y-90158333D02*
X158659524Y-90110714D01*
X158850001Y-90110714D01*
X158945239Y-90158333D01*
X158992858Y-90205952D01*
X159040477Y-90301190D01*
X159040477Y-90586905D01*
X158992858Y-90682143D01*
X158945239Y-90729762D01*
X158850001Y-90777381D01*
X158659524Y-90777381D01*
X158564286Y-90729762D01*
X152729953Y-59571381D02*
X152158524Y-59571381D01*
X152444238Y-59571381D02*
X152444238Y-58571381D01*
X152349000Y-58714238D01*
X152253762Y-58809476D01*
X152158524Y-58857095D01*
X153634715Y-58571381D02*
X153158524Y-58571381D01*
X153110905Y-59047571D01*
X153158524Y-58999952D01*
X153253762Y-58952333D01*
X153491858Y-58952333D01*
X153587096Y-58999952D01*
X153634715Y-59047571D01*
X153682334Y-59142810D01*
X153682334Y-59380905D01*
X153634715Y-59476143D01*
X153587096Y-59523762D01*
X153491858Y-59571381D01*
X153253762Y-59571381D01*
X153158524Y-59523762D01*
X153110905Y-59476143D01*
X154301381Y-58571381D02*
X154396620Y-58571381D01*
X154491858Y-58619000D01*
X154539477Y-58666619D01*
X154587096Y-58761857D01*
X154634715Y-58952333D01*
X154634715Y-59190429D01*
X154587096Y-59380905D01*
X154539477Y-59476143D01*
X154491858Y-59523762D01*
X154396620Y-59571381D01*
X154301381Y-59571381D01*
X154206143Y-59523762D01*
X154158524Y-59476143D01*
X154110905Y-59380905D01*
X154063286Y-59190429D01*
X154063286Y-58952333D01*
X154110905Y-58761857D01*
X154158524Y-58666619D01*
X154206143Y-58619000D01*
X154301381Y-58571381D01*
X155063286Y-58904714D02*
X155063286Y-59904714D01*
X155063286Y-58952333D02*
X155158524Y-58904714D01*
X155349001Y-58904714D01*
X155444239Y-58952333D01*
X155491858Y-58999952D01*
X155539477Y-59095190D01*
X155539477Y-59380905D01*
X155491858Y-59476143D01*
X155444239Y-59523762D01*
X155349001Y-59571381D01*
X155158524Y-59571381D01*
X155063286Y-59523762D01*
X170380953Y-86512381D02*
X169809524Y-86512381D01*
X170095238Y-86512381D02*
X170095238Y-85512381D01*
X170000000Y-85655238D01*
X169904762Y-85750476D01*
X169809524Y-85798095D01*
X171000000Y-85512381D02*
X171095239Y-85512381D01*
X171190477Y-85560000D01*
X171238096Y-85607619D01*
X171285715Y-85702857D01*
X171333334Y-85893333D01*
X171333334Y-86131429D01*
X171285715Y-86321905D01*
X171238096Y-86417143D01*
X171190477Y-86464762D01*
X171095239Y-86512381D01*
X171000000Y-86512381D01*
X170904762Y-86464762D01*
X170857143Y-86417143D01*
X170809524Y-86321905D01*
X170761905Y-86131429D01*
X170761905Y-85893333D01*
X170809524Y-85702857D01*
X170857143Y-85607619D01*
X170904762Y-85560000D01*
X171000000Y-85512381D01*
X171952381Y-85512381D02*
X172047620Y-85512381D01*
X172142858Y-85560000D01*
X172190477Y-85607619D01*
X172238096Y-85702857D01*
X172285715Y-85893333D01*
X172285715Y-86131429D01*
X172238096Y-86321905D01*
X172190477Y-86417143D01*
X172142858Y-86464762D01*
X172047620Y-86512381D01*
X171952381Y-86512381D01*
X171857143Y-86464762D01*
X171809524Y-86417143D01*
X171761905Y-86321905D01*
X171714286Y-86131429D01*
X171714286Y-85893333D01*
X171761905Y-85702857D01*
X171809524Y-85607619D01*
X171857143Y-85560000D01*
X171952381Y-85512381D01*
X172714286Y-85845714D02*
X172714286Y-86512381D01*
X172714286Y-85940952D02*
X172761905Y-85893333D01*
X172857143Y-85845714D01*
X173000001Y-85845714D01*
X173095239Y-85893333D01*
X173142858Y-85988571D01*
X173142858Y-86512381D01*
X155827381Y-98819047D02*
X155827381Y-99390476D01*
X155827381Y-99104762D02*
X154827381Y-99104762D01*
X154970238Y-99200000D01*
X155065476Y-99295238D01*
X155113095Y-99390476D01*
X154827381Y-98200000D02*
X154827381Y-98104761D01*
X154875000Y-98009523D01*
X154922619Y-97961904D01*
X155017857Y-97914285D01*
X155208333Y-97866666D01*
X155446429Y-97866666D01*
X155636905Y-97914285D01*
X155732143Y-97961904D01*
X155779762Y-98009523D01*
X155827381Y-98104761D01*
X155827381Y-98200000D01*
X155779762Y-98295238D01*
X155732143Y-98342857D01*
X155636905Y-98390476D01*
X155446429Y-98438095D01*
X155208333Y-98438095D01*
X155017857Y-98390476D01*
X154922619Y-98342857D01*
X154875000Y-98295238D01*
X154827381Y-98200000D01*
X154827381Y-97247619D02*
X154827381Y-97152380D01*
X154875000Y-97057142D01*
X154922619Y-97009523D01*
X155017857Y-96961904D01*
X155208333Y-96914285D01*
X155446429Y-96914285D01*
X155636905Y-96961904D01*
X155732143Y-97009523D01*
X155779762Y-97057142D01*
X155827381Y-97152380D01*
X155827381Y-97247619D01*
X155779762Y-97342857D01*
X155732143Y-97390476D01*
X155636905Y-97438095D01*
X155446429Y-97485714D01*
X155208333Y-97485714D01*
X155017857Y-97438095D01*
X154922619Y-97390476D01*
X154875000Y-97342857D01*
X154827381Y-97247619D01*
X155160714Y-96057142D02*
X155827381Y-96057142D01*
X155160714Y-96485714D02*
X155684524Y-96485714D01*
X155779762Y-96438095D01*
X155827381Y-96342857D01*
X155827381Y-96199999D01*
X155779762Y-96104761D01*
X155732143Y-96057142D01*
X155922619Y-95819047D02*
X155922619Y-95057142D01*
X154827381Y-94390475D02*
X154827381Y-94580952D01*
X154875000Y-94676190D01*
X154922619Y-94723809D01*
X155065476Y-94819047D01*
X155255952Y-94866666D01*
X155636905Y-94866666D01*
X155732143Y-94819047D01*
X155779762Y-94771428D01*
X155827381Y-94676190D01*
X155827381Y-94485713D01*
X155779762Y-94390475D01*
X155732143Y-94342856D01*
X155636905Y-94295237D01*
X155398810Y-94295237D01*
X155303571Y-94342856D01*
X155255952Y-94390475D01*
X155208333Y-94485713D01*
X155208333Y-94676190D01*
X155255952Y-94771428D01*
X155303571Y-94819047D01*
X155398810Y-94866666D01*
X155732143Y-93866666D02*
X155779762Y-93819047D01*
X155827381Y-93866666D01*
X155779762Y-93914285D01*
X155732143Y-93866666D01*
X155827381Y-93866666D01*
X154827381Y-93485714D02*
X154827381Y-92866666D01*
X155208333Y-93200000D01*
X155208333Y-93057142D01*
X155255952Y-92961904D01*
X155303571Y-92914285D01*
X155398810Y-92866666D01*
X155636905Y-92866666D01*
X155732143Y-92914285D01*
X155779762Y-92961904D01*
X155827381Y-93057142D01*
X155827381Y-93342857D01*
X155779762Y-93438095D01*
X155732143Y-93485714D01*
X154827381Y-92580952D02*
X155827381Y-92247619D01*
X154827381Y-91914285D01*
X123896857Y-118562381D02*
X123325428Y-118562381D01*
X123611142Y-118562381D02*
X123611142Y-117562381D01*
X123515904Y-117705238D01*
X123420666Y-117800476D01*
X123325428Y-117848095D01*
X124515904Y-117562381D02*
X124611143Y-117562381D01*
X124706381Y-117610000D01*
X124754000Y-117657619D01*
X124801619Y-117752857D01*
X124849238Y-117943333D01*
X124849238Y-118181429D01*
X124801619Y-118371905D01*
X124754000Y-118467143D01*
X124706381Y-118514762D01*
X124611143Y-118562381D01*
X124515904Y-118562381D01*
X124420666Y-118514762D01*
X124373047Y-118467143D01*
X124325428Y-118371905D01*
X124277809Y-118181429D01*
X124277809Y-117943333D01*
X124325428Y-117752857D01*
X124373047Y-117657619D01*
X124420666Y-117610000D01*
X124515904Y-117562381D01*
X125468285Y-117562381D02*
X125563524Y-117562381D01*
X125658762Y-117610000D01*
X125706381Y-117657619D01*
X125754000Y-117752857D01*
X125801619Y-117943333D01*
X125801619Y-118181429D01*
X125754000Y-118371905D01*
X125706381Y-118467143D01*
X125658762Y-118514762D01*
X125563524Y-118562381D01*
X125468285Y-118562381D01*
X125373047Y-118514762D01*
X125325428Y-118467143D01*
X125277809Y-118371905D01*
X125230190Y-118181429D01*
X125230190Y-117943333D01*
X125277809Y-117752857D01*
X125325428Y-117657619D01*
X125373047Y-117610000D01*
X125468285Y-117562381D01*
X126420666Y-117562381D02*
X126515905Y-117562381D01*
X126611143Y-117610000D01*
X126658762Y-117657619D01*
X126706381Y-117752857D01*
X126754000Y-117943333D01*
X126754000Y-118181429D01*
X126706381Y-118371905D01*
X126658762Y-118467143D01*
X126611143Y-118514762D01*
X126515905Y-118562381D01*
X126420666Y-118562381D01*
X126325428Y-118514762D01*
X126277809Y-118467143D01*
X126230190Y-118371905D01*
X126182571Y-118181429D01*
X126182571Y-117943333D01*
X126230190Y-117752857D01*
X126277809Y-117657619D01*
X126325428Y-117610000D01*
X126420666Y-117562381D01*
X127611143Y-117895714D02*
X127611143Y-118562381D01*
X127182571Y-117895714D02*
X127182571Y-118419524D01*
X127230190Y-118514762D01*
X127325428Y-118562381D01*
X127468286Y-118562381D01*
X127563524Y-118514762D01*
X127611143Y-118467143D01*
X127849238Y-118657619D02*
X128611143Y-118657619D01*
X129277810Y-117562381D02*
X129087333Y-117562381D01*
X128992095Y-117610000D01*
X128944476Y-117657619D01*
X128849238Y-117800476D01*
X128801619Y-117990952D01*
X128801619Y-118371905D01*
X128849238Y-118467143D01*
X128896857Y-118514762D01*
X128992095Y-118562381D01*
X129182572Y-118562381D01*
X129277810Y-118514762D01*
X129325429Y-118467143D01*
X129373048Y-118371905D01*
X129373048Y-118133810D01*
X129325429Y-118038571D01*
X129277810Y-117990952D01*
X129182572Y-117943333D01*
X128992095Y-117943333D01*
X128896857Y-117990952D01*
X128849238Y-118038571D01*
X128801619Y-118133810D01*
X129706381Y-117562381D02*
X130325429Y-117562381D01*
X129992095Y-117943333D01*
X130134953Y-117943333D01*
X130230191Y-117990952D01*
X130277810Y-118038571D01*
X130325429Y-118133810D01*
X130325429Y-118371905D01*
X130277810Y-118467143D01*
X130230191Y-118514762D01*
X130134953Y-118562381D01*
X129849238Y-118562381D01*
X129754000Y-118514762D01*
X129706381Y-118467143D01*
X130611143Y-117562381D02*
X130944476Y-118562381D01*
X131277810Y-117562381D01*
X159964857Y-121102381D02*
X159393428Y-121102381D01*
X159679142Y-121102381D02*
X159679142Y-120102381D01*
X159583904Y-120245238D01*
X159488666Y-120340476D01*
X159393428Y-120388095D01*
X160583904Y-120102381D02*
X160679143Y-120102381D01*
X160774381Y-120150000D01*
X160822000Y-120197619D01*
X160869619Y-120292857D01*
X160917238Y-120483333D01*
X160917238Y-120721429D01*
X160869619Y-120911905D01*
X160822000Y-121007143D01*
X160774381Y-121054762D01*
X160679143Y-121102381D01*
X160583904Y-121102381D01*
X160488666Y-121054762D01*
X160441047Y-121007143D01*
X160393428Y-120911905D01*
X160345809Y-120721429D01*
X160345809Y-120483333D01*
X160393428Y-120292857D01*
X160441047Y-120197619D01*
X160488666Y-120150000D01*
X160583904Y-120102381D01*
X161536285Y-120102381D02*
X161631524Y-120102381D01*
X161726762Y-120150000D01*
X161774381Y-120197619D01*
X161822000Y-120292857D01*
X161869619Y-120483333D01*
X161869619Y-120721429D01*
X161822000Y-120911905D01*
X161774381Y-121007143D01*
X161726762Y-121054762D01*
X161631524Y-121102381D01*
X161536285Y-121102381D01*
X161441047Y-121054762D01*
X161393428Y-121007143D01*
X161345809Y-120911905D01*
X161298190Y-120721429D01*
X161298190Y-120483333D01*
X161345809Y-120292857D01*
X161393428Y-120197619D01*
X161441047Y-120150000D01*
X161536285Y-120102381D01*
X162488666Y-120102381D02*
X162583905Y-120102381D01*
X162679143Y-120150000D01*
X162726762Y-120197619D01*
X162774381Y-120292857D01*
X162822000Y-120483333D01*
X162822000Y-120721429D01*
X162774381Y-120911905D01*
X162726762Y-121007143D01*
X162679143Y-121054762D01*
X162583905Y-121102381D01*
X162488666Y-121102381D01*
X162393428Y-121054762D01*
X162345809Y-121007143D01*
X162298190Y-120911905D01*
X162250571Y-120721429D01*
X162250571Y-120483333D01*
X162298190Y-120292857D01*
X162345809Y-120197619D01*
X162393428Y-120150000D01*
X162488666Y-120102381D01*
X163679143Y-120435714D02*
X163679143Y-121102381D01*
X163250571Y-120435714D02*
X163250571Y-120959524D01*
X163298190Y-121054762D01*
X163393428Y-121102381D01*
X163536286Y-121102381D01*
X163631524Y-121054762D01*
X163679143Y-121007143D01*
X163917238Y-121197619D02*
X164679143Y-121197619D01*
X165345810Y-120102381D02*
X165155333Y-120102381D01*
X165060095Y-120150000D01*
X165012476Y-120197619D01*
X164917238Y-120340476D01*
X164869619Y-120530952D01*
X164869619Y-120911905D01*
X164917238Y-121007143D01*
X164964857Y-121054762D01*
X165060095Y-121102381D01*
X165250572Y-121102381D01*
X165345810Y-121054762D01*
X165393429Y-121007143D01*
X165441048Y-120911905D01*
X165441048Y-120673810D01*
X165393429Y-120578571D01*
X165345810Y-120530952D01*
X165250572Y-120483333D01*
X165060095Y-120483333D01*
X164964857Y-120530952D01*
X164917238Y-120578571D01*
X164869619Y-120673810D01*
X165774381Y-120102381D02*
X166393429Y-120102381D01*
X166060095Y-120483333D01*
X166202953Y-120483333D01*
X166298191Y-120530952D01*
X166345810Y-120578571D01*
X166393429Y-120673810D01*
X166393429Y-120911905D01*
X166345810Y-121007143D01*
X166298191Y-121054762D01*
X166202953Y-121102381D01*
X165917238Y-121102381D01*
X165822000Y-121054762D01*
X165774381Y-121007143D01*
X166679143Y-120102381D02*
X167012476Y-121102381D01*
X167345810Y-120102381D01*
X113892381Y-104847857D02*
X113892381Y-105419286D01*
X113892381Y-105133572D02*
X112892381Y-105133572D01*
X113035238Y-105228810D01*
X113130476Y-105324048D01*
X113178095Y-105419286D01*
X113892381Y-104419286D02*
X112892381Y-104419286D01*
X113892381Y-103847857D01*
X112892381Y-103847857D01*
X113225714Y-102943095D02*
X113892381Y-102943095D01*
X112844762Y-103181191D02*
X113559048Y-103419286D01*
X113559048Y-102800238D01*
X113892381Y-101895476D02*
X113892381Y-102466905D01*
X113892381Y-102181191D02*
X112892381Y-102181191D01*
X113035238Y-102276429D01*
X113130476Y-102371667D01*
X113178095Y-102466905D01*
X113225714Y-101038333D02*
X113892381Y-101038333D01*
X112844762Y-101276429D02*
X113559048Y-101514524D01*
X113559048Y-100895476D01*
X113320952Y-100371667D02*
X113273333Y-100466905D01*
X113225714Y-100514524D01*
X113130476Y-100562143D01*
X113082857Y-100562143D01*
X112987619Y-100514524D01*
X112940000Y-100466905D01*
X112892381Y-100371667D01*
X112892381Y-100181190D01*
X112940000Y-100085952D01*
X112987619Y-100038333D01*
X113082857Y-99990714D01*
X113130476Y-99990714D01*
X113225714Y-100038333D01*
X113273333Y-100085952D01*
X113320952Y-100181190D01*
X113320952Y-100371667D01*
X113368571Y-100466905D01*
X113416190Y-100514524D01*
X113511429Y-100562143D01*
X113701905Y-100562143D01*
X113797143Y-100514524D01*
X113844762Y-100466905D01*
X113892381Y-100371667D01*
X113892381Y-100181190D01*
X113844762Y-100085952D01*
X113797143Y-100038333D01*
X113701905Y-99990714D01*
X113511429Y-99990714D01*
X113416190Y-100038333D01*
X113368571Y-100085952D01*
X113320952Y-100181190D01*
X117992381Y-104822857D02*
X117992381Y-105394286D01*
X117992381Y-105108572D02*
X116992381Y-105108572D01*
X117135238Y-105203810D01*
X117230476Y-105299048D01*
X117278095Y-105394286D01*
X117992381Y-104394286D02*
X116992381Y-104394286D01*
X117992381Y-103822857D01*
X116992381Y-103822857D01*
X117325714Y-102918095D02*
X117992381Y-102918095D01*
X116944762Y-103156191D02*
X117659048Y-103394286D01*
X117659048Y-102775238D01*
X117992381Y-101870476D02*
X117992381Y-102441905D01*
X117992381Y-102156191D02*
X116992381Y-102156191D01*
X117135238Y-102251429D01*
X117230476Y-102346667D01*
X117278095Y-102441905D01*
X117325714Y-101013333D02*
X117992381Y-101013333D01*
X116944762Y-101251429D02*
X117659048Y-101489524D01*
X117659048Y-100870476D01*
X117420952Y-100346667D02*
X117373333Y-100441905D01*
X117325714Y-100489524D01*
X117230476Y-100537143D01*
X117182857Y-100537143D01*
X117087619Y-100489524D01*
X117040000Y-100441905D01*
X116992381Y-100346667D01*
X116992381Y-100156190D01*
X117040000Y-100060952D01*
X117087619Y-100013333D01*
X117182857Y-99965714D01*
X117230476Y-99965714D01*
X117325714Y-100013333D01*
X117373333Y-100060952D01*
X117420952Y-100156190D01*
X117420952Y-100346667D01*
X117468571Y-100441905D01*
X117516190Y-100489524D01*
X117611429Y-100537143D01*
X117801905Y-100537143D01*
X117897143Y-100489524D01*
X117944762Y-100441905D01*
X117992381Y-100346667D01*
X117992381Y-100156190D01*
X117944762Y-100060952D01*
X117897143Y-100013333D01*
X117801905Y-99965714D01*
X117611429Y-99965714D01*
X117516190Y-100013333D01*
X117468571Y-100060952D01*
X117420952Y-100156190D01*
X143166667Y-87048571D02*
X142833333Y-87048571D01*
X142833333Y-87572381D02*
X142833333Y-86572381D01*
X143309524Y-86572381D01*
X144214286Y-87572381D02*
X143642857Y-87572381D01*
X143928571Y-87572381D02*
X143928571Y-86572381D01*
X143833333Y-86715238D01*
X143738095Y-86810476D01*
X143642857Y-86858095D01*
X133534524Y-72827381D02*
X134105953Y-72827381D01*
X133820238Y-73827381D02*
X133820238Y-72827381D01*
X134867858Y-73160714D02*
X134867858Y-73827381D01*
X134629762Y-72779762D02*
X134391667Y-73494048D01*
X135010715Y-73494048D01*
X135344048Y-73541667D02*
X135820239Y-73541667D01*
X135248810Y-73827381D02*
X135582143Y-72827381D01*
X135915477Y-73827381D01*
X177575000Y-107758333D02*
X177527381Y-107853571D01*
X177527381Y-107996428D01*
X177575000Y-108139286D01*
X177670238Y-108234524D01*
X177765476Y-108282143D01*
X177955952Y-108329762D01*
X178098810Y-108329762D01*
X178289286Y-108282143D01*
X178384524Y-108234524D01*
X178479762Y-108139286D01*
X178527381Y-107996428D01*
X178527381Y-107901190D01*
X178479762Y-107758333D01*
X178432143Y-107710714D01*
X178098810Y-107710714D01*
X178098810Y-107901190D01*
X178527381Y-107282143D02*
X177527381Y-107282143D01*
X178527381Y-106710714D01*
X177527381Y-106710714D01*
X178527381Y-106234524D02*
X177527381Y-106234524D01*
X177527381Y-105996429D01*
X177575000Y-105853571D01*
X177670238Y-105758333D01*
X177765476Y-105710714D01*
X177955952Y-105663095D01*
X178098810Y-105663095D01*
X178289286Y-105710714D01*
X178384524Y-105758333D01*
X178479762Y-105853571D01*
X178527381Y-105996429D01*
X178527381Y-106234524D01*
X178527381Y-104472619D02*
X177527381Y-104472619D01*
X177860714Y-103996429D02*
X178527381Y-103996429D01*
X177955952Y-103996429D02*
X177908333Y-103948810D01*
X177860714Y-103853572D01*
X177860714Y-103710714D01*
X177908333Y-103615476D01*
X178003571Y-103567857D01*
X178527381Y-103567857D01*
X178146429Y-102329762D02*
X178146429Y-101567857D01*
X178527381Y-101948809D02*
X177765476Y-101948809D01*
X166052381Y-76333333D02*
X166766667Y-76333333D01*
X166909524Y-76380953D01*
X167004762Y-76476191D01*
X167052381Y-76619048D01*
X167052381Y-76714286D01*
X166147619Y-75904762D02*
X166100000Y-75857143D01*
X166052381Y-75761905D01*
X166052381Y-75523809D01*
X166100000Y-75428571D01*
X166147619Y-75380952D01*
X166242857Y-75333333D01*
X166338095Y-75333333D01*
X166480952Y-75380952D01*
X167052381Y-75952381D01*
X167052381Y-75333333D01*
X178350000Y-79879762D02*
X178302381Y-79975000D01*
X178302381Y-80117857D01*
X178350000Y-80260715D01*
X178445238Y-80355953D01*
X178540476Y-80403572D01*
X178730952Y-80451191D01*
X178873810Y-80451191D01*
X179064286Y-80403572D01*
X179159524Y-80355953D01*
X179254762Y-80260715D01*
X179302381Y-80117857D01*
X179302381Y-80022619D01*
X179254762Y-79879762D01*
X179207143Y-79832143D01*
X178873810Y-79832143D01*
X178873810Y-80022619D01*
X179302381Y-79403572D02*
X178302381Y-79403572D01*
X179302381Y-78832143D01*
X178302381Y-78832143D01*
X179302381Y-78355953D02*
X178302381Y-78355953D01*
X178302381Y-78117858D01*
X178350000Y-77975000D01*
X178445238Y-77879762D01*
X178540476Y-77832143D01*
X178730952Y-77784524D01*
X178873810Y-77784524D01*
X179064286Y-77832143D01*
X179159524Y-77879762D01*
X179254762Y-77975000D01*
X179302381Y-78117858D01*
X179302381Y-78355953D01*
X178302381Y-76403572D02*
X178302381Y-76213095D01*
X178350000Y-76117857D01*
X178445238Y-76022619D01*
X178635714Y-75975000D01*
X178969048Y-75975000D01*
X179159524Y-76022619D01*
X179254762Y-76117857D01*
X179302381Y-76213095D01*
X179302381Y-76403572D01*
X179254762Y-76498810D01*
X179159524Y-76594048D01*
X178969048Y-76641667D01*
X178635714Y-76641667D01*
X178445238Y-76594048D01*
X178350000Y-76498810D01*
X178302381Y-76403572D01*
X178635714Y-75117857D02*
X179302381Y-75117857D01*
X178635714Y-75546429D02*
X179159524Y-75546429D01*
X179254762Y-75498810D01*
X179302381Y-75403572D01*
X179302381Y-75260714D01*
X179254762Y-75165476D01*
X179207143Y-75117857D01*
X178635714Y-74784524D02*
X178635714Y-74403572D01*
X178302381Y-74641667D02*
X179159524Y-74641667D01*
X179254762Y-74594048D01*
X179302381Y-74498810D01*
X179302381Y-74403572D01*
X178921429Y-73308333D02*
X178921429Y-72546428D01*
X179302381Y-72927380D02*
X178540476Y-72927380D01*
X138615476Y-117971429D02*
X139377381Y-117971429D01*
X138996429Y-118352381D02*
X138996429Y-117590476D01*
X140282143Y-117685714D02*
X140282143Y-118352381D01*
X140044047Y-117304762D02*
X139805952Y-118019048D01*
X140425000Y-118019048D01*
X140996428Y-117352381D02*
X141091667Y-117352381D01*
X141186905Y-117400000D01*
X141234524Y-117447619D01*
X141282143Y-117542857D01*
X141329762Y-117733333D01*
X141329762Y-117971429D01*
X141282143Y-118161905D01*
X141234524Y-118257143D01*
X141186905Y-118304762D01*
X141091667Y-118352381D01*
X140996428Y-118352381D01*
X140901190Y-118304762D01*
X140853571Y-118257143D01*
X140805952Y-118161905D01*
X140758333Y-117971429D01*
X140758333Y-117733333D01*
X140805952Y-117542857D01*
X140853571Y-117447619D01*
X140901190Y-117400000D01*
X140996428Y-117352381D01*
X142377381Y-117352381D02*
X142710714Y-118352381D01*
X143044048Y-117352381D01*
X144663096Y-117400000D02*
X144567858Y-117352381D01*
X144425001Y-117352381D01*
X144282143Y-117400000D01*
X144186905Y-117495238D01*
X144139286Y-117590476D01*
X144091667Y-117780952D01*
X144091667Y-117923810D01*
X144139286Y-118114286D01*
X144186905Y-118209524D01*
X144282143Y-118304762D01*
X144425001Y-118352381D01*
X144520239Y-118352381D01*
X144663096Y-118304762D01*
X144710715Y-118257143D01*
X144710715Y-117923810D01*
X144520239Y-117923810D01*
X145139286Y-118352381D02*
X145139286Y-117352381D01*
X145710715Y-118352381D01*
X145710715Y-117352381D01*
X146186905Y-118352381D02*
X146186905Y-117352381D01*
X146425000Y-117352381D01*
X146567858Y-117400000D01*
X146663096Y-117495238D01*
X146710715Y-117590476D01*
X146758334Y-117780952D01*
X146758334Y-117923810D01*
X146710715Y-118114286D01*
X146663096Y-118209524D01*
X146567858Y-118304762D01*
X146425000Y-118352381D01*
X146186905Y-118352381D01*
X147948810Y-117971429D02*
X148710715Y-117971429D01*
X149615477Y-117685714D02*
X149615477Y-118352381D01*
X149377381Y-117304762D02*
X149139286Y-118019048D01*
X149758334Y-118019048D01*
X150329762Y-117352381D02*
X150425001Y-117352381D01*
X150520239Y-117400000D01*
X150567858Y-117447619D01*
X150615477Y-117542857D01*
X150663096Y-117733333D01*
X150663096Y-117971429D01*
X150615477Y-118161905D01*
X150567858Y-118257143D01*
X150520239Y-118304762D01*
X150425001Y-118352381D01*
X150329762Y-118352381D01*
X150234524Y-118304762D01*
X150186905Y-118257143D01*
X150139286Y-118161905D01*
X150091667Y-117971429D01*
X150091667Y-117733333D01*
X150139286Y-117542857D01*
X150186905Y-117447619D01*
X150234524Y-117400000D01*
X150329762Y-117352381D01*
X151710715Y-117352381D02*
X152044048Y-118352381D01*
X152377382Y-117352381D01*
X115681524Y-76001619D02*
X115729143Y-75954000D01*
X115824381Y-75906381D01*
X116062477Y-75906381D01*
X116157715Y-75954000D01*
X116205334Y-76001619D01*
X116252953Y-76096857D01*
X116252953Y-76192095D01*
X116205334Y-76334952D01*
X115633905Y-76906381D01*
X116252953Y-76906381D01*
X116633905Y-76858762D02*
X116776762Y-76906381D01*
X117014858Y-76906381D01*
X117110096Y-76858762D01*
X117157715Y-76811143D01*
X117205334Y-76715905D01*
X117205334Y-76620667D01*
X117157715Y-76525429D01*
X117110096Y-76477810D01*
X117014858Y-76430190D01*
X116824381Y-76382571D01*
X116729143Y-76334952D01*
X116681524Y-76287333D01*
X116633905Y-76192095D01*
X116633905Y-76096857D01*
X116681524Y-76001619D01*
X116729143Y-75954000D01*
X116824381Y-75906381D01*
X117062477Y-75906381D01*
X117205334Y-75954000D01*
X117967239Y-76382571D02*
X118110096Y-76430190D01*
X118157715Y-76477810D01*
X118205334Y-76573048D01*
X118205334Y-76715905D01*
X118157715Y-76811143D01*
X118110096Y-76858762D01*
X118014858Y-76906381D01*
X117633905Y-76906381D01*
X117633905Y-75906381D01*
X117967239Y-75906381D01*
X118062477Y-75954000D01*
X118110096Y-76001619D01*
X118157715Y-76096857D01*
X118157715Y-76192095D01*
X118110096Y-76287333D01*
X118062477Y-76334952D01*
X117967239Y-76382571D01*
X117633905Y-76382571D01*
X119062477Y-75906381D02*
X118872000Y-75906381D01*
X118776762Y-75954000D01*
X118729143Y-76001619D01*
X118633905Y-76144476D01*
X118586286Y-76334952D01*
X118586286Y-76715905D01*
X118633905Y-76811143D01*
X118681524Y-76858762D01*
X118776762Y-76906381D01*
X118967239Y-76906381D01*
X119062477Y-76858762D01*
X119110096Y-76811143D01*
X119157715Y-76715905D01*
X119157715Y-76477810D01*
X119110096Y-76382571D01*
X119062477Y-76334952D01*
X118967239Y-76287333D01*
X118776762Y-76287333D01*
X118681524Y-76334952D01*
X118633905Y-76382571D01*
X118586286Y-76477810D01*
X119491048Y-75906381D02*
X120110096Y-75906381D01*
X119776762Y-76287333D01*
X119919620Y-76287333D01*
X120014858Y-76334952D01*
X120062477Y-76382571D01*
X120110096Y-76477810D01*
X120110096Y-76715905D01*
X120062477Y-76811143D01*
X120014858Y-76858762D01*
X119919620Y-76906381D01*
X119633905Y-76906381D01*
X119538667Y-76858762D01*
X119491048Y-76811143D01*
X121062477Y-76906381D02*
X120491048Y-76906381D01*
X120776762Y-76906381D02*
X120776762Y-75906381D01*
X120681524Y-76049238D01*
X120586286Y-76144476D01*
X120491048Y-76192095D01*
X121491048Y-76906381D02*
X121491048Y-75906381D01*
X122062477Y-76906381D02*
X121633905Y-76334952D01*
X122062477Y-75906381D02*
X121491048Y-76477810D01*
X140809524Y-55822619D02*
X140857143Y-55775000D01*
X140952381Y-55727381D01*
X141190477Y-55727381D01*
X141285715Y-55775000D01*
X141333334Y-55822619D01*
X141380953Y-55917857D01*
X141380953Y-56013095D01*
X141333334Y-56155952D01*
X140761905Y-56727381D01*
X141380953Y-56727381D01*
X141761905Y-56679762D02*
X141904762Y-56727381D01*
X142142858Y-56727381D01*
X142238096Y-56679762D01*
X142285715Y-56632143D01*
X142333334Y-56536905D01*
X142333334Y-56441667D01*
X142285715Y-56346429D01*
X142238096Y-56298810D01*
X142142858Y-56251190D01*
X141952381Y-56203571D01*
X141857143Y-56155952D01*
X141809524Y-56108333D01*
X141761905Y-56013095D01*
X141761905Y-55917857D01*
X141809524Y-55822619D01*
X141857143Y-55775000D01*
X141952381Y-55727381D01*
X142190477Y-55727381D01*
X142333334Y-55775000D01*
X142761905Y-56727381D02*
X142761905Y-55727381D01*
X143000000Y-55727381D01*
X143142858Y-55775000D01*
X143238096Y-55870238D01*
X143285715Y-55965476D01*
X143333334Y-56155952D01*
X143333334Y-56298810D01*
X143285715Y-56489286D01*
X143238096Y-56584524D01*
X143142858Y-56679762D01*
X143000000Y-56727381D01*
X142761905Y-56727381D01*
X144190477Y-55727381D02*
X144000000Y-55727381D01*
X143904762Y-55775000D01*
X143857143Y-55822619D01*
X143761905Y-55965476D01*
X143714286Y-56155952D01*
X143714286Y-56536905D01*
X143761905Y-56632143D01*
X143809524Y-56679762D01*
X143904762Y-56727381D01*
X144095239Y-56727381D01*
X144190477Y-56679762D01*
X144238096Y-56632143D01*
X144285715Y-56536905D01*
X144285715Y-56298810D01*
X144238096Y-56203571D01*
X144190477Y-56155952D01*
X144095239Y-56108333D01*
X143904762Y-56108333D01*
X143809524Y-56155952D01*
X143761905Y-56203571D01*
X143714286Y-56298810D01*
X144904762Y-55727381D02*
X145000001Y-55727381D01*
X145095239Y-55775000D01*
X145142858Y-55822619D01*
X145190477Y-55917857D01*
X145238096Y-56108333D01*
X145238096Y-56346429D01*
X145190477Y-56536905D01*
X145142858Y-56632143D01*
X145095239Y-56679762D01*
X145000001Y-56727381D01*
X144904762Y-56727381D01*
X144809524Y-56679762D01*
X144761905Y-56632143D01*
X144714286Y-56536905D01*
X144666667Y-56346429D01*
X144666667Y-56108333D01*
X144714286Y-55917857D01*
X144761905Y-55822619D01*
X144809524Y-55775000D01*
X144904762Y-55727381D01*
X145857143Y-55727381D02*
X145952382Y-55727381D01*
X146047620Y-55775000D01*
X146095239Y-55822619D01*
X146142858Y-55917857D01*
X146190477Y-56108333D01*
X146190477Y-56346429D01*
X146142858Y-56536905D01*
X146095239Y-56632143D01*
X146047620Y-56679762D01*
X145952382Y-56727381D01*
X145857143Y-56727381D01*
X145761905Y-56679762D01*
X145714286Y-56632143D01*
X145666667Y-56536905D01*
X145619048Y-56346429D01*
X145619048Y-56108333D01*
X145666667Y-55917857D01*
X145714286Y-55822619D01*
X145761905Y-55775000D01*
X145857143Y-55727381D01*
X146619048Y-56727381D02*
X146619048Y-55727381D01*
X147190477Y-56727381D02*
X146761905Y-56155952D01*
X147190477Y-55727381D02*
X146619048Y-56298810D01*
X116547619Y-69290476D02*
X116500000Y-69242857D01*
X116452381Y-69147619D01*
X116452381Y-68909523D01*
X116500000Y-68814285D01*
X116547619Y-68766666D01*
X116642857Y-68719047D01*
X116738095Y-68719047D01*
X116880952Y-68766666D01*
X117452381Y-69338095D01*
X117452381Y-68719047D01*
X117404762Y-68338095D02*
X117452381Y-68195238D01*
X117452381Y-67957142D01*
X117404762Y-67861904D01*
X117357143Y-67814285D01*
X117261905Y-67766666D01*
X117166667Y-67766666D01*
X117071429Y-67814285D01*
X117023810Y-67861904D01*
X116976190Y-67957142D01*
X116928571Y-68147619D01*
X116880952Y-68242857D01*
X116833333Y-68290476D01*
X116738095Y-68338095D01*
X116642857Y-68338095D01*
X116547619Y-68290476D01*
X116500000Y-68242857D01*
X116452381Y-68147619D01*
X116452381Y-67909523D01*
X116500000Y-67766666D01*
X117452381Y-67338095D02*
X116452381Y-67338095D01*
X116452381Y-67100000D01*
X116500000Y-66957142D01*
X116595238Y-66861904D01*
X116690476Y-66814285D01*
X116880952Y-66766666D01*
X117023810Y-66766666D01*
X117214286Y-66814285D01*
X117309524Y-66861904D01*
X117404762Y-66957142D01*
X117452381Y-67100000D01*
X117452381Y-67338095D01*
X116452381Y-65909523D02*
X116452381Y-66100000D01*
X116500000Y-66195238D01*
X116547619Y-66242857D01*
X116690476Y-66338095D01*
X116880952Y-66385714D01*
X117261905Y-66385714D01*
X117357143Y-66338095D01*
X117404762Y-66290476D01*
X117452381Y-66195238D01*
X117452381Y-66004761D01*
X117404762Y-65909523D01*
X117357143Y-65861904D01*
X117261905Y-65814285D01*
X117023810Y-65814285D01*
X116928571Y-65861904D01*
X116880952Y-65909523D01*
X116833333Y-66004761D01*
X116833333Y-66195238D01*
X116880952Y-66290476D01*
X116928571Y-66338095D01*
X117023810Y-66385714D01*
X116452381Y-65195238D02*
X116452381Y-65099999D01*
X116500000Y-65004761D01*
X116547619Y-64957142D01*
X116642857Y-64909523D01*
X116833333Y-64861904D01*
X117071429Y-64861904D01*
X117261905Y-64909523D01*
X117357143Y-64957142D01*
X117404762Y-65004761D01*
X117452381Y-65099999D01*
X117452381Y-65195238D01*
X117404762Y-65290476D01*
X117357143Y-65338095D01*
X117261905Y-65385714D01*
X117071429Y-65433333D01*
X116833333Y-65433333D01*
X116642857Y-65385714D01*
X116547619Y-65338095D01*
X116500000Y-65290476D01*
X116452381Y-65195238D01*
X116452381Y-64242857D02*
X116452381Y-64147618D01*
X116500000Y-64052380D01*
X116547619Y-64004761D01*
X116642857Y-63957142D01*
X116833333Y-63909523D01*
X117071429Y-63909523D01*
X117261905Y-63957142D01*
X117357143Y-64004761D01*
X117404762Y-64052380D01*
X117452381Y-64147618D01*
X117452381Y-64242857D01*
X117404762Y-64338095D01*
X117357143Y-64385714D01*
X117261905Y-64433333D01*
X117071429Y-64480952D01*
X116833333Y-64480952D01*
X116642857Y-64433333D01*
X116547619Y-64385714D01*
X116500000Y-64338095D01*
X116452381Y-64242857D01*
X117452381Y-63480952D02*
X116452381Y-63480952D01*
X117452381Y-62909523D02*
X116880952Y-63338095D01*
X116452381Y-62909523D02*
X117023810Y-63480952D01*
X155757619Y-67706476D02*
X155710000Y-67658857D01*
X155662381Y-67563619D01*
X155662381Y-67325523D01*
X155710000Y-67230285D01*
X155757619Y-67182666D01*
X155852857Y-67135047D01*
X155948095Y-67135047D01*
X156090952Y-67182666D01*
X156662381Y-67754095D01*
X156662381Y-67135047D01*
X156614762Y-66754095D02*
X156662381Y-66611238D01*
X156662381Y-66373142D01*
X156614762Y-66277904D01*
X156567143Y-66230285D01*
X156471905Y-66182666D01*
X156376667Y-66182666D01*
X156281429Y-66230285D01*
X156233810Y-66277904D01*
X156186190Y-66373142D01*
X156138571Y-66563619D01*
X156090952Y-66658857D01*
X156043333Y-66706476D01*
X155948095Y-66754095D01*
X155852857Y-66754095D01*
X155757619Y-66706476D01*
X155710000Y-66658857D01*
X155662381Y-66563619D01*
X155662381Y-66325523D01*
X155710000Y-66182666D01*
X156138571Y-65420761D02*
X156186190Y-65277904D01*
X156233810Y-65230285D01*
X156329048Y-65182666D01*
X156471905Y-65182666D01*
X156567143Y-65230285D01*
X156614762Y-65277904D01*
X156662381Y-65373142D01*
X156662381Y-65754095D01*
X155662381Y-65754095D01*
X155662381Y-65420761D01*
X155710000Y-65325523D01*
X155757619Y-65277904D01*
X155852857Y-65230285D01*
X155948095Y-65230285D01*
X156043333Y-65277904D01*
X156090952Y-65325523D01*
X156138571Y-65420761D01*
X156138571Y-65754095D01*
X155662381Y-64325523D02*
X155662381Y-64516000D01*
X155710000Y-64611238D01*
X155757619Y-64658857D01*
X155900476Y-64754095D01*
X156090952Y-64801714D01*
X156471905Y-64801714D01*
X156567143Y-64754095D01*
X156614762Y-64706476D01*
X156662381Y-64611238D01*
X156662381Y-64420761D01*
X156614762Y-64325523D01*
X156567143Y-64277904D01*
X156471905Y-64230285D01*
X156233810Y-64230285D01*
X156138571Y-64277904D01*
X156090952Y-64325523D01*
X156043333Y-64420761D01*
X156043333Y-64611238D01*
X156090952Y-64706476D01*
X156138571Y-64754095D01*
X156233810Y-64801714D01*
X155662381Y-63896952D02*
X155662381Y-63277904D01*
X156043333Y-63611238D01*
X156043333Y-63468380D01*
X156090952Y-63373142D01*
X156138571Y-63325523D01*
X156233810Y-63277904D01*
X156471905Y-63277904D01*
X156567143Y-63325523D01*
X156614762Y-63373142D01*
X156662381Y-63468380D01*
X156662381Y-63754095D01*
X156614762Y-63849333D01*
X156567143Y-63896952D01*
X156662381Y-62325523D02*
X156662381Y-62896952D01*
X156662381Y-62611238D02*
X155662381Y-62611238D01*
X155805238Y-62706476D01*
X155900476Y-62801714D01*
X155948095Y-62896952D01*
X156662381Y-61896952D02*
X155662381Y-61896952D01*
X156662381Y-61325523D02*
X156090952Y-61754095D01*
X155662381Y-61325523D02*
X156233810Y-61896952D01*
X116883333Y-57847619D02*
X116930952Y-57800000D01*
X117026190Y-57752381D01*
X117264286Y-57752381D01*
X117359524Y-57800000D01*
X117407143Y-57847619D01*
X117454762Y-57942857D01*
X117454762Y-58038095D01*
X117407143Y-58180952D01*
X116835714Y-58752381D01*
X117454762Y-58752381D01*
X117835714Y-58704762D02*
X117978571Y-58752381D01*
X118216667Y-58752381D01*
X118311905Y-58704762D01*
X118359524Y-58657143D01*
X118407143Y-58561905D01*
X118407143Y-58466667D01*
X118359524Y-58371429D01*
X118311905Y-58323810D01*
X118216667Y-58276190D01*
X118026190Y-58228571D01*
X117930952Y-58180952D01*
X117883333Y-58133333D01*
X117835714Y-58038095D01*
X117835714Y-57942857D01*
X117883333Y-57847619D01*
X117930952Y-57800000D01*
X118026190Y-57752381D01*
X118264286Y-57752381D01*
X118407143Y-57800000D01*
X118835714Y-58752381D02*
X118835714Y-57752381D01*
X119073809Y-57752381D01*
X119216667Y-57800000D01*
X119311905Y-57895238D01*
X119359524Y-57990476D01*
X119407143Y-58180952D01*
X119407143Y-58323810D01*
X119359524Y-58514286D01*
X119311905Y-58609524D01*
X119216667Y-58704762D01*
X119073809Y-58752381D01*
X118835714Y-58752381D01*
X120359524Y-58752381D02*
X119788095Y-58752381D01*
X120073809Y-58752381D02*
X120073809Y-57752381D01*
X119978571Y-57895238D01*
X119883333Y-57990476D01*
X119788095Y-58038095D01*
X120978571Y-57752381D02*
X121073810Y-57752381D01*
X121169048Y-57800000D01*
X121216667Y-57847619D01*
X121264286Y-57942857D01*
X121311905Y-58133333D01*
X121311905Y-58371429D01*
X121264286Y-58561905D01*
X121216667Y-58657143D01*
X121169048Y-58704762D01*
X121073810Y-58752381D01*
X120978571Y-58752381D01*
X120883333Y-58704762D01*
X120835714Y-58657143D01*
X120788095Y-58561905D01*
X120740476Y-58371429D01*
X120740476Y-58133333D01*
X120788095Y-57942857D01*
X120835714Y-57847619D01*
X120883333Y-57800000D01*
X120978571Y-57752381D01*
X122169048Y-58085714D02*
X122169048Y-58752381D01*
X121930952Y-57704762D02*
X121692857Y-58419048D01*
X122311905Y-58419048D01*
X122597619Y-57752381D02*
X123264286Y-57752381D01*
X122835714Y-58752381D01*
X156884524Y-57897619D02*
X156932143Y-57850000D01*
X157027381Y-57802381D01*
X157265477Y-57802381D01*
X157360715Y-57850000D01*
X157408334Y-57897619D01*
X157455953Y-57992857D01*
X157455953Y-58088095D01*
X157408334Y-58230952D01*
X156836905Y-58802381D01*
X157455953Y-58802381D01*
X157836905Y-58754762D02*
X157979762Y-58802381D01*
X158217858Y-58802381D01*
X158313096Y-58754762D01*
X158360715Y-58707143D01*
X158408334Y-58611905D01*
X158408334Y-58516667D01*
X158360715Y-58421429D01*
X158313096Y-58373810D01*
X158217858Y-58326190D01*
X158027381Y-58278571D01*
X157932143Y-58230952D01*
X157884524Y-58183333D01*
X157836905Y-58088095D01*
X157836905Y-57992857D01*
X157884524Y-57897619D01*
X157932143Y-57850000D01*
X158027381Y-57802381D01*
X158265477Y-57802381D01*
X158408334Y-57850000D01*
X159170239Y-58278571D02*
X159313096Y-58326190D01*
X159360715Y-58373810D01*
X159408334Y-58469048D01*
X159408334Y-58611905D01*
X159360715Y-58707143D01*
X159313096Y-58754762D01*
X159217858Y-58802381D01*
X158836905Y-58802381D01*
X158836905Y-57802381D01*
X159170239Y-57802381D01*
X159265477Y-57850000D01*
X159313096Y-57897619D01*
X159360715Y-57992857D01*
X159360715Y-58088095D01*
X159313096Y-58183333D01*
X159265477Y-58230952D01*
X159170239Y-58278571D01*
X158836905Y-58278571D01*
X159979762Y-58230952D02*
X159884524Y-58183333D01*
X159836905Y-58135714D01*
X159789286Y-58040476D01*
X159789286Y-57992857D01*
X159836905Y-57897619D01*
X159884524Y-57850000D01*
X159979762Y-57802381D01*
X160170239Y-57802381D01*
X160265477Y-57850000D01*
X160313096Y-57897619D01*
X160360715Y-57992857D01*
X160360715Y-58040476D01*
X160313096Y-58135714D01*
X160265477Y-58183333D01*
X160170239Y-58230952D01*
X159979762Y-58230952D01*
X159884524Y-58278571D01*
X159836905Y-58326190D01*
X159789286Y-58421429D01*
X159789286Y-58611905D01*
X159836905Y-58707143D01*
X159884524Y-58754762D01*
X159979762Y-58802381D01*
X160170239Y-58802381D01*
X160265477Y-58754762D01*
X160313096Y-58707143D01*
X160360715Y-58611905D01*
X160360715Y-58421429D01*
X160313096Y-58326190D01*
X160265477Y-58278571D01*
X160170239Y-58230952D01*
X161313096Y-58802381D02*
X160741667Y-58802381D01*
X161027381Y-58802381D02*
X161027381Y-57802381D01*
X160932143Y-57945238D01*
X160836905Y-58040476D01*
X160741667Y-58088095D01*
X161646429Y-57802381D02*
X162313096Y-57802381D01*
X161884524Y-58802381D01*
X166760714Y-104611904D02*
X167427381Y-104611904D01*
X166379762Y-104850000D02*
X167094048Y-105088095D01*
X167094048Y-104469047D01*
X166427381Y-104183333D02*
X166427381Y-103516666D01*
X167427381Y-103945238D01*
X166427381Y-102945238D02*
X166427381Y-102849999D01*
X166475000Y-102754761D01*
X166522619Y-102707142D01*
X166617857Y-102659523D01*
X166808333Y-102611904D01*
X167046429Y-102611904D01*
X167236905Y-102659523D01*
X167332143Y-102707142D01*
X167379762Y-102754761D01*
X167427381Y-102849999D01*
X167427381Y-102945238D01*
X167379762Y-103040476D01*
X167332143Y-103088095D01*
X167236905Y-103135714D01*
X167046429Y-103183333D01*
X166808333Y-103183333D01*
X166617857Y-103135714D01*
X166522619Y-103088095D01*
X166475000Y-103040476D01*
X166427381Y-102945238D01*
X161860715Y-95427381D02*
X161384524Y-95427381D01*
X161336905Y-95903571D01*
X161384524Y-95855952D01*
X161479762Y-95808333D01*
X161717858Y-95808333D01*
X161813096Y-95855952D01*
X161860715Y-95903571D01*
X161908334Y-95998810D01*
X161908334Y-96236905D01*
X161860715Y-96332143D01*
X161813096Y-96379762D01*
X161717858Y-96427381D01*
X161479762Y-96427381D01*
X161384524Y-96379762D01*
X161336905Y-96332143D01*
X162765477Y-95427381D02*
X162575000Y-95427381D01*
X162479762Y-95475000D01*
X162432143Y-95522619D01*
X162336905Y-95665476D01*
X162289286Y-95855952D01*
X162289286Y-96236905D01*
X162336905Y-96332143D01*
X162384524Y-96379762D01*
X162479762Y-96427381D01*
X162670239Y-96427381D01*
X162765477Y-96379762D01*
X162813096Y-96332143D01*
X162860715Y-96236905D01*
X162860715Y-95998810D01*
X162813096Y-95903571D01*
X162765477Y-95855952D01*
X162670239Y-95808333D01*
X162479762Y-95808333D01*
X162384524Y-95855952D01*
X162336905Y-95903571D01*
X162289286Y-95998810D01*
X163479762Y-95427381D02*
X163575001Y-95427381D01*
X163670239Y-95475000D01*
X163717858Y-95522619D01*
X163765477Y-95617857D01*
X163813096Y-95808333D01*
X163813096Y-96046429D01*
X163765477Y-96236905D01*
X163717858Y-96332143D01*
X163670239Y-96379762D01*
X163575001Y-96427381D01*
X163479762Y-96427381D01*
X163384524Y-96379762D01*
X163336905Y-96332143D01*
X163289286Y-96236905D01*
X163241667Y-96046429D01*
X163241667Y-95808333D01*
X163289286Y-95617857D01*
X163336905Y-95522619D01*
X163384524Y-95475000D01*
X163479762Y-95427381D01*
X158085714Y-104515476D02*
X158752381Y-104515476D01*
X157704762Y-104753572D02*
X158419048Y-104991667D01*
X158419048Y-104372619D01*
X157752381Y-104086905D02*
X157752381Y-103420238D01*
X158752381Y-103848810D01*
X158752381Y-103039286D02*
X157752381Y-103039286D01*
X158371429Y-102944048D02*
X158752381Y-102658333D01*
X158085714Y-102658333D02*
X158466667Y-103039286D01*
X142229762Y-111802381D02*
X141658333Y-111802381D01*
X141944047Y-111802381D02*
X141944047Y-110802381D01*
X141848809Y-110945238D01*
X141753571Y-111040476D01*
X141658333Y-111088095D01*
X142658333Y-111802381D02*
X142658333Y-110802381D01*
X142753571Y-111421429D02*
X143039286Y-111802381D01*
X143039286Y-111135714D02*
X142658333Y-111516667D01*
X143944048Y-110802381D02*
X143467857Y-110802381D01*
X143420238Y-111278571D01*
X143467857Y-111230952D01*
X143563095Y-111183333D01*
X143801191Y-111183333D01*
X143896429Y-111230952D01*
X143944048Y-111278571D01*
X143991667Y-111373810D01*
X143991667Y-111611905D01*
X143944048Y-111707143D01*
X143896429Y-111754762D01*
X143801191Y-111802381D01*
X143563095Y-111802381D01*
X143467857Y-111754762D01*
X143420238Y-111707143D01*
X126913096Y-107310714D02*
X126913096Y-107977381D01*
X126675000Y-106929762D02*
X126436905Y-107644048D01*
X127055953Y-107644048D01*
X127341667Y-106977381D02*
X128008334Y-106977381D01*
X127579762Y-107977381D01*
X128579762Y-106977381D02*
X128675001Y-106977381D01*
X128770239Y-107025000D01*
X128817858Y-107072619D01*
X128865477Y-107167857D01*
X128913096Y-107358333D01*
X128913096Y-107596429D01*
X128865477Y-107786905D01*
X128817858Y-107882143D01*
X128770239Y-107929762D01*
X128675001Y-107977381D01*
X128579762Y-107977381D01*
X128484524Y-107929762D01*
X128436905Y-107882143D01*
X128389286Y-107786905D01*
X128341667Y-107596429D01*
X128341667Y-107358333D01*
X128389286Y-107167857D01*
X128436905Y-107072619D01*
X128484524Y-107025000D01*
X128579762Y-106977381D01*
X133914286Y-101052381D02*
X134533334Y-101052381D01*
X134200000Y-101433333D01*
X134342858Y-101433333D01*
X134438096Y-101480952D01*
X134485715Y-101528571D01*
X134533334Y-101623810D01*
X134533334Y-101861905D01*
X134485715Y-101957143D01*
X134438096Y-102004762D01*
X134342858Y-102052381D01*
X134057143Y-102052381D01*
X133961905Y-102004762D01*
X133914286Y-101957143D01*
X134866667Y-101052381D02*
X135485715Y-101052381D01*
X135152381Y-101433333D01*
X135295239Y-101433333D01*
X135390477Y-101480952D01*
X135438096Y-101528571D01*
X135485715Y-101623810D01*
X135485715Y-101861905D01*
X135438096Y-101957143D01*
X135390477Y-102004762D01*
X135295239Y-102052381D01*
X135009524Y-102052381D01*
X134914286Y-102004762D01*
X134866667Y-101957143D01*
X136104762Y-101052381D02*
X136200001Y-101052381D01*
X136295239Y-101100000D01*
X136342858Y-101147619D01*
X136390477Y-101242857D01*
X136438096Y-101433333D01*
X136438096Y-101671429D01*
X136390477Y-101861905D01*
X136342858Y-101957143D01*
X136295239Y-102004762D01*
X136200001Y-102052381D01*
X136104762Y-102052381D01*
X136009524Y-102004762D01*
X135961905Y-101957143D01*
X135914286Y-101861905D01*
X135866667Y-101671429D01*
X135866667Y-101433333D01*
X135914286Y-101242857D01*
X135961905Y-101147619D01*
X136009524Y-101100000D01*
X136104762Y-101052381D01*
X119959524Y-92802381D02*
X119769047Y-92802381D01*
X119673809Y-92850000D01*
X119626190Y-92897619D01*
X119530952Y-93040476D01*
X119483333Y-93230952D01*
X119483333Y-93611905D01*
X119530952Y-93707143D01*
X119578571Y-93754762D01*
X119673809Y-93802381D01*
X119864286Y-93802381D01*
X119959524Y-93754762D01*
X120007143Y-93707143D01*
X120054762Y-93611905D01*
X120054762Y-93373810D01*
X120007143Y-93278571D01*
X119959524Y-93230952D01*
X119864286Y-93183333D01*
X119673809Y-93183333D01*
X119578571Y-93230952D01*
X119530952Y-93278571D01*
X119483333Y-93373810D01*
X120483333Y-93802381D02*
X120483333Y-92802381D01*
X120578571Y-93421429D02*
X120864286Y-93802381D01*
X120864286Y-93135714D02*
X120483333Y-93516667D01*
X121435714Y-93230952D02*
X121340476Y-93183333D01*
X121292857Y-93135714D01*
X121245238Y-93040476D01*
X121245238Y-92992857D01*
X121292857Y-92897619D01*
X121340476Y-92850000D01*
X121435714Y-92802381D01*
X121626191Y-92802381D01*
X121721429Y-92850000D01*
X121769048Y-92897619D01*
X121816667Y-92992857D01*
X121816667Y-93040476D01*
X121769048Y-93135714D01*
X121721429Y-93183333D01*
X121626191Y-93230952D01*
X121435714Y-93230952D01*
X121340476Y-93278571D01*
X121292857Y-93326190D01*
X121245238Y-93421429D01*
X121245238Y-93611905D01*
X121292857Y-93707143D01*
X121340476Y-93754762D01*
X121435714Y-93802381D01*
X121626191Y-93802381D01*
X121721429Y-93754762D01*
X121769048Y-93707143D01*
X121816667Y-93611905D01*
X121816667Y-93421429D01*
X121769048Y-93326190D01*
X121721429Y-93278571D01*
X121626191Y-93230952D01*
X140160714Y-91410714D02*
X140827381Y-91410714D01*
X139779762Y-91648810D02*
X140494048Y-91886905D01*
X140494048Y-91267857D01*
X139827381Y-90982143D02*
X139827381Y-90315476D01*
X140827381Y-90744048D01*
X127952381Y-84970238D02*
X127952381Y-85541667D01*
X127952381Y-85255953D02*
X126952381Y-85255953D01*
X127095238Y-85351191D01*
X127190476Y-85446429D01*
X127238095Y-85541667D01*
X126952381Y-84351191D02*
X126952381Y-84255952D01*
X127000000Y-84160714D01*
X127047619Y-84113095D01*
X127142857Y-84065476D01*
X127333333Y-84017857D01*
X127571429Y-84017857D01*
X127761905Y-84065476D01*
X127857143Y-84113095D01*
X127904762Y-84160714D01*
X127952381Y-84255952D01*
X127952381Y-84351191D01*
X127904762Y-84446429D01*
X127857143Y-84494048D01*
X127761905Y-84541667D01*
X127571429Y-84589286D01*
X127333333Y-84589286D01*
X127142857Y-84541667D01*
X127047619Y-84494048D01*
X127000000Y-84446429D01*
X126952381Y-84351191D01*
X127952381Y-83589286D02*
X126952381Y-83589286D01*
X127571429Y-83494048D02*
X127952381Y-83208333D01*
X127285714Y-83208333D02*
X127666667Y-83589286D01*
X143459524Y-57952381D02*
X143269047Y-57952381D01*
X143173809Y-58000000D01*
X143126190Y-58047619D01*
X143030952Y-58190476D01*
X142983333Y-58380952D01*
X142983333Y-58761905D01*
X143030952Y-58857143D01*
X143078571Y-58904762D01*
X143173809Y-58952381D01*
X143364286Y-58952381D01*
X143459524Y-58904762D01*
X143507143Y-58857143D01*
X143554762Y-58761905D01*
X143554762Y-58523810D01*
X143507143Y-58428571D01*
X143459524Y-58380952D01*
X143364286Y-58333333D01*
X143173809Y-58333333D01*
X143078571Y-58380952D01*
X143030952Y-58428571D01*
X142983333Y-58523810D01*
X143983333Y-58952381D02*
X143983333Y-57952381D01*
X144078571Y-58571429D02*
X144364286Y-58952381D01*
X144364286Y-58285714D02*
X143983333Y-58666667D01*
X144935714Y-58380952D02*
X144840476Y-58333333D01*
X144792857Y-58285714D01*
X144745238Y-58190476D01*
X144745238Y-58142857D01*
X144792857Y-58047619D01*
X144840476Y-58000000D01*
X144935714Y-57952381D01*
X145126191Y-57952381D01*
X145221429Y-58000000D01*
X145269048Y-58047619D01*
X145316667Y-58142857D01*
X145316667Y-58190476D01*
X145269048Y-58285714D01*
X145221429Y-58333333D01*
X145126191Y-58380952D01*
X144935714Y-58380952D01*
X144840476Y-58428571D01*
X144792857Y-58476190D01*
X144745238Y-58571429D01*
X144745238Y-58761905D01*
X144792857Y-58857143D01*
X144840476Y-58904762D01*
X144935714Y-58952381D01*
X145126191Y-58952381D01*
X145221429Y-58904762D01*
X145269048Y-58857143D01*
X145316667Y-58761905D01*
X145316667Y-58571429D01*
X145269048Y-58476190D01*
X145221429Y-58428571D01*
X145126191Y-58380952D01*
X149865619Y-68567667D02*
X149818000Y-68520048D01*
X149770381Y-68424810D01*
X149770381Y-68186714D01*
X149818000Y-68091476D01*
X149865619Y-68043857D01*
X149960857Y-67996238D01*
X150056095Y-67996238D01*
X150198952Y-68043857D01*
X150770381Y-68615286D01*
X150770381Y-67996238D01*
X150770381Y-67567667D02*
X149770381Y-67567667D01*
X150389429Y-67472429D02*
X150770381Y-67186714D01*
X150103714Y-67186714D02*
X150484667Y-67567667D01*
X149865619Y-66805762D02*
X149818000Y-66758143D01*
X149770381Y-66662905D01*
X149770381Y-66424809D01*
X149818000Y-66329571D01*
X149865619Y-66281952D01*
X149960857Y-66234333D01*
X150056095Y-66234333D01*
X150198952Y-66281952D01*
X150770381Y-66853381D01*
X150770381Y-66234333D01*
X160552381Y-87414286D02*
X160552381Y-86795238D01*
X160933333Y-87128572D01*
X160933333Y-86985714D01*
X160980952Y-86890476D01*
X161028571Y-86842857D01*
X161123810Y-86795238D01*
X161361905Y-86795238D01*
X161457143Y-86842857D01*
X161504762Y-86890476D01*
X161552381Y-86985714D01*
X161552381Y-87271429D01*
X161504762Y-87366667D01*
X161457143Y-87414286D01*
X160552381Y-86461905D02*
X160552381Y-85842857D01*
X160933333Y-86176191D01*
X160933333Y-86033333D01*
X160980952Y-85938095D01*
X161028571Y-85890476D01*
X161123810Y-85842857D01*
X161361905Y-85842857D01*
X161457143Y-85890476D01*
X161504762Y-85938095D01*
X161552381Y-86033333D01*
X161552381Y-86319048D01*
X161504762Y-86414286D01*
X161457143Y-86461905D01*
X161552381Y-85414286D02*
X160552381Y-85414286D01*
X161171429Y-85319048D02*
X161552381Y-85033333D01*
X160885714Y-85033333D02*
X161266667Y-85414286D01*
X124622619Y-66188095D02*
X124575000Y-66140476D01*
X124527381Y-66045238D01*
X124527381Y-65807142D01*
X124575000Y-65711904D01*
X124622619Y-65664285D01*
X124717857Y-65616666D01*
X124813095Y-65616666D01*
X124955952Y-65664285D01*
X125527381Y-66235714D01*
X125527381Y-65616666D01*
X124622619Y-65235714D02*
X124575000Y-65188095D01*
X124527381Y-65092857D01*
X124527381Y-64854761D01*
X124575000Y-64759523D01*
X124622619Y-64711904D01*
X124717857Y-64664285D01*
X124813095Y-64664285D01*
X124955952Y-64711904D01*
X125527381Y-65283333D01*
X125527381Y-64664285D01*
X124527381Y-64045238D02*
X124527381Y-63949999D01*
X124575000Y-63854761D01*
X124622619Y-63807142D01*
X124717857Y-63759523D01*
X124908333Y-63711904D01*
X125146429Y-63711904D01*
X125336905Y-63759523D01*
X125432143Y-63807142D01*
X125479762Y-63854761D01*
X125527381Y-63949999D01*
X125527381Y-64045238D01*
X125479762Y-64140476D01*
X125432143Y-64188095D01*
X125336905Y-64235714D01*
X125146429Y-64283333D01*
X124908333Y-64283333D01*
X124717857Y-64235714D01*
X124622619Y-64188095D01*
X124575000Y-64140476D01*
X124527381Y-64045238D01*
X163631619Y-65754095D02*
X163584000Y-65706476D01*
X163536381Y-65611238D01*
X163536381Y-65373142D01*
X163584000Y-65277904D01*
X163631619Y-65230285D01*
X163726857Y-65182666D01*
X163822095Y-65182666D01*
X163964952Y-65230285D01*
X164536381Y-65801714D01*
X164536381Y-65182666D01*
X163631619Y-64801714D02*
X163584000Y-64754095D01*
X163536381Y-64658857D01*
X163536381Y-64420761D01*
X163584000Y-64325523D01*
X163631619Y-64277904D01*
X163726857Y-64230285D01*
X163822095Y-64230285D01*
X163964952Y-64277904D01*
X164536381Y-64849333D01*
X164536381Y-64230285D01*
X163536381Y-63611238D02*
X163536381Y-63515999D01*
X163584000Y-63420761D01*
X163631619Y-63373142D01*
X163726857Y-63325523D01*
X163917333Y-63277904D01*
X164155429Y-63277904D01*
X164345905Y-63325523D01*
X164441143Y-63373142D01*
X164488762Y-63420761D01*
X164536381Y-63515999D01*
X164536381Y-63611238D01*
X164488762Y-63706476D01*
X164441143Y-63754095D01*
X164345905Y-63801714D01*
X164155429Y-63849333D01*
X163917333Y-63849333D01*
X163726857Y-63801714D01*
X163631619Y-63754095D01*
X163584000Y-63706476D01*
X163536381Y-63611238D01*
X128127381Y-62575000D02*
X128127381Y-62479761D01*
X128175000Y-62384523D01*
X128222619Y-62336904D01*
X128317857Y-62289285D01*
X128508333Y-62241666D01*
X128746429Y-62241666D01*
X128936905Y-62289285D01*
X129032143Y-62336904D01*
X129079762Y-62384523D01*
X129127381Y-62479761D01*
X129127381Y-62575000D01*
X129079762Y-62670238D01*
X129032143Y-62717857D01*
X128936905Y-62765476D01*
X128746429Y-62813095D01*
X128508333Y-62813095D01*
X128317857Y-62765476D01*
X128222619Y-62717857D01*
X128175000Y-62670238D01*
X128127381Y-62575000D01*
X129127381Y-61241666D02*
X128651190Y-61575000D01*
X129127381Y-61813095D02*
X128127381Y-61813095D01*
X128127381Y-61432142D01*
X128175000Y-61336904D01*
X128222619Y-61289285D01*
X128317857Y-61241666D01*
X128460714Y-61241666D01*
X128555952Y-61289285D01*
X128603571Y-61336904D01*
X128651190Y-61432142D01*
X128651190Y-61813095D01*
X128222619Y-60860714D02*
X128175000Y-60813095D01*
X128127381Y-60717857D01*
X128127381Y-60479761D01*
X128175000Y-60384523D01*
X128222619Y-60336904D01*
X128317857Y-60289285D01*
X128413095Y-60289285D01*
X128555952Y-60336904D01*
X129127381Y-60908333D01*
X129127381Y-60289285D01*
X128222619Y-59908333D02*
X128175000Y-59860714D01*
X128127381Y-59765476D01*
X128127381Y-59527380D01*
X128175000Y-59432142D01*
X128222619Y-59384523D01*
X128317857Y-59336904D01*
X128413095Y-59336904D01*
X128555952Y-59384523D01*
X129127381Y-59955952D01*
X129127381Y-59336904D01*
X174102381Y-63725000D02*
X174102381Y-63629761D01*
X174150000Y-63534523D01*
X174197619Y-63486904D01*
X174292857Y-63439285D01*
X174483333Y-63391666D01*
X174721429Y-63391666D01*
X174911905Y-63439285D01*
X175007143Y-63486904D01*
X175054762Y-63534523D01*
X175102381Y-63629761D01*
X175102381Y-63725000D01*
X175054762Y-63820238D01*
X175007143Y-63867857D01*
X174911905Y-63915476D01*
X174721429Y-63963095D01*
X174483333Y-63963095D01*
X174292857Y-63915476D01*
X174197619Y-63867857D01*
X174150000Y-63820238D01*
X174102381Y-63725000D01*
X175102381Y-62391666D02*
X174626190Y-62725000D01*
X175102381Y-62963095D02*
X174102381Y-62963095D01*
X174102381Y-62582142D01*
X174150000Y-62486904D01*
X174197619Y-62439285D01*
X174292857Y-62391666D01*
X174435714Y-62391666D01*
X174530952Y-62439285D01*
X174578571Y-62486904D01*
X174626190Y-62582142D01*
X174626190Y-62963095D01*
X174197619Y-62010714D02*
X174150000Y-61963095D01*
X174102381Y-61867857D01*
X174102381Y-61629761D01*
X174150000Y-61534523D01*
X174197619Y-61486904D01*
X174292857Y-61439285D01*
X174388095Y-61439285D01*
X174530952Y-61486904D01*
X175102381Y-62058333D01*
X175102381Y-61439285D01*
X174197619Y-61058333D02*
X174150000Y-61010714D01*
X174102381Y-60915476D01*
X174102381Y-60677380D01*
X174150000Y-60582142D01*
X174197619Y-60534523D01*
X174292857Y-60486904D01*
X174388095Y-60486904D01*
X174530952Y-60534523D01*
X175102381Y-61105952D01*
X175102381Y-60486904D01*
X132602381Y-92464286D02*
X132602381Y-91845238D01*
X132983333Y-92178572D01*
X132983333Y-92035714D01*
X133030952Y-91940476D01*
X133078571Y-91892857D01*
X133173810Y-91845238D01*
X133411905Y-91845238D01*
X133507143Y-91892857D01*
X133554762Y-91940476D01*
X133602381Y-92035714D01*
X133602381Y-92321429D01*
X133554762Y-92416667D01*
X133507143Y-92464286D01*
X132602381Y-91511905D02*
X132602381Y-90892857D01*
X132983333Y-91226191D01*
X132983333Y-91083333D01*
X133030952Y-90988095D01*
X133078571Y-90940476D01*
X133173810Y-90892857D01*
X133411905Y-90892857D01*
X133507143Y-90940476D01*
X133554762Y-90988095D01*
X133602381Y-91083333D01*
X133602381Y-91369048D01*
X133554762Y-91464286D01*
X133507143Y-91511905D01*
X133602381Y-90464286D02*
X132602381Y-90464286D01*
X133221429Y-90369048D02*
X133602381Y-90083333D01*
X132935714Y-90083333D02*
X133316667Y-90464286D01*
X137027381Y-91770238D02*
X137027381Y-92341667D01*
X137027381Y-92055953D02*
X136027381Y-92055953D01*
X136170238Y-92151191D01*
X136265476Y-92246429D01*
X136313095Y-92341667D01*
X136122619Y-91389286D02*
X136075000Y-91341667D01*
X136027381Y-91246429D01*
X136027381Y-91008333D01*
X136075000Y-90913095D01*
X136122619Y-90865476D01*
X136217857Y-90817857D01*
X136313095Y-90817857D01*
X136455952Y-90865476D01*
X137027381Y-91436905D01*
X137027381Y-90817857D01*
X137027381Y-90389286D02*
X136027381Y-90389286D01*
X136646429Y-90294048D02*
X137027381Y-90008333D01*
X136360714Y-90008333D02*
X136741667Y-90389286D01*
X165502381Y-85375000D02*
X165502381Y-85946429D01*
X165502381Y-85660715D02*
X164502381Y-85660715D01*
X164645238Y-85755953D01*
X164740476Y-85851191D01*
X164788095Y-85946429D01*
X164502381Y-84755953D02*
X164502381Y-84660714D01*
X164550000Y-84565476D01*
X164597619Y-84517857D01*
X164692857Y-84470238D01*
X164883333Y-84422619D01*
X165121429Y-84422619D01*
X165311905Y-84470238D01*
X165407143Y-84517857D01*
X165454762Y-84565476D01*
X165502381Y-84660714D01*
X165502381Y-84755953D01*
X165454762Y-84851191D01*
X165407143Y-84898810D01*
X165311905Y-84946429D01*
X165121429Y-84994048D01*
X164883333Y-84994048D01*
X164692857Y-84946429D01*
X164597619Y-84898810D01*
X164550000Y-84851191D01*
X164502381Y-84755953D01*
X165597619Y-83470238D02*
X165597619Y-82708333D01*
X165502381Y-81946428D02*
X165502381Y-82517857D01*
X165502381Y-82232143D02*
X164502381Y-82232143D01*
X164645238Y-82327381D01*
X164740476Y-82422619D01*
X164788095Y-82517857D01*
X164502381Y-81613095D02*
X165502381Y-81375000D01*
X164788095Y-81184523D01*
X165502381Y-80994047D01*
X164502381Y-80755952D01*
X143585714Y-93261904D02*
X144252381Y-93261904D01*
X143204762Y-93500000D02*
X143919048Y-93738095D01*
X143919048Y-93119047D01*
X143252381Y-92833333D02*
X143252381Y-92166666D01*
X144252381Y-92595238D01*
X143252381Y-91595238D02*
X143252381Y-91499999D01*
X143300000Y-91404761D01*
X143347619Y-91357142D01*
X143442857Y-91309523D01*
X143633333Y-91261904D01*
X143871429Y-91261904D01*
X144061905Y-91309523D01*
X144157143Y-91357142D01*
X144204762Y-91404761D01*
X144252381Y-91499999D01*
X144252381Y-91595238D01*
X144204762Y-91690476D01*
X144157143Y-91738095D01*
X144061905Y-91785714D01*
X143871429Y-91833333D01*
X143633333Y-91833333D01*
X143442857Y-91785714D01*
X143347619Y-91738095D01*
X143300000Y-91690476D01*
X143252381Y-91595238D01*
X141415333Y-108942668D02*
X141382000Y-108909334D01*
X141348667Y-108842668D01*
X141348667Y-108676001D01*
X141382000Y-108609334D01*
X141415333Y-108576001D01*
X141482000Y-108542668D01*
X141548667Y-108542668D01*
X141648667Y-108576001D01*
X142048667Y-108976001D01*
X142048667Y-108542668D01*
X142015333Y-108276001D02*
X142048667Y-108176001D01*
X142048667Y-108009334D01*
X142015333Y-107942667D01*
X141982000Y-107909334D01*
X141915333Y-107876001D01*
X141848667Y-107876001D01*
X141782000Y-107909334D01*
X141748667Y-107942667D01*
X141715333Y-108009334D01*
X141682000Y-108142667D01*
X141648667Y-108209334D01*
X141615333Y-108242667D01*
X141548667Y-108276001D01*
X141482000Y-108276001D01*
X141415333Y-108242667D01*
X141382000Y-108209334D01*
X141348667Y-108142667D01*
X141348667Y-107976001D01*
X141382000Y-107876001D01*
X141848667Y-107609334D02*
X141848667Y-107276000D01*
X142048667Y-107676000D02*
X141348667Y-107442667D01*
X142048667Y-107209334D01*
X142048667Y-106609334D02*
X142048667Y-107009334D01*
X142048667Y-106809334D02*
X141348667Y-106809334D01*
X141448667Y-106876000D01*
X141515333Y-106942667D01*
X141548667Y-107009334D01*
X141348667Y-106176000D02*
X141348667Y-106109333D01*
X141382000Y-106042667D01*
X141415333Y-106009333D01*
X141482000Y-105976000D01*
X141615333Y-105942667D01*
X141782000Y-105942667D01*
X141915333Y-105976000D01*
X141982000Y-106009333D01*
X142015333Y-106042667D01*
X142048667Y-106109333D01*
X142048667Y-106176000D01*
X142015333Y-106242667D01*
X141982000Y-106276000D01*
X141915333Y-106309333D01*
X141782000Y-106342667D01*
X141615333Y-106342667D01*
X141482000Y-106309333D01*
X141415333Y-106276000D01*
X141382000Y-106242667D01*
X141348667Y-106176000D01*
X142048667Y-105276000D02*
X142048667Y-105676000D01*
X142048667Y-105476000D02*
X141348667Y-105476000D01*
X141448667Y-105542666D01*
X141515333Y-105609333D01*
X141548667Y-105676000D01*
X141348667Y-104675999D02*
X141348667Y-104809333D01*
X141382000Y-104875999D01*
X141415333Y-104909333D01*
X141515333Y-104975999D01*
X141648667Y-105009333D01*
X141915333Y-105009333D01*
X141982000Y-104975999D01*
X142015333Y-104942666D01*
X142048667Y-104875999D01*
X142048667Y-104742666D01*
X142015333Y-104675999D01*
X141982000Y-104642666D01*
X141915333Y-104609333D01*
X141748667Y-104609333D01*
X141682000Y-104642666D01*
X141648667Y-104675999D01*
X141615333Y-104742666D01*
X141615333Y-104875999D01*
X141648667Y-104942666D01*
X141682000Y-104975999D01*
X141748667Y-105009333D01*
X142048667Y-104309332D02*
X141348667Y-104309332D01*
X142048667Y-103909332D02*
X141648667Y-104209332D01*
X141348667Y-103909332D02*
X141748667Y-104309332D01*
X121603333Y-105132668D02*
X121570000Y-105099334D01*
X121536667Y-105032668D01*
X121536667Y-104866001D01*
X121570000Y-104799334D01*
X121603333Y-104766001D01*
X121670000Y-104732668D01*
X121736667Y-104732668D01*
X121836667Y-104766001D01*
X122236667Y-105166001D01*
X122236667Y-104732668D01*
X122203333Y-104466001D02*
X122236667Y-104366001D01*
X122236667Y-104199334D01*
X122203333Y-104132667D01*
X122170000Y-104099334D01*
X122103333Y-104066001D01*
X122036667Y-104066001D01*
X121970000Y-104099334D01*
X121936667Y-104132667D01*
X121903333Y-104199334D01*
X121870000Y-104332667D01*
X121836667Y-104399334D01*
X121803333Y-104432667D01*
X121736667Y-104466001D01*
X121670000Y-104466001D01*
X121603333Y-104432667D01*
X121570000Y-104399334D01*
X121536667Y-104332667D01*
X121536667Y-104166001D01*
X121570000Y-104066001D01*
X122036667Y-103799334D02*
X122036667Y-103466000D01*
X122236667Y-103866000D02*
X121536667Y-103632667D01*
X122236667Y-103399334D01*
X122236667Y-102799334D02*
X122236667Y-103199334D01*
X122236667Y-102999334D02*
X121536667Y-102999334D01*
X121636667Y-103066000D01*
X121703333Y-103132667D01*
X121736667Y-103199334D01*
X121536667Y-102366000D02*
X121536667Y-102299333D01*
X121570000Y-102232667D01*
X121603333Y-102199333D01*
X121670000Y-102166000D01*
X121803333Y-102132667D01*
X121970000Y-102132667D01*
X122103333Y-102166000D01*
X122170000Y-102199333D01*
X122203333Y-102232667D01*
X122236667Y-102299333D01*
X122236667Y-102366000D01*
X122203333Y-102432667D01*
X122170000Y-102466000D01*
X122103333Y-102499333D01*
X121970000Y-102532667D01*
X121803333Y-102532667D01*
X121670000Y-102499333D01*
X121603333Y-102466000D01*
X121570000Y-102432667D01*
X121536667Y-102366000D01*
X122236667Y-101466000D02*
X122236667Y-101866000D01*
X122236667Y-101666000D02*
X121536667Y-101666000D01*
X121636667Y-101732666D01*
X121703333Y-101799333D01*
X121736667Y-101866000D01*
X121536667Y-100865999D02*
X121536667Y-100999333D01*
X121570000Y-101065999D01*
X121603333Y-101099333D01*
X121703333Y-101165999D01*
X121836667Y-101199333D01*
X122103333Y-101199333D01*
X122170000Y-101165999D01*
X122203333Y-101132666D01*
X122236667Y-101065999D01*
X122236667Y-100932666D01*
X122203333Y-100865999D01*
X122170000Y-100832666D01*
X122103333Y-100799333D01*
X121936667Y-100799333D01*
X121870000Y-100832666D01*
X121836667Y-100865999D01*
X121803333Y-100932666D01*
X121803333Y-101065999D01*
X121836667Y-101132666D01*
X121870000Y-101165999D01*
X121936667Y-101199333D01*
X122236667Y-100499332D02*
X121536667Y-100499332D01*
X122236667Y-100099332D02*
X121836667Y-100399332D01*
X121536667Y-100099332D02*
X121936667Y-100499332D01*
X134049333Y-109196668D02*
X134016000Y-109163334D01*
X133982667Y-109096668D01*
X133982667Y-108930001D01*
X134016000Y-108863334D01*
X134049333Y-108830001D01*
X134116000Y-108796668D01*
X134182667Y-108796668D01*
X134282667Y-108830001D01*
X134682667Y-109230001D01*
X134682667Y-108796668D01*
X134649333Y-108530001D02*
X134682667Y-108430001D01*
X134682667Y-108263334D01*
X134649333Y-108196667D01*
X134616000Y-108163334D01*
X134549333Y-108130001D01*
X134482667Y-108130001D01*
X134416000Y-108163334D01*
X134382667Y-108196667D01*
X134349333Y-108263334D01*
X134316000Y-108396667D01*
X134282667Y-108463334D01*
X134249333Y-108496667D01*
X134182667Y-108530001D01*
X134116000Y-108530001D01*
X134049333Y-108496667D01*
X134016000Y-108463334D01*
X133982667Y-108396667D01*
X133982667Y-108230001D01*
X134016000Y-108130001D01*
X134482667Y-107863334D02*
X134482667Y-107530000D01*
X134682667Y-107930000D02*
X133982667Y-107696667D01*
X134682667Y-107463334D01*
X134682667Y-106863334D02*
X134682667Y-107263334D01*
X134682667Y-107063334D02*
X133982667Y-107063334D01*
X134082667Y-107130000D01*
X134149333Y-107196667D01*
X134182667Y-107263334D01*
X133982667Y-106430000D02*
X133982667Y-106363333D01*
X134016000Y-106296667D01*
X134049333Y-106263333D01*
X134116000Y-106230000D01*
X134249333Y-106196667D01*
X134416000Y-106196667D01*
X134549333Y-106230000D01*
X134616000Y-106263333D01*
X134649333Y-106296667D01*
X134682667Y-106363333D01*
X134682667Y-106430000D01*
X134649333Y-106496667D01*
X134616000Y-106530000D01*
X134549333Y-106563333D01*
X134416000Y-106596667D01*
X134249333Y-106596667D01*
X134116000Y-106563333D01*
X134049333Y-106530000D01*
X134016000Y-106496667D01*
X133982667Y-106430000D01*
X134682667Y-105530000D02*
X134682667Y-105930000D01*
X134682667Y-105730000D02*
X133982667Y-105730000D01*
X134082667Y-105796666D01*
X134149333Y-105863333D01*
X134182667Y-105930000D01*
X133982667Y-104929999D02*
X133982667Y-105063333D01*
X134016000Y-105129999D01*
X134049333Y-105163333D01*
X134149333Y-105229999D01*
X134282667Y-105263333D01*
X134549333Y-105263333D01*
X134616000Y-105229999D01*
X134649333Y-105196666D01*
X134682667Y-105129999D01*
X134682667Y-104996666D01*
X134649333Y-104929999D01*
X134616000Y-104896666D01*
X134549333Y-104863333D01*
X134382667Y-104863333D01*
X134316000Y-104896666D01*
X134282667Y-104929999D01*
X134249333Y-104996666D01*
X134249333Y-105129999D01*
X134282667Y-105196666D01*
X134316000Y-105229999D01*
X134382667Y-105263333D01*
X134682667Y-104563332D02*
X133982667Y-104563332D01*
X134682667Y-104163332D02*
X134282667Y-104463332D01*
X133982667Y-104163332D02*
X134382667Y-104563332D01*
X148405332Y-84773333D02*
X148438666Y-84740000D01*
X148505332Y-84706667D01*
X148671999Y-84706667D01*
X148738666Y-84740000D01*
X148771999Y-84773333D01*
X148805332Y-84840000D01*
X148805332Y-84906667D01*
X148771999Y-85006667D01*
X148371999Y-85406667D01*
X148805332Y-85406667D01*
X149071999Y-85373333D02*
X149171999Y-85406667D01*
X149338666Y-85406667D01*
X149405333Y-85373333D01*
X149438666Y-85340000D01*
X149471999Y-85273333D01*
X149471999Y-85206667D01*
X149438666Y-85140000D01*
X149405333Y-85106667D01*
X149338666Y-85073333D01*
X149205333Y-85040000D01*
X149138666Y-85006667D01*
X149105333Y-84973333D01*
X149071999Y-84906667D01*
X149071999Y-84840000D01*
X149105333Y-84773333D01*
X149138666Y-84740000D01*
X149205333Y-84706667D01*
X149371999Y-84706667D01*
X149471999Y-84740000D01*
X150172000Y-85340000D02*
X150138666Y-85373333D01*
X150038666Y-85406667D01*
X149972000Y-85406667D01*
X149872000Y-85373333D01*
X149805333Y-85306667D01*
X149772000Y-85240000D01*
X149738666Y-85106667D01*
X149738666Y-85006667D01*
X149772000Y-84873333D01*
X149805333Y-84806667D01*
X149872000Y-84740000D01*
X149972000Y-84706667D01*
X150038666Y-84706667D01*
X150138666Y-84740000D01*
X150172000Y-84773333D01*
X150838666Y-85406667D02*
X150438666Y-85406667D01*
X150638666Y-85406667D02*
X150638666Y-84706667D01*
X150572000Y-84806667D01*
X150505333Y-84873333D01*
X150438666Y-84906667D01*
X151172000Y-85406667D02*
X151305333Y-85406667D01*
X151372000Y-85373333D01*
X151405333Y-85340000D01*
X151472000Y-85240000D01*
X151505333Y-85106667D01*
X151505333Y-84840000D01*
X151472000Y-84773333D01*
X151438667Y-84740000D01*
X151372000Y-84706667D01*
X151238667Y-84706667D01*
X151172000Y-84740000D01*
X151138667Y-84773333D01*
X151105333Y-84840000D01*
X151105333Y-85006667D01*
X151138667Y-85073333D01*
X151172000Y-85106667D01*
X151238667Y-85140000D01*
X151372000Y-85140000D01*
X151438667Y-85106667D01*
X151472000Y-85073333D01*
X151505333Y-85006667D01*
X152105334Y-84940000D02*
X152105334Y-85406667D01*
X151938667Y-84673333D02*
X151772000Y-85173333D01*
X152205334Y-85173333D01*
X152838667Y-85406667D02*
X152438667Y-85406667D01*
X152638667Y-85406667D02*
X152638667Y-84706667D01*
X152572001Y-84806667D01*
X152505334Y-84873333D01*
X152438667Y-84906667D01*
X116863332Y-80963333D02*
X116896666Y-80930000D01*
X116963332Y-80896667D01*
X117129999Y-80896667D01*
X117196666Y-80930000D01*
X117229999Y-80963333D01*
X117263332Y-81030000D01*
X117263332Y-81096667D01*
X117229999Y-81196667D01*
X116829999Y-81596667D01*
X117263332Y-81596667D01*
X117529999Y-81563333D02*
X117629999Y-81596667D01*
X117796666Y-81596667D01*
X117863333Y-81563333D01*
X117896666Y-81530000D01*
X117929999Y-81463333D01*
X117929999Y-81396667D01*
X117896666Y-81330000D01*
X117863333Y-81296667D01*
X117796666Y-81263333D01*
X117663333Y-81230000D01*
X117596666Y-81196667D01*
X117563333Y-81163333D01*
X117529999Y-81096667D01*
X117529999Y-81030000D01*
X117563333Y-80963333D01*
X117596666Y-80930000D01*
X117663333Y-80896667D01*
X117829999Y-80896667D01*
X117929999Y-80930000D01*
X118196666Y-81396667D02*
X118530000Y-81396667D01*
X118130000Y-81596667D02*
X118363333Y-80896667D01*
X118596666Y-81596667D01*
X119196666Y-81596667D02*
X118796666Y-81596667D01*
X118996666Y-81596667D02*
X118996666Y-80896667D01*
X118930000Y-80996667D01*
X118863333Y-81063333D01*
X118796666Y-81096667D01*
X119630000Y-80896667D02*
X119696667Y-80896667D01*
X119763333Y-80930000D01*
X119796667Y-80963333D01*
X119830000Y-81030000D01*
X119863333Y-81163333D01*
X119863333Y-81330000D01*
X119830000Y-81463333D01*
X119796667Y-81530000D01*
X119763333Y-81563333D01*
X119696667Y-81596667D01*
X119630000Y-81596667D01*
X119563333Y-81563333D01*
X119530000Y-81530000D01*
X119496667Y-81463333D01*
X119463333Y-81330000D01*
X119463333Y-81163333D01*
X119496667Y-81030000D01*
X119530000Y-80963333D01*
X119563333Y-80930000D01*
X119630000Y-80896667D01*
X120530000Y-81596667D02*
X120130000Y-81596667D01*
X120330000Y-81596667D02*
X120330000Y-80896667D01*
X120263334Y-80996667D01*
X120196667Y-81063333D01*
X120130000Y-81096667D01*
X121130001Y-80896667D02*
X120996667Y-80896667D01*
X120930001Y-80930000D01*
X120896667Y-80963333D01*
X120830001Y-81063333D01*
X120796667Y-81196667D01*
X120796667Y-81463333D01*
X120830001Y-81530000D01*
X120863334Y-81563333D01*
X120930001Y-81596667D01*
X121063334Y-81596667D01*
X121130001Y-81563333D01*
X121163334Y-81530000D01*
X121196667Y-81463333D01*
X121196667Y-81296667D01*
X121163334Y-81230000D01*
X121130001Y-81196667D01*
X121063334Y-81163333D01*
X120930001Y-81163333D01*
X120863334Y-81196667D01*
X120830001Y-81230000D01*
X120796667Y-81296667D01*
X121496668Y-81596667D02*
X121496668Y-80896667D01*
X121896668Y-81596667D02*
X121596668Y-81196667D01*
X121896668Y-80896667D02*
X121496668Y-81296667D01*
M02*
